#N canvas 0 28 1251 688 10;
#X declare;
#X floatatom -37 622 5 0 0 0 - - -;
#X obj -97 557 bng 15 250 50 0 empty empty empty 17 7 0 10 -262144
-1 -1;
#X obj -102 616 counter 8;
#X obj -102 639 sel 7;
#X obj -97 397 sinc-audioanalise;
#X obj 454 152 r nota;
#X obj 38 4 comment 0 36 Courier ? 0 0 0 0 Sincopa;
#X obj 40 34 comment 0 18 Courier ? 0 0 0 0 figocris@gmail.com;
#X obj 203 394 sinc-sample;
#X obj 454 176 sinc-calc_ritmo;
#X obj 771 643 sinc-notacao;
#X obj 770 395 sinc-mixer;
#X obj 202 579 send~ sample;
#X obj 618 294 s array_dur;
#X obj -102 663 s reset;
#X obj 858 617 r pitch_sai;
#X obj 42 600 s pitch_entra;
#X obj 771 616 r pitch_entra;
#X obj 261 222 sinc-audioin;
#X obj 357 368 send~ in;
#X obj -23 591 s pausa;
#X obj 509 296 s estabilidade;
#X obj 757 195 sinc-gera_sintese;
#X obj 757 171 r nota;
#X obj 803 173 r reset;
#X obj 892 171 r pausa;
#X obj 943 171 r amp;
#X obj -37 644 s amp;
#X obj 985 168 r~ sample;
#X obj 747 39 sinc-harmonia;
#X obj 845 17 hradio 15 1 0 8 empty empty empty 0 -8 0 10 -262144 -1
-1 0;
#X obj 747 14 r nota;
#X obj 747 149 s~ harmonia;
#X obj 892 342 r~ harmonia;
#X floatatom 30 621 5 0 0 0 - - -;
#X obj 30 645 s nota;
#X obj 453 62 sinc-permeabilidade;
#X obj 455 33 r nota;
#X obj 644 40 r pausa;
#X obj 590 154 s permeabilidade;
#X obj 904 361 r~ sintese;
#X obj 989 319 s~ sintese;
#N canvas 41 134 1154 583 geradores 0;
#X obj 312 349 bng 15 250 50 0 empty empty empty 17 7 0 10 -262144
-1 -1;
#X obj 436 224 t b b;
#X obj 436 60 r nota;
#X obj 157 345 r nota;
#X obj 506 387 sinc-gera_dinamica;
#X obj 157 370 sinc-gera_melodico;
#X obj 436 96 sinc-gera_ritmo;
#X obj 234 346 r reset;
#X obj 508 60 r array_dur;
#X obj 506 359 r nota;
#X obj 615 346 r reset;
#X obj 654 233 s dur;
#X obj 724 528 s vel;
#X obj 273 522 s nota_sai;
#X obj 390 512 s pitch_sai;
#X obj 654 63 r reset;
#X obj 560 327 r amp;
#X obj 758 288 cnv 15 260 100 empty empty MIDI_out 20 12 0 14 -204786
-66577 0;
#X obj 848 330 play2;
#X floatatom 848 309 4 0 0 2 note - -;
#X floatatom 924 308 5 0 0 2 dur - -;
#X floatatom 886 308 4 0 0 2 vel - -;
#X msg 766 335 50 100 1000;
#X obj 766 363 unpack f f f;
#X obj 924 272 r dur;
#X obj 885 272 r vel;
#X obj 848 248 r nota_sai;
#X obj 691 104 bng 15 250 50 0 empty empty empty 17 7 0 10 -262144
-1 -1;
#X connect 0 0 5 2;
#X connect 1 0 0 0;
#X connect 1 1 4 3;
#X connect 2 0 6 0;
#X connect 3 0 5 0;
#X connect 4 2 12 0;
#X connect 5 1 13 0;
#X connect 5 2 14 0;
#X connect 6 0 1 0;
#X connect 6 1 11 0;
#X connect 7 0 5 1;
#X connect 8 0 6 1;
#X connect 9 0 4 0;
#X connect 10 0 4 2;
#X connect 15 0 6 3;
#X connect 15 0 27 0;
#X connect 16 0 4 1;
#X connect 19 0 18 0;
#X connect 20 0 18 2;
#X connect 21 0 18 1;
#X connect 22 0 23 0;
#X connect 23 0 19 0;
#X connect 23 1 21 0;
#X connect 23 2 20 0;
#X connect 24 0 20 0;
#X connect 25 0 21 0;
#X connect 26 0 19 0;
#X restore 986 39 pd geradores MIDI;
#X obj 454 317 sinc-dens_ritmica;
#X obj 454 392 send densidade;
#X obj 454 296 r nota;
#X obj 446 10 bng 15 250 50 0 empty empty empty 17 7 0 10 -262144 -1
-1;
#X obj 446 600 bng 15 250 50 0 empty empty empty 17 7 0 10 -262144
-1 -1;
#X obj 691 12 bng 15 250 50 0 empty empty empty 17 7 0 10 -262144 -1
-1;
#X obj 691 602 bng 15 250 50 0 empty empty empty 17 7 0 10 -262144
-1 -1;
#X obj -127 60 sinc-teclado;
#N canvas 553 247 552 277 switch~ 0;
#X obj 26 41 inlet~ soundfont;
#X obj 154 39 inlet~ entrada;
#X obj 267 35 inlet~ sample;
#X obj 25 167 *~;
#X obj 40 90 tgl 15 0 empty empty empty 17 7 0 10 -262144 -1 -1 0 1
;
#X obj 40 139 line;
#X msg 40 114 \$1 600;
#X obj 153 167 *~;
#X obj 168 95 tgl 15 0 empty empty empty 17 7 0 10 -262144 -1 -1 0
1;
#X obj 168 139 line;
#X msg 168 116 \$1 600;
#X obj 266 157 *~;
#X obj 281 83 tgl 15 0 empty empty empty 17 7 0 10 -262144 -1 -1 1
1;
#X obj 281 129 line;
#X msg 281 105 \$1 600;
#X obj 117 224 outlet~;
#X obj 404 85 tgl 15 0 empty empty sf 5 -5 0 10 -262144 -1 -1 0 1;
#X obj 426 83 tgl 15 0 empty empty in 8 -5 0 10 -262144 -1 -1 0 1;
#X obj 454 83 tgl 15 0 empty empty sample -5 -5 0 10 -262144 -1 -1
1 1;
#X connect 0 0 3 0;
#X connect 1 0 7 0;
#X connect 2 0 11 0;
#X connect 3 0 15 0;
#X connect 4 0 6 0;
#X connect 5 0 3 1;
#X connect 6 0 5 0;
#X connect 7 0 15 0;
#X connect 8 0 10 0;
#X connect 9 0 7 1;
#X connect 10 0 9 0;
#X connect 11 0 15 0;
#X connect 12 0 14 0;
#X connect 13 0 11 1;
#X connect 14 0 13 0;
#X connect 16 0 4 0;
#X connect 17 0 8 0;
#X connect 18 0 12 0;
#X coords 0 -1 1 1 85 40 1 400 60;
#X restore -96 347 pd switch~;
#X obj -58 324 r~ in;
#X obj -17 324 r~ sample;
#X obj 105 227 sinc-controle_teclado;
#X obj 1010 107 sinc-looper4;
#X obj 1034 239 sinc-fx;
#X symbolatom -127 218 10 0 0 0 - - -;
#X obj 454 471 sinc-cenarios ------------------------;
#X obj 277 12 import;
#X text 466 664 saída de áudio do sf deve ser pelo rosegarden;
#X obj 253 368 send~ sf_qsynth;
#X obj -95 293 r~ sf_qsynth;
#X text 323 11 ver quais libs;
#X obj 1035 259 s~ fx;
#X obj 1035 216 r~ in;
#X obj 1011 86 r~ in;
#X obj 1011 129 s~ loop;
#X obj 814 323 r~ sf_qsynth;
#X obj 749 346 r~ sample;
#X obj 770 367 r~ in;
#X obj 831 342 r~ fx;
#X obj 841 362 r~ loop;
#X obj 454 422 r estabilidade;
#X obj 510 442 r densidade;
#X obj 566 422 r permeabilidade;
#X obj 622 442 r amp;
#X connect 0 0 27 0;
#X connect 1 0 2 0;
#X connect 2 0 3 0;
#X connect 3 0 14 0;
#X connect 4 0 1 0;
#X connect 4 2 0 0;
#X connect 4 3 20 0;
#X connect 4 4 34 0;
#X connect 4 5 16 0;
#X connect 5 0 9 0;
#X connect 8 0 12 0;
#X connect 9 0 21 0;
#X connect 9 1 13 0;
#X connect 15 0 10 1;
#X connect 17 0 10 0;
#X connect 18 0 61 0;
#X connect 18 1 19 0;
#X connect 22 1 41 0;
#X connect 23 0 22 0;
#X connect 24 0 22 1;
#X connect 25 0 22 3;
#X connect 26 0 22 4;
#X connect 28 0 22 5;
#X connect 29 0 32 0;
#X connect 30 0 29 1;
#X connect 31 0 29 0;
#X connect 33 0 11 2;
#X connect 34 0 35 0;
#X connect 36 1 39 0;
#X connect 37 0 36 0;
#X connect 38 0 36 1;
#X connect 40 0 11 2;
#X connect 43 0 44 0;
#X connect 45 0 43 0;
#X connect 46 0 47 0;
#X connect 48 0 49 0;
#X connect 50 0 57 0;
#X connect 51 0 4 0;
#X connect 52 0 51 1;
#X connect 53 0 51 2;
#X connect 55 0 67 0;
#X connect 56 0 64 0;
#X connect 62 0 51 0;
#X connect 65 0 56 0;
#X connect 66 0 55 0;
#X connect 68 0 11 1;
#X connect 69 0 11 0;
#X connect 70 0 11 0;
#X connect 71 0 11 1;
#X connect 72 0 11 1;
#X connect 73 0 58 0;
#X connect 74 0 58 1;
#X connect 75 0 58 2;
#X connect 76 0 58 3;
