#N canvas 66 142 450 314 10;
#X obj 163 27 keyboard;
#X obj 163 150 makenote 60;
#X obj 163 58 unpack f f;
#X obj 220 85 sel 0 1;
#X obj 239 118 timer;
#X msg 194 119 70;
#X obj 324 33 vradio 15 1 0 8 empty empty canal 0 -8 0 10 -262144 -1
-1 0;
#X obj 362 132 metro 500;
#X obj 361 104 tgl 15 0 empty empty empty 17 7 0 10 -262144 -1 -1 0
1;
#X msg 364 157 80 100 1;
#X obj 163 92 spigot;
#X floatatom 314 199 5 0 0 0 - - -;
#X obj 163 254 noteout 7;
#X obj 46 229 pack f f;
#X obj 45 259 outlet;
#X connect 0 0 2 0;
#X connect 1 0 12 0;
#X connect 1 0 13 0;
#X connect 1 1 12 1;
#X connect 1 1 13 1;
#X connect 2 0 10 0;
#X connect 2 1 3 0;
#X connect 2 1 10 1;
#X connect 3 0 4 1;
#X connect 3 1 4 0;
#X connect 4 0 1 2;
#X connect 5 0 1 1;
#X connect 6 0 11 0;
#X connect 6 0 12 2;
#X connect 7 0 9 0;
#X connect 8 0 7 0;
#X connect 9 0 12 0;
#X connect 10 0 1 0;
#X connect 13 0 14 0;
