#N canvas -29 24 1202 732 10;
#N canvas 128 116 1152 908 algoritmos_generativos 0;
#X obj 376 751 sinc-gera_melodico;
#X obj 862 498 sinc-gera_ritmo;
#X obj 911 203 sinc-calc_ritmo;
#X obj 612 170 unpack f f;
#X floatatom 669 198 5 0 0 0 - - -;
#X obj 669 220 sel 1;
#X obj 835 371 bng 15 250 50 0 empty empty empty 17 7 0 10 -262144
-1 -1;
#X obj 726 747 sinc-gera_dinamica;
#X obj 862 639 t b b;
#X obj 732 630 random 127;
#X obj 35 671 cnv 15 260 100 empty empty MIDI_out_geradores -50 12
0 14 -204786 -66577 0;
#X obj 125 713 play2;
#X floatatom 125 692 4 0 0 2 note - -;
#X floatatom 201 691 5 0 0 2 dur - -;
#X floatatom 163 691 4 0 0 2 vel - -;
#X msg 43 718 50 100 1000;
#X obj 43 746 unpack f f f;
#X obj 201 655 r dur;
#X obj 162 655 r vel;
#X obj 125 631 r nota_sai;
#X msg 250 672 2;
#X obj 233 636 loadbang;
#X obj 491 879 s nota_sai;
#X obj 934 870 s vel;
#X obj 1080 630 s dur;
#X obj 597 309 f;
#X obj 612 142 spigot;
#X obj 4 213 metro;
#X obj 4 237 counter;
#X floatatom 4 263 5 0 0 0 - - -;
#X obj 4 189 tgl 15 0 empty empty empty 17 7 0 10 -262144 -1 -1 1 1
;
#X floatatom 4 328 5 0 0 0 - - -;
#X floatatom 104 325 5 0 0 0 - - -;
#X text -14 357 atividade;
#X floatatom 199 386 5 0 0 0 - - -;
#X text 120 351 pausa;
#X text 123 615 parou de tocar;
#X floatatom 1007 325 5 0 0 0 - - -;
#X obj 1007 354 sel 1;
#X obj 1040 421 random 3;
#X msg 1007 437 0;
#X obj 1041 443 + 1;
#X obj 1007 390 bng 15 250 50 0 empty empty empty 17 7 0 10 -262144
-1 -1;
#X obj 1040 388 bng 15 250 50 0 empty empty empty 17 7 0 10 -262144
-1 -1;
#X obj 278 573 line;
#X msg 4 432 0.5 1000;
#X obj 104 429 bng 15 250 50 0 empty empty empty 17 7 0 10 -262144
-1 -1;
#X obj 281 600 hsl 128 15 0 1 0 0 empty empty empty -2 -8 0 10 -262144
-1 -1 0 1;
#X obj 4 365 speedlim 100;
#X obj 104 403 speedlim 100;
#X obj 199 423 speedlim 100;
#X obj 199 452 bng 15 250 50 0 empty empty empty 17 7 0 10 -262144
-1 -1;
#X msg 104 451 1 500;
#X obj 104 351 moses 4000;
#X msg 199 482 0 2000;
#X obj 398 503 sinc-permeabilidade;
#X obj 611 604 moses 4;
#X obj 650 628 bng 15 250 50 0 empty empty empty 17 7 0 10 -262144
-1 -1;
#X msg 609 647 0;
#X obj 611 628 bng 15 250 50 0 empty empty empty 17 7 0 10 -262144
-1 -1;
#X floatatom 609 705 5 0 0 0 - - -;
#X obj 650 652 random 3;
#X obj 650 674 + 1;
#X obj 383 298 -;
#X obj 385 259 t f f;
#X floatatom 386 331 5 0 0 0 - - -;
#X obj 386 364 abs;
#X floatatom 385 388 5 0 0 0 - - -;
#X obj 612 43 inlet;
#X obj 645 69 inlet;
#X obj 4 285 moses 800;
#X obj 4 396 bng 15 250 50 0 empty empty empty 17 7 0 10 -262144 -1
-1;
#X connect 0 1 22 0;
#X connect 1 0 8 0;
#X connect 1 1 24 0;
#X connect 2 1 37 0;
#X connect 2 2 1 1;
#X connect 3 0 25 1;
#X connect 3 1 4 0;
#X connect 4 0 5 0;
#X connect 5 0 6 0;
#X connect 5 0 9 0;
#X connect 5 0 25 0;
#X connect 5 0 28 2;
#X connect 6 0 2 0;
#X connect 6 0 1 0;
#X connect 6 0 1 3;
#X connect 7 2 23 0;
#X connect 8 0 0 2;
#X connect 8 1 7 3;
#X connect 9 0 7 1;
#X connect 12 0 11 0;
#X connect 13 0 11 2;
#X connect 14 0 11 1;
#X connect 15 0 16 0;
#X connect 16 0 12 0;
#X connect 16 1 14 0;
#X connect 16 2 13 0;
#X connect 17 0 13 0;
#X connect 18 0 14 0;
#X connect 19 0 12 0;
#X connect 20 0 11 4;
#X connect 21 0 20 0;
#X connect 25 0 0 0;
#X connect 25 0 55 0;
#X connect 25 0 64 0;
#X connect 26 0 3 0;
#X connect 27 0 28 0;
#X connect 28 0 29 0;
#X connect 29 0 70 0;
#X connect 30 0 27 0;
#X connect 31 0 48 0;
#X connect 32 0 53 0;
#X connect 34 0 50 0;
#X connect 37 0 38 0;
#X connect 38 0 42 0;
#X connect 38 1 43 0;
#X connect 39 0 41 0;
#X connect 40 0 1 2;
#X connect 41 0 1 2;
#X connect 42 0 40 0;
#X connect 43 0 39 0;
#X connect 44 0 47 0;
#X connect 45 0 44 0;
#X connect 46 0 52 0;
#X connect 47 0 11 5;
#X connect 48 0 71 0;
#X connect 49 0 46 0;
#X connect 50 0 51 0;
#X connect 51 0 54 0;
#X connect 52 0 44 0;
#X connect 53 0 49 0;
#X connect 53 1 34 0;
#X connect 54 0 44 0;
#X connect 55 1 56 0;
#X connect 56 0 59 0;
#X connect 56 1 57 0;
#X connect 57 0 61 0;
#X connect 58 0 60 0;
#X connect 59 0 58 0;
#X connect 60 0 0 3;
#X connect 61 0 62 0;
#X connect 62 0 60 0;
#X connect 63 0 65 0;
#X connect 64 0 63 1;
#X connect 64 1 63 0;
#X connect 65 0 66 0;
#X connect 66 0 67 0;
#X connect 68 0 26 0;
#X connect 69 0 26 1;
#X connect 70 0 31 0;
#X connect 70 1 32 0;
#X connect 71 0 45 0;
#X restore 225 433 pd algoritmos_generativos;
#X obj 508 -167 sinc-teclado;
#X obj 372 367 tgl 50 0 empty empty empty 17 7 0 10 -261682 -1 -1 0
1;
#N canvas 209 88 964 771 sintese 0;
#X obj 319 624 vline~;
#X obj 50 660 *~;
#X obj 51 711 dac~;
#X obj 50 533 osc~ 400;
#X obj 49 466 +~;
#X obj 329 700 metro 100;
#X obj 329 675 tgl 15 0 empty empty empty 17 7 0 10 -262144 -1 -1 1
1;
#N canvas 0 0 450 300 (subpatch) 0;
#X array \$0-array1 100 float 3;
#A 0 0 0 0 0 0 0 0 0 0 0 0 0 0 0 0 0 0 0 0 0 0 0 0 0 0 0 0 0 0 0 0
0 0 0 0 0 0 0 0 0 0 0 0 0 0 0 0 0 0 0 0 0 0 0 0 0 0 0 0 0 0 0 0 0 0
0 0 0 0 0 0 0 0 0 0 0 0 0 0 0 0 0 0 0 0 0 0 0 0 0 0 0 0 0 0 0 0 0 0
0;
#X coords 0 1 99 -1 200 140 1;
#X restore 536 612 graph;
#X obj 49 412 *~;
#X obj 49 350 phasor~;
#X floatatom 162 386 5 0 0 0 - - -;
#X obj 329 724 tabwrite~ \$0-array1;
#X obj 732 137 switch~;
#X obj 732 113 tgl 15 0 empty empty empty 17 7 0 10 -262144 -1 -1 0
1;
#X obj 347 527 random 1000;
#X obj 428 528 random 1500;
#X obj 320 555 f;
#X obj 319 578 pack f f;
#X floatatom 166 325 5 0 0 0 - - -;
#X obj 616 140 unpack f f;
#X floatatom 673 168 5 0 0 0 - - -;
#X obj 673 190 sel 1;
#X obj 601 279 f;
#X obj 616 112 spigot;
#X obj 708 390 -;
#X obj 710 351 t f f;
#X floatatom 708 423 5 0 0 0 - - -;
#X obj 708 456 abs;
#X floatatom 708 480 5 0 0 0 - - -;
#X obj 616 13 inlet;
#X obj 649 39 inlet;
#X obj 619 541 s mod_amp;
#X obj 166 264 r mod_amp;
#X obj 320 328 bng 15 250 50 0 empty empty empty 17 7 0 10 -262144
-1 -1;
#X obj 619 515 scale.linear 1 20 0 2000;
#X obj 320 419 t b b;
#X obj 162 414 mtof;
#X obj 795 539 s mod_freq;
#X obj 49 267 r mod_freq;
#X obj 795 513 scale.linear 1 20 0 600;
#X floatatom 80 312 5 0 0 0 - - -;
#X msg 319 602 0 \, 0.3 \$1 0 \, 0 \$2 \$1;
#X connect 0 0 1 1;
#X connect 1 0 2 0;
#X connect 1 0 2 1;
#X connect 1 0 11 0;
#X connect 3 0 1 0;
#X connect 4 0 3 0;
#X connect 5 0 11 0;
#X connect 6 0 5 0;
#X connect 8 0 4 0;
#X connect 9 0 8 0;
#X connect 10 0 36 0;
#X connect 13 0 12 0;
#X connect 14 0 16 1;
#X connect 15 0 17 1;
#X connect 16 0 17 0;
#X connect 17 0 41 0;
#X connect 18 0 8 1;
#X connect 19 0 22 1;
#X connect 19 1 20 0;
#X connect 20 0 21 0;
#X connect 21 0 22 0;
#X connect 21 0 33 0;
#X connect 22 0 25 0;
#X connect 22 0 10 0;
#X connect 23 0 19 0;
#X connect 24 0 26 0;
#X connect 25 0 24 1;
#X connect 25 1 24 0;
#X connect 26 0 27 0;
#X connect 27 0 28 0;
#X connect 28 0 34 0;
#X connect 28 0 39 0;
#X connect 29 0 23 0;
#X connect 30 0 23 1;
#X connect 30 0 13 0;
#X connect 32 0 18 0;
#X connect 33 0 35 0;
#X connect 34 0 31 0;
#X connect 35 0 16 0;
#X connect 35 1 14 0;
#X connect 35 1 15 0;
#X connect 36 0 4 1;
#X connect 38 0 9 0;
#X connect 38 0 40 0;
#X connect 39 0 37 0;
#X connect 41 0 0 0;
#X restore 55 433 pd sintese interativa;
#X obj 178 369 tgl 50 0 empty empty empty 17 7 0 10 -261234 -1 -1 0
1;
#N canvas 89 24 803 697 controle 0;
#X obj 242 21 keyname;
#X symbolatom 337 76 10 0 0 0 - - -;
#X obj 235 153 spigot;
#X obj 235 202 sel Escape;
#X floatatom 235 301 5 0 0 0 - - -;
#X obj 235 344 sel 0 1 2 3;
#X msg 81 508 1;
#X msg 153 509 0;
#X msg 225 513 1;
#X msg 287 513 0;
#X msg 356 526 1;
#X msg 414 521 0;
#X msg 492 533 1;
#X msg 590 532 0;
#X obj 235 250 counter 3;
#X obj 112 558 tgl 15 0 empty empty empty 17 7 0 10 -262144 -1 -1 0
1;
#X obj 233 568 tgl 15 0 empty empty empty 17 7 0 10 -262144 -1 -1 0
1;
#X obj 377 580 tgl 15 0 empty empty empty 17 7 0 10 -262144 -1 -1 1
1;
#X obj 520 579 tgl 15 0 empty empty empty 17 7 0 10 -262144 -1 -1 0
1;
#X obj 113 606 s um;
#X obj 236 609 s dois;
#X obj 390 611 s tres;
#X obj 546 616 s quatro;
#X obj 71 658 outlet;
#X obj 195 653 outlet;
#X obj 340 648 outlet;
#X obj 505 650 outlet;
#X connect 0 0 2 1;
#X connect 0 1 1 0;
#X connect 1 0 2 0;
#X connect 2 0 3 0;
#X connect 3 0 14 0;
#X connect 4 0 5 0;
#X connect 5 0 6 0;
#X connect 5 0 9 0;
#X connect 5 0 11 0;
#X connect 5 0 13 0;
#X connect 5 1 7 0;
#X connect 5 1 8 0;
#X connect 5 1 11 0;
#X connect 5 1 13 0;
#X connect 5 2 7 0;
#X connect 5 2 9 0;
#X connect 5 2 10 0;
#X connect 5 2 13 0;
#X connect 5 3 7 0;
#X connect 5 3 9 0;
#X connect 5 3 11 0;
#X connect 5 3 12 0;
#X connect 6 0 15 0;
#X connect 7 0 15 0;
#X connect 8 0 16 0;
#X connect 9 0 16 0;
#X connect 10 0 17 0;
#X connect 11 0 17 0;
#X connect 12 0 18 0;
#X connect 13 0 18 0;
#X connect 14 0 4 0;
#X connect 15 0 19 0;
#X connect 15 0 23 0;
#X connect 16 0 20 0;
#X connect 16 0 24 0;
#X connect 17 0 21 0;
#X connect 17 0 25 0;
#X connect 18 0 22 0;
#X connect 18 0 26 0;
#X restore 313 -146 pd controle pedal global;
#X obj 219 9 keyname;
#X obj 265 129 sel Control_L Space Control_R Delete;
#X obj 265 69 spigot;
#X obj 322 -13 tgl 40 0 empty empty empty 17 7 0 10 -258113 -1 -1 1
1;
#X obj 216 199 bng 15 250 50 0 empty empty empty 17 7 0 10 -262144
-1 -1;
#X obj 265 100 spigot;
#X obj 265 35 t s b b b b b b b b b;
#X obj 154 193 bng 15 250 50 0 empty empty empty 17 7 0 10 -262144
-1 -1;
#X obj 322 -60 r dois;
#X text 23 15 Delete = liga efeito;
#X obj 124 256 sinc-alternate;
#X msg 125 292 1;
#X msg 205 289 0;
#X text 24 -136 Control_L = liga fm interativa;
#X text 23 -104 Space = liga alg interativos;
#X obj 238 258 sinc-alternate;
#X msg 238 292 1;
#X msg 319 287 0;
#X obj 432 342 sinc-midilive;
#N canvas 228 43 678 498 sel 0;
#X obj 234 76 bng 15 250 50 0 empty empty empty 17 7 0 10 -262144 -1
-1;
#X msg 164 255 record \$1;
#X obj 164 234 bng 15 250 50 0 empty empty empty 17 7 0 10 -262144
-1 -1;
#X obj 269 196 t b b b b;
#X msg 432 261 stop_record \$1;
#X msg 362 258 salva \$1;
#X msg 301 254 abre \$1;
#X obj 234 108 f;
#X obj 303 95 + 1;
#X obj 234 138 sel 0 1 2;
#X msg 357 152 0;
#X msg 235 258 play \$1;
#X msg 593 254 stop \$1;
#X obj 234 339 t a;
#X obj 234 382 outlet;
#X obj 234 15 inlet;
#X obj 106 132 nbx 2 14 -1e+37 1e+37 0 0 empty empty empty 0 -8 0 40
-262144 -1 -1 0 256;
#X obj 582 402 outlet;
#X obj 562 337 sel 0 1 2;
#X msg 563 360 1;
#X msg 601 360 0;
#X connect 0 0 7 0;
#X connect 1 0 13 0;
#X connect 2 0 1 0;
#X connect 3 0 11 0;
#X connect 3 1 6 0;
#X connect 3 2 5 0;
#X connect 3 3 4 0;
#X connect 4 0 13 0;
#X connect 5 0 13 0;
#X connect 6 0 13 0;
#X connect 7 0 8 0;
#X connect 7 0 9 0;
#X connect 7 0 16 0;
#X connect 7 0 18 0;
#X connect 8 0 7 1;
#X connect 9 0 2 0;
#X connect 9 1 3 0;
#X connect 9 2 10 0;
#X connect 9 2 12 0;
#X connect 10 0 7 1;
#X connect 11 0 13 0;
#X connect 12 0 13 0;
#X connect 13 0 14 0;
#X connect 15 0 0 0;
#X connect 18 0 19 0;
#X connect 18 1 19 0;
#X connect 18 2 20 0;
#X connect 19 0 17 0;
#X connect 20 0 17 0;
#X coords 0 -1 1 1 85 60 1 100 100;
#X restore 371 176 pd sel midilive;
#X text 165 -69 0 = começa a gravar;
#X text 167 -45 1 = para e começa o loop;
#X text 168 -27 2 = stop;
#X text 23 -70 Control_R = midi loop;
#X obj 499 241 tgl 50 0 empty empty empty 17 7 0 10 -262130 -1 -1 1
1;
#X obj 772 412 sinc-harmonia;
#X obj 763 528 dac~;
#X obj 787 315 unpack f f;
#X floatatom 844 349 5 0 0 0 - - -;
#X obj 772 343 sel 1;
#X obj 772 385 f;
#X obj 787 284 spigot;
#X obj 820 218 tgl 50 0 empty empty empty 17 7 0 10 -204786 -1 -1 1
1;
#X obj 620 180 bng 15 250 50 0 empty empty empty 17 7 0 10 -262144
-1 -1;
#X obj 620 206 sinc-alternate;
#X msg 620 234 1;
#X msg 701 239 0;
#X connect 1 1 0 0;
#X connect 1 1 3 0;
#X connect 1 1 24 2;
#X connect 1 1 37 0;
#X connect 2 0 0 1;
#X connect 4 0 3 1;
#X connect 6 0 11 1;
#X connect 6 1 12 0;
#X connect 7 0 13 0;
#X connect 7 1 10 0;
#X connect 7 2 25 0;
#X connect 7 3 39 0;
#X connect 8 0 11 0;
#X connect 9 0 8 1;
#X connect 10 0 21 0;
#X connect 11 0 7 0;
#X connect 12 0 8 0;
#X connect 13 0 16 0;
#X connect 14 0 9 0;
#X connect 16 0 17 0;
#X connect 16 1 18 0;
#X connect 17 0 4 0;
#X connect 18 0 4 0;
#X connect 21 0 22 0;
#X connect 21 1 23 0;
#X connect 22 0 2 0;
#X connect 23 0 2 0;
#X connect 25 0 24 0;
#X connect 25 1 30 0;
#X connect 31 0 32 0;
#X connect 31 0 32 1;
#X connect 33 0 36 1;
#X connect 33 1 34 0;
#X connect 34 0 35 0;
#X connect 35 0 36 0;
#X connect 35 0 34 0;
#X connect 36 0 31 0;
#X connect 37 0 33 0;
#X connect 38 0 37 1;
#X connect 39 0 40 0;
#X connect 40 0 41 0;
#X connect 40 1 42 0;
#X connect 41 0 38 0;
#X connect 42 0 38 0;
