#N canvas 406 112 942 702 16;
#X text 348 12 análise de áudio;
#X obj 59 213 sinc-audioanalise;
#X obj 58 11 sinc-sample;
#X obj 290 248 ezdac~;
#X floatatom 113 463 5 0 0 0 - - -;
#X obj 113 421 dbtorms;
#X floatatom 229 428 5 0 0 0 - - -;
#X obj 116 499 hsl 128 15 0 1 0 0 empty empty empty -2 -8 0 10 -262144
-1 -1 0 1;
#X obj 113 532 * 10;
#X obj 116 578 hsl 128 15 0 1 0 0 empty empty empty -2 -8 0 10 -262144
-1 -1 0 1;
#X floatatom 269 580 5 0 0 0 - - -;
#X obj 592 611 gemwin;
#X msg 588 547 create \, 1;
#X msg 611 581 0 \, destroy;
#X obj 605 88 gemhead;
#X obj 605 294 cube;
#X msg 627 212 draw line;
#X floatatom 661 251 5 0 0 0 - - -;
#X obj 271 463 / 100;
#X connect 1 2 5 0;
#X connect 1 2 6 0;
#X connect 2 0 1 0;
#X connect 2 0 3 0;
#X connect 2 0 3 1;
#X connect 4 0 7 0;
#X connect 5 0 4 0;
#X connect 6 0 18 0;
#X connect 7 0 8 0;
#X connect 8 0 9 0;
#X connect 8 0 10 0;
#X connect 10 0 17 0;
#X connect 12 0 11 0;
#X connect 13 0 11 0;
#X connect 14 0 15 0;
#X connect 16 0 15 0;
#X connect 17 0 15 1;
