#N canvas 8 24 1115 563 24;
#X text 94 42 fazer explicações e exemplos:;
#X text 30 90 1) mandar saída midi p rosegarden e salvar midi lá;
#X text 28 155 2) como funciona;
#N canvas 141 69 770 350 generate-notes 0;
#X obj 38 302 outlet;
#X obj 38 264 brown-melody 36 84 0.2;
#X obj 38 13 inlet;
#X obj 38 56 repchord-rhythm 100 1000 12 6 0.8 0.2;
#X obj 343 150 outlet;
#N canvas 163 93 386 307 dur 0;
#X obj 54 21 inlet;
#X obj 54 194 dur-from-ED;
#X obj 54 240 outlet;
#X obj 129 21 inlet;
#N canvas 180 93 515 382 dur-fact 0;
#X obj 31 285 outlet;
#X obj 31 87 pass 25;
#X obj 31 185 between 0 13;
#X obj 31 230 trans-log 0.25 4 12;
#X obj 31 43 inlet;
#X obj 179 104 between 10 100;
#X obj 31 145 t a a;
#X connect 1 0 6 0;
#X connect 2 0 3 0;
#X connect 3 0 0 0;
#X connect 4 0 1 0;
#X connect 5 0 1 1;
#X connect 6 0 2 0;
#X connect 6 1 5 0;
#X restore 205 148 pd dur-fact;
#X obj 54 95 t a a;
#X connect 0 0 5 0;
#X connect 1 0 2 0;
#X connect 3 0 1 1;
#X connect 4 0 1 2;
#X connect 5 0 1 0;
#X connect 5 1 4 0;
#X restore 343 109 pd dur;
#X obj 295 226 outlet;
#X obj 295 189 random-ramp 30 127 5 250 2000 12;
#X connect 1 0 0 0;
#X connect 2 0 3 0;
#X connect 3 0 1 0;
#X connect 3 2 7 0;
#X connect 3 2 5 0;
#X connect 3 3 5 1;
#X connect 5 0 4 0;
#X connect 7 0 6 0;
#X restore 92 238 pd generate-notes;
#X obj 92 211 tgl 15 0 empty empty empty 0 -6 0 8 -262144 -1 -1 0 1
;
#X floatatom 92 302 4 0 0 2 note - -;
#X floatatom 328 306 5 0 0 2 dur - -;
#X floatatom 210 303 4 0 0 2 vel - -;
#X obj 202 504 QT-PercPlayer;
#X obj 92 362 makenote \$1 \$2;
#X obj 92 511 noteout;
#X obj 327 467 chord;
#X symbolatom 360 511 30 0 0 0 - - -;
#X connect 3 0 5 0;
#X connect 3 1 7 0;
#X connect 3 2 6 0;
#X connect 4 0 3 0;
#X connect 5 0 9 0;
#X connect 6 0 9 2;
#X connect 7 0 9 1;
#X connect 9 0 10 0;
#X connect 9 0 8 0;
#X connect 9 0 11 0;
#X connect 9 1 10 1;
#X connect 9 1 8 1;
#X connect 9 1 11 1;
#X connect 11 2 12 0;
