#N canvas 0 0 970 484 10;
#X obj 170 371 translateXYZ;
#X obj 262 212 unpack 0 0 0;
#X obj 262 71 inlet;
#X obj 170 225 alpha;
#X obj 170 155 color 1 0.5 0 0.5;
#N canvas 0 22 474 324 rand_color 0;
#X obj 47 130 random 1000;
#X obj 48 171 * 0.001;
#X obj 131 130 random 1000;
#X obj 132 171 * 0.001;
#X obj 214 131 random 1000;
#X obj 215 172 * 0.001;
#X obj 46 83 t b b b;
#X obj 48 256 outlet;
#X obj 47 26 r init;
#X obj 49 217 pack 0 0 0 0.5;
#X connect 0 0 1 0;
#X connect 1 0 9 0;
#X connect 2 0 3 0;
#X connect 3 0 9 1;
#X connect 4 0 5 0;
#X connect 5 0 9 2;
#X connect 6 0 0 0;
#X connect 6 1 2 0;
#X connect 6 2 4 0;
#X connect 8 0 6 0;
#X connect 9 0 7 0;
#X restore 284 128 pd rand_color;
#X obj 301 155 t 1;
#X obj 170 398 circle 0.05;
#X floatatom 317 362 5 0 0 0 - - -;
#X obj 317 278 random 100;
#X obj 317 258 bng 15 250 50 0 empty empty empty 17 7 0 10 -262144
-1 -1;
#X obj 317 341 line;
#X obj 317 297 / 200;
#X obj 170 94 gemhead 49;
#X obj 426 62 prepend set;
#X msg 426 92 -0.606653 0.412152 0.645781;
#X msg 317 320 \$1 1000;
#X obj 523 266 sinc-escala-linear -4 4 0 127;
#X floatatom 523 291 5 0 0 0 - - -;
#X obj 523 311 int;
#X floatatom 523 330 5 0 0 0 - - -;
#X obj 523 366 makenote 60 500;
#X obj 723 266 sinc-escala-linear -4 4 0 127;
#X floatatom 723 291 5 0 0 0 - - -;
#X obj 523 420 noteout 3;
#X obj 523 238 speedlim 500;
#X obj 723 242 speedlim 500;
#X connect 0 0 7 0;
#X connect 1 0 0 1;
#X connect 1 0 10 0;
#X connect 1 0 25 0;
#X connect 1 1 0 2;
#X connect 1 1 26 0;
#X connect 1 2 0 3;
#X connect 2 0 1 0;
#X connect 2 0 14 0;
#X connect 3 0 0 0;
#X connect 4 0 3 0;
#X connect 5 0 4 1;
#X connect 5 0 6 0;
#X connect 6 0 3 1;
#X connect 8 0 7 1;
#X connect 9 0 12 0;
#X connect 10 0 9 0;
#X connect 11 0 8 0;
#X connect 12 0 16 0;
#X connect 13 0 4 0;
#X connect 14 0 15 0;
#X connect 16 0 11 0;
#X connect 17 0 18 0;
#X connect 18 0 19 0;
#X connect 19 0 20 0;
#X connect 20 0 21 0;
#X connect 21 0 24 0;
#X connect 21 1 24 1;
#X connect 22 0 23 0;
#X connect 23 0 21 1;
#X connect 25 0 17 0;
#X connect 26 0 22 0;
