#N canvas 169 38 624 445 10;
#X obj 112 112 unpack 0 0 0;
#X obj 112 61 inlet;
#X obj 276 52 prepend set;
#X msg 276 82 -0.227191 0.510672 0.419528;
#X obj 112 360 makenote 60 500;
#X obj 306 285 delay;
#X obj 306 307 bng 15 250 50 0 empty empty empty 17 7 0 10 -262144
-1 -1;
#X obj 112 267 scale.linear -4 4 0 127;
#X obj 306 157 scale.linear -4 4 100 1000;
#X obj 306 187 moses 125;
#X obj 372 185 moses 250;
#X obj 435 184 moses 500;
#X obj 497 182 moses 1000;
#X msg 306 213 125;
#X msg 372 210 250;
#X msg 435 211 500;
#X msg 497 210 750;
#X msg 554 210 1000;
#X obj 112 411 noteout \$1;
#X text 438 318 Argumento 1: Canal MIDI;
#X connect 0 0 7 0;
#X connect 0 1 8 0;
#X connect 1 0 0 0;
#X connect 1 0 2 0;
#X connect 2 0 3 0;
#X connect 4 0 18 0;
#X connect 4 1 18 1;
#X connect 5 0 6 0;
#X connect 6 0 4 1;
#X connect 7 0 4 0;
#X connect 8 0 9 0;
#X connect 9 0 13 0;
#X connect 9 1 10 0;
#X connect 10 0 14 0;
#X connect 10 1 11 0;
#X connect 11 0 15 0;
#X connect 11 1 12 0;
#X connect 12 0 16 0;
#X connect 12 1 17 0;
#X connect 13 0 5 0;
#X connect 14 0 5 0;
#X connect 15 0 5 0;
#X connect 16 0 5 0;
#X connect 17 0 5 0;
