#N canvas 132 24 744 687 10;
#X obj -631 -98 playlist .pd 400 630 {Helvetica 20 bold} #457782 yellow
black red;
#X msg -632 559 location /home/livre/sincopa/sinc_abs;
#X obj -317 538 s patch;
#X obj -266 538 s dir;
#X obj -631 538 loadbang;
#N canvas 0 0 450 300 browser 0;
#X obj 52 195 pack s s;
#X msg 52 217 \; pd open \$1 \$2;
#X symbolatom 52 97 50 0 0 0 - - -;
#X symbolatom 130 145 50 0 0 0 - - -;
#X obj 97 168 symbol;
#X obj 52 168 symbol;
#X obj 52 136 t b b a;
#X obj 52 71 r patch;
#X obj 130 121 r dir;
#X connect 0 0 1 0;
#X connect 2 0 6 0;
#X connect 3 0 4 1;
#X connect 4 0 0 1;
#X connect 5 0 0 0;
#X connect 6 0 5 0;
#X connect 6 1 4 0;
#X connect 6 2 5 1;
#X connect 7 0 2 0;
#X connect 8 0 3 0;
#X restore -317 559 pd browser;
#X obj -80 -39 comment 0 36 Courier ? 0 0 0 0 SInCoPA;
#X connect 0 1 2 0;
#X connect 0 2 3 0;
#X connect 1 0 0 0;
#X connect 4 0 1 0;
