#N canvas 136 29 855 639 10;
#X obj 91 270 colecao_vs_pitch;
#X obj -462 -34 abs-sampler-sf2;
#X obj 91 126 unpack f f;
#X floatatom 91 151 5 0 0 0 - - -;
#X obj 91 307 bng 15 250 50 0 empty empty empty 17 7 0 10 -262144 -1
-1;
#X obj 91 -56 tgl 15 0 empty empty empty 17 7 0 10 -262144 -1 -1 0
1;
#X obj 184 308 bng 15 250 50 0 empty empty empty 17 7 0 10 -262144
-1 -1;
#X text 189 331 não está;
#X text 91 330 está;
#X obj 91 182 spigot;
#N canvas 0 0 450 300 (subpatch) 0;
#X array \$0-nota 7 float 3;
#A 0 79 61 74 62 73 73 68;
#X coords 0 127 7 0 90 50 1;
#X restore 21 459 graph;
#X obj -224 405 tabwrite \$0-nota;
#X obj -171 259 f \$0;
#X obj -204 304 symbol;
#X obj -171 235 loadbang;
#X obj -171 283 makefilename %d-nota;
#X obj -224 349 t f b;
#X obj -243 204 inlet nota;
#X obj -204 327 outlet nome do array \$0-nota;
#X obj -429 313 tabdump \$0-nota;
#X obj -243 234 t b f b;
#X obj -429 345 prepend set;
#X msg -429 376 79 61 74 62 73 73 68;
#X obj -131 383 counter 6;
#X obj -351 345 s lista_pitch;
#X obj 184 244 r lista_pitch;
#X floatatom 184 423 5 0 0 0 - - -;
#X obj 184 395 counter 6;
#X obj 187 456 hsl 100 50 0 6 0 0 empty empty empty -2 -8 0 10 -204786
-1 -1 0 1;
#X text 112 467 impermeável;
#X text 299 468 permeável;
#X obj 253 335 bng 15 250 50 0 empty empty reset 17 7 0 10 -262144
-1 -1;
#X obj 91 239 t f f;
#X obj 184 520 outlet;
#X connect 0 0 4 0;
#X connect 0 2 6 0;
#X connect 1 1 2 0;
#X connect 2 0 3 0;
#X connect 2 1 9 1;
#X connect 3 0 9 0;
#X connect 5 0 1 1;
#X connect 6 0 27 0;
#X connect 9 0 32 0;
#X connect 12 0 15 0;
#X connect 13 0 18 0;
#X connect 14 0 12 0;
#X connect 15 0 13 1;
#X connect 16 0 11 0;
#X connect 16 1 23 0;
#X connect 17 0 20 0;
#X connect 19 0 21 0;
#X connect 19 0 24 0;
#X connect 20 0 19 0;
#X connect 20 1 16 0;
#X connect 20 2 13 0;
#X connect 21 0 22 0;
#X connect 23 0 11 1;
#X connect 25 0 0 1;
#X connect 26 0 28 0;
#X connect 27 0 26 0;
#X connect 28 0 33 0;
#X connect 31 0 27 3;
#X connect 32 0 20 0;
#X connect 32 1 0 0;
