#N canvas 426 62 751 590 16;
#X msg 271 238 79 61 74 62 73 73 68;
#X floatatom 61 63 5 0 0 0 - - -;
#X text 398 372 falta:;
#X text 402 402 * ver qual a nota do;
#X text 422 422 grupo é a mais;
#X text 419 446 próxima;
#X text 399 476 * atualizar o grupo;
#X text 419 494 com a nota nova e;
#X text 419 513 sem a mais próxima;
#X obj 61 27 inlet;
#X obj 271 116 inlet;
#X obj 271 201 prepend set;
#X text 134 56 1 - aqui entra um valor de pitch;
#X text 454 267 2 - ele compara com esse grupo;
#X text 498 297 e verifica se a nota em 1;
#X text 499 325 esta nessa lista;
#X obj 61 339 list-find;
#X obj 101 422 prepend set;
#X msg 101 452 6;
#X obj 61 485 bng 15 250 50 0 empty empty empty 17 7 0 10 -262144 -1
-1;
#X obj 61 524 outlet;
#X msg 143 117 65;
#X obj 231 425 outlet;
#X floatatom 325 423 5 0 0 0 - - -;
#X msg 173 163 30;
#X obj 325 460 sel 0;
#X obj 325 522 outlet;
#X msg 86 127 61;
#X msg 246 296 61 65 31;
#X connect 1 0 16 0;
#X connect 9 0 1 0;
#X connect 10 0 16 1;
#X connect 10 0 11 0;
#X connect 11 0 0 0;
#X connect 16 0 17 0;
#X connect 16 0 22 0;
#X connect 16 0 19 0;
#X connect 16 1 23 0;
#X connect 17 0 18 0;
#X connect 19 0 20 0;
#X connect 21 0 16 0;
#X connect 23 0 25 0;
#X connect 24 0 16 0;
#X connect 25 0 26 0;
#X connect 27 0 16 0;
#X connect 28 0 16 1;
