#N canvas 852 143 751 590 16;
#X msg 226 282 1 1 1 1 1 1 1;
#X floatatom 61 63 5 0 0 0 - - -;
#X text 521 382 falta:;
#X text 525 412 * ver qual a nota do;
#X text 545 432 grupo é a mais;
#X text 542 456 próxima;
#X text 522 486 * atualizar o grupo;
#X text 542 504 com a nota nova e;
#X text 542 523 sem a mais próxima;
#X obj 61 27 inlet;
#X obj 148 147 inlet;
#X obj 226 245 prepend set;
#X text 122 63 1 - aqui entra um valor de pitch;
#X text 273 176 e verifica se a nota em 1;
#X obj 63 337 list-find;
#X obj 56 554 outlet;
#X floatatom 220 380 5 0 0 0 - - -;
#X obj 220 417 sel 0;
#X obj 220 479 outlet;
#X text 229 146 2 - ele compara com esse lista;
#X text 274 204 está presente ou não;
#X msg 97 104 5;
#X msg 98 161 3;
#X msg 99 215 1;
#X obj 70 491 bng 15 250 50 0 empty empty empty 17 7 0 10 -262144 -1
-1;
#X connect 1 0 14 0;
#X connect 9 0 1 0;
#X connect 10 0 14 1;
#X connect 10 0 11 0;
#X connect 11 0 0 0;
#X connect 14 1 16 0;
#X connect 16 0 17 0;
#X connect 17 0 18 0;
#X connect 17 1 24 0;
#X connect 21 0 14 0;
#X connect 22 0 14 0;
#X connect 23 0 14 0;
#X connect 24 0 15 0;
