#N canvas 237 44 911 567 16;
#X floatatom 133 63 5 0 0 0 - - -;
#X floatatom 247 63 5 0 0 0 - - -;
#X obj 579 91 r hans;
#X floatatom 381 94 5 0 0 0 - - -;
#X floatatom 579 123 5 0 0 0 - - -;
#X floatatom 134 143 5 0 0 0 - - -;
#X floatatom 377 176 5 0 0 0 - - -;
#X msg 134 171 \; dave \$1;
#X msg 377 203 \; hans \$1;
#X obj 381 124 bng 15 250 50 0 empty empty empty 0 -6 0 8 -262144 -1
-1;
#X obj 579 145 bng 15 250 50 0 empty empty empty 0 -6 0 8 -262144 -1
-1;
#X obj 77 315 bng 15 250 50 0 empty empty empty 0 -6 0 8 -262144 -1
-1;
#X obj 221 313 bng 15 250 50 0 empty empty empty 0 -6 0 8 -262144 -1
-1;
#X obj 77 339 symbol dave;
#X obj 221 337 symbol hans;
#X msg 77 404 \; \$1 42;
#X obj 381 67 receive dave;
#X obj 133 89 send figo;
#X obj 247 89 s sincopa;
#X connect 0 0 17 0;
#X connect 1 0 18 0;
#X connect 2 0 4 0;
#X connect 3 0 9 0;
#X connect 4 0 10 0;
#X connect 5 0 7 0;
#X connect 6 0 8 0;
#X connect 11 0 13 0;
#X connect 12 0 14 0;
#X connect 13 0 15 0;
#X connect 14 0 15 0;
#X connect 16 0 3 0;
