#N canvas 234 32 987 725 16;
#X text 557 75 objetivos:;
#X text 568 117 - entrada de áudio;
#X text 570 146 - sample;
#X text 567 175 - midi in e out;
#X text 565 202 - teclado alfanumerico;
#X text 572 239 - sinc-audioanalise;
#X text 572 265 - salva resultado da analise num txt;
#X obj 623 368 sinc-sample;
#X obj 775 641 dac~;
#X obj 599 624 s~ amostra;
#X obj 72 14 r~ amostra;
#X obj 71 115 sinc-audioanalise;
#X obj 16 346 bng 15 250 50 0 empty empty empty 17 7 0 10 -262144 -1
-1;
#X obj 44 377 outlet~;
#X text 2 367 bonk;
#X floatatom 151 395 5 0 0 0 - - -;
#X text 100 425 env-db2rms;
#X obj 251 438 bng 15 250 50 0 empty empty empty 17 7 0 10 -262144
-1 -1;
#X text 188 457 silencio;
#X floatatom 272 398 5 0 0 0 - - -;
#X text 288 432 nota;
#X text 301 458 midi;
#X floatatom 400 400 5 0 0 0 - - -;
#X text 407 437 classe;
#X floatatom 503 402 5 0 0 0 - - -;
#X text 514 450 registro;
#X obj -4 538 counter;
#X floatatom 1 586 5 0 0 0 - - -;
#X connect 7 0 8 0;
#X connect 7 0 8 1;
#X connect 7 0 9 0;
#X connect 10 0 11 0;
#X connect 11 0 12 0;
#X connect 11 1 13 0;
#X connect 11 2 15 0;
#X connect 11 3 17 0;
#X connect 11 4 19 0;
#X connect 11 5 22 0;
#X connect 11 6 24 0;
#X connect 19 0 26 0;
#X connect 26 0 27 0;
