#N canvas 127 24 1130 891 24;
#X obj 319 25 hsl 128 15 0 127 0 0 empty empty empty -2 -8 0 10 -262144
-1 -1 7100 1;
#X floatatom 321 90 5 0 0 0 - - -;
#X obj 335 193 bng 15 250 50 0 empty empty empty 17 7 0 10 -262144
-1 -1;
#X obj 10 99 metro;
#X obj 11 183 counter;
#X floatatom 10 239 5 0 0 0 - - -;
#X obj 13 69 tgl 15 0 empty empty empty 17 7 0 10 -262144 -1 -1 1 1
;
#X floatatom -2 376 5 0 0 0 - - -;
#X floatatom 113 383 5 0 0 0 - - -;
#X text -21 414 atividade;
#X obj 32 505 moses 3000;
#X floatatom 169 580 5 0 0 0 - - -;
#X text 129 409 pausa;
#X text 171 613 parou de tocar;
#X obj 465 69 sinc-teclado;
#X obj 913 255 unpack f f;
#X floatatom 721 338 5 0 0 0 - - -;
#X floatatom 1014 312 5 0 0 0 - - -;
#X obj 907 360 sel 1;
#X obj 8 312 moses 1000;
#X obj 823 526 sinc-harmonia;
#X obj 770 792 dac~;
#X obj 770 742 *~;
#X obj 636 691 vline~;
#X msg 567 631 0;
#X msg 634 633 0.5;
#X msg 573 773 \$1 400;
#X text 547 588 botão p on/off harm;
#X connect 0 0 1 0;
#X connect 1 0 2 0;
#X connect 2 0 4 2;
#X connect 3 0 4 0;
#X connect 4 0 5 0;
#X connect 5 0 19 0;
#X connect 6 0 3 0;
#X connect 8 0 10 0;
#X connect 10 1 11 0;
#X connect 14 1 15 0;
#X connect 15 0 16 0;
#X connect 15 1 17 0;
#X connect 16 0 20 0;
#X connect 17 0 18 0;
#X connect 18 0 2 0;
#X connect 19 0 7 0;
#X connect 19 1 8 0;
#X connect 20 0 22 1;
#X connect 22 0 21 0;
#X connect 22 0 21 1;
#X connect 23 0 22 0;
#X connect 24 0 23 0;
#X connect 25 0 23 0;
