#N canvas 0 0 849 637 10;
#X obj 35 42 inlet;
#X obj 260 44 inlet;
#X obj 231 587 outlet;
#X floatatom 35 158 5 0 0 0 - - -;
#X text 115 158 = A;
#X obj 230 522 +;
#X floatatom 325 480 5 0 0 0 - - -;
#X text 407 483 = D;
#X floatatom 230 445 5 0 0 0 - - -;
#X obj 230 397 *;
#X obj 411 284 -;
#X floatatom 411 323 5 0 0 0 - - -;
#X text 490 324 = D - E;
#X floatatom 417 157 5 0 0 0 - - -;
#X floatatom 550 157 5 0 0 0 - - -;
#X text 495 154 = D;
#X text 630 158 = E;
#X obj 180 309 /;
#X obj 133 215 -;
#X obj 224 218 -;
#X floatatom 133 263 5 0 0 0 - - -;
#X text 57 262 A - B;
#X floatatom 224 259 5 0 0 0 - - -;
#X text 303 260 B - C;
#X floatatom 290 158 5 0 0 0 - - -;
#X text 370 161 C;
#X floatatom 175 159 5 0 0 0 - - -;
#X text 259 160 B;
#X obj 260 99 unpack f f f f;
#X connect 0 0 3 0;
#X connect 1 0 28 0;
#X connect 3 0 18 0;
#X connect 5 0 2 0;
#X connect 6 0 5 1;
#X connect 8 0 5 0;
#X connect 9 0 8 0;
#X connect 10 0 11 0;
#X connect 11 0 9 1;
#X connect 13 0 10 0;
#X connect 13 0 6 0;
#X connect 14 0 10 1;
#X connect 17 0 9 0;
#X connect 18 0 20 0;
#X connect 19 0 22 0;
#X connect 20 0 17 0;
#X connect 22 0 17 1;
#X connect 24 0 19 1;
#X connect 26 0 19 0;
#X connect 26 0 18 1;
#X connect 28 0 26 0;
#X connect 28 1 24 0;
#X connect 28 2 13 0;
#X connect 28 3 14 0;
