#N canvas 66 34 1212 613 10;
#X obj 169 37 notein;
#X obj 169 63 pack f f;
#X obj 39 215 *~ 0.2;
#X obj 40 253 mix.out_~;
#X obj 169 109 pack f f f;
#X obj 169 132 route 1 2 3 4;
#X obj 169 86 poly 4 1;
#X text 28 12 Description: Midi instrument using a simple osc~;
#X obj 468 173 synth.simple.osc~;
#X obj 332 166 synth.simple.osc~;
#X obj 39 166 synth.simple.osc~;
#X obj 185 166 synth.simple.osc~;
#X obj 342 132 t a;
#X msg 333 101 5 10 0.966 50;
#X obj 692 247 seq;
#X msg 818 81 bang;
#X msg 810 200 record;
#X msg 818 108 stop;
#X obj 823 62 bng 15 250 50 0 empty empty empty 0 -6 0 10 -262144 -1
-1;
#X msg 865 200 stop record;
#X obj 650 116 midiin;
#X msg 868 107 pause;
#X msg 928 107 continue;
#X text 851 62 loop;
#X text 856 80 play;
#X text 879 172 recording;
#X obj 569 296 midiparse;
#X obj 569 269 midiin;
#X obj 569 546 unpack f f;
#X floatatom 569 576 5 0 0 0 - - -;
#X floatatom 634 576 5 0 0 0 - - -;
#X text 568 592 pitch;
#X text 633 593 velocity;
#X text 651 546 note on messages;
#X obj 578 477 unpack f f;
#X floatatom 578 507 5 0 0 0 - - -;
#X floatatom 643 507 5 0 0 0 - - -;
#X text 577 522 aftert;
#X text 643 524 pitch;
#X text 656 477 poly aftertouch messages;
#X obj 588 414 unpack f f;
#X floatatom 588 444 5 0 0 0 - - -;
#X floatatom 653 444 5 0 0 0 - - -;
#X text 587 459 value;
#X text 653 459 ctrl nr;
#X text 667 414 controller messages;
#X floatatom 598 390 5 0 0 0 - - -;
#X floatatom 607 368 5 0 0 0 - - -;
#X floatatom 617 345 5 0 0 0 - - -;
#X floatatom 627 322 5 0 0 0 - - -;
#X text 645 390 program change;
#X text 662 346 pitch bend;
#X text 652 370 aftertouch;
#X text 670 321 channel number;
#X msg 483 45 50;
#X msg 519 49 0;
#X obj 485 9 bng 15 250 50 0 empty empty empty 17 7 0 10 -262144 -1
-1;
#X obj 476 92 makenote 0 0;
#X msg 844 460 0;
#X connect 0 0 1 0;
#X connect 0 1 1 1;
#X connect 1 0 6 0;
#X connect 2 0 3 0;
#X connect 2 0 3 1;
#X connect 4 0 5 0;
#X connect 5 0 10 0;
#X connect 5 1 11 0;
#X connect 5 2 9 0;
#X connect 5 3 8 0;
#X connect 6 0 4 0;
#X connect 6 1 4 1;
#X connect 6 2 4 2;
#X connect 8 0 2 0;
#X connect 9 0 2 0;
#X connect 10 0 2 0;
#X connect 11 0 2 0;
#X connect 12 0 9 1;
#X connect 12 0 8 1;
#X connect 12 0 11 1;
#X connect 12 0 10 1;
#X connect 13 0 12 0;
#X connect 14 0 26 0;
#X connect 14 1 18 0;
#X connect 15 0 14 0;
#X connect 16 0 14 0;
#X connect 17 0 14 0;
#X connect 17 0 58 0;
#X connect 18 0 15 0;
#X connect 19 0 14 0;
#X connect 20 0 14 0;
#X connect 21 0 14 0;
#X connect 22 0 14 0;
#X connect 26 0 28 0;
#X connect 26 1 34 0;
#X connect 26 2 40 0;
#X connect 26 3 46 0;
#X connect 26 4 47 0;
#X connect 26 5 48 0;
#X connect 26 6 49 0;
#X connect 27 0 26 0;
#X connect 28 0 29 0;
#X connect 28 1 30 0;
#X connect 29 0 1 0;
#X connect 30 0 1 1;
#X connect 34 0 35 0;
#X connect 34 1 36 0;
#X connect 40 0 41 0;
#X connect 40 1 42 0;
#X connect 54 0 57 0;
#X connect 55 0 57 1;
#X connect 56 0 54 0;
#X connect 56 0 55 0;
#X connect 57 0 1 0;
#X connect 57 1 1 1;
#X connect 58 0 30 0;
