#N canvas 303 138 542 396 16;
#X obj 193 42 sinc-gera_melodico;
#X symbolatom 193 187 10 0 0 0 - - -;
#X obj 279 278 tabread;
#X msg 193 226 set \$1;
#X floatatom 279 240 5 0 0 0 - - -;
#X floatatom 279 328 5 0 0 0 - - -;
#X text 2 187 nome do array -->;
#X text 347 239 <-- índice;
#X text 354 328 <-- valor;
#X obj 74 282 f \$0;
#X obj 74 244 bng 15 250 50 0 empty empty empty 17 7 0 10 -262144 -1
-1;
#X floatatom 74 323 5 0 0 0 - - -;
#X connect 0 0 1 0;
#X connect 1 0 3 0;
#X connect 2 0 5 0;
#X connect 3 0 2 0;
#X connect 4 0 2 0;
#X connect 9 0 11 0;
#X connect 10 0 9 0;
