#N canvas 0 24 911 687 10;
#X obj 614 -157 comment 0 36 Courier ? 0 0 0 0 Sincopa;
#X obj 627 -66 comment 0 18 Courier ? 0 0 0 0 figocris@gmail.com;
#X obj 545 -115 comment 0 36 Courier ? 0 0 0 0 - Experimento 1;
#X obj 617 -39 sinc-audioin;
#X obj 788 105 s~ in;
#X floatatom 70 113 5 0 0 0 - - -;
#X obj 16 31 bng 15 250 50 0 empty empty empty 17 7 0 10 -262144 -1
-1;
#X obj 16 50 counter 8;
#X obj 16 73 sel 7;
#X obj 16 -127 sinc-audioanalise;
#X obj 16 97 s reset;
#X obj 151 34 s pitch_entra;
#X obj 97 96 s pausa;
#X obj 70 131 s amp;
#X floatatom 124 53 5 0 0 0 - - -;
#X obj 124 77 s nota;
#X obj 17 -154 r~ in;
#X obj 616 127 sinc-mixer;
#X obj 127 358 bng 15 250 50 0 empty empty empty 17 7 0 10 -262144
-1 -1;
#X obj 23 314 t b b;
#X obj 23 159 r nota;
#X obj -28 354 r nota;
#X obj 223 383 sinc-gera_dinamica;
#X obj -28 379 sinc-gera_melodico;
#X obj 23 186 sinc-gera_ritmo;
#X obj 49 355 r reset;
#X obj 95 159 r array_dur;
#X obj 223 355 r nota;
#X obj 332 342 r reset;
#X obj 241 323 s dur;
#X obj 441 510 s vel;
#X obj 88 509 s nota_sai;
#X obj 205 507 s pitch_sai;
#X obj 241 162 r reset;
#X obj 277 323 r amp;
#X obj 526 400 cnv 15 260 100 empty empty MIDI_out_geradores -50 12
0 14 -204786 -66577 0;
#X obj 616 442 play2;
#X floatatom 616 421 4 0 0 2 note - -;
#X floatatom 692 420 5 0 0 2 dur - -;
#X floatatom 654 420 4 0 0 2 vel - -;
#X msg 534 447 50 100 1000;
#X obj 534 475 unpack f f f;
#X obj 692 384 r dur;
#X obj 653 384 r vel;
#X obj 616 360 r nota_sai;
#X obj 390 -93 r nota;
#X obj 244 -54 sinc-calc_ritmo;
#X obj 437 55 s array_dur;
#X obj 340 54 s estabilidade;
#X obj 461 -58 sinc-dens_ritmica;
#N canvas 561 321 450 376 mudanças 0;
#X obj 63 25 inlet estabilidade;
#X msg 63 242 0;
#X msg 90 242 1;
#X msg 119 242 2;
#X floatatom 90 189 5 0 0 0 - - -;
#X obj 90 212 sel 0 1;
#X obj 119 324 outlet;
#X obj 119 296 spigot;
#X msg 148 242 3;
#X obj 90 146 bng 15 250 50 0 empty empty empty 17 7 0 10 -262144 -1
-1;
#X text 186 22 (0 ou 1);
#X obj 63 93 sel 1;
#X obj 63 62 change;
#X obj 90 167 random 3;
#X obj 227 178 tgl 15 0 empty empty empty 17 7 0 10 -262144 -1 -1 1
1;
#X connect 0 0 12 0;
#X connect 1 0 7 0;
#X connect 2 0 7 0;
#X connect 3 0 7 0;
#X connect 4 0 5 0;
#X connect 5 0 2 0;
#X connect 5 1 3 0;
#X connect 5 2 8 0;
#X connect 7 0 6 0;
#X connect 8 0 7 0;
#X connect 9 0 13 0;
#X connect 11 0 1 0;
#X connect 11 1 9 0;
#X connect 12 0 11 0;
#X connect 13 0 4 0;
#X connect 14 0 7 1;
#X restore 168 139 pd mudanças ritmicas;
#X obj 461 25 s densidade;
#X obj 168 111 r estabilidade;
#X obj 316 169 cnv 15 260 100 empty empty MIDI_out_instr -20 12 0 14
-204786 -66577 0;
#X obj 406 211 play2;
#X floatatom 406 190 4 0 0 2 note - -;
#X floatatom 482 189 5 0 0 2 dur - -;
#X floatatom 444 189 4 0 0 2 vel - -;
#X msg 324 216 50 100 1000;
#X obj 324 244 unpack f f f;
#X obj 443 153 r vel;
#X obj 421 102 r nota;
#X obj 482 76 r dur_in;
#X obj 406 135 f;
#X msg 559 177 1;
#X msg 769 411 2;
#X obj 540 138 loadbang;
#X obj 752 375 loadbang;
#X obj 483 106 t b f;
#N canvas 560 218 720 428 samples 0;
#X obj 77 195 soundfiler;
#X obj 347 238 outlet~;
#X obj 50 316 table audio-sample;
#X obj 348 161 tabplay~ audio-sample;
#X msg 77 165 read -resize \$1 audio-sample;
#X symbolatom 77 140 30 0 0 0 - - -;
#X floatatom 77 92 5 0 0 0 - - -;
#X obj 77 115 makefilename ./samples/violao%d.wav;
#X obj 77 63 inlet;
#X obj 348 98 bng 15 250 50 0 empty empty empty 17 7 0 10 -262144 -1
-1;
#X obj 348 61 inlet;
#X obj 466 257 outlet;
#X connect 3 0 1 0;
#X connect 3 1 11 0;
#X connect 4 0 0 0;
#X connect 5 0 4 0;
#X connect 6 0 7 0;
#X connect 7 0 5 0;
#X connect 8 0 6 0;
#X connect 9 0 3 0;
#X connect 10 0 9 0;
#X restore 246 -102 pd samples;
#X obj 246 -151 hradio 15 1 0 3 empty empty empty 0 -8 0 10 -262144
-1 -1 1;
#X obj 246 -132 t b b b b f;
#X obj 247 -80 s~ sample;
#X obj 631 101 r~ sample;
#X connect 3 0 17 0;
#X connect 3 1 4 0;
#X connect 3 1 17 1;
#X connect 5 0 13 0;
#X connect 6 0 7 0;
#X connect 7 0 8 0;
#X connect 8 0 10 0;
#X connect 9 0 6 0;
#X connect 9 2 5 0;
#X connect 9 3 12 0;
#X connect 9 4 14 0;
#X connect 9 5 11 0;
#X connect 14 0 15 0;
#X connect 16 0 9 0;
#X connect 18 0 23 2;
#X connect 19 0 18 0;
#X connect 19 1 22 3;
#X connect 20 0 24 0;
#X connect 21 0 23 0;
#X connect 22 2 30 0;
#X connect 23 1 31 0;
#X connect 23 2 32 0;
#X connect 24 0 19 0;
#X connect 24 1 29 0;
#X connect 25 0 23 1;
#X connect 26 0 24 1;
#X connect 27 0 22 0;
#X connect 28 0 22 2;
#X connect 33 0 24 3;
#X connect 34 0 22 1;
#X connect 37 0 36 0;
#X connect 38 0 36 2;
#X connect 39 0 36 1;
#X connect 40 0 41 0;
#X connect 41 0 37 0;
#X connect 41 1 39 0;
#X connect 41 2 38 0;
#X connect 42 0 38 0;
#X connect 43 0 39 0;
#X connect 44 0 37 0;
#X connect 45 0 46 0;
#X connect 45 0 49 0;
#X connect 46 1 48 0;
#X connect 46 2 47 0;
#X connect 49 0 51 0;
#X connect 50 0 24 2;
#X connect 52 0 50 0;
#X connect 55 0 54 0;
#X connect 56 0 54 2;
#X connect 57 0 54 1;
#X connect 58 0 59 0;
#X connect 59 0 55 0;
#X connect 59 1 57 0;
#X connect 59 2 56 0;
#X connect 60 0 57 0;
#X connect 61 0 63 1;
#X connect 62 0 68 0;
#X connect 63 0 55 0;
#X connect 64 0 54 4;
#X connect 65 0 36 4;
#X connect 66 0 64 0;
#X connect 67 0 65 0;
#X connect 68 0 63 0;
#X connect 68 1 56 0;
#X connect 69 0 9 0;
#X connect 69 0 72 0;
#X connect 70 0 71 0;
#X connect 71 0 69 1;
#X connect 71 4 69 0;
#X connect 73 0 17 0;
