#N canvas 281 24 879 869 10;
#X obj 48 14 comment 0 36 Courier ? 0 0 0 0 Sincopa;
#X obj 50 44 comment 0 18 Courier ? 0 0 0 0 figocris@gmail.com;
#X obj 225 16 comment 0 36 Courier ? 0 0 0 0 - Experimento 1;
#X obj 478 275 sinc-audioin;
#X text 465 54 objetivo:;
#X text 467 67 * Diálogo melódico/rítmico áudio -> MIDI;
#X text 643 296 Aqui entram:;
#X text 647 320 1) resposta MIDI (soundfont);
#X text 647 338 2) entrada de instrumento;
#X obj 622 413 s~ in;
#X floatatom 70 352 5 0 0 0 - - -;
#X obj 16 270 bng 15 250 50 0 empty empty empty 17 7 0 10 -262144 -1
-1;
#X obj 16 289 counter 8;
#X obj 16 312 sel 7;
#X obj 16 112 sinc-audioanalise;
#X obj 16 336 s reset;
#X obj 151 273 s pitch_entra;
#X obj 97 335 s pausa;
#X obj 70 374 s amp;
#X floatatom 124 292 5 0 0 0 - - -;
#X obj 124 316 s nota;
#X obj 17 85 r~ in;
#X obj 477 436 sinc-mixer;
#X obj 157 658 bng 15 250 50 0 empty empty empty 17 7 0 10 -262144
-1 -1;
#X obj 13 574 t b b;
#X obj 13 410 r nota;
#X obj 2 654 r nota;
#X obj 253 683 sinc-gera_dinamica;
#X obj 2 679 sinc-gera_melodico;
#X obj 13 446 sinc-gera_ritmo;
#X obj 79 655 r reset;
#X obj 85 410 r array_dur;
#X obj 253 655 r nota;
#X obj 362 642 r reset;
#X obj 231 583 s dur;
#X obj 471 824 s vel;
#X obj 118 831 s nota_sai;
#X obj 235 821 s pitch_sai;
#X obj 231 413 r reset;
#X obj 307 623 r amp;
#X obj 526 709 cnv 15 260 100 empty empty MIDI_out 20 12 0 14 -204786
-66577 0;
#X obj 616 751 play2;
#X floatatom 616 730 4 0 0 2 note - -;
#X floatatom 692 729 5 0 0 2 dur - -;
#X floatatom 654 729 4 0 0 2 vel - -;
#X msg 534 756 50 100 1000;
#X obj 534 784 unpack f f f;
#X obj 692 693 r dur;
#X obj 653 693 r vel;
#X obj 616 669 r nota_sai;
#X obj 268 454 bng 15 250 50 0 empty empty empty 17 7 0 10 -262144
-1 -1;
#X obj 341 100 r nota;
#X obj 195 139 sinc-calc_ritmo;
#X obj 388 248 s array_dur;
#X obj 291 247 s estabilidade;
#X obj 412 142 sinc-dens_ritmica;
#N canvas 561 321 450 376 mudanças 0;
#X obj 63 25 inlet estabilidade;
#X msg 63 242 0;
#X msg 90 242 1;
#X msg 119 242 2;
#X floatatom 90 189 5 0 0 0 - - -;
#X obj 90 212 sel 0 1;
#X obj 119 324 outlet;
#X obj 119 296 spigot;
#X msg 148 242 3;
#X obj 90 146 bng 15 250 50 0 empty empty empty 17 7 0 10 -262144 -1
-1;
#X text 186 22 (0 ou 1);
#X obj 63 93 sel 1;
#X obj 63 62 change;
#X obj 90 167 random 3;
#X obj 227 178 tgl 15 0 empty empty empty 17 7 0 10 -262144 -1 -1 0
1;
#X connect 0 0 12 0;
#X connect 1 0 7 0;
#X connect 2 0 7 0;
#X connect 3 0 7 0;
#X connect 4 0 5 0;
#X connect 5 0 2 0;
#X connect 5 1 3 0;
#X connect 5 2 8 0;
#X connect 7 0 6 0;
#X connect 8 0 7 0;
#X connect 9 0 13 0;
#X connect 11 0 1 0;
#X connect 11 1 9 0;
#X connect 12 0 11 0;
#X connect 13 0 4 0;
#X connect 14 0 7 1;
#X restore 158 383 pd mudanças ritmicas;
#X obj 412 225 s densidade;
#X obj 158 345 r estabilidade;
#X obj 275 359 r densidade;
#X obj 316 528 seq;
#X connect 3 0 22 0;
#X connect 3 1 9 0;
#X connect 3 1 22 1;
#X connect 10 0 18 0;
#X connect 11 0 12 0;
#X connect 12 0 13 0;
#X connect 13 0 15 0;
#X connect 14 0 11 0;
#X connect 14 2 10 0;
#X connect 14 3 17 0;
#X connect 14 4 19 0;
#X connect 14 5 16 0;
#X connect 19 0 20 0;
#X connect 21 0 14 0;
#X connect 23 0 28 2;
#X connect 24 0 23 0;
#X connect 24 1 27 3;
#X connect 25 0 29 0;
#X connect 26 0 28 0;
#X connect 27 2 35 0;
#X connect 28 1 36 0;
#X connect 28 2 37 0;
#X connect 29 0 24 0;
#X connect 29 1 34 0;
#X connect 30 0 28 1;
#X connect 31 0 29 1;
#X connect 32 0 27 0;
#X connect 33 0 27 2;
#X connect 38 0 29 3;
#X connect 38 0 50 0;
#X connect 39 0 27 1;
#X connect 42 0 41 0;
#X connect 43 0 41 2;
#X connect 44 0 41 1;
#X connect 45 0 46 0;
#X connect 46 0 42 0;
#X connect 46 1 44 0;
#X connect 46 2 43 0;
#X connect 47 0 43 0;
#X connect 48 0 44 0;
#X connect 49 0 42 0;
#X connect 51 0 52 0;
#X connect 51 0 55 0;
#X connect 52 1 54 0;
#X connect 52 2 53 0;
#X connect 55 0 57 0;
#X connect 56 0 29 2;
#X connect 58 0 56 0;
