#N canvas 171 183 666 666 10;
#N canvas 654 219 427 326 fft 0;
#X obj 46 64 inlet~;
#X obj 46 94 rfft~;
#X obj 46 127 *~;
#X obj 77 127 *~;
#X obj 46 157 sqrt~;
#X obj 216 60 inlet;
#X obj 278 96 block~ 1024 1;
#X obj 53 204 clip~ 0 500;
#X obj 144 265 tabwrite~ \$0-fft;
#X connect 0 0 1 0;
#X connect 1 0 2 0;
#X connect 1 0 2 1;
#X connect 1 1 3 0;
#X connect 1 1 3 1;
#X connect 2 0 4 0;
#X connect 3 0 4 0;
#X connect 4 0 7 0;
#X connect 5 0 8 0;
#X connect 7 0 8 0;
#X restore 80 306 pd fft;
#X obj 81 31 inlet~;
#X obj 149 278 metro 20;
#X msg 149 254 1;
#X obj 149 234 loadbang;
#X obj 81 257 hip~ 50;
#X obj 81 277 *~ 1;
#X obj 69 408 table \$0-fft 128;
#X obj 257 27 sinc-audioin;
#X connect 1 0 5 0;
#X connect 2 0 0 1;
#X connect 3 0 2 0;
#X connect 4 0 3 0;
#X connect 5 0 6 0;
#X connect 6 0 0 0;
#X connect 8 0 5 0;
