#N canvas 636 24 824 597 10;
#N canvas 512 166 304 292 fft 0;
#X obj 44 36 inlet~;
#X obj 44 66 rfft~;
#X obj 44 99 *~;
#X obj 72 99 *~;
#X obj 44 129 sqrt~;
#X obj 101 181 inlet;
#X obj 197 256 block~ 1024 1;
#X obj 44 255 tabwrite~ \$0-fft;
#X obj 43 156 clip~ 0 1;
#X connect 0 0 1 0;
#X connect 1 0 2 0;
#X connect 1 0 2 1;
#X connect 1 1 3 0;
#X connect 1 1 3 1;
#X connect 2 0 4 0;
#X connect 3 0 4 0;
#X connect 4 0 8 0;
#X connect 5 0 7 0;
#X connect 8 0 7 0;
#X restore 80 306 pd fft;
#X obj 81 31 inlet~;
#X obj 149 278 metro 20;
#X msg 149 254 1;
#X obj 81 277 *~ 1;
#X obj 77 373 table \$0-fft 128;
#X obj 144 49 sinc-audioin;
#X obj 260 317 print~;
#X obj 260 257 bng 15 250 50 0 empty empty empty 17 7 0 10 -262144
-1 -1;
#X text 48 545 colocar valores de x e y desse array;
#X obj 443 407 \$0;
#X obj 443 384 bng 15 250 50 0 empty empty empty 17 7 0 10 -262144
-1 -1;
#X obj 443 432 makefilename %d-fft;
#X symbolatom 443 454 10 0 0 0 - - -;
#X msg 429 495 \; \$1 ylabel -5 -1 1;
#X obj 445 301 loadbang;
#X obj 445 327 s \$0-init;
#X obj 149 230 r \$0-init;
#X obj 443 358 r \$0-init;
#X msg 356 539 \; \$1 xlabel -1.1 20 40 60 80 100 127;
#X obj 87 524 bonk~;
#X obj 103 196 hip~ 240;
#X obj 91 227 hip~ 240;
#X obj 81 257 hip~ 240;
#X obj 196 373 sinc-audioanalise;
#X connect 1 0 23 0;
#X connect 2 0 0 1;
#X connect 3 0 2 0;
#X connect 4 0 0 0;
#X connect 4 0 7 0;
#X connect 6 1 21 0;
#X connect 8 0 7 0;
#X connect 10 0 12 0;
#X connect 11 0 10 0;
#X connect 12 0 13 0;
#X connect 13 0 19 0;
#X connect 13 0 14 0;
#X connect 15 0 16 0;
#X connect 17 0 3 0;
#X connect 18 0 11 0;
#X connect 21 0 22 0;
#X connect 22 0 23 0;
#X connect 23 0 4 0;
#X connect 23 0 24 0;
