#N canvas 225 122 968 705 10;
#N canvas 0 0 450 300 (subpatch) 0;
#X array array1 2e+06 float 2;
#X coords 0 1 2e+06 -1 200 140 1;
#X restore -61 523 graph;
#X obj 225 593 / 44100;
#X floatatom 225 640 5 0 0 0 - - -;
#X msg 225 555 2e+06;
#X text 159 543 2e+06;
#X text 271 642 total em segs q cabem nesse array;
#X obj 707 91 perk-hihat;
#X obj -49 131 perk-bassdrum;
#X obj 707 59 metro 500;
#X obj 707 27 tgl 15 0 empty empty empty 17 7 0 10 -262144 -1 -1 0
1;
#X text 762 8 metronomo;
#X obj 625 113 f;
#X obj 658 115 + 1;
#X floatatom 625 147 5 0 0 0 - - -;
#X obj 640 61 sel 0;
#X msg 640 83 1;
#X obj 625 193 sel 5;
#X obj 632 482 cnv 15 100 60 empty status parado 20 12 0 40 -233017
-66577 0;
#X msg 780 552 label \$1;
#X obj 780 575 s status;
#X msg 762 422 gravando;
#X obj 780 457 list2symbol;
#X obj 780 527 spigot;
#X msg 828 428 parado;
#X obj 651 170 s conta;
#X obj 676 344 r conta;
#X obj -44 5 keyname;
#X obj -5 32 sel Space;
#X obj -5 60 del 2;
#X obj -49 98 spigot;
#X obj -50 263 dac~;
#X obj 708 276 dac~;
#X obj 175 320 tabwrite~ array1;
#X msg 175 287 start;
#X msg 225 285 stop;
#X obj 149 26 keyname;
#X obj 188 81 del 2;
#X obj 144 119 spigot;
#X obj 188 53 sel Return;
#X obj 144 145 bng 15 250 50 0 empty empty empty 17 7 0 10 -262144
-1 -1;
#X obj 144 167 sinc-alternate;
#X obj 144 191 bng 15 250 50 0 empty empty empty 17 7 0 10 -262144
-1 -1;
#X obj 225 193 bng 15 250 50 0 empty empty empty 17 7 0 10 -262144
-1 -1;
#X obj 144 225 s on;
#X obj 813 478 r on;
#X msg 813 500 1;
#X obj 847 478 r off;
#X msg 847 500 0;
#X obj 621 34 r on;
#X obj 625 292 s grava;
#X obj 175 258 r grava;
#X obj 762 336 r grava;
#X obj 762 360 t b b;
#X obj 676 423 spigot;
#X msg 694 397 1;
#X msg 726 397 0;
#X obj 694 370 r on;
#X obj 225 220 s off;
#X obj 828 405 r off;
#X obj 410 41 r grava;
#X obj 410 109 t b b;
#X obj 410 141 timer;
#X floatatom 410 165 7 0 0 0 - - -;
#X obj 410 188 * 44.1;
#X floatatom 410 214 7 0 0 0 - - -;
#X obj 430 70 r off;
#X text 417 229 numero de samples gravados;
#X obj 370 408 tabplay~ array1;
#X obj 371 453 dac~;
#X obj 370 363 bng 15 250 50 0 empty empty empty 17 7 0 10 -262144
-1 -1;
#X obj 410 286 f;
#X obj 457 432 bng 15 250 50 0 empty empty empty 17 7 0 10 -262144
-1 -1;
#X obj 457 452 s loop;
#X obj 360 251 r loop;
#X obj 410 258 t b f;
#X msg 414 371 stop;
#X obj 625 271 spigot;
#X obj 632 223 r on;
#X msg 632 245 1;
#X obj 666 223 r off;
#X msg 666 245 0;
#X obj 414 349 r on;
#X msg 410 318 10 \$1;
#X connect 1 0 2 0;
#X connect 3 0 1 0;
#X connect 6 0 31 0;
#X connect 6 0 31 1;
#X connect 7 0 30 0;
#X connect 7 0 30 1;
#X connect 7 0 32 0;
#X connect 8 0 6 0;
#X connect 8 0 11 0;
#X connect 9 0 8 0;
#X connect 9 0 14 0;
#X connect 11 0 12 0;
#X connect 11 0 13 0;
#X connect 12 0 11 1;
#X connect 13 0 16 0;
#X connect 13 0 24 0;
#X connect 14 0 15 0;
#X connect 15 0 11 1;
#X connect 16 0 76 0;
#X connect 18 0 19 0;
#X connect 20 0 21 0;
#X connect 21 0 22 0;
#X connect 22 0 18 0;
#X connect 23 0 21 0;
#X connect 25 0 53 0;
#X connect 26 0 29 1;
#X connect 26 1 27 0;
#X connect 27 0 28 0;
#X connect 28 0 29 0;
#X connect 29 0 7 0;
#X connect 33 0 32 0;
#X connect 34 0 32 0;
#X connect 35 0 37 1;
#X connect 35 1 38 0;
#X connect 36 0 37 0;
#X connect 37 0 39 0;
#X connect 38 0 36 0;
#X connect 39 0 40 0;
#X connect 40 0 41 0;
#X connect 40 1 42 0;
#X connect 41 0 43 0;
#X connect 42 0 57 0;
#X connect 42 0 34 0;
#X connect 44 0 45 0;
#X connect 45 0 22 1;
#X connect 46 0 47 0;
#X connect 47 0 22 1;
#X connect 48 0 15 0;
#X connect 50 0 33 0;
#X connect 51 0 52 0;
#X connect 52 0 20 0;
#X connect 52 1 55 0;
#X connect 53 0 21 0;
#X connect 54 0 53 1;
#X connect 55 0 53 1;
#X connect 56 0 54 0;
#X connect 58 0 23 0;
#X connect 59 0 60 0;
#X connect 60 0 61 0;
#X connect 60 1 61 1;
#X connect 61 0 62 0;
#X connect 62 0 63 0;
#X connect 63 0 64 0;
#X connect 64 0 74 0;
#X connect 65 0 60 0;
#X connect 67 0 68 0;
#X connect 67 0 68 1;
#X connect 67 1 71 0;
#X connect 69 0 67 0;
#X connect 70 0 82 0;
#X connect 71 0 72 0;
#X connect 73 0 70 0;
#X connect 74 0 70 0;
#X connect 74 1 70 1;
#X connect 75 0 67 0;
#X connect 76 0 49 0;
#X connect 77 0 78 0;
#X connect 78 0 76 1;
#X connect 79 0 80 0;
#X connect 80 0 76 1;
#X connect 81 0 75 0;
#X connect 82 0 67 0;
