#N canvas 121 65 963 690 10;
#N canvas 490 199 598 338 (subpatch) 0;
#X array \$0-array1 2e+06 float 2;
#X coords 0 1 2e+06 -1 200 140 1;
#X restore -61 523 graph;
#X obj 158 599 / 44100;
#X floatatom 158 646 5 0 0 0 - - -;
#X msg 158 561 2e+06;
#X text 159 543 2e+06;
#X text 149 662 total em segs q cabem nesse array;
#X obj 707 91 perk-hihat;
#X obj -40 131 perk-bassdrum;
#X obj 707 59 metro 500;
#X obj 707 27 tgl 15 0 empty empty empty 17 7 0 10 -262144 -1 -1 1
1;
#X text 772 32 metronomo;
#X obj 590 120 f;
#X obj 623 122 + 1;
#X floatatom 590 154 5 0 0 0 - - -;
#X obj 605 68 sel 0;
#X msg 605 90 1;
#X obj 590 200 sel 5;
#X obj 627 563 cnv 15 100 60 empty \$0-status 3 20 12 0 40 -233017
-66577 0;
#X msg 775 633 label \$1;
#X msg 757 503 gravando;
#X obj 775 538 list2symbol;
#X obj 775 608 spigot;
#X msg 823 509 parado;
#X obj -44 5 keyname;
#X obj -5 32 sel Space;
#X obj -5 60 del 2;
#X obj -49 98 spigot;
#X obj -50 263 dac~;
#X obj 706 312 dac~;
#X msg 189 282 start;
#X msg 239 280 stop;
#X obj 163 21 keyname;
#X obj 202 76 del 2;
#X obj 158 114 spigot;
#X obj 158 138 bng 15 250 50 0 empty empty empty 17 7 0 10 -262144
-1 -1;
#X obj 158 162 sinc-alternate;
#X obj 158 184 bng 15 250 50 0 empty empty empty 17 7 0 10 -262144
-1 -1;
#X obj 239 188 bng 15 250 50 0 empty empty empty 17 7 0 10 -262144
-1 -1;
#X msg 791 581 1;
#X msg 842 581 0;
#X obj 757 441 t b b;
#X obj 671 504 spigot;
#X msg 689 478 1;
#X msg 721 478 0;
#X obj 394 110 t b b;
#X obj 394 142 timer;
#X floatatom 394 166 7 0 0 0 - - -;
#X obj 394 189 * 44.1;
#X floatatom 394 215 7 0 0 0 - - -;
#X text 401 230 numero de samples gravados;
#X obj 271 483 dac~;
#X obj 270 353 bng 15 250 50 0 empty empty empty 17 7 0 10 -262144
-1 -1;
#X obj 394 287 f;
#X obj 375 459 bng 15 250 50 0 empty empty empty 17 7 0 10 -262144
-1 -1;
#X obj 394 259 t b f;
#X msg 314 361 stop;
#X obj 590 278 spigot;
#X msg 597 252 1;
#X msg 646 253 0;
#X msg 394 319 10 \$1;
#X obj 708 270 *~;
#X obj 750 259 tgl 15 0 empty empty metronomo_on/off 17 7 0 10 -262144
-1 -1 0 1;
#X obj 456 563 spigot;
#X obj 489 534 tgl 15 0 empty empty loop_on/off 17 7 0 10 -262144 -1
-1 0 1;
#X text 65 8 musico;
#X obj 456 508 spigot;
#X msg 465 478 1;
#X obj 483 427 t b b;
#X msg 497 479 0;
#X text 687 393 vizualização;
#X obj 158 220 s \$0-on;
#X obj 239 215 s \$0-off;
#X obj 189 315 tabwrite~ \$0-array1;
#X obj 270 398 tabplay~ \$0-array1;
#X obj 394 42 r \$0-grava;
#X obj 414 71 r \$0-off;
#X obj 325 255 r \$0-loop;
#X obj 314 339 r \$0-on;
#X obj 456 589 s \$0-loop;
#X obj 586 41 r \$0-on;
#X obj 605 179 s \$0-conta;
#X obj 597 230 r \$0-on;
#X obj 646 230 r \$0-off;
#X obj 590 299 s \$0-grava;
#X obj 671 425 r \$0-conta;
#X obj 757 417 r \$0-grava;
#X obj 689 451 r \$0-on;
#X obj 823 486 r \$0-off;
#X obj 842 559 r \$0-off;
#X obj 791 559 r \$0-on;
#X obj 775 656 s \$0-status;
#X obj 281 572 s \$0-loopb;
#X obj 323 227 r \$0-loopb;
#X obj 281 546 spigot;
#X obj 314 520 tgl 15 0 empty empty loop_on/off 17 7 0 10 -262144 -1
-1 0 1;
#X text 496 352 começa a ler o loop no tempo;
#X text 501 366 do metronomo;
#X text 279 592 leitura do loop;
#X text 280 608 sem metronomo;
#X obj 707 2 loadbang;
#X text 751 277 1) ligue;
#X text 215 21 2) press Enter;
#X text 587 634 3) tocar bumbo com Space;
#X obj 776 305 cnv 15 20 10 empty empty 1 20 12 0 40 -233017 -66577
0;
#X obj 278 46 cnv 15 20 10 empty empty 2 20 12 0 40 -233017 -66577
0;
#X obj 570 602 cnv 15 20 10 empty empty 3 20 12 0 40 -233017 -66577
0;
#X obj 341 540 cnv 15 20 10 empty empty 4_-_4 20 12 0 40 -233017 -66577
0;
#X obj 189 253 r \$0-grava;
#X obj 522 122 s global;
#X obj 270 444 *~;
#X obj 85 385 hsl 128 30 0 1 0 0 empty empty empty -2 -8 0 10 -261234
-1 -1 0 1;
#X obj 499 177 bng 40 250 50 0 empty empty empty 17 7 0 10 -260097
-1 -1;
#X obj 202 48 sel Delete;
#X connect 1 0 2 0;
#X connect 3 0 1 0;
#X connect 6 0 60 0;
#X connect 7 0 27 0;
#X connect 7 0 27 1;
#X connect 7 0 72 0;
#X connect 8 0 6 0;
#X connect 8 0 11 0;
#X connect 8 0 108 0;
#X connect 9 0 8 0;
#X connect 9 0 14 0;
#X connect 11 0 12 0;
#X connect 11 0 13 0;
#X connect 12 0 11 1;
#X connect 13 0 16 0;
#X connect 13 0 67 0;
#X connect 13 0 80 0;
#X connect 13 0 111 0;
#X connect 14 0 15 0;
#X connect 15 0 11 1;
#X connect 16 0 56 0;
#X connect 18 0 90 0;
#X connect 19 0 20 0;
#X connect 20 0 21 0;
#X connect 21 0 18 0;
#X connect 22 0 20 0;
#X connect 23 0 26 1;
#X connect 23 1 24 0;
#X connect 24 0 25 0;
#X connect 25 0 26 0;
#X connect 26 0 7 0;
#X connect 29 0 72 0;
#X connect 30 0 72 0;
#X connect 31 0 33 1;
#X connect 31 1 112 0;
#X connect 32 0 33 0;
#X connect 33 0 34 0;
#X connect 34 0 35 0;
#X connect 35 0 36 0;
#X connect 35 1 37 0;
#X connect 36 0 70 0;
#X connect 37 0 30 0;
#X connect 37 0 71 0;
#X connect 38 0 21 1;
#X connect 39 0 21 1;
#X connect 40 0 19 0;
#X connect 40 1 43 0;
#X connect 41 0 20 0;
#X connect 42 0 41 1;
#X connect 43 0 41 1;
#X connect 44 0 45 0;
#X connect 44 1 45 1;
#X connect 45 0 46 0;
#X connect 46 0 47 0;
#X connect 47 0 48 0;
#X connect 48 0 54 0;
#X connect 51 0 73 0;
#X connect 52 0 59 0;
#X connect 53 0 66 0;
#X connect 53 0 93 0;
#X connect 54 0 52 0;
#X connect 54 1 52 1;
#X connect 55 0 73 0;
#X connect 56 0 83 0;
#X connect 57 0 56 1;
#X connect 58 0 56 1;
#X connect 59 0 73 0;
#X connect 60 0 28 0;
#X connect 60 0 28 1;
#X connect 61 0 60 1;
#X connect 62 0 78 0;
#X connect 63 0 62 1;
#X connect 65 0 62 0;
#X connect 66 0 65 1;
#X connect 67 0 68 0;
#X connect 67 1 65 0;
#X connect 68 0 65 1;
#X connect 73 0 109 0;
#X connect 73 1 53 0;
#X connect 74 0 44 0;
#X connect 75 0 44 0;
#X connect 76 0 52 0;
#X connect 77 0 55 0;
#X connect 79 0 15 0;
#X connect 81 0 57 0;
#X connect 82 0 58 0;
#X connect 84 0 41 0;
#X connect 85 0 40 0;
#X connect 86 0 42 0;
#X connect 87 0 22 0;
#X connect 88 0 39 0;
#X connect 89 0 38 0;
#X connect 92 0 52 0;
#X connect 93 0 91 0;
#X connect 94 0 93 1;
#X connect 99 0 9 0;
#X connect 107 0 29 0;
#X connect 109 0 50 0;
#X connect 109 0 50 1;
#X connect 110 0 109 1;
#X connect 112 0 32 0;
