#N canvas 87 24 1089 728 10;
#N canvas 490 199 598 338 (subpatch) 0;
#X array \$0-array1 2e+06 float 2;
#X coords 0 1 2e+06 -1 200 140 1;
#X restore -51 533 graph;
#X obj 168 609 / 44100;
#X floatatom 168 656 5 0 0 0 - - -;
#X msg 168 571 2e+06;
#X text 169 553 2e+06;
#X text 159 672 total em segs q cabem nesse array;
#X obj 600 130 f;
#X obj 633 132 + 1;
#X floatatom 600 164 5 0 0 0 - - -;
#X obj 600 210 sel 5;
#X obj 637 573 cnv 15 100 60 empty \$0-status 3 20 12 0 40 -233017
-66577 0;
#X msg 785 643 label \$1;
#X msg 767 513 gravando;
#X obj 785 548 list2symbol;
#X obj 785 618 spigot;
#X msg 833 519 parado;
#X msg 199 292 start;
#X msg 249 290 stop;
#X obj 173 31 keyname;
#X obj 212 86 del 2;
#X obj 168 124 spigot;
#X obj 168 148 bng 15 250 50 0 empty empty empty 17 7 0 10 -262144
-1 -1;
#X obj 168 172 sinc-alternate;
#X obj 168 194 bng 15 250 50 0 empty empty empty 17 7 0 10 -262144
-1 -1;
#X obj 249 198 bng 15 250 50 0 empty empty empty 17 7 0 10 -262144
-1 -1;
#X msg 801 591 1;
#X msg 852 591 0;
#X obj 767 451 t b b;
#X obj 681 514 spigot;
#X msg 699 488 1;
#X msg 731 488 0;
#X obj 404 120 t b b;
#X obj 404 152 timer;
#X floatatom 404 176 7 0 0 0 - - -;
#X obj 404 199 * 44.1;
#X floatatom 404 225 7 0 0 0 - - -;
#X text 411 240 numero de samples gravados;
#X obj 211 524 dac~;
#X obj 210 388 bng 15 250 50 0 empty empty empty 17 7 0 10 -262144
-1 -1;
#X obj 404 297 f;
#X obj 385 469 bng 15 250 50 0 empty empty empty 17 7 0 10 -262144
-1 -1;
#X obj 404 269 t b f;
#X msg 254 396 stop;
#X obj 600 288 spigot;
#X msg 607 262 1;
#X msg 656 263 0;
#X msg 404 329 10 \$1;
#X obj 466 573 spigot;
#X obj 499 544 tgl 15 0 empty empty loop_on/off 17 7 0 10 -262144 -1
-1 0 1;
#X obj 466 518 spigot;
#X msg 475 488 1;
#X obj 493 437 t b b;
#X msg 507 489 0;
#X text 697 403 vizualização;
#X obj 168 230 s \$0-on;
#X obj 249 225 s \$0-off;
#X obj 199 325 tabwrite~ \$0-array1;
#X obj 210 433 tabplay~ \$0-array1;
#X obj 404 52 r \$0-grava;
#X obj 424 81 r \$0-off;
#X obj 335 265 r \$0-loop;
#X obj 254 374 r \$0-on;
#X obj 466 599 s \$0-loop;
#X obj 615 189 s \$0-conta;
#X obj 607 240 r \$0-on;
#X obj 656 240 r \$0-off;
#X obj 600 309 s \$0-grava;
#X obj 681 435 r \$0-conta;
#X obj 767 427 r \$0-grava;
#X obj 699 461 r \$0-on;
#X obj 833 496 r \$0-off;
#X obj 852 569 r \$0-off;
#X obj 801 569 r \$0-on;
#X obj 785 666 s \$0-status;
#X obj 291 582 s \$0-loopb;
#X obj 333 237 r \$0-loopb;
#X obj 291 556 spigot;
#X obj 324 530 tgl 15 0 empty empty loop_on/off 17 7 0 10 -262144 -1
-1 0 1;
#X text 506 362 começa a ler o loop no tempo;
#X text 511 376 do metronomo;
#X text 289 602 leitura do loop;
#X text 290 618 sem metronomo;
#X text 597 644 3) tocar bumbo com Space;
#X obj 288 56 cnv 15 20 10 empty empty 2 20 12 0 40 -233017 -66577
0;
#X obj 580 612 cnv 15 20 10 empty empty 3 20 12 0 40 -233017 -66577
0;
#X obj 351 550 cnv 15 20 10 empty empty 4_-_4 20 12 0 40 -233017 -66577
0;
#X obj 199 263 r \$0-grava;
#X symbolatom 300 104 10 0 0 0 - - -;
#X obj 595 97 r global;
#X obj -32 177 sinc-audioin;
#X obj 210 497 *~;
#X obj 114 363 r \$0-grava;
#X msg 114 385 0;
#X obj 57 372 r \$0-off;
#X msg 57 395 1;
#X obj 209 471 *~;
#X obj 355 379 hsl 128 30 0 1 0 0 empty empty empty -2 -8 0 10 -261234
-1 -1 0 1;
#X msg 665 92 1;
#X obj 666 71 r \$0-on;
#X obj 212 58 sel Control_L;
#X text 225 31 2) press Ctrl - esquerdo;
#X connect 1 0 2 0;
#X connect 3 0 1 0;
#X connect 6 0 7 0;
#X connect 6 0 8 0;
#X connect 7 0 6 1;
#X connect 8 0 9 0;
#X connect 8 0 51 0;
#X connect 8 0 63 0;
#X connect 9 0 43 0;
#X connect 11 0 73 0;
#X connect 12 0 13 0;
#X connect 13 0 14 0;
#X connect 14 0 11 0;
#X connect 15 0 13 0;
#X connect 16 0 56 0;
#X connect 17 0 56 0;
#X connect 18 0 20 1;
#X connect 18 1 87 0;
#X connect 18 1 99 0;
#X connect 19 0 20 0;
#X connect 20 0 21 0;
#X connect 21 0 22 0;
#X connect 22 0 23 0;
#X connect 22 1 24 0;
#X connect 23 0 54 0;
#X connect 24 0 17 0;
#X connect 24 0 55 0;
#X connect 25 0 14 1;
#X connect 26 0 14 1;
#X connect 27 0 12 0;
#X connect 27 1 30 0;
#X connect 28 0 13 0;
#X connect 29 0 28 1;
#X connect 30 0 28 1;
#X connect 31 0 32 0;
#X connect 31 1 32 1;
#X connect 32 0 33 0;
#X connect 33 0 34 0;
#X connect 34 0 35 0;
#X connect 35 0 41 0;
#X connect 38 0 57 0;
#X connect 39 0 46 0;
#X connect 40 0 50 0;
#X connect 40 0 76 0;
#X connect 41 0 39 0;
#X connect 41 1 39 1;
#X connect 42 0 57 0;
#X connect 43 0 66 0;
#X connect 44 0 43 1;
#X connect 45 0 43 1;
#X connect 46 0 57 0;
#X connect 47 0 62 0;
#X connect 48 0 47 1;
#X connect 49 0 47 0;
#X connect 50 0 49 1;
#X connect 51 0 52 0;
#X connect 51 1 49 0;
#X connect 52 0 49 1;
#X connect 57 0 95 0;
#X connect 57 1 40 0;
#X connect 58 0 31 0;
#X connect 59 0 31 0;
#X connect 60 0 39 0;
#X connect 61 0 42 0;
#X connect 64 0 44 0;
#X connect 65 0 45 0;
#X connect 67 0 28 0;
#X connect 68 0 27 0;
#X connect 69 0 29 0;
#X connect 70 0 15 0;
#X connect 71 0 26 0;
#X connect 72 0 25 0;
#X connect 75 0 39 0;
#X connect 76 0 74 0;
#X connect 77 0 76 1;
#X connect 86 0 16 0;
#X connect 88 0 6 0;
#X connect 89 0 56 0;
#X connect 90 0 37 0;
#X connect 90 0 37 1;
#X connect 91 0 92 0;
#X connect 92 0 90 1;
#X connect 93 0 94 0;
#X connect 94 0 90 1;
#X connect 95 0 90 0;
#X connect 96 0 95 1;
#X connect 97 0 6 1;
#X connect 98 0 97 0;
#X connect 99 0 19 0;
