#N canvas 126 43 963 687 10;
#N canvas 490 199 598 338 (subpatch) 0;
#X array \$0-array1 2e+06 float 2;
#X coords 0 1 2e+06 -1 200 140 1;
#X restore -10 511 graph;
#X obj 590 120 f;
#X obj 623 122 + 1;
#X floatatom 590 154 5 0 0 0 - - -;
#X obj 590 200 sel 5;
#X obj 627 563 cnv 15 100 60 empty \$0-status gravando 20 12 0 40 -233017
-66577 0;
#X msg 775 633 label \$1;
#X msg 757 503 gravando;
#X obj 775 538 list2symbol;
#X obj 775 608 spigot;
#X msg 823 509 parado;
#X msg 189 282 start;
#X msg 239 280 stop;
#X obj 163 21 keyname;
#X obj 202 76 del 2;
#X obj 158 114 spigot;
#X obj 158 138 bng 15 250 50 0 empty empty empty 17 7 0 10 -262144
-1 -1;
#X obj 158 162 sinc-alternate;
#X obj 158 184 bng 15 250 50 0 empty empty empty 17 7 0 10 -262144
-1 -1;
#X obj 239 188 bng 15 250 50 0 empty empty empty 17 7 0 10 -262144
-1 -1;
#X msg 791 581 1;
#X msg 842 581 0;
#X obj 757 441 t b b;
#X obj 671 504 spigot;
#X msg 689 478 1;
#X msg 721 478 0;
#X obj 394 110 t b b;
#X obj 394 142 timer;
#X floatatom 394 166 7 0 0 0 - - -;
#X obj 394 189 * 44.1;
#X floatatom 394 215 7 0 0 0 - - -;
#X text 401 230 numero de samples gravados;
#X obj 201 514 dac~;
#X obj 200 378 bng 15 250 50 0 empty empty empty 17 7 0 10 -262144
-1 -1;
#X obj 394 287 f;
#X obj 375 459 bng 15 250 50 0 empty empty empty 17 7 0 10 -262144
-1 -1;
#X obj 394 259 t b f;
#X msg 244 386 stop;
#X obj 590 278 spigot;
#X msg 597 252 1;
#X msg 646 253 0;
#X msg 394 319 10 \$1;
#X obj 456 563 spigot;
#X obj 489 534 tgl 15 0 empty empty loop_on/off 17 7 0 10 -262144 -1
-1 0 1;
#X obj 456 508 spigot;
#X msg 465 478 1;
#X obj 483 427 t b b;
#X msg 497 479 0;
#X text 687 393 vizualização;
#X obj 158 220 s \$0-on;
#X obj 239 215 s \$0-off;
#X obj 189 315 tabwrite~ \$0-array1;
#X obj 200 423 tabplay~ \$0-array1;
#X obj 394 42 r \$0-grava;
#X obj 414 71 r \$0-off;
#X obj 325 255 r \$0-loop;
#X obj 244 364 r \$0-on;
#X obj 456 589 s \$0-loop;
#X obj 605 179 s \$0-conta;
#X obj 597 230 r \$0-on;
#X obj 646 230 r \$0-off;
#X obj 590 299 s \$0-grava;
#X obj 671 425 r \$0-conta;
#X obj 757 417 r \$0-grava;
#X obj 689 451 r \$0-on;
#X obj 823 486 r \$0-off;
#X obj 842 559 r \$0-off;
#X obj 791 559 r \$0-on;
#X obj 775 656 s \$0-status;
#X obj 281 572 s \$0-loopb;
#X obj 323 227 r \$0-loopb;
#X obj 281 546 spigot;
#X obj 314 520 tgl 15 0 empty empty loop_on/off 17 7 0 10 -262144 -1
-1 0 1;
#X text 496 352 começa a ler o loop no tempo;
#X text 501 366 do metronomo;
#X text 279 592 leitura do loop;
#X text 280 608 sem metronomo;
#X text 587 634 3) tocar bumbo com Space;
#X obj 278 46 cnv 15 20 10 empty empty 2 20 12 0 40 -233017 -66577
0;
#X obj 570 602 cnv 15 20 10 empty empty 3 20 12 0 40 -233017 -66577
0;
#X obj 341 540 cnv 15 20 10 empty empty 4_-_4 20 12 0 40 -233017 -66577
0;
#X obj 189 253 r \$0-grava;
#X symbolatom 290 94 10 0 0 0 - - -;
#X text 215 21 2) press Esc;
#X obj 585 87 r global;
#X obj -42 167 sinc-audioin;
#X obj 200 487 *~;
#X obj 104 353 r \$0-grava;
#X msg 104 375 0;
#X obj 47 362 r \$0-off;
#X msg 47 385 1;
#X obj 199 461 *~;
#X obj 345 369 hsl 128 30 0 1 0 0 empty empty empty -2 -8 0 10 -261234
-1 -1 0 1;
#X msg 655 82 1;
#X obj 656 61 r \$0-on;
#X obj 202 48 sel Space;
#N canvas 0 0 1185 661 loop 0;
#N canvas 490 199 598 338 (subpatch) 0;
#X array \$0-array1 2e+06 float 2;
#X coords 0 1 2e+06 -1 200 140 1;
#X restore 10 514 graph;
#X obj 717 101 perk-hihat;
#X obj -30 141 perk-bassdrum;
#X obj 717 69 metro 500;
#X obj 717 37 tgl 15 0 empty empty empty 17 7 0 10 -262144 -1 -1 0
1;
#X text 829 55 metronomo;
#X obj 597 158 f;
#X obj 630 160 + 1;
#X floatatom 597 192 5 0 0 0 - - -;
#X obj 612 106 sel 0;
#X msg 612 128 1;
#X obj 597 238 sel 5;
#X obj 637 573 cnv 15 100 60 empty \$0-status gravando 20 12 0 40 -233017
-66577 0;
#X msg 785 643 label \$1;
#X msg 767 513 gravando;
#X obj 785 548 list2symbol;
#X obj 785 618 spigot;
#X msg 833 519 parado;
#X obj -34 15 keyname;
#X obj 5 42 sel Space;
#X obj 5 70 del 2;
#X obj -39 108 spigot;
#X obj 0 380 dac~;
#X obj 717 329 dac~;
#X msg 164 292 start;
#X msg 214 290 stop;
#X obj 173 31 keyname;
#X obj 212 86 del 2;
#X obj 168 124 spigot;
#X obj 168 148 bng 15 250 50 0 empty empty empty 17 7 0 10 -262144
-1 -1;
#X obj 168 172 sinc-alternate;
#X obj 168 194 bng 15 250 50 0 empty empty empty 17 7 0 10 -262144
-1 -1;
#X obj 249 198 bng 15 250 50 0 empty empty empty 17 7 0 10 -262144
-1 -1;
#X msg 801 591 1;
#X msg 852 591 0;
#X obj 767 451 t b b;
#X obj 681 514 spigot;
#X msg 699 488 1;
#X msg 731 488 0;
#X obj 404 120 t b b;
#X obj 404 152 timer;
#X floatatom 404 176 7 0 0 0 - - -;
#X obj 404 199 * 44.1;
#X floatatom 404 225 7 0 0 0 - - -;
#X text 411 240 numero de samples gravados;
#X obj 281 493 dac~;
#X obj 280 363 bng 15 250 50 0 empty empty empty 17 7 0 10 -262144
-1 -1;
#X obj 404 297 f;
#X obj 385 469 bng 15 250 50 0 empty empty empty 17 7 0 10 -262144
-1 -1;
#X obj 404 269 t b f;
#X msg 324 371 stop;
#X obj 597 316 spigot;
#X msg 604 290 1;
#X msg 653 291 0;
#X msg 404 329 10 \$1;
#X obj 718 287 *~;
#X obj 733 265 tgl 15 0 empty empty metronomo_on/off 17 7 0 10 -262144
-1 -1 0 1;
#X obj 474 601 spigot;
#X obj 507 572 tgl 15 0 empty empty loop_on/off 17 7 0 10 -262144 -1
-1 0 1;
#X text 28 24 musico;
#X obj 474 546 spigot;
#X msg 483 516 1;
#X obj 515 471 t b b;
#X msg 515 517 0;
#X text 695 402 vizualização;
#X obj 168 230 s \$0-on;
#X obj 249 225 s \$0-off;
#X obj 164 325 tabwrite~ \$0-array1;
#X obj 280 408 tabplay~ \$0-array1;
#X obj 404 52 r \$0-grava;
#X obj 424 81 r \$0-off;
#X obj 335 265 r \$0-loop;
#X obj 324 349 r \$0-on;
#X obj 474 627 s \$0-loop;
#X obj 593 79 r \$0-on;
#X obj 612 217 s \$0-conta;
#X obj 604 268 r \$0-on;
#X obj 653 268 r \$0-off;
#X obj 597 337 s \$0-grava;
#X obj 681 435 r \$0-conta;
#X obj 767 427 r \$0-grava;
#X obj 699 461 r \$0-on;
#X obj 833 496 r \$0-off;
#X obj 852 569 r \$0-off;
#X obj 801 569 r \$0-on;
#X obj 785 666 s \$0-status;
#X obj 292 599 s \$0-loopb;
#X obj 333 237 r \$0-loopb;
#X obj 292 573 spigot;
#X obj 325 547 tgl 15 0 empty empty loop_on/off 17 7 0 10 -262144 -1
-1 0 1;
#X text 422 395 começa a ler o loop no tempo;
#X text 427 409 do metronomo;
#X text 290 619 leitura do loop;
#X text 291 635 sem metronomo;
#X obj 717 12 loadbang;
#X text 761 294 1) ligue;
#X text 597 644 3) tocar bumbo com Space;
#X obj 786 315 cnv 15 20 10 empty empty 1 20 12 0 40 -233017 -66577
0;
#X obj 288 56 cnv 15 20 10 empty empty 2 20 12 0 40 -233017 -66577
0;
#X obj 580 612 cnv 15 20 10 empty empty 3 20 12 0 40 -233017 -66577
0;
#X obj 361 568 cnv 15 20 10 empty empty 4_-_4 20 12 0 40 -233017 -66577
0;
#X obj 164 263 r \$0-grava;
#X obj 660 142 s global;
#X obj 280 454 *~;
#X obj 95 395 hsl 128 30 0 1 0 0 empty empty empty -2 -8 0 10 -261234
-1 -1 0 1;
#X obj 474 293 bng 40 250 50 0 empty empty empty 17 7 0 10 -260097
-1 -1;
#X obj 212 58 sel Delete;
#X msg 799 40 500;
#X obj 799 74 s tempo_global;
#X obj 513 84 s global_on;
#X text 225 31 2) press Delete;
#X obj 779 12 inlet;
#X connect 1 0 55 0;
#X connect 2 0 67 0;
#X connect 3 0 1 0;
#X connect 3 0 6 0;
#X connect 3 0 102 0;
#X connect 4 0 3 0;
#X connect 4 0 9 0;
#X connect 4 0 109 0;
#X connect 6 0 7 0;
#X connect 6 0 8 0;
#X connect 7 0 6 1;
#X connect 8 0 11 0;
#X connect 8 0 62 0;
#X connect 8 0 75 0;
#X connect 8 0 105 0;
#X connect 9 0 10 0;
#X connect 10 0 6 1;
#X connect 11 0 51 0;
#X connect 13 0 85 0;
#X connect 14 0 15 0;
#X connect 15 0 16 0;
#X connect 16 0 13 0;
#X connect 17 0 15 0;
#X connect 18 0 21 1;
#X connect 18 1 19 0;
#X connect 19 0 20 0;
#X connect 20 0 21 0;
#X connect 21 0 2 0;
#X connect 24 0 67 0;
#X connect 25 0 67 0;
#X connect 26 0 28 1;
#X connect 26 1 106 0;
#X connect 27 0 28 0;
#X connect 28 0 29 0;
#X connect 29 0 30 0;
#X connect 30 0 31 0;
#X connect 30 1 32 0;
#X connect 31 0 65 0;
#X connect 32 0 25 0;
#X connect 32 0 66 0;
#X connect 33 0 16 1;
#X connect 34 0 16 1;
#X connect 35 0 14 0;
#X connect 35 1 38 0;
#X connect 36 0 15 0;
#X connect 37 0 36 1;
#X connect 38 0 36 1;
#X connect 39 0 40 0;
#X connect 39 1 40 1;
#X connect 40 0 41 0;
#X connect 41 0 42 0;
#X connect 42 0 43 0;
#X connect 43 0 49 0;
#X connect 46 0 68 0;
#X connect 47 0 54 0;
#X connect 48 0 61 0;
#X connect 48 0 88 0;
#X connect 49 0 47 0;
#X connect 49 1 47 1;
#X connect 50 0 68 0;
#X connect 51 0 78 0;
#X connect 52 0 51 1;
#X connect 53 0 51 1;
#X connect 54 0 68 0;
#X connect 55 0 23 0;
#X connect 55 0 23 1;
#X connect 56 0 55 1;
#X connect 57 0 73 0;
#X connect 58 0 57 1;
#X connect 60 0 57 0;
#X connect 61 0 60 1;
#X connect 62 0 63 0;
#X connect 62 1 60 0;
#X connect 63 0 60 1;
#X connect 68 0 103 0;
#X connect 68 1 48 0;
#X connect 69 0 39 0;
#X connect 70 0 39 0;
#X connect 71 0 47 0;
#X connect 72 0 50 0;
#X connect 74 0 10 0;
#X connect 76 0 52 0;
#X connect 77 0 53 0;
#X connect 79 0 36 0;
#X connect 80 0 35 0;
#X connect 81 0 37 0;
#X connect 82 0 17 0;
#X connect 83 0 34 0;
#X connect 84 0 33 0;
#X connect 87 0 47 0;
#X connect 88 0 86 0;
#X connect 89 0 88 1;
#X connect 94 0 4 0;
#X connect 101 0 24 0;
#X connect 103 0 45 0;
#X connect 103 0 45 1;
#X connect 104 0 103 1;
#X connect 106 0 27 0;
#X connect 107 0 3 1;
#X connect 107 0 108 0;
#X connect 111 0 3 1;
#X restore 553 25 pd loop master;
#X connect 1 0 2 0;
#X connect 1 0 3 0;
#X connect 2 0 1 1;
#X connect 3 0 4 0;
#X connect 3 0 46 0;
#X connect 3 0 58 0;
#X connect 4 0 38 0;
#X connect 6 0 68 0;
#X connect 7 0 8 0;
#X connect 8 0 9 0;
#X connect 9 0 6 0;
#X connect 10 0 8 0;
#X connect 11 0 51 0;
#X connect 12 0 51 0;
#X connect 13 0 15 1;
#X connect 13 1 82 0;
#X connect 13 1 95 0;
#X connect 14 0 15 0;
#X connect 15 0 16 0;
#X connect 16 0 17 0;
#X connect 17 0 18 0;
#X connect 17 1 19 0;
#X connect 18 0 49 0;
#X connect 19 0 12 0;
#X connect 19 0 50 0;
#X connect 20 0 9 1;
#X connect 21 0 9 1;
#X connect 22 0 7 0;
#X connect 22 1 25 0;
#X connect 23 0 8 0;
#X connect 24 0 23 1;
#X connect 25 0 23 1;
#X connect 26 0 27 0;
#X connect 26 1 27 1;
#X connect 27 0 28 0;
#X connect 28 0 29 0;
#X connect 29 0 30 0;
#X connect 30 0 36 0;
#X connect 33 0 52 0;
#X connect 34 0 41 0;
#X connect 35 0 45 0;
#X connect 35 0 71 0;
#X connect 36 0 34 0;
#X connect 36 1 34 1;
#X connect 37 0 52 0;
#X connect 38 0 61 0;
#X connect 39 0 38 1;
#X connect 40 0 38 1;
#X connect 41 0 52 0;
#X connect 42 0 57 0;
#X connect 43 0 42 1;
#X connect 44 0 42 0;
#X connect 45 0 44 1;
#X connect 46 0 47 0;
#X connect 46 1 44 0;
#X connect 47 0 44 1;
#X connect 52 0 91 0;
#X connect 52 1 35 0;
#X connect 53 0 26 0;
#X connect 54 0 26 0;
#X connect 55 0 34 0;
#X connect 56 0 37 0;
#X connect 59 0 39 0;
#X connect 60 0 40 0;
#X connect 62 0 23 0;
#X connect 63 0 22 0;
#X connect 64 0 24 0;
#X connect 65 0 10 0;
#X connect 66 0 21 0;
#X connect 67 0 20 0;
#X connect 70 0 34 0;
#X connect 71 0 69 0;
#X connect 72 0 71 1;
#X connect 81 0 11 0;
#X connect 84 0 1 0;
#X connect 85 0 51 0;
#X connect 86 0 32 0;
#X connect 86 0 32 1;
#X connect 87 0 88 0;
#X connect 88 0 86 1;
#X connect 89 0 90 0;
#X connect 90 0 86 1;
#X connect 91 0 86 0;
#X connect 92 0 91 1;
#X connect 93 0 1 1;
#X connect 94 0 93 0;
#X connect 95 0 14 0;
#X coords 0 -1 1 1 150 125 1 700 100;
