#N canvas 0 0 869 616 10;
#X obj 106 75 inlet;
#X obj 108 360 noteout;
#X floatatom 106 102 0 0 0 0 - - -;
#X obj 224 53 loadbang;
#X obj 106 194 metro;
#X obj 106 246 makenote;
#X floatatom 199 176 0 0 0 0 - - -;
#X obj 106 220 f;
#X floatatom 155 176 0 0 0 0 - - -;
#X floatatom 243 176 0 0 0 0 - - -;
#X floatatom 286 176 0 0 0 0 - - -;
#X msg 224 88 500;
#X msg 256 88 60;
#X msg 285 88 64;
#X msg 313 88 250;
#X text 154 155 rate;
#X text 197 155 pitch;
#X text 242 155 vel;
#X text 278 156 length;
#X obj 170 40 tgl 15 0 empty empty empty 17 7 0 10 -262144 -1 -1 1
1;
#X obj 386 75 inlet;
#X floatatom 386 102 0 0 0 0 - - -;
#X obj 504 53 loadbang;
#X obj 386 194 metro;
#X obj 386 246 makenote;
#X floatatom 479 176 0 0 0 0 - - -;
#X obj 386 220 f;
#X floatatom 435 176 0 0 0 0 - - -;
#X floatatom 523 176 0 0 0 0 - - -;
#X floatatom 566 176 0 0 0 0 - - -;
#X msg 504 88 500;
#X msg 565 88 64;
#X msg 593 88 250;
#X text 434 155 rate;
#X text 477 155 pitch;
#X text 522 155 vel;
#X text 558 156 length;
#X obj 450 40 tgl 15 0 empty empty empty 17 7 0 10 -262144 -1 -1 1
1;
#X obj 388 360 noteout 2;
#X msg 232 274 1;
#X msg 536 88 70;
#X obj 359 11 tgl 15 0 empty empty empty 17 7 0 10 -262144 -1 -1 0
1;
#X connect 0 0 2 0;
#X connect 2 0 4 0;
#X connect 3 0 11 0;
#X connect 3 0 12 0;
#X connect 3 0 13 0;
#X connect 3 0 14 0;
#X connect 4 0 7 0;
#X connect 5 0 1 0;
#X connect 5 1 1 1;
#X connect 6 0 7 1;
#X connect 7 0 5 0;
#X connect 8 0 4 1;
#X connect 9 0 5 1;
#X connect 10 0 5 2;
#X connect 11 0 8 0;
#X connect 12 0 6 0;
#X connect 13 0 9 0;
#X connect 14 0 10 0;
#X connect 19 0 2 0;
#X connect 20 0 21 0;
#X connect 21 0 23 0;
#X connect 22 0 30 0;
#X connect 22 0 40 0;
#X connect 22 0 31 0;
#X connect 22 0 32 0;
#X connect 23 0 26 0;
#X connect 24 0 38 0;
#X connect 24 1 38 1;
#X connect 25 0 26 1;
#X connect 26 0 24 0;
#X connect 27 0 23 1;
#X connect 28 0 24 1;
#X connect 29 0 24 2;
#X connect 30 0 27 0;
#X connect 31 0 28 0;
#X connect 32 0 29 0;
#X connect 37 0 21 0;
#X connect 39 0 1 2;
#X connect 40 0 25 0;
#X connect 41 0 19 0;
#X connect 41 0 37 0;
