#N canvas 114 163 1126 793 10;
#N canvas 128 116 1152 908 algoritmos_generativos 0;
#X obj 428 750 sinc-gera_melodico;
#X obj 862 558 sinc-gera_ritmo;
#X obj 911 263 sinc-calc_ritmo;
#X obj 443 115 unpack f f;
#X floatatom 500 143 5 0 0 0 - - -;
#X obj 500 165 sel 1;
#X obj 741 213 bng 15 250 50 0 empty empty empty 17 7 0 10 -262144
-1 -1;
#X obj 726 747 sinc-gera_dinamica;
#X obj 862 687 t b b;
#X obj 780 618 random 127;
#X obj 47 709 cnv 15 260 100 empty empty MIDI_out_geradores -50 12
0 14 -204786 -66577 0;
#X obj 137 751 play2;
#X floatatom 137 730 4 0 0 2 note - -;
#X floatatom 213 729 5 0 0 2 dur - -;
#X floatatom 175 729 4 0 0 2 vel - -;
#X obj 213 693 r dur;
#X obj 174 693 r vel;
#X obj 137 669 r nota_sai;
#X msg 259 708 2;
#X obj 259 676 loadbang;
#X obj 544 878 s nota_sai;
#X obj 944 874 s vel;
#X obj 1080 690 s dur;
#X obj 428 234 f;
#X obj 443 87 spigot;
#X obj 16 251 metro;
#X obj 16 275 counter;
#X floatatom 16 301 5 0 0 0 - - -;
#X obj 16 227 tgl 15 0 empty empty empty 17 7 0 10 -262144 -1 -1 1
1;
#X floatatom 16 366 5 0 0 0 - - -;
#X floatatom 129 362 5 0 0 0 - - -;
#X text 20 345 atividade;
#X floatatom 290 483 5 0 0 0 - - -;
#X text 138 381 pausa;
#X text 253 441 parou de tocar;
#X floatatom 1007 385 5 0 0 0 - - -;
#X obj 1007 411 sel 1;
#X obj 1051 473 random 3;
#X msg 1007 497 0;
#X obj 1051 497 + 1;
#X obj 1007 434 bng 15 250 50 0 empty empty empty 17 7 0 10 -262144
-1 -1;
#X obj 1051 443 bng 15 250 50 0 empty empty empty 17 7 0 10 -262144
-1 -1;
#X obj 290 611 line;
#X msg 16 470 0.5 1000;
#X obj 129 468 bng 15 250 50 0 empty empty empty 17 7 0 10 -262144
-1 -1;
#X obj 293 638 hsl 100 15 0 1 0 0 empty empty empty -2 -8 0 10 -262144
-1 -1 0 1;
#X obj 16 403 speedlim 100;
#X obj 290 507 speedlim 100;
#X obj 290 536 bng 15 250 50 0 empty empty empty 17 7 0 10 -262144
-1 -1;
#X msg 290 566 0 2000;
#X obj 450 483 sinc-permeabilidade;
#X obj 663 578 moses 4;
#X obj 702 602 bng 15 250 50 0 empty empty empty 17 7 0 10 -262144
-1 -1;
#X msg 661 621 0;
#X obj 663 602 bng 15 250 50 0 empty empty empty 17 7 0 10 -262144
-1 -1;
#X floatatom 661 679 5 0 0 0 - - -;
#X obj 702 626 random 3;
#X obj 702 648 + 1;
#X obj 443 32 inlet;
#X obj 476 58 inlet;
#X obj 16 323 moses 800;
#X obj 16 434 bng 15 250 50 0 empty empty empty 17 7 0 10 -262144 -1
-1;
#X obj 129 442 speedlim 500;
#X obj 129 399 moses 1500;
#X msg 129 490 1 700;
#X obj 233 458 moses 4000;
#X obj 16 170 loadbang;
#X msg 16 202 1;
#X msg 10 768 60 100 500;
#X obj 11 803 unpack f f f;
#X connect 0 1 20 0;
#X connect 1 0 8 0;
#X connect 1 1 22 0;
#X connect 2 1 35 0;
#X connect 2 2 1 1;
#X connect 3 0 23 1;
#X connect 3 1 4 0;
#X connect 4 0 5 0;
#X connect 5 0 6 0;
#X connect 5 0 9 0;
#X connect 5 0 23 0;
#X connect 5 0 26 2;
#X connect 6 0 2 0;
#X connect 6 0 1 0;
#X connect 6 0 1 3;
#X connect 7 2 21 0;
#X connect 8 0 0 2;
#X connect 8 1 7 3;
#X connect 9 0 7 1;
#X connect 12 0 11 0;
#X connect 13 0 11 2;
#X connect 14 0 11 1;
#X connect 15 0 13 0;
#X connect 16 0 14 0;
#X connect 17 0 12 0;
#X connect 18 0 11 4;
#X connect 19 0 18 0;
#X connect 23 0 0 0;
#X connect 23 0 50 0;
#X connect 24 0 3 0;
#X connect 25 0 26 0;
#X connect 26 0 27 0;
#X connect 27 0 60 0;
#X connect 28 0 25 0;
#X connect 29 0 46 0;
#X connect 30 0 63 0;
#X connect 32 0 47 0;
#X connect 35 0 36 0;
#X connect 36 0 40 0;
#X connect 36 1 41 0;
#X connect 37 0 39 0;
#X connect 38 0 1 2;
#X connect 39 0 1 2;
#X connect 40 0 38 0;
#X connect 41 0 37 0;
#X connect 42 0 45 0;
#X connect 43 0 42 0;
#X connect 44 0 64 0;
#X connect 45 0 11 5;
#X connect 46 0 61 0;
#X connect 47 0 48 0;
#X connect 48 0 49 0;
#X connect 49 0 42 0;
#X connect 50 1 51 0;
#X connect 51 0 54 0;
#X connect 51 1 52 0;
#X connect 52 0 56 0;
#X connect 53 0 55 0;
#X connect 54 0 53 0;
#X connect 55 0 0 3;
#X connect 56 0 57 0;
#X connect 57 0 55 0;
#X connect 58 0 24 0;
#X connect 59 0 24 1;
#X connect 60 0 29 0;
#X connect 60 1 30 0;
#X connect 61 0 43 0;
#X connect 62 0 44 0;
#X connect 63 0 62 0;
#X connect 63 1 65 0;
#X connect 64 0 42 0;
#X connect 65 1 32 0;
#X connect 66 0 67 0;
#X connect 67 0 28 0;
#X connect 68 0 69 0;
#X connect 69 0 12 0;
#X connect 69 1 14 0;
#X connect 69 2 13 0;
#X restore 560 486 pd algoritmos_generativos;
#X obj 707 420 tgl 50 0 empty empty empty 17 7 0 10 -261682 -1 -1 0
1;
#X obj 492 245 sinc-midiin;
#X obj 134 495;
#X text 403 526 midi salvo: canal 5;
#X text 405 545 algoritmos: canal 2;
#X connect 1 0 0 1;
#X connect 2 0 0 0;
