#N canvas 119 55 1033 611 10;
#X obj 136 145 colecao_vs_pitch;
#X obj 136 166 bng 15 250 50 0 empty empty empty 17 7 0 10 -262144
-1 -1;
#X obj 229 167 bng 15 250 50 0 empty empty empty 17 7 0 10 -262144
-1 -1;
#X text 234 190 não está;
#X text 137 182 está;
#N canvas 0 0 450 300 (subpatch) 0;
#X array \$0-nota 7 float 3;
#A 0 5 4 6 6 5 5 6;
#X coords 0 127 7 0 90 50 1;
#X restore 102 434 graph;
#X obj -130 378 tabwrite \$0-nota;
#X obj -77 232 f \$0;
#X obj -110 277 symbol;
#X obj -77 208 loadbang;
#X obj -77 256 makefilename %d-nota;
#X obj -130 322 t f b;
#X obj -110 300 outlet nome do array \$0-nota;
#X obj -263 309 tabdump \$0-nota;
#X obj -149 207 t b f b;
#X obj -37 356 counter 6;
#X obj -263 336 s lista_pitch;
#X obj 229 119 r lista_pitch;
#X obj 201 433 hsl 100 50 0 6 0 0 empty empty empty -2 -8 0 10 -204786
-1 -1 9900 1;
#X text 180 470 impermeável;
#X text 247 432 permeável;
#X obj 329 165 bng 15 250 50 0 empty empty reset 17 7 0 10 -262144
-1 -1;
#X obj 198 509 outlet;
#X obj 343 80 inlet reset;
#X obj 109 85 inlet classe de nota;
#X obj 109 116 t b f f;
#X obj 71 24 hradio 15 1 0 8 empty empty empty 0 -8 0 10 -262144 -1
-1 6;
#X obj 175 293 f;
#X obj 117 295 - 1;
#X obj 267 290 f;
#X obj 219 295 + 1;
#X floatatom 198 340 5 0 0 0 - - -;
#X msg 323 193 0;
#X floatatom 164 371 5 0 0 0 - - -;
#X connect 0 0 1 0;
#X connect 0 1 2 0;
#X connect 1 0 27 0;
#X connect 2 0 29 0;
#X connect 7 0 10 0;
#X connect 8 0 12 0;
#X connect 9 0 7 0;
#X connect 10 0 8 1;
#X connect 11 0 6 0;
#X connect 11 1 15 0;
#X connect 13 0 16 0;
#X connect 14 0 13 0;
#X connect 14 1 11 0;
#X connect 14 2 8 0;
#X connect 15 0 6 1;
#X connect 17 0 0 1;
#X connect 18 0 22 0;
#X connect 21 0 32 0;
#X connect 23 0 21 0;
#X connect 24 0 25 0;
#X connect 25 1 14 0;
#X connect 25 2 0 0;
#X connect 26 0 25 0;
#X connect 27 0 28 0;
#X connect 28 0 31 0;
#X connect 29 0 30 0;
#X connect 30 0 31 0;
#X connect 31 0 27 1;
#X connect 31 0 29 1;
#X connect 31 0 33 0;
#X connect 32 0 29 1;
#X connect 32 0 27 1;
