#N canvas 327 59 856 503 10;
#X obj 167 338 probalizer 300 100 5 100 1 0 68 1 17 2 100 3 20 4 65
;
#X obj 167 102 bng 15 250 50 0 empty empty empty 17 7 0 10 -262144
-1 -1;
#X obj 167 134 t b b;
#X obj 167 168 timer;
#X floatatom 167 207 5 0 0 0 - - -;
#X floatatom 167 264 5 0 0 0 - - -;
#X floatatom 241 264 5 0 0 0 - - -;
#X floatatom 308 262 5 0 0 0 - - -;
#X floatatom 380 263 5 0 0 0 - - -;
#X floatatom 437 262 5 0 0 0 - - -;
#X obj 380 240 moses 1500;
#X obj 308 240 moses 1000;
#X obj 241 240 moses 500;
#X obj 167 241 moses 200;
#X obj 706 260 shuffle 70 200;
#X msg 167 287 1;
#X msg 241 285 2;
#X msg 308 284 3;
#X msg 380 284 4;
#X msg 437 283 5;
#X msg 484 314 zero;
#X obj 167 465 s indice-tempo;
#X obj 614 66 r indice-tempo;
#X obj 31 108 bng 15 250 50 0 empty empty empty 17 7 0 10 -262144 -1
-1;
#X obj 614 111 select 1 2 3 4 5;
#X obj 705 235 shuffle 200 500;
#X obj 705 210 shuffle 500 1000;
#X obj 706 184 shuffle 1000 1500;
#X obj 707 156 shuffle 1500 3000;
#X floatatom 614 88 5 0 0 0 - - -;
#X obj 31 58 inlet pede-nota;
#X obj 167 59 inlet input-ataque;
#X floatatom 613 339 5 0 0 0 - - -;
#X obj 613 378 outlet;
#X connect 0 0 21 0;
#X connect 0 1 20 0;
#X connect 1 0 2 0;
#X connect 2 0 3 0;
#X connect 2 1 3 1;
#X connect 3 0 4 0;
#X connect 4 0 13 0;
#X connect 5 0 15 0;
#X connect 6 0 16 0;
#X connect 7 0 17 0;
#X connect 8 0 18 0;
#X connect 9 0 19 0;
#X connect 10 0 8 0;
#X connect 10 1 9 0;
#X connect 11 0 7 0;
#X connect 11 1 10 0;
#X connect 12 0 6 0;
#X connect 12 1 11 0;
#X connect 13 0 5 0;
#X connect 13 1 12 0;
#X connect 14 0 32 0;
#X connect 15 0 0 0;
#X connect 16 0 0 0;
#X connect 17 0 0 0;
#X connect 18 0 0 0;
#X connect 19 0 0 0;
#X connect 20 0 0 0;
#X connect 22 0 29 0;
#X connect 23 0 0 0;
#X connect 24 0 14 0;
#X connect 24 1 25 0;
#X connect 24 2 26 0;
#X connect 24 3 27 0;
#X connect 24 4 28 0;
#X connect 25 0 32 0;
#X connect 26 0 32 0;
#X connect 27 0 32 0;
#X connect 28 0 32 0;
#X connect 29 0 24 0;
#X connect 30 0 23 0;
#X connect 31 0 1 0;
#X connect 32 0 33 0;
