#N canvas 435 87 695 553 10;
#X obj 48 29 sinc-sample;
#X obj 48 252 sinc-audioanalise;
#X obj 82 230 dac~;
#X floatatom 157 425 5 0 0 0 - - -;
#X text 162 445 nota;
#X obj 49 425 bng 15 250 50 0 empty empty empty 17 7 0 10 -262144 -1
-1;
#X text 0 419 note-on;
#X floatatom 95 453 5 0 0 0 - - -;
#X obj 95 420 dbtorms;
#X obj 96 485 moses;
#X floatatom 141 465 5 0 0 0 - - -;
#X floatatom 94 517 5 0 0 0 - - -;
#X text 131 520 note-off;
#X obj 359 343 seq;
#X msg 444 269 write test1.mid;
#X msg 313 149 bang;
#X msg 305 268 record;
#X msg 313 176 stop;
#X obj 318 130 bng 15 250 50 0 empty empty empty 0 -6 0 10 -262144
-1 -1;
#X msg 360 268 stop record;
#X msg 444 292 read test1.mid;
#X msg 363 175 pause;
#X msg 423 175 continue;
#X text 346 130 loop;
#X text 351 148 play;
#X text 374 240 recording;
#X text 384 347 <-- click object to open list editor;
#X text 542 268 save in patch folder;
#X connect 0 0 1 0;
#X connect 0 0 2 0;
#X connect 0 0 2 1;
#X connect 1 0 5 0;
#X connect 1 2 8 0;
#X connect 1 4 3 0;
#X connect 7 0 9 0;
#X connect 8 0 7 0;
#X connect 9 0 11 0;
#X connect 10 0 9 1;
#X connect 13 1 18 0;
#X connect 14 0 13 0;
#X connect 15 0 13 0;
#X connect 16 0 13 0;
#X connect 17 0 13 0;
#X connect 18 0 15 0;
#X connect 19 0 13 0;
#X connect 20 0 13 0;
#X connect 21 0 13 0;
#X connect 22 0 13 0;
