#N canvas 19 24 1238 676 12;
#N canvas 0 0 450 300 (subpatch) 0;
#X array zero 3 float 1;
#A 0 112.993 72.1718 85.779;
#X coords 0 127 2 0 200 140 1;
#X restore 466 22 graph;
#N canvas 0 0 450 300 (subpatch) 0;
#X array um 3 float 1;
#A 0 63.4217 110.593 0.964282;
#X coords 0 127 2 0 200 140 1;
#X restore 724 23 graph;
#N canvas 311 40 593 405 (subpatch) 0;
#X array dois 3 float 1;
#A 0 103.436 70.7789 51.7288;
#X coords 0 127 2 0 200 140 1;
#X restore 979 22 graph;
#N canvas 0 0 450 300 (subpatch) 0;
#X array input 3 float 1;
#A 0 88.0364 76.2435 54.4718;
#X coords 0 127 2 0 200 140 1;
#X restore 929 453 graph;
#N canvas 20 87 668 624 reduz 0;
#X floatatom 118 251 5 0 0 0 - - -;
#X obj 118 203 t f f;
#X obj 118 156 until;
#X floatatom 118 399 5 0 0 0 min - -;
#X floatatom 181 399 5 0 0 0 max - -;
#X msg 259 300 set;
#X msg 150 303 add2 \$1;
#X msg 118 338 76.2435 54.4718 88.0364;
#X obj 118 376 list-minmax;
#X obj 118 135 t f b;
#X obj 118 422 s min;
#X obj 37 435 list-drip;
#X obj 118 273 t b f;
#X obj 181 421 s max;
#X obj 93 473 r min;
#X obj 93 495 t b f;
#X obj 142 499 r max;
#X floatatom 37 508 5 0 0 0 - - -;
#X obj 37 470 t f b;
#X obj 118 87 t b b;
#X obj 118 25 bng 15 250 50 0 empty empty empty 17 7 0 10 -262144 -1
-1;
#X obj 37 537 scale.linear 0 127 0 2;
#X obj 136 563 counter 2;
#X obj 118 178 counter 2;
#X obj 118 228 tabread zero;
#X obj 37 595 tabwrite zero_norm;
#X msg 118 112 3;
#X msg 308 132 set um;
#X msg 403 404 set um_norm;
#X msg 318 160 set dois;
#X msg 384 434 set dois_norm;
#X msg 299 105 set zero;
#X msg 421 379 set zero_norm;
#X msg 376 466 set input_norm;
#X msg 322 188 set input;
#X obj 118 47 t b b b b b b b b;
#X obj 118 -1 inlet;
#X connect 0 0 12 0;
#X connect 1 0 24 0;
#X connect 2 0 23 0;
#X connect 3 0 10 0;
#X connect 4 0 13 0;
#X connect 5 0 7 0;
#X connect 6 0 7 0;
#X connect 7 0 8 0;
#X connect 7 0 11 0;
#X connect 8 0 3 0;
#X connect 8 1 4 0;
#X connect 9 0 2 0;
#X connect 9 1 5 0;
#X connect 11 0 18 0;
#X connect 12 0 7 0;
#X connect 12 1 6 0;
#X connect 14 0 15 0;
#X connect 15 1 21 1;
#X connect 16 0 21 2;
#X connect 17 0 21 0;
#X connect 18 0 17 0;
#X connect 18 1 22 0;
#X connect 19 0 26 0;
#X connect 19 1 26 0;
#X connect 20 0 35 0;
#X connect 21 0 25 0;
#X connect 22 0 25 1;
#X connect 23 0 1 0;
#X connect 24 0 0 0;
#X connect 26 0 9 0;
#X connect 27 0 24 0;
#X connect 28 0 25 0;
#X connect 29 0 24 0;
#X connect 30 0 25 0;
#X connect 31 0 24 0;
#X connect 32 0 25 0;
#X connect 33 0 25 0;
#X connect 34 0 24 0;
#X connect 35 0 19 0;
#X connect 35 1 34 0;
#X connect 35 1 33 0;
#X connect 35 2 19 0;
#X connect 35 3 29 0;
#X connect 35 3 30 0;
#X connect 35 4 19 0;
#X connect 35 5 27 0;
#X connect 35 5 28 0;
#X connect 35 6 19 0;
#X connect 35 7 31 0;
#X connect 35 7 32 0;
#X connect 36 0 20 0;
#X restore -18 80 pd reduz contorno;
#N canvas 0 0 450 300 (subpatch) 0;
#X array zero_norm 3 float 1;
#A 0 2 0 0.666673;
#X coords 0 2 2 0 200 140 1;
#X restore 474 240 graph;
#N canvas 0 0 450 300 (subpatch) 0;
#X array um_norm 3 float 1;
#A 0 1.13944 2 0;
#X coords 0 2 2 0 200 140 1;
#X restore 727 239 graph;
#N canvas 0 0 450 300 (subpatch) 0;
#X array dois_norm 3 float 1;
#A 0 2 0.736845 0;
#X coords 0 2 2 0 200 140 1;
#X restore 978 243 graph;
#N canvas 0 0 450 300 (subpatch) 0;
#X array input_norm 3 float 1;
#A 0 2 1.2973 0;
#X coords 0 2 2 0 200 140 1;
#X restore 659 452 graph;
#X obj -18 53 bng 15 250 50 0 empty empty empty 17 7 0 10 -262144 -1
-1;
#X text 9 52 1) reduz todos contornos a forma normal;
#X text 22 130 2) carrega todos contornos normalizados como padrões
;
#N canvas 78 189 1151 418 aparencia 0;
#X msg -29 -78 \; zero xlabel -7 0 1 2;
#X msg -29 -39 \; zero ylabel -0.2 0 63 127;
#X msg -30 -2 \; zero xticks 0 1 1;
#X msg -31 36 \; zero yticks 0 12 2;
#X msg 161 -79 \; um xlabel -7 0 1 2;
#X msg 161 -40 \; um ylabel -0.2 0 63 127;
#X msg 160 -3 \; um xticks 0 1 1;
#X msg 159 35 \; um yticks 0 12 2;
#X msg 354 -79 \; dois xlabel -7 0 1 2;
#X msg 354 -40 \; dois ylabel -0.2 0 63 127;
#X msg 353 -3 \; dois xticks 0 1 1;
#X msg 352 35 \; dois yticks 0 12 2;
#X msg -29 98 \; input xlabel -7 0 1 2;
#X msg -29 137 \; input ylabel -0.2 0 63 127;
#X msg -30 174 \; input xticks 0 1 1;
#X msg -31 212 \; input yticks 0 12 2;
#X msg 197 101 \; zero_norm xlabel -0.1 0 1 2;
#X msg 197 140 \; zero_norm ylabel -0.07 0 1 2;
#X msg 196 177 \; zero_norm xticks 0 1 1;
#X msg 195 215 \; zero_norm yticks 0 1 1;
#X msg 417 101 \; um_norm xlabel -0.1 0 1 2;
#X msg 417 140 \; um_norm ylabel -0.07 0 1 2;
#X msg 416 177 \; um_norm xticks 0 1 1;
#X msg 415 215 \; um_norm yticks 0 1 1;
#X msg 627 91 \; dois_norm xlabel -0.1 0 1 2;
#X msg 627 130 \; dois_norm ylabel -0.07 0 1 2;
#X msg 626 167 \; dois_norm xticks 0 1 1;
#X msg 625 205 \; dois_norm yticks 0 1 1;
#X msg 857 91 \; input_norm xlabel -0.1 0 1 2;
#X msg 857 130 \; input_norm ylabel -0.07 0 1 2;
#X msg 856 167 \; input_norm xticks 0 1 1;
#X msg 855 205 \; input_norm yticks 0 1 1;
#X obj 314 -162 loadbang;
#X connect 32 0 0 0;
#X connect 32 0 1 0;
#X connect 32 0 2 0;
#X connect 32 0 3 0;
#X connect 32 0 4 0;
#X connect 32 0 5 0;
#X connect 32 0 6 0;
#X connect 32 0 7 0;
#X connect 32 0 8 0;
#X connect 32 0 9 0;
#X connect 32 0 10 0;
#X connect 32 0 11 0;
#X connect 32 0 12 0;
#X connect 32 0 13 0;
#X connect 32 0 14 0;
#X connect 32 0 15 0;
#X connect 32 0 16 0;
#X connect 32 0 17 0;
#X connect 32 0 18 0;
#X connect 32 0 19 0;
#X connect 32 0 20 0;
#X connect 32 0 21 0;
#X connect 32 0 22 0;
#X connect 32 0 23 0;
#X connect 32 0 24 0;
#X connect 32 0 25 0;
#X connect 32 0 26 0;
#X connect 32 0 27 0;
#X connect 32 0 28 0;
#X connect 32 0 29 0;
#X connect 32 0 30 0;
#X connect 32 0 31 0;
#X restore 328 575 pd aparencia contornos;
#N canvas 0 0 679 659 choice 0;
#X obj 89 512 choice;
#X msg -31 335 clear;
#X obj 408 348 pack 0 0 0;
#X floatatom 570 292 0 0 0 0 - - -;
#X floatatom 494 291 0 0 0 0 - - -;
#X floatatom 426 290 0 0 0 0 - - -;
#X obj 408 324 f;
#X msg 408 221 bang;
#X floatatom 89 546 0 0 0 0 - - -;
#X obj 251 115 bng 15 250 50 0 empty empty empty 17 7 0 10 -262144
-1 -1;
#X obj 89 226 prepend add2;
#X msg 89 267 2 0 0.666673 1.13944 2 0 2 0.736845 0;
#X obj 37 -3 bng 15 250 50 0 empty empty empty 17 7 0 10 -262144 -1
-1;
#X obj 60 60 t b b b;
#X obj 124 123 bng 15 250 50 0 empty empty empty 17 7 0 10 -262144
-1 -1;
#X obj -14 121 bng 15 250 50 0 empty empty empty 17 7 0 10 -262144
-1 -1;
#X msg 89 313 add \$1 \$2 \$3 \, add \$4 \$5 \$6 \, add \$7 \$8 \$9
;
#X obj 37 20 t b b b;
#X msg 262 196 set;
#X obj 408 169 bng 15 250 50 0 empty empty empty 17 7 0 10 -262144
-1 -1;
#X obj 454 259 unpack f f f;
#X obj 408 190 t b b;
#X msg 31 354 print;
#X obj -31 299 r reset;
#X obj 185 54 s reset;
#X obj -14 144 tabdump dois_norm;
#X obj 124 144 tabdump um_norm;
#X obj 251 143 tabdump zero_norm;
#X obj 454 233 tabdump input_norm;
#X obj 37 -31 inlet;
#X obj 408 138 inlet;
#X obj 88 571 outlet;
#X text 90 -29 padrões;
#X text 463 137 candidato;
#X connect 0 0 8 0;
#X connect 1 0 0 0;
#X connect 2 0 0 0;
#X connect 3 0 2 2;
#X connect 4 0 2 1;
#X connect 5 0 6 1;
#X connect 6 0 2 0;
#X connect 7 0 6 0;
#X connect 8 0 31 0;
#X connect 9 0 27 0;
#X connect 10 0 11 0;
#X connect 11 0 16 0;
#X connect 12 0 17 0;
#X connect 13 0 15 0;
#X connect 13 1 14 0;
#X connect 13 2 9 0;
#X connect 14 0 26 0;
#X connect 15 0 25 0;
#X connect 16 0 0 0;
#X connect 17 0 11 0;
#X connect 17 1 13 0;
#X connect 17 2 18 0;
#X connect 17 2 24 0;
#X connect 18 0 11 0;
#X connect 19 0 21 0;
#X connect 20 0 5 0;
#X connect 20 1 4 0;
#X connect 20 2 3 0;
#X connect 21 0 7 0;
#X connect 21 1 28 0;
#X connect 22 0 0 0;
#X connect 23 0 1 0;
#X connect 25 0 10 0;
#X connect 26 0 10 0;
#X connect 27 0 10 0;
#X connect 28 0 20 0;
#X connect 29 0 12 0;
#X connect 30 0 19 0;
#X restore -17 208 pd choice;
#X obj -17 138 bng 15 250 50 0 empty empty empty 17 7 0 10 -262144
-1 -1;
#X obj 43 179 bng 15 250 50 0 empty empty empty 17 7 0 10 -262144 -1
-1;
#X text 70 184 3) investiga qual padrão corresponde a \; entrada em
"input" (candidato);
#X text 392 -22 Padrões de 0 a 127:;
#X text 396 197 Padrões na forma normal 0 - 2;
#X obj -17 320 nbx 3 40 -1e+37 1e+37 0 0 empty empty empty 0 -8 0 40
-262144 -1 -1 0 256;
#X text -8 255 Resultado:;
#X text -7 281 O contorno do candidato mais se identifica com \; o
contorno do array:;
#X connect 9 0 4 0;
#X connect 13 0 19 0;
#X connect 14 0 13 0;
#X connect 15 0 13 1;
