#N canvas 101 148 402 439 10;
#X obj 79 63 inlet;
#X obj 79 387 outlet;
#X obj 79 357 +;
#X obj 79 322 *;
#X obj 118 276 -;
#X obj 79 246 /;
#X obj 79 212 -;
#X obj 167 188 -;
#X obj 167 132 f \$1;
#X obj 222 76 loadbang;
#X obj 222 131 f \$2;
#X obj 269 131 f \$3;
#X obj 316 131 f \$4;
#X obj 79 130 t f b b;
#X obj 269 265 f;
#X obj 182 21 inlet;
#X obj 258 19 inlet;
#X obj 79 90 t f b;
#X text 219 368 BUGADO;
#X connect 0 0 17 0;
#X connect 2 0 1 0;
#X connect 3 0 2 0;
#X connect 4 0 3 1;
#X connect 5 0 3 0;
#X connect 6 0 5 0;
#X connect 7 0 5 1;
#X connect 8 0 6 1;
#X connect 8 0 7 0;
#X connect 9 0 8 0;
#X connect 9 0 10 0;
#X connect 9 0 11 0;
#X connect 9 0 12 0;
#X connect 10 0 7 1;
#X connect 11 0 4 0;
#X connect 11 0 14 0;
#X connect 12 0 4 1;
#X connect 13 0 6 0;
#X connect 13 1 7 0;
#X connect 13 2 4 0;
#X connect 14 0 2 1;
#X connect 15 0 8 1;
#X connect 16 0 10 1;
#X connect 17 0 13 0;
#X connect 17 1 8 0;
#X connect 17 1 10 0;
