#N canvas 4 26 1117 619 10;
#X obj 45 28 cnv 15 185 200 empty empty empty 20 12 0 14 -204786 -66577
0;
#X obj 80 36 keyname;
#X symbolatom 119 62 10 0 0 0 - - -;
#X obj 119 106 bng 15 250 50 0 empty empty empty 17 7 0 10 -262144
-1 -1;
#X floatatom 80 62 5 0 0 0 - - -;
#X obj 47 87 spigot;
#X obj 47 113 bng 15 250 50 0 empty empty empty 17 7 0 10 -262144 -1
-1;
#X floatatom 47 156 5 0 0 0 - - -;
#N canvas 5 160 425 284 selects 1;
#X obj 35 252 outlet;
#X msg 20 211 1;
#X msg 123 210 0;
#X msg 89 208 1;
#X msg 55 210 0;
#X msg 168 209 1;
#X msg 286 210 0;
#X msg 242 211 1;
#X msg 206 210 0;
#X obj 95 252 outlet;
#X obj 185 252 outlet;
#X obj 245 252 outlet;
#X obj 118 46 sel 0 1 2 3;
#X obj 118 12 inlet;
#X connect 1 0 0 0;
#X connect 2 0 9 0;
#X connect 3 0 9 0;
#X connect 4 0 0 0;
#X connect 5 0 10 0;
#X connect 6 0 11 0;
#X connect 7 0 11 0;
#X connect 8 0 10 0;
#X connect 12 0 1 0;
#X connect 12 0 2 0;
#X connect 12 0 8 0;
#X connect 12 0 6 0;
#X connect 12 1 3 0;
#X connect 12 1 4 0;
#X connect 12 1 8 0;
#X connect 12 1 6 0;
#X connect 12 2 5 0;
#X connect 12 2 4 0;
#X connect 12 2 2 0;
#X connect 12 2 6 0;
#X connect 12 3 7 0;
#X connect 12 3 4 0;
#X connect 12 3 2 0;
#X connect 12 3 8 0;
#X connect 13 0 12 0;
#X restore 47 189 pd selects;
#X obj 119 82 select Escape;
#X text 153 30 botao ESC;
#X text 182 351 saida 2: switch de geradores(volumes);
#X text 162 373 saida 1: liga/desliga funções looper;
#X text 193 331 saida 3: switch de cenarios;
#X obj 105 291 tgl 15 0 empty empty empty 17 7 0 10 -262144 -1 -1 0
1;
#X obj 47 132 counter 3;
#X text 409 350 geradores:;
#X text 487 352 1) MIDI;
#X text 487 361 2) Looper;
#X text 486 372 3) Sintese;
#X text 487 383 4) Harmonizador;
#X obj 47 220 tgl 15 0 empty empty empty 17 7 0 10 -262144 -1 -1 0
1;
#X obj 66 237 tgl 15 0 empty empty empty 17 7 0 10 -262144 -1 -1 0
1;
#X obj 85 262 tgl 15 0 empty empty empty 17 7 0 10 -262144 -1 -1 0
1;
#X text 234 309 saida 4: switch de fx: 1)reverb;
#X text 371 318 2)delay;
#X obj 47 370 s teclado_global1;
#X obj 66 351 s teclado_global2;
#X obj 85 331 s teclado_global3;
#X obj 105 309 s teclado_global4;
#X obj 427 143 tgl 15 0 empty empty fx 0 -5 0 10 -262144 -1 -1 0 1
;
#X obj 302 143 tgl 15 0 empty empty loop 0 -5 0 10 -262144 -1 -1 0
1;
#X obj 332 143 tgl 15 0 empty empty geradores 0 -5 0 10 -262144 -1
-1 0 1;
#X obj 389 143 tgl 15 0 empty empty cenas 0 -5 0 10 -262144 -1 -1 0
1;
#X obj 766 52 keyname;
#X symbolatom 805 78 10 0 0 0 - - -;
#X obj 805 122 bng 15 250 50 0 empty empty empty 17 7 0 10 -262144
-1 -1;
#X floatatom 766 78 5 0 0 0 - - -;
#X obj 733 163 spigot;
#X obj 733 189 bng 15 250 50 0 empty empty empty 17 7 0 10 -262144
-1 -1;
#X floatatom 733 232 5 0 0 0 - - -;
#N canvas 5 160 425 284 selects 0;
#X obj 35 252 outlet;
#X msg 20 211 1;
#X msg 123 210 0;
#X msg 89 208 1;
#X msg 55 210 0;
#X msg 168 209 1;
#X msg 286 210 0;
#X msg 242 211 1;
#X msg 206 210 0;
#X obj 95 252 outlet;
#X obj 185 252 outlet;
#X obj 245 252 outlet;
#X obj 118 46 sel 0 1 2 3;
#X obj 118 12 inlet;
#X connect 1 0 0 0;
#X connect 2 0 9 0;
#X connect 3 0 9 0;
#X connect 4 0 0 0;
#X connect 5 0 10 0;
#X connect 6 0 11 0;
#X connect 7 0 11 0;
#X connect 8 0 10 0;
#X connect 12 0 1 0;
#X connect 12 0 2 0;
#X connect 12 0 8 0;
#X connect 12 0 6 0;
#X connect 12 1 3 0;
#X connect 12 1 4 0;
#X connect 12 1 8 0;
#X connect 12 1 6 0;
#X connect 12 2 5 0;
#X connect 12 2 4 0;
#X connect 12 2 2 0;
#X connect 12 2 6 0;
#X connect 12 3 7 0;
#X connect 12 3 4 0;
#X connect 12 3 2 0;
#X connect 12 3 8 0;
#X connect 13 0 12 0;
#X restore 733 265 pd selects;
#X obj 805 98 select Escape;
#X obj 790 298 tgl 15 0 empty empty empty 17 7 0 10 -262144 -1 -1 0
1;
#X obj 733 208 counter 3;
#X obj 733 298 tgl 15 0 empty empty empty 17 7 0 10 -262144 -1 -1 0
1;
#X obj 752 298 tgl 15 0 empty empty empty 17 7 0 10 -262144 -1 -1 0
1;
#X obj 771 298 tgl 15 0 empty empty empty 17 7 0 10 -262144 -1 -1 0
1;
#X obj 733 376 s cena1;
#X obj 752 357 s cena2;
#X obj 771 337 s cena3;
#X obj 790 317 s cena4;
#X text 842 118 tecla ESC;
#X connect 1 0 4 0;
#X connect 1 1 2 0;
#X connect 2 0 9 0;
#X connect 3 0 5 0;
#X connect 4 0 5 1;
#X connect 5 0 6 0;
#X connect 6 0 15 0;
#X connect 7 0 8 0;
#X connect 8 0 21 0;
#X connect 8 1 22 0;
#X connect 8 2 23 0;
#X connect 8 3 14 0;
#X connect 9 0 3 0;
#X connect 14 0 29 0;
#X connect 14 0 30 0;
#X connect 15 0 7 0;
#X connect 21 0 26 0;
#X connect 21 0 31 0;
#X connect 22 0 27 0;
#X connect 22 0 32 0;
#X connect 23 0 28 0;
#X connect 23 0 33 0;
#X connect 34 0 37 0;
#X connect 34 1 35 0;
#X connect 35 0 42 0;
#X connect 36 0 38 0;
#X connect 37 0 38 1;
#X connect 38 0 39 0;
#X connect 39 0 44 0;
#X connect 40 0 41 0;
#X connect 41 0 45 0;
#X connect 41 1 46 0;
#X connect 41 2 47 0;
#X connect 41 3 43 0;
#X connect 42 0 36 0;
#X connect 43 0 51 0;
#X connect 44 0 40 0;
#X connect 45 0 48 0;
#X connect 46 0 49 0;
#X connect 47 0 50 0;
#X coords 0 -1 1 1 150 60 1 300 100;
