#N canvas 478 121 655 545 10;
#X obj 55 216 soundfiler;
#X obj 55 143 openpanel;
#X obj 55 115 bng 15 250 50 0 empty empty empty 17 7 0 10 -262144 -1
-1;
#N canvas 0 0 450 300 (subpatch) 0;
#X array \$0-sample 939008 float 2;
#X coords 0 1 939008 -1 200 140 1;
#X restore 59 -133 graph;
#X obj 62 -133 hsl 195 140 0 939008 0 0 empty \$0-slider_wave empty
-2 -8 0 10 -261682 -1 -1 16593 1;
#X obj 62 8 hsl 195 15 0 939008 0 0 empty \$0-slider_in empty -2 -8
0 10 -257985 -1 -1 3590 1;
#X obj 62 25 hsl 195 15 0 939008 0 0 empty \$0-slider_out empty -2
-8 0 10 -257985 -1 -1 17293 1;
#X obj 387 227 vline~;
#X msg 387 185 \$1 \, \$2 \$3;
#X obj 332 296 line;
#X obj 387 287 dac~;
#X obj 387 97 f;
#X obj 415 96 f;
#X obj 459 4 -;
#X obj 444 96 f;
#X obj 387 137 pack f f f;
#X obj 398 -95 bng 15 250 50 0 empty empty empty 17 7 0 10 -262144
-1 -1;
#X obj 459 28 * 1;
#X obj 398 -72 t b b b b;
#X obj 459 74 abs;
#X obj 459 50 / 48;
#X text 485 77 permite leitura em ambos;
#X text 486 88 sentidos;
#X obj 42 63 s \$0-s_in;
#X obj 106 63 s \$0-s_out;
#X obj 332 318 s \$0-slider_wave;
#X obj 303 -41 r \$0-s_out;
#X obj 328 -70 r \$0-s_in;
#X obj 387 258 tabread4~ \$0-sample;
#X obj 141 268 s \$0-slider_out;
#X msg 141 245 range 0 \$1;
#X obj 140 144 makefilename %d-sample;
#X obj 140 121 f \$0;
#X msg 55 193 read -resize \$1 \$2;
#X obj 55 172 pack s s;
#X obj 140 98 loadbang;
#X msg 93 293 range 0 \$1;
#X obj 93 315 s \$0-slider_in;
#X msg 55 340 range 0 \$1;
#X obj 55 363 s \$0-slider_wave;
#X connect 0 0 30 0;
#X connect 0 0 36 0;
#X connect 0 0 38 0;
#X connect 1 0 34 0;
#X connect 2 0 1 0;
#X connect 5 0 23 0;
#X connect 6 0 24 0;
#X connect 7 0 28 0;
#X connect 8 0 7 0;
#X connect 8 0 9 0;
#X connect 9 0 25 0;
#X connect 11 0 15 0;
#X connect 12 0 15 1;
#X connect 13 0 17 0;
#X connect 14 0 15 2;
#X connect 15 0 8 0;
#X connect 16 0 18 0;
#X connect 17 0 20 0;
#X connect 18 0 11 0;
#X connect 18 1 12 0;
#X connect 18 2 14 0;
#X connect 18 3 13 0;
#X connect 19 0 14 1;
#X connect 20 0 19 0;
#X connect 26 0 12 1;
#X connect 26 0 13 0;
#X connect 27 0 11 1;
#X connect 27 0 13 1;
#X connect 28 0 10 0;
#X connect 28 0 10 1;
#X connect 30 0 29 0;
#X connect 31 0 34 1;
#X connect 32 0 31 0;
#X connect 33 0 0 0;
#X connect 34 0 33 0;
#X connect 35 0 32 0;
#X connect 36 0 37 0;
#X connect 38 0 39 0;
