#N canvas 319 35 705 401 10;
#X obj 59 33 colecao_vs_pitch;
#X obj 59 54 bng 15 250 50 0 empty empty empty 17 7 0 10 -262144 -1
-1;
#X obj 152 55 bng 15 250 50 0 empty empty empty 17 7 0 10 -262144 -1
-1;
#X text 157 78 não está;
#X text 60 70 está;
#X obj -207 266 tabwrite \$0-nota;
#X obj -154 120 f \$0;
#X obj -187 165 symbol;
#X obj -154 96 loadbang;
#X obj -154 144 makefilename %d-nota;
#X obj -207 210 t f b;
#X obj -187 188 outlet nome do array \$0-nota;
#X obj -340 197 tabdump \$0-nota;
#X obj -226 95 t b f b;
#X obj -114 244 counter 6;
#X obj -340 224 s lista_pitch;
#X obj 152 7 r lista_pitch;
#X obj 266 62 bng 15 250 50 0 empty empty reset 17 7 0 10 -262144 -1
-1;
#X obj 266 -32 inlet reset;
#X obj 32 -27 inlet classe de nota;
#X obj 32 4 t b f f;
#N canvas 0 0 450 300 mapeia 0;
#X obj 47 102 f;
#X obj 78 104 - 1;
#X obj 50 139 sel 0;
#X floatatom 111 192 5 0 0 0 - - -;
#X obj 110 164 spigot;
#X msg 134 142 0;
#X msg 166 143 1;
#X obj 225 111 f;
#X obj 256 113 + 1;
#X obj 228 148 sel 6;
#X msg 227 176 5;
#X obj 46 49 inlet;
#X obj 210 63 inlet;
#X obj 117 231 outlet;
#X msg 49 167 1;
#X msg 138 76 0;
#X obj 152 35 loadbang;
#X connect 0 0 2 0;
#X connect 0 0 4 0;
#X connect 1 0 0 1;
#X connect 2 0 14 0;
#X connect 2 0 5 0;
#X connect 2 1 6 0;
#X connect 3 0 1 0;
#X connect 3 0 8 0;
#X connect 3 0 13 0;
#X connect 4 0 3 0;
#X connect 5 0 4 1;
#X connect 6 0 4 1;
#X connect 7 0 4 0;
#X connect 7 0 9 0;
#X connect 8 0 7 1;
#X connect 9 0 10 0;
#X connect 9 0 5 0;
#X connect 9 1 6 0;
#X connect 10 0 8 0;
#X connect 11 0 0 0;
#X connect 12 0 7 0;
#X connect 14 0 1 0;
#X connect 15 0 3 0;
#X connect 16 0 15 0;
#X restore 81 109 pd mapeia;
#X obj 51 206 cnv 15 218 78 empty empty sinc-permeabilidade 70 9 0
14 -261682 -66577 0;
#N canvas 0 0 450 300 (subpatch) 0;
#X array \$0-nota 7 float 3;
#A 0 79 79 74 74 58 74 52;
#X coords 0 127 7 0 90 50 1;
#X restore 64 229 graph;
#X obj 163 228 hsl 100 50 0 6 0 0 empty empty empty -2 -8 0 10 -204786
-1 -1 1650 1;
#X text 142 265 impermeável;
#X text 209 227 permeável;
#X obj 160 304 outlet;
#X connect 0 0 1 0;
#X connect 0 1 2 0;
#X connect 1 0 21 0;
#X connect 2 0 21 1;
#X connect 6 0 9 0;
#X connect 7 0 11 0;
#X connect 8 0 6 0;
#X connect 9 0 7 1;
#X connect 10 0 5 0;
#X connect 10 1 14 0;
#X connect 12 0 15 0;
#X connect 13 0 12 0;
#X connect 13 1 10 0;
#X connect 13 2 7 0;
#X connect 14 0 5 1;
#X connect 16 0 0 1;
#X connect 18 0 17 0;
#X connect 19 0 20 0;
#X connect 20 1 13 0;
#X connect 20 2 0 0;
#X connect 21 0 24 0;
#X connect 24 0 27 0;
#X coords 0 -1 1 1 220 80 1 50 205;
