#N canvas 117 162 1020 471 10;
#X obj 454 105 cnv 15 215 110 empty empty sinc-gera_ritmo 20 12 0 14
-262130 -66577 0;
#X obj 725 165 tgl 15 0 empty empty empty 17 7 0 10 -262144 -1 -1 0
1;
#X obj 836 209 nbx 5 14 -1e+37 1e+37 0 0 empty empty empty 0 -8 0 10
-262144 -1 -1 0 256;
#N canvas 62 32 559 652 gerador 0;
#X obj 51 26 inlet;
#X obj 78 427 counter 8;
#X obj 78 128 delay;
#X floatatom 78 536 5 0 0 0 - - -;
#X obj 78 217 bng 15 250 50 0 empty empty empty 17 7 0 10 -262144 -1
-1;
#X obj 78 193 spigot;
#X msg 91 165 0;
#X msg 121 165 1;
#X obj 51 57 tgl 15 0 empty empty empty 17 7 0 10 -262144 -1 -1 0 1
;
#X obj 51 79 sel 0 1;
#X obj 78 105 t b b;
#X obj 118 564 s tag;
#X text 158 562 tag: tempo atual gerador;
#X obj 126 106 r tag;
#X obj 255 439 random 8;
#X obj 90 403 bng 15 250 50 0 empty empty empty 17 7 0 10 -262144 -1
-1;
#X text 108 402 muda direção de leitura;
#X obj 90 272 random 2;
#X obj 90 298 sel 0 1;
#X obj 255 391 spigot;
#X msg 303 366 0;
#X msg 273 363 1;
#X obj 78 369 spigot;
#X msg 110 343 0;
#X msg 151 341 1;
#X obj 157 378 bng 15 250 50 0 empty empty empty 17 7 0 10 -262144
-1 -1;
#X obj 183 380 bng 15 250 50 0 empty empty empty 17 7 0 10 -262144
-1 -1;
#X text 283 276 *)na ordem normal;
#X text 283 298 *)randomico;
#X text 283 287 *)ao contrário;
#X obj 78 589 outlet;
#X obj 25 591 outlet;
#X obj 25 564 delay;
#X obj 25 540 int;
#X obj 78 498 tabread \$0-ritmo_manip;
#X text 283 234 ler array \$0-ritmo_manip \; respeitando as durações
com 3 \; possibilidades:;
#X connect 0 0 8 0;
#X connect 1 0 34 0;
#X connect 2 0 5 0;
#X connect 3 0 11 0;
#X connect 3 0 30 0;
#X connect 3 0 33 0;
#X connect 4 0 17 0;
#X connect 4 0 19 0;
#X connect 4 0 22 0;
#X connect 5 0 4 0;
#X connect 6 0 5 1;
#X connect 7 0 5 1;
#X connect 8 0 9 0;
#X connect 9 0 6 0;
#X connect 9 1 10 0;
#X connect 10 0 2 0;
#X connect 10 1 7 0;
#X connect 13 0 2 0;
#X connect 14 0 34 0;
#X connect 15 0 1 1;
#X connect 17 0 18 0;
#X connect 18 0 15 0;
#X connect 18 0 24 0;
#X connect 18 0 20 0;
#X connect 18 0 25 0;
#X connect 18 1 21 0;
#X connect 18 1 23 0;
#X connect 18 1 26 0;
#X connect 19 0 14 0;
#X connect 20 0 19 1;
#X connect 21 0 19 1;
#X connect 22 0 1 0;
#X connect 23 0 22 1;
#X connect 24 0 22 1;
#X connect 32 0 31 0;
#X connect 33 0 32 0;
#X connect 34 0 3 0;
#X restore 725 185 pd gerador ritmico1;
#X obj 722 68 tgl 15 0 empty empty empty 17 7 0 10 -262144 -1 -1 0
1;
#X obj 833 117 nbx 5 14 -1e+37 1e+37 0 0 empty empty empty 0 -8 0 10
-262144 -1 -1 680.664 256;
#N canvas 951 77 329 438 gerador 0;
#X obj 51 26 inlet;
#X obj 78 128 delay;
#X floatatom 78 316 5 0 0 0 - - -;
#X obj 78 217 bng 15 250 50 0 empty empty empty 17 7 0 10 -262144 -1
-1;
#X obj 78 193 spigot;
#X msg 91 165 0;
#X msg 121 165 1;
#X obj 51 57 tgl 15 0 empty empty empty 17 7 0 10 -262144 -1 -1 0 1
;
#X obj 51 79 sel 0 1;
#X obj 78 105 t b b;
#X text 158 342 tag: tempo atual gerador;
#X obj 78 369 outlet;
#X obj 78 247 counter 8;
#X obj 118 344 s tag0;
#X obj 126 106 r tag0;
#X obj 27 394 outlet;
#X obj 27 367 delay;
#X obj 27 341 int;
#X obj 78 278 tabread \$0-ritmo_manip;
#X connect 0 0 7 0;
#X connect 1 0 4 0;
#X connect 2 0 11 0;
#X connect 2 0 13 0;
#X connect 3 0 12 0;
#X connect 4 0 3 0;
#X connect 5 0 4 1;
#X connect 6 0 4 1;
#X connect 7 0 8 0;
#X connect 8 0 5 0;
#X connect 8 1 9 0;
#X connect 9 0 1 0;
#X connect 9 1 6 0;
#X connect 12 0 18 0;
#X connect 14 0 1 0;
#X connect 16 0 15 0;
#X connect 17 0 16 0;
#X connect 18 0 2 0;
#X connect 18 0 17 0;
#X restore 722 91 pd gerador ritmico0;
#X obj 717 344 tgl 15 0 empty empty empty 17 7 0 10 -262144 -1 -1 0
1;
#X obj 830 389 nbx 5 14 -1e+37 1e+37 0 0 empty empty empty 0 -8 0 10
-262144 -1 -1 657.268 256;
#X obj 718 257 tgl 15 0 empty empty empty 17 7 0 10 -262144 -1 -1 0
1;
#X obj 829 306 nbx 5 14 -1e+37 1e+37 0 0 empty empty empty 0 -8 0 10
-262144 -1 -1 0 256;
#N canvas 379 81 598 498 gerador 0;
#X obj 128 330 brown-rhythm;
#X floatatom 145 178 4 0 0 2 min_ED - -;
#X floatatom 168 199 6 0 0 2 max_ED - -;
#X floatatom 215 156 4 0 100 2 brownian_factor - -;
#X floatatom 191 231 4 0 0 2 ED-values - -;
#X obj 145 266 pack f f f f;
#X obj 145 291 unpack f f f f;
#X obj 145 238 bng 15 250 50 0 empty empty empty 17 7 0 10 -262144
-1 -1;
#X floatatom 197 367 5 0 0 0 - - -;
#X obj 215 176 / 100;
#X obj 128 5 inlet;
#X obj 128 369 outlet;
#X obj 145 35 r min_ritmo;
#X obj 168 57 r max_ritmo;
#X obj 191 81 loadbang;
#X msg 191 110 10;
#X msg 243 109 50;
#X msg 359 221 min;
#X msg 406 224 max;
#X obj 351 95 bng 15 250 50 0 empty empty empty 17 7 0 10 -262144 -1
-1;
#X obj 332 368 s min_ritmo;
#X obj 435 369 s max_ritmo;
#X obj 332 346 spigot;
#X msg 363 318 0;
#X msg 394 318 1;
#X obj 435 345 spigot;
#X msg 466 317 0;
#X msg 497 317 1;
#X obj 351 124 t b b b b b b;
#X text 173 5 manda tocar;
#X obj 351 9 inlet;
#X text 390 8 atualiza;
#X obj 128 81 tgl 15 0 empty empty empty 17 7 0 10 -262144 -1 -1 0
1;
#X obj 197 396 outlet;
#X obj 359 268 tabletool \$0-ritmo_manip;
#X connect 0 0 11 0;
#X connect 0 2 8 0;
#X connect 1 0 5 0;
#X connect 1 0 7 0;
#X connect 2 0 5 1;
#X connect 2 0 7 0;
#X connect 3 0 7 0;
#X connect 3 0 9 0;
#X connect 4 0 5 2;
#X connect 4 0 7 0;
#X connect 5 0 6 0;
#X connect 6 0 0 1;
#X connect 6 1 0 2;
#X connect 6 2 0 3;
#X connect 6 3 0 4;
#X connect 7 0 5 0;
#X connect 8 0 33 0;
#X connect 9 0 5 3;
#X connect 10 0 32 0;
#X connect 12 0 1 0;
#X connect 13 0 2 0;
#X connect 14 0 15 0;
#X connect 14 0 16 0;
#X connect 15 0 4 0;
#X connect 16 0 3 0;
#X connect 17 0 34 0;
#X connect 18 0 34 0;
#X connect 19 0 28 0;
#X connect 22 0 20 0;
#X connect 23 0 22 1;
#X connect 24 0 22 1;
#X connect 25 0 21 0;
#X connect 26 0 25 1;
#X connect 27 0 25 1;
#X connect 28 0 26 0;
#X connect 28 1 18 0;
#X connect 28 2 27 0;
#X connect 28 3 23 0;
#X connect 28 4 17 0;
#X connect 28 5 24 0;
#X connect 30 0 19 0;
#X connect 32 0 0 0;
#X connect 34 0 22 0;
#X connect 34 0 25 0;
#X restore 718 280 pd gerador ritmico2;
#X obj 718 309 bng 15 250 50 0 empty empty empty 17 7 0 10 -262144
-1 -1;
#X obj 725 210 bng 15 250 50 0 empty empty empty 17 7 0 10 -262144
-1 -1;
#X obj 722 116 bng 15 250 50 0 empty empty empty 17 7 0 10 -262144
-1 -1;
#N canvas 20 38 559 652 gerador 0;
#X obj 8 310 tgl 15 0 empty empty start/stop 0 -6 0 8 -262144 -1 -1
0 1;
#X text 189 306 periodicity of min.ED;
#X text 225 330 periodicity of max.ED;
#X floatatom 221 348 4 0 0 0 - - -;
#X floatatom 185 333 4 0 0 0 - - -;
#X floatatom 151 231 4 0 0 2 max_chord_size - -;
#X floatatom 114 311 4 0 0 2 ED-values - -;
#X floatatom 79 337 4 0 0 2 max_ED - -;
#X floatatom 43 327 4 0 0 2 min_ED - -;
#X floatatom 61 417 4 0 0 3 chord_size - -;
#X obj 114 415 bng 15 250 50 0 empty empty empty 0 -6 0 8 -262144 -1
-1;
#X floatatom 167 418 5 0 0 3 ED - -;
#X floatatom 221 417 4 0 0 3 ED_index - -;
#X obj 8 376 repchord-rhythm 50 2000 12 6 0.8 0.2;
#X obj 8 424 bng 15 250 50 0 empty empty empty 17 7 0 10 -262144 -1
-1;
#X obj 8 499 outlet;
#X obj 167 497 outlet;
#X obj 8 211 inlet;
#X obj 43 240 r min_ritmo;
#X obj 79 265 r max_ritmo;
#X text 265 215 esse parametro recebera a analise de densidade;
#X connect 0 0 13 0;
#X connect 3 0 13 6;
#X connect 4 0 13 5;
#X connect 5 0 13 4;
#X connect 6 0 13 3;
#X connect 7 0 13 2;
#X connect 8 0 13 1;
#X connect 11 0 16 0;
#X connect 13 0 14 0;
#X connect 13 1 9 0;
#X connect 13 2 10 0;
#X connect 13 3 11 0;
#X connect 13 4 12 0;
#X connect 14 0 15 0;
#X connect 17 0 0 0;
#X connect 18 0 8 0;
#X connect 19 0 7 0;
#X restore 717 364 pd gerador ritmico3;
#N canvas 0 0 450 300 (subpatch) 0;
#X array \$0-ritmo_manip 8 float 3;
#A 0 506.498 553.998 601.498 601.498 712.331 680.664 680.664 427.332
;
#X coords 0 1000 8 50 80 60 1;
#X restore 588 121 graph;
#X msg 108 91 copy \$1;
#X text 136 9 atualiza array manipulações;
#X obj 452 134 tgl 30 0 empty empty empty 5 -6 0 10 -262144 -1 -1 0
1;
#X obj 484 134 tgl 30 0 empty empty empty 5 -6 0 10 -257985 -1 -1 0
1;
#X obj 517 134 tgl 30 0 empty empty empty 5 -6 0 10 -260097 -1 -1 0
1;
#X obj 549 134 tgl 30 0 empty empty empty 5 -6 0 10 -258113 -1 -1 0
1;
#X obj 457 168 bng 50 250 50 0 empty empty empty 17 7 0 10 -228856
-1 -1;
#X obj 516 186 nbx 4 30 -1e+37 1e+37 0 0 empty empty empty 0 -8 0 40
-262144 -1 -1 680.664 256;
#X obj 457 362 outlet;
#X obj 516 361 outlet;
#X obj 716 388 bng 15 250 50 0 empty empty empty 17 7 0 10 -262144
-1 -1;
#X text 457 377 ataque;
#X text 517 377 dur;
#X obj 108 69 symbol \$1;
#X obj 108 36 bng 15 250 50 0 empty empty empty 17 7 0 10 -262144 -1
-1;
#X obj 108 115 tabletool \$0-ritmo_manip;
#X obj 829 256 bng 15 250 50 0 empty empty empty 17 7 0 10 -262144
-1 -1;
#X obj 574 -18 hradio 15 1 0 8 empty empty empty 0 -8 0 10 -262144
-1 -1 0;
#X obj 108 -11 inlet reset;
#N canvas 556 382 505 364 select 0;
#X obj 41 267 tgl 30 0 empty empty normal 5 -6 0 10 -262144 -1 -1 0
1;
#X obj 126 269 tgl 30 0 empty empty empty 5 -6 0 10 -257985 -1 -1 0
1;
#X obj 206 265 tgl 30 0 empty empty empty 5 -6 0 10 -260097 -1 -1 0
1;
#X obj 284 270 tgl 30 0 empty empty empty 5 -6 0 10 -258113 -1 -1 0
1;
#X obj 124 70 select 0 1 2 3;
#X msg 77 163 0;
#X msg 133 160 0;
#X msg 179 162 0;
#X msg 221 164 0;
#X obj 124 40 inlet;
#X msg 66 131 1;
#X msg 116 128 1;
#X msg 162 125 1;
#X msg 214 125 1;
#X obj 37 330 outlet;
#X obj 119 327 outlet;
#X obj 196 326 outlet;
#X obj 278 323 outlet;
#X connect 0 0 14 0;
#X connect 1 0 15 0;
#X connect 2 0 16 0;
#X connect 3 0 17 0;
#X connect 4 0 5 0;
#X connect 4 0 10 0;
#X connect 4 1 6 0;
#X connect 4 1 11 0;
#X connect 4 2 7 0;
#X connect 4 2 12 0;
#X connect 4 3 8 0;
#X connect 4 3 13 0;
#X connect 5 0 1 0;
#X connect 5 0 2 0;
#X connect 5 0 3 0;
#X connect 6 0 0 0;
#X connect 6 0 2 0;
#X connect 6 0 3 0;
#X connect 7 0 0 0;
#X connect 7 0 1 0;
#X connect 7 0 3 0;
#X connect 8 0 0 0;
#X connect 8 0 1 0;
#X connect 8 0 2 0;
#X connect 9 0 4 0;
#X connect 10 0 0 0;
#X connect 11 0 1 0;
#X connect 12 0 2 0;
#X connect 13 0 3 0;
#X restore 452 41 pd select;
#X obj 920 -23 inlet desliga;
#X msg 575 65 0;
#X obj 16 44 s \$0-reset;
#X obj 333 -4 inlet nome array;
#X obj 452 -18 inlet gerador;
#X obj 830 -44 r \$0-reset;
#X connect 1 0 3 0;
#X connect 2 0 24 0;
#X connect 3 0 13 0;
#X connect 3 1 2 0;
#X connect 4 0 6 0;
#X connect 5 0 24 0;
#X connect 6 0 14 0;
#X connect 6 1 5 0;
#X connect 7 0 15 0;
#X connect 8 0 24 0;
#X connect 9 0 11 0;
#X connect 10 0 24 0;
#X connect 11 0 12 0;
#X connect 11 1 10 0;
#X connect 12 0 23 0;
#X connect 13 0 23 0;
#X connect 14 0 23 0;
#X connect 15 0 27 0;
#X connect 15 1 8 0;
#X connect 17 0 32 0;
#X connect 19 0 4 0;
#X connect 20 0 1 0;
#X connect 21 0 9 0;
#X connect 22 0 7 0;
#X connect 23 0 25 0;
#X connect 24 0 26 0;
#X connect 27 0 23 0;
#X connect 30 0 17 0;
#X connect 31 0 30 0;
#X connect 33 0 11 1;
#X connect 34 0 36 0;
#X connect 35 0 31 0;
#X connect 35 0 39 0;
#X connect 36 0 19 0;
#X connect 36 1 20 0;
#X connect 36 2 21 0;
#X connect 36 3 22 0;
#X connect 37 0 38 0;
#X connect 38 0 19 0;
#X connect 38 0 20 0;
#X connect 38 0 21 0;
#X connect 38 0 22 0;
#X connect 40 0 30 1;
#X connect 41 0 36 0;
#X connect 42 0 33 0;
#X coords 0 -1 1 1 225 120 2 450 100;
