#N canvas 0 0 570 529 10;
#X obj 315 206 vd~ \$0-delay;
#X obj 315 178 sig~;
#X floatatom 315 150 5 0 0 0 - - -;
#X obj 299 255 *~;
#X obj 396 374 delwrite~ \$0-delay 500;
#X obj 397 316 +~;
#X obj 105 152 hsl 128 15 0 1 0 0 empty empty feedback -2 -8 0 10 -262144
-1 -1 8890 1;
#X obj 412 183 inlet~;
#X floatatom 175 130 5 0 0 2 tempo_de_delay - -;
#X obj 283 320 *~;
#X obj 105 182 hsl 128 15 0 1 0 0 empty empty volume -2 -8 0 10 -262144
-1 -1 0 1;
#X obj 282 370 outlet~;
#X obj 55 58 inlet;
#X obj 102 58 inlet;
#X obj 176 60 inlet;
#X obj 211 268 line~;
#X msg 211 244 \$1 50;
#X connect 0 0 3 1;
#X connect 1 0 0 0;
#X connect 2 0 1 0;
#X connect 3 0 5 0;
#X connect 3 0 9 1;
#X connect 5 0 4 0;
#X connect 6 0 3 0;
#X connect 7 0 5 1;
#X connect 8 0 2 0;
#X connect 9 0 11 0;
#X connect 10 0 16 0;
#X connect 12 0 10 0;
#X connect 13 0 6 0;
#X connect 14 0 8 0;
#X connect 15 0 9 0;
#X connect 16 0 15 0;
#X coords 0 -1 1 1 160 100 1 100 100;
