#N canvas 0 0 537 654 10;
#X obj -219 40 metro;
#X obj -219 18 tgl 15 0 empty empty empty 17 7 0 10 -262144 -1 -1 1
1;
#X obj -219 64 counter 2000;
#X floatatom -219 87 5 0 0 0 - - -;
#X obj -252 357 f;
#X obj -252 381 + 1;
#X obj -252 317 spigot;
#X obj -219 111 select 2000;
#X obj -219 134 bng 15 250 50 0 empty empty empty 17 7 0 10 -262144
-1 -1;
#X obj -283 244 inlet;
#X text -153 199 1- guarda valor atual;
#X text -152 218 2- fecha spigot;
#X text -152 234 3- zera contador;
#X text -151 251 4- abre spigot;
#X msg -202 322 0;
#X obj -252 273 bng 15 250 50 0 empty empty empty 17 7 0 10 -262144
-1 -1;
#X floatatom -252 419 5 0 0 0 - - -;
#X text -182 44 fatias de tempo de 2 segundos;
#X obj -252 506 tabwrite densidade_minuto;
#X obj -117 456 counter 30;
#X obj -117 433 bng 15 250 50 0 empty empty empty 17 7 0 10 -262144
-1 -1;
#X floatatom -117 480 5 0 0 0 - - -;
#X text -106 364 1- indice;
#X text -106 377 2- valor;
#X obj -168 370 t b b b b;
#X obj -252 479 spigot;
#X msg -219 445 1;
#X msg -168 443 0;
#X msg -185 256 0;
#X msg -219 255 1;
#X obj -219 197 t b b b b;
#X text -155 348 o bang 1 vai ter outra divisao:;
#X text -106 391 3- abre spigot;
#X text -106 404 4- fecha spigot;
#X obj -219 -15 loadbang;
#X obj 14 282 table densidade_minuto;
#X obj 57 503 outlet densidade;
#X obj 52 401 cnv 15 147 68 empty empty sinc-dens_ritmica 20 12 0 14
-262130 -66577 0;
#X obj 60 448 hsl 128 15 0 20 0 0 empty empty empty -2 -8 0 10 -262144
-1 -1 12700 1;
#X connect 0 0 2 0;
#X connect 1 0 0 0;
#X connect 2 0 3 0;
#X connect 3 0 7 0;
#X connect 4 0 5 0;
#X connect 5 0 4 1;
#X connect 5 0 16 0;
#X connect 6 0 4 0;
#X connect 7 0 8 0;
#X connect 8 0 30 0;
#X connect 9 0 15 0;
#X connect 14 0 4 1;
#X connect 15 0 6 0;
#X connect 16 0 25 0;
#X connect 19 0 21 0;
#X connect 20 0 19 0;
#X connect 21 0 18 1;
#X connect 24 0 27 0;
#X connect 24 1 16 0;
#X connect 24 2 26 0;
#X connect 24 3 20 0;
#X connect 25 0 18 0;
#X connect 25 0 38 0;
#X connect 26 0 25 1;
#X connect 27 0 25 1;
#X connect 28 0 6 1;
#X connect 29 0 6 1;
#X connect 30 0 29 0;
#X connect 30 1 14 0;
#X connect 30 2 28 0;
#X connect 30 3 24 0;
#X connect 34 0 1 0;
#X connect 38 0 36 0;
#X coords 0 -1 1 1 150 70 2 50 400;
