#N canvas 366 76 709 412 16;
#X obj 311 183 bp~;
#X obj 312 224 sinc-fft;
#X obj 327 71 hsl 128 15 0 127 0 0 empty empty empty -2 -8 0 10 -262144
-1 -1 9800 1;
#X obj 324 93 mtof;
#X floatatom 338 142 5 0 0 0 - - -;
#X text 405 142 "Q";
#X text 468 67 frequência central;
#X obj 72 222 sinc-fft;
#X obj 310 7 adc~;
#X obj 311 39 *~ 0.1;
#X connect 0 0 1 0;
#X connect 2 0 3 0;
#X connect 3 0 0 1;
#X connect 4 0 0 2;
#X connect 8 1 9 0;
#X connect 9 0 7 0;
#X connect 9 0 0 0;
