#N canvas 267 172 843 390 10;
#X obj 321 300 r MIDI-channel;
#X obj 245 28 inlet;
#X obj 358 28 inlet;
#X obj 301 28 inlet;
#X obj 457 31 loadbang;
#X obj 410 30 inlet;
#X obj 523 33 inlet;
#X obj 410 56 int \$4;
#X obj 245 109 list prepend 0;
#X obj 245 130 route 0 1;
#X obj 245 73 makenote \$1 \$2;
#X obj 523 62 route float;
#X obj 57 87 hsl 64 15 0 1 0 0 empty empty volume 20 6 0 8 -262144
-1 -1 5040 1;
#X obj 371 146 * 1;
#X obj 15 116 loadbang;
#X obj 245 309 noteout 1;
#X obj 623 30 inlet amp global;
#X msg 131 147 50 100 1000;
#X obj 131 175 unpack f f f;
#X obj 156 88 bng 15 250 50 0 empty empty teste 17 7 0 10 -262144 -1
-1;
#X msg 74 155 0.8;
#X connect 0 0 15 2;
#X connect 1 0 10 0;
#X connect 2 0 10 2;
#X connect 3 0 10 1;
#X connect 4 0 7 0;
#X connect 5 0 7 0;
#X connect 6 0 11 0;
#X connect 7 0 8 1;
#X connect 8 0 9 0;
#X connect 9 0 15 0;
#X connect 10 0 8 0;
#X connect 10 1 13 0;
#X connect 11 0 15 2;
#X connect 12 0 13 1;
#X connect 13 0 15 1;
#X connect 14 0 20 0;
#X connect 16 0 12 0;
#X connect 17 0 18 0;
#X connect 18 0 10 0;
#X connect 18 1 10 1;
#X connect 18 2 10 2;
#X connect 19 0 17 0;
#X connect 20 0 12 0;
#X coords 0 -1 1 1 160 55 1 50 50;
