#N canvas 221 70 740 526 10;
#X obj 135 85 counter 8;
#X obj 160 61 bng 15 250 50 0 empty empty empty 17 7 0 10 -262144 -1
-1;
#X obj 42 108 tabwrite \$0-nota;
#X obj 102 190 f \$0;
#X obj 69 235 symbol;
#X obj 102 166 loadbang;
#X obj 102 214 makefilename %d-nota;
#X obj 42 52 t f b;
#X obj 42 6 t f b;
#X obj 42 -24 inlet nota;
#X obj 160 -22 inlet reset;
#X obj 69 258 outlet nome do array \$0-nota;
#N canvas 0 0 450 300 (subpatch) 0;
#X array \$0-nota 8 float 3;
#A 0 64 60 57 57 53 29 76 65;
#X coords 0 127 8 0 90 50 1;
#X restore 185 139 graph;
#X obj 612 28 random 5000;
#X obj 461 50 metro;
#X obj 461 5 tgl 30 0 empty baoum empty 0 -6 0 8 -24198 -1 -1 0 1;
#X obj 612 54 + 2000;
#X obj 353 138 tabread \$0-nota;
#X obj 461 137 tabread \$0-nota;
#X obj 571 166 tabread \$0-nota;
#X obj 353 112 random 8;
#X obj 461 111 random 8;
#X obj 571 140 random 8;
#X obj 461 -21 inlet;
#X obj 461 307 pack 0 0 0;
#X obj 461 453 noteout 5;
#X obj 461 348 route 1 2 3;
#X floatatom 461 384 5 0 0 0 - - -;
#X floatatom 498 385 5 0 0 0 - - -;
#X floatatom 538 385 5 0 0 0 - - -;
#X obj 461 278 poly 3 1;
#X msg 598 231 100;
#X text 628 234 velocity;
#X obj 353 164 t f b;
#X obj 461 161 t f b;
#X obj 571 192 t f b;
#X obj 461 419 makenote 60 1000;
#X connect 0 0 2 1;
#X connect 1 0 0 2;
#X connect 3 0 6 0;
#X connect 4 0 11 0;
#X connect 5 0 3 0;
#X connect 6 0 4 1;
#X connect 7 0 2 0;
#X connect 7 1 0 0;
#X connect 8 0 7 0;
#X connect 8 1 4 0;
#X connect 9 0 8 0;
#X connect 10 0 1 0;
#X connect 13 0 16 0;
#X connect 14 0 13 0;
#X connect 14 0 20 0;
#X connect 14 0 21 0;
#X connect 14 0 22 0;
#X connect 15 0 14 0;
#X connect 16 0 14 1;
#X connect 17 0 33 0;
#X connect 18 0 34 0;
#X connect 19 0 35 0;
#X connect 20 0 17 0;
#X connect 21 0 18 0;
#X connect 22 0 19 0;
#X connect 23 0 15 0;
#X connect 24 0 26 0;
#X connect 26 0 27 0;
#X connect 26 1 28 0;
#X connect 26 2 29 0;
#X connect 27 0 36 0;
#X connect 28 0 36 0;
#X connect 29 0 36 0;
#X connect 30 0 24 0;
#X connect 30 1 24 1;
#X connect 30 2 24 2;
#X connect 31 0 30 1;
#X connect 33 0 30 0;
#X connect 33 1 31 0;
#X connect 34 0 30 0;
#X connect 34 1 31 0;
#X connect 35 0 30 0;
#X connect 35 1 31 0;
#X connect 36 0 25 0;
#X connect 36 1 25 1;
