#N canvas 197 88 827 346 10;
#X obj 553 166 vsl 30 128 30 80 0 0 empty empty 1 0 140 0 10 -204800
-1 -1 1500 1;
#X obj 628 173 vsl 30 128 0 1 0 0 empty empty 2 0 140 0 10 -204800
-1 -1 1500 1;
#X obj 682 173 vsl 30 128 0 1 0 0 empty empty 3 0 140 0 10 -204800
-1 -1 0 1;
#X text 546 315 guitarra;
#X text 629 316 sintese;
#X text 683 312 rosegarden;
#X obj 452 17 inlet muda cenario;
#X obj 221 17 inlet nota;
#X obj 297 16 inlet amp;
#X obj 142 18 inlet reset;
#X obj 370 16 inlet pausa;
#N canvas 533 81 484 541 mixer 0;
#X obj 192 457 outlet;
#X obj 192 408 pack f f;
#X msg 192 431 sintese \$1 midi \$2;
#X floatatom 237 373 5 0 0 0 - - -;
#X floatatom 192 372 5 0 0 0 - - -;
#X obj 201 389 bng 15 250 50 0 empty empty empty 17 7 0 10 -262144
-1 -1;
#X obj 52 224 spigot;
#X obj 52 -38 inlet amp;
#X obj 380 -37 inlet pausa;
#X obj 192 234 spigot;
#X obj 212 -36 inlet cenario;
#X obj 317 233 spigot;
#X msg 82 194 0;
#X msg 111 195 1;
#X msg 212 204 0;
#X msg 241 205 1;
#X msg 341 204 0;
#X msg 370 205 1;
#X obj 212 -10 sel 0 1 2;
#N canvas 387 106 458 391 cenario0 0;
#X obj 273 36 bng 15 250 50 0 empty empty pausa 17 7 0 10 -262144 -1
-1;
#X floatatom 273 80 5 0 0 0 - - -;
#X obj 273 59 random 2;
#X obj 365 107 sel 0;
#X obj 273 107 sel 1;
#X floatatom 218 289 5 0 0 0 - - -;
#X floatatom 309 291 5 0 0 0 - - -;
#X obj 273 149 f;
#X obj 300 148 + 1;
#X msg 208 252 1;
#X obj 273 175 sel 2;
#X msg 302 128 0;
#X msg 333 255 1;
#X msg 243 252 0;
#X obj 365 164 f;
#X obj 392 163 + 1;
#X obj 365 190 sel 2;
#X msg 394 138 0;
#X msg 363 255 0;
#X obj 218 334 line;
#X obj 309 336 line;
#X obj 273 202 t b b;
#X obj 365 212 t b b;
#X obj 273 12 inlet pausa;
#X obj 63 22 inlet amp;
#X obj 63 80 scale.linear 30 80 1 0;
#X obj 63 240 * 1;
#X obj 140 245 * 1;
#X obj 63 337 outlet;
#X obj 140 336 outlet;
#X msg 218 312 \$1 800;
#X msg 309 314 \$1 800;
#X connect 0 0 2 0;
#X connect 1 0 3 0;
#X connect 1 0 4 0;
#X connect 2 0 1 0;
#X connect 3 0 12 0;
#X connect 3 0 14 0;
#X connect 3 1 18 0;
#X connect 4 0 7 0;
#X connect 4 0 9 0;
#X connect 4 1 13 0;
#X connect 5 0 30 0;
#X connect 6 0 31 0;
#X connect 7 0 8 0;
#X connect 7 0 10 0;
#X connect 8 0 7 1;
#X connect 9 0 5 0;
#X connect 10 0 11 0;
#X connect 10 0 21 0;
#X connect 11 0 7 1;
#X connect 12 0 6 0;
#X connect 13 0 5 0;
#X connect 14 0 15 0;
#X connect 14 0 16 0;
#X connect 15 0 14 1;
#X connect 16 0 17 0;
#X connect 16 0 22 0;
#X connect 17 0 14 1;
#X connect 18 0 6 0;
#X connect 19 0 26 1;
#X connect 20 0 27 1;
#X connect 21 0 12 0;
#X connect 21 1 13 0;
#X connect 22 0 9 0;
#X connect 22 1 18 0;
#X connect 23 0 0 0;
#X connect 24 0 25 0;
#X connect 25 0 26 0;
#X connect 25 0 27 0;
#X connect 26 0 28 0;
#X connect 27 0 29 0;
#X connect 30 0 19 0;
#X connect 31 0 20 0;
#X restore 52 262 pd cenario0;
#N canvas 606 105 389 388 cenario1 0;
#X obj 213 56 bng 15 250 50 0 empty empty pausa 17 7 0 10 -262144 -1
-1;
#X floatatom 213 100 5 0 0 0 - - -;
#X obj 213 79 random 2;
#X obj 305 129 sel 0;
#X obj 213 133 sel 1;
#X floatatom 213 200 5 0 0 0 - - -;
#X floatatom 305 202 5 0 0 0 - - -;
#X msg 213 163 1;
#X msg 305 166 1;
#X msg 240 163 0;
#X msg 332 166 0;
#X obj 213 245 line;
#X obj 305 247 line;
#X obj 213 32 inlet pausa;
#X obj 44 137 scale.linear 30 80 1 0;
#X obj 44 297 * 1;
#X obj 121 302 * 1;
#X obj 44 69 inlet amp;
#X obj 44 333 outlet;
#X obj 121 331 outlet;
#X msg 213 223 \$1 800;
#X msg 305 225 \$1 800;
#X connect 0 0 2 0;
#X connect 1 0 3 0;
#X connect 1 0 4 0;
#X connect 2 0 1 0;
#X connect 3 0 8 0;
#X connect 3 1 10 0;
#X connect 4 0 7 0;
#X connect 4 1 9 0;
#X connect 5 0 20 0;
#X connect 6 0 21 0;
#X connect 7 0 5 0;
#X connect 8 0 6 0;
#X connect 9 0 5 0;
#X connect 10 0 6 0;
#X connect 11 0 15 1;
#X connect 12 0 16 1;
#X connect 13 0 0 0;
#X connect 14 0 15 0;
#X connect 14 0 16 0;
#X connect 15 0 18 0;
#X connect 16 0 19 0;
#X connect 17 0 14 0;
#X connect 20 0 11 0;
#X connect 21 0 12 0;
#X restore 192 264 pd cenario1;
#N canvas 468 24 495 354 cenario2 0;
#X obj 62 6 inlet amp;
#X obj 357 24 bng 15 250 50 0 empty empty pausa 17 7 0 10 -262144 -1
-1;
#X obj 62 181 scale.linear 30 80 1 0;
#X obj 202 181 scale.linear 30 80 0 1;
#X obj 62 152 spigot;
#X msg 95 124 0;
#X msg 124 124 1;
#X obj 202 159 spigot;
#X msg 235 131 0;
#X msg 264 131 1;
#X obj 357 46 random 2;
#X obj 264 83 sel 0;
#X obj 357 -1 inlet pausa;
#X obj 62 261 * 1;
#X obj 202 265 * 1;
#X obj 62 288 outlet;
#X obj 202 289 outlet;
#X obj 422 82 sel 0;
#X obj 357 86 sel 1;
#X floatatom 357 153 5 0 0 0 - - -;
#X floatatom 422 155 5 0 0 0 - - -;
#X msg 357 116 1;
#X msg 422 119 1;
#X msg 384 116 0;
#X msg 449 119 0;
#X obj 357 198 line;
#X obj 422 200 line;
#X obj 135 216 f;
#X obj 264 56 random 2;
#X msg 357 176 \$1 800;
#X msg 422 178 \$1 800;
#X connect 0 0 4 0;
#X connect 0 0 7 0;
#X connect 1 0 10 0;
#X connect 1 0 28 0;
#X connect 2 0 27 0;
#X connect 3 0 27 0;
#X connect 4 0 2 0;
#X connect 5 0 4 1;
#X connect 6 0 4 1;
#X connect 7 0 3 0;
#X connect 8 0 7 1;
#X connect 9 0 7 1;
#X connect 10 0 18 0;
#X connect 10 0 17 0;
#X connect 11 0 5 0;
#X connect 11 0 9 0;
#X connect 11 1 6 0;
#X connect 11 1 8 0;
#X connect 12 0 1 0;
#X connect 13 0 15 0;
#X connect 14 0 16 0;
#X connect 17 0 22 0;
#X connect 17 1 24 0;
#X connect 18 0 21 0;
#X connect 18 1 23 0;
#X connect 19 0 29 0;
#X connect 20 0 30 0;
#X connect 21 0 19 0;
#X connect 22 0 20 0;
#X connect 23 0 19 0;
#X connect 24 0 20 0;
#X connect 25 0 13 1;
#X connect 26 0 14 1;
#X connect 27 0 13 0;
#X connect 27 0 14 0;
#X connect 28 0 11 0;
#X connect 29 0 25 0;
#X connect 30 0 26 0;
#X restore 317 264 pd cenario2;
#X connect 1 0 2 0;
#X connect 2 0 0 0;
#X connect 3 0 1 1;
#X connect 3 0 5 0;
#X connect 4 0 1 0;
#X connect 5 0 1 0;
#X connect 6 0 19 0;
#X connect 7 0 6 0;
#X connect 7 0 9 0;
#X connect 7 0 11 0;
#X connect 8 0 19 1;
#X connect 8 0 20 1;
#X connect 8 0 21 1;
#X connect 9 0 20 0;
#X connect 10 0 18 0;
#X connect 11 0 21 0;
#X connect 12 0 6 1;
#X connect 13 0 6 1;
#X connect 14 0 9 1;
#X connect 15 0 9 1;
#X connect 16 0 11 1;
#X connect 17 0 11 1;
#X connect 18 0 13 0;
#X connect 18 0 14 0;
#X connect 18 0 16 0;
#X connect 18 1 15 0;
#X connect 18 1 12 0;
#X connect 18 1 16 0;
#X connect 18 2 17 0;
#X connect 18 2 12 0;
#X connect 18 2 14 0;
#X connect 19 0 4 0;
#X connect 19 1 3 0;
#X connect 20 0 4 0;
#X connect 20 1 3 0;
#X connect 21 0 4 0;
#X connect 21 1 3 0;
#X restore 297 219 pd mixer;
#X obj 452 62 hradio 15 1 0 8 empty empty cena 0 -8 0 10 -262144 -1
-1 2;
#X obj 601 63 unpack s f s f;
#X symbolatom 601 143 10 0 0 0 - - -;
#X floatatom 628 124 5 0 0 0 - - -;
#X symbolatom 655 107 10 0 0 0 - - -;
#X floatatom 682 88 5 0 0 0 - - -;
#X obj 530 127 sel 30;
#N canvas 0 0 450 300 fx 0;
#X restore 467 279 pd fx;
#N canvas 0 0 450 300 looper 0;
#X restore 441 298 pd looper;
#X obj 297 292 outlet mixer;
#N canvas 248 104 524 289 gerador_melodico 0;
#X obj 62 21 inlet estabilidade;
#N canvas 523 252 256 292 cenario0 0;
#X obj 77 26 inlet estabilidade;
#X obj 77 81 sel 0 1;
#X obj 77 110 bng 15 250 50 0 empty empty empty 17 7 0 10 -262144 -1
-1;
#X obj 96 111 bng 15 250 50 0 empty empty empty 17 7 0 10 -262144 -1
-1;
#X obj 50 149 random 2;
#X obj 118 148 random 2;
#X obj 50 169 sel 0;
#X obj 118 167 sel 0;
#X msg 50 197 0;
#X msg 77 197 1;
#X msg 118 197 2;
#X msg 145 198 3;
#X text 142 77 estavel = 1;
#X text 136 91 instavel = 0;
#X floatatom 101 231 5 0 0 0 - - -;
#X obj 101 258 outlet;
#X connect 0 0 1 0;
#X connect 1 0 2 0;
#X connect 1 1 3 0;
#X connect 2 0 4 0;
#X connect 3 0 5 0;
#X connect 4 0 6 0;
#X connect 5 0 7 0;
#X connect 6 0 8 0;
#X connect 6 1 9 0;
#X connect 7 0 10 0;
#X connect 7 1 11 0;
#X connect 8 0 14 0;
#X connect 9 0 14 0;
#X connect 10 0 14 0;
#X connect 11 0 14 0;
#X connect 14 0 15 0;
#X restore 62 206 pd cenario0;
#X obj 62 181 spigot;
#X obj 222 18 inlet cenario;
#X msg 92 151 0;
#X msg 121 152 1;
#X obj 222 44 sel 0 1 2;
#X obj 62 241 outlet;
#X connect 0 0 2 0;
#X connect 1 0 7 0;
#X connect 2 0 1 0;
#X connect 3 0 6 0;
#X connect 4 0 2 1;
#X connect 5 0 2 1;
#X connect 6 0 5 0;
#X connect 6 1 4 0;
#X connect 6 2 4 0;
#X restore 20 220 pd gerador_melodico;
#X obj 20 16 inlet estabilidade;
#X obj 20 285 outlet melodico;
#N canvas 0 0 450 300 gerador_ritmico 0;
#X obj 72 31 inlet estabilidade;
#N canvas 555 175 553 538 cenario0 0;
#X obj 77 35 inlet estabilidade;
#X obj 77 271 sel 0 1;
#X obj 77 298 bng 15 250 50 0 empty empty empty 17 7 0 10 -262144 -1
-1;
#X obj 96 299 bng 15 250 50 0 empty empty empty 17 7 0 10 -262144 -1
-1;
#X obj 50 337 random 2;
#X obj 118 336 random 2;
#X obj 50 357 sel 0;
#X obj 118 355 sel 0;
#X msg 50 385 0;
#X msg 77 385 1;
#X msg 118 385 2;
#X msg 145 386 3;
#X text 380 121 estavel = 1;
#X text 381 133 instavel = 0;
#X floatatom 101 419 5 0 0 0 - - -;
#X obj 170 485 outlet;
#X obj 217 297 bng 15 250 50 0 empty empty empty 17 7 0 10 -262144
-1 -1;
#X obj 236 298 bng 15 250 50 0 empty empty empty 17 7 0 10 -262144
-1 -1;
#X obj 190 336 random 2;
#X obj 258 335 random 2;
#X obj 190 356 sel 0;
#X obj 258 354 sel 0;
#X msg 190 384 0;
#X msg 217 384 1;
#X msg 258 384 2;
#X msg 285 385 3;
#X floatatom 241 418 5 0 0 0 - - -;
#X obj 217 270 sel 1 0;
#X floatatom 170 464 5 0 0 0 - - -;
#X text 235 443 imita;
#X text 75 446 complementa;
#X obj 217 248 spigot;
#X obj 77 248 spigot;
#X msg 269 229 0;
#X msg 127 225 0;
#X obj 77 68 t f b;
#X obj 196 121 random 100;
#X obj 196 144 moses 70;
#X obj 196 100 bng 15 250 50 0 empty empty empty 17 7 0 10 -262144
-1 -1;
#X obj 196 173 bng 15 250 50 0 empty empty 70% 17 7 0 10 -262144 -1
-1;
#X obj 240 176 bng 15 250 50 0 empty empty empty 17 7 0 10 -262144
-1 -1;
#X msg 99 224 1;
#X msg 240 227 1;
#X text 386 190 geradores ritmicos:;
#X text 390 225 estavel instavel;
#X text 390 206 0 1 2 3;
#X text 379 102 analise de entrada;
#X text 335 282 70% - complementa ritmicamente;
#X text 337 301 30% - imita ritmo;
#X connect 0 0 35 0;
#X connect 1 0 2 0;
#X connect 1 1 3 0;
#X connect 2 0 4 0;
#X connect 3 0 5 0;
#X connect 4 0 6 0;
#X connect 5 0 7 0;
#X connect 6 0 8 0;
#X connect 6 1 9 0;
#X connect 7 0 10 0;
#X connect 7 1 11 0;
#X connect 8 0 14 0;
#X connect 9 0 14 0;
#X connect 10 0 14 0;
#X connect 11 0 14 0;
#X connect 14 0 28 0;
#X connect 16 0 18 0;
#X connect 17 0 19 0;
#X connect 18 0 20 0;
#X connect 19 0 21 0;
#X connect 20 0 22 0;
#X connect 20 1 23 0;
#X connect 21 0 24 0;
#X connect 21 1 25 0;
#X connect 22 0 26 0;
#X connect 23 0 26 0;
#X connect 24 0 26 0;
#X connect 25 0 26 0;
#X connect 26 0 28 0;
#X connect 27 0 16 0;
#X connect 27 1 17 0;
#X connect 28 0 15 0;
#X connect 31 0 27 0;
#X connect 32 0 1 0;
#X connect 33 0 31 1;
#X connect 34 0 32 1;
#X connect 35 0 32 0;
#X connect 35 0 31 0;
#X connect 35 1 38 0;
#X connect 36 0 37 0;
#X connect 37 0 39 0;
#X connect 37 1 40 0;
#X connect 38 0 36 0;
#X connect 39 0 41 0;
#X connect 39 0 33 0;
#X connect 40 0 42 0;
#X connect 40 0 34 0;
#X connect 41 0 32 1;
#X connect 42 0 31 1;
#X restore 72 216 pd cenario0;
#X obj 72 191 spigot;
#X obj 232 28 inlet cenario;
#X msg 102 161 0;
#X msg 131 162 1;
#X obj 232 54 sel 0 1 2;
#X obj 72 251 outlet;
#X connect 0 0 2 0;
#X connect 1 0 7 0;
#X connect 2 0 1 0;
#X connect 3 0 6 0;
#X connect 4 0 2 1;
#X connect 5 0 2 1;
#X connect 6 0 5 0;
#X connect 6 1 4 0;
#X connect 6 2 4 0;
#X restore 151 220 pd gerador_ritmico;
#X obj 151 286 outlet ritmico;
#X connect 0 0 11 0;
#X connect 0 0 18 0;
#X connect 6 0 12 0;
#X connect 8 0 11 0;
#X connect 10 0 11 1;
#X connect 11 0 13 0;
#X connect 11 0 21 0;
#X connect 12 0 11 1;
#X connect 12 0 22 1;
#X connect 12 0 25 1;
#X connect 13 0 14 0;
#X connect 13 1 15 0;
#X connect 13 2 16 0;
#X connect 13 3 17 0;
#X connect 15 0 1 0;
#X connect 17 0 2 0;
#X connect 18 0 11 2;
#X connect 22 0 24 0;
#X connect 23 0 22 0;
#X connect 23 0 25 0;
#X connect 25 0 26 0;
