#N canvas 0 0 1168 875 16;
#X obj 785 160 sinc-fft;
#X obj 787 338 sinc-fft;
#X obj 37 542 s~ \$0-filtro1;
#X obj 28 750 s~ \$0-filtro2;
#X obj 642 338 hsl 128 15 0 127 0 0 \$0-freq-lop1 \$0-f-l1 empty -2
-8 0 10 -262144 -1 -1 11200 1;
#X obj 642 366 hsl 128 15 0 127 0 0 \$0-freq-lop2 \$0-f-l2 empty -2
-8 0 10 -262144 -1 -1 12100 1;
#X obj 789 525 sinc-fft;
#X obj 639 502 hsl 128 15 0 127 0 0 \$0-freq-hip1 \$0-f-h1 empty -2
-8 0 10 -262144 -1 -1 4800 1;
#X obj 639 524 hsl 128 15 0 127 0 0 \$0-freq-hip2 \$0-f-h2 empty -2
-8 0 10 -262144 -1 -1 10900 1;
#X obj 566 8 inlet~;
#X obj 254 340 mtof;
#X obj 254 392 mtof;
#X obj 582 229 r~ \$0-filtro1;
#X obj 591 434 r~ \$0-filtro1;
#X obj 248 747 outlet~;
#N canvas 0 24 1278 890 presets 1;
#X obj 1013 -52 f \$0;
#X obj 932 30 symbol;
#N canvas 0 0 450 300 (subpatch) 0;
#X array \$0-preset 6 float 3;
#A 0 112 121 112 48 45 50;
#X coords 0 127 6 0 200 140 1;
#X restore 77 209 graph;
#X obj 87 142 tabwrite \$0-preset;
#X obj 2 -105 t f b;
#X msg 49 -47 0;
#X obj 76 -102 t f b;
#X obj 220 -98 t f b;
#X obj 285 -96 t f b;
#X msg 332 -53 3;
#X obj 693 -120 bng 15 250 50 0 empty empty empty 0 -6 0 8 -262144
-1 -1;
#X obj 692 90 pack s s;
#X msg 691 132 \; \$2 write \$1;
#X obj 1013 -10 makefilename %d-preset;
#X obj 932 -93 t b b;
#X obj 692 -90 t b b;
#X symbolatom 762 -9 10 0 0 0 - - -;
#X obj 692 44 symbol;
#X obj 239 397 tabread \$0-preset;
#X obj 507 226 until;
#X obj 513 272 f;
#X obj 589 276 + 1;
#X msg 606 193 0;
#X obj 480 320 t f f;
#X obj 286 497 f;
#X obj 359 499 f;
#X obj 422 499 f;
#X obj 487 500 f;
#X obj 1148 286 f \$0;
#X obj 1067 368 symbol;
#X obj 828 218 bng 15 250 50 0 empty empty empty 0 -6 0 8 -262144 -1
-1;
#X obj 827 428 pack s s;
#X obj 1148 328 makefilename %d-preset;
#X obj 1067 245 t b b;
#X obj 827 248 t b b;
#X symbolatom 897 329 10 0 0 0 - - -;
#X obj 827 382 symbol;
#X msg 826 470 \; \$2 read \$1;
#X obj 691 -189 inlet;
#X obj 783 -186 inlet;
#X obj 892 -179 inlet;
#X obj 998 -183 inlet;
#X obj 865 -131 t b b;
#X obj 2 -184 r \$0-freq-lop1;
#X obj 76 -149 r \$0-freq-lop2;
#X obj 220 -184 r \$0-freq-lop3;
#X obj 285 -154 r \$0-freq-hip1;
#X msg 123 -52 1;
#X msg 267 -28 2;
#X obj 375 -76 t f b;
#X obj 375 -184 r \$0-freq-hip2;
#X obj 457 -95 t f b;
#X obj 457 -153 r \$0-freq-hip3;
#X msg 422 -33 4;
#X msg 504 -52 5;
#X msg 506 175 6;
#X obj 529 374 sel 0 1 2 3 4 5;
#X obj 301 659 s \$0-f-l1;
#X obj 342 617 s \$0-f-l2;
#X obj 416 577 s \$0-f-l3;
#X obj 488 542 s \$0-f-h1;
#X obj 543 479 f;
#X obj 542 511 s \$0-f-h2;
#X obj 644 469 f;
#X obj 645 511 s \$0-f-h3;
#X connect 0 0 13 0;
#X connect 1 0 11 1;
#X connect 4 0 3 0;
#X connect 4 1 5 0;
#X connect 5 0 3 1;
#X connect 6 0 3 0;
#X connect 6 1 47 0;
#X connect 7 0 3 0;
#X connect 7 1 48 0;
#X connect 8 0 3 0;
#X connect 8 1 9 0;
#X connect 9 0 3 1;
#X connect 10 0 15 0;
#X connect 11 0 12 0;
#X connect 13 0 1 1;
#X connect 14 0 1 0;
#X connect 14 1 0 0;
#X connect 15 0 17 0;
#X connect 15 1 14 0;
#X connect 16 0 17 1;
#X connect 17 0 11 0;
#X connect 18 0 24 1;
#X connect 18 0 25 1;
#X connect 18 0 26 1;
#X connect 18 0 27 1;
#X connect 18 0 61 1;
#X connect 18 0 63 1;
#X connect 19 0 20 0;
#X connect 20 0 21 0;
#X connect 20 0 23 0;
#X connect 21 0 20 1;
#X connect 22 0 20 1;
#X connect 23 0 56 0;
#X connect 23 1 18 0;
#X connect 24 0 57 0;
#X connect 25 0 58 0;
#X connect 26 0 59 0;
#X connect 27 0 60 0;
#X connect 28 0 32 0;
#X connect 29 0 31 1;
#X connect 30 0 34 0;
#X connect 31 0 37 0;
#X connect 32 0 29 1;
#X connect 33 0 29 0;
#X connect 33 1 28 0;
#X connect 34 0 36 0;
#X connect 34 1 33 0;
#X connect 35 0 36 1;
#X connect 36 0 31 0;
#X connect 38 0 10 0;
#X connect 39 0 16 0;
#X connect 40 0 42 0;
#X connect 41 0 35 0;
#X connect 42 0 55 0;
#X connect 42 1 30 0;
#X connect 43 0 4 0;
#X connect 44 0 6 0;
#X connect 45 0 7 0;
#X connect 46 0 8 0;
#X connect 47 0 3 1;
#X connect 48 0 3 1;
#X connect 49 0 3 0;
#X connect 49 1 53 0;
#X connect 50 0 49 0;
#X connect 51 0 3 0;
#X connect 51 1 54 0;
#X connect 52 0 51 0;
#X connect 53 0 3 1;
#X connect 54 0 3 1;
#X connect 55 0 19 0;
#X connect 56 0 24 0;
#X connect 56 1 25 0;
#X connect 56 2 26 0;
#X connect 56 3 27 0;
#X connect 56 4 61 0;
#X connect 56 5 63 0;
#X connect 56 5 22 0;
#X connect 61 0 62 0;
#X connect 63 0 64 0;
#X restore 448 729 pd presets;
#X obj 628 617 bng 15 250 50 0 empty empty salva 17 7 0 10 -262144
-1 -1;
#X symbolatom 629 571 15 0 0 3 nome_preset - -;
#X obj 626 681 bng 15 250 50 0 empty empty abre 17 7 0 10 -262144 -1
-1;
#X symbolatom 626 637 15 0 0 3 nome_preset_abre - -;
#X obj 339 79 lop~;
#X text 133 81 mudar os filtros para: 3;
#X text 320 106 +;
#X text 319 131 3;
#X obj 342 127 hip~;
#X obj 198 375 lop~;
#X obj 198 428 lop~;
#X obj 198 486 lop~;
#X obj 641 391 hsl 128 15 0 127 0 0 \$0-freq-lop3 \$0-f-l3 empty -2
-8 0 10 -262144 -1 -1 11200 1;
#X obj 253 450 mtof;
#X obj 256 511 mtof;
#X obj 255 563 mtof;
#X obj 254 621 mtof;
#X obj 199 546 hip~;
#X obj 199 598 hip~;
#X obj 199 657 hip~;
#X obj 638 546 hsl 128 15 0 127 0 0 \$0-freq-hip3 \$0-f-h3 empty -2
-8 0 10 -262144 -1 -1 11700 1;
#X obj 198 334 *~;
#X obj 314 303 line~;
#X obj 612 165 hsl 128 15 0 127 0 0 empty empty empty -2 -8 0 10 -262144
-1 -1 900 1;
#X obj 314 270 / 127;
#X obj 668 805 s \$0-f-h1;
#X floatatom 666 758 5 0 0 0 - - -;
#X connect 4 0 10 0;
#X connect 5 0 11 0;
#X connect 7 0 30 0;
#X connect 8 0 31 0;
#X connect 9 0 0 0;
#X connect 9 0 37 0;
#X connect 10 0 25 1;
#X connect 11 0 26 1;
#X connect 12 0 1 0;
#X connect 13 0 6 0;
#X connect 16 0 15 0;
#X connect 17 0 15 1;
#X connect 18 0 15 2;
#X connect 19 0 15 3;
#X connect 25 0 26 0;
#X connect 26 0 27 0;
#X connect 27 0 33 0;
#X connect 27 0 2 0;
#X connect 28 0 29 0;
#X connect 29 0 27 1;
#X connect 30 0 33 1;
#X connect 31 0 34 1;
#X connect 32 0 35 1;
#X connect 33 0 34 0;
#X connect 34 0 35 0;
#X connect 35 0 3 0;
#X connect 35 0 14 0;
#X connect 36 0 32 0;
#X connect 37 0 25 0;
#X connect 38 0 37 1;
#X connect 39 0 40 0;
#X connect 40 0 38 0;
#X connect 42 0 41 0;
#X coords 0 -1 1 1 400 600 1 600 100;
