#N canvas 739 153 450 300 10;
#X obj 55 14 inlet~;
#X obj -3 226 outlet~;
#X obj 205 221 outlet~;
#X obj 56 38 *~ 1;
#X obj 221 23 inlet;
#X text 267 22 0 - 1;
#X obj 205 198 *~;
#X obj 221 175 line~;
#X msg 221 155 \$1 100;
#X obj -3 205 *~;
#X obj 11 142 scale.linear 0 1 1 0;
#X obj 11 183 line~;
#X msg 11 163 \$1 100;
#X connect 0 0 3 0;
#X connect 3 0 6 0;
#X connect 3 0 9 0;
#X connect 4 0 10 0;
#X connect 4 0 8 0;
#X connect 6 0 2 0;
#X connect 7 0 6 1;
#X connect 8 0 7 0;
#X connect 9 0 1 0;
#X connect 10 0 12 0;
#X connect 11 0 9 1;
#X connect 12 0 11 0;
