#N canvas 98 68 927 678 24;
#X obj 342 368 vline~;
#X obj 73 404 *~;
#X obj 74 455 dac~;
#X obj 73 277 osc~ 400;
#X obj 463 6 metro;
#X obj 323 11 tgl 15 0 empty empty empty 17 7 0 10 -262144 -1 -1 0
1;
#X obj 72 210 +~;
#X obj 504 495 metro 100;
#X obj 504 470 tgl 15 0 empty empty empty 17 7 0 10 -262144 -1 -1 1
1;
#N canvas 0 0 450 300 (subpatch) 0;
#X array \$0-array1 100 float 3;
#A 0 0 0 0 0 0 0 0 0 0 0 0 0 0 0 0 0 0 0 0 0 0 0 0 0 0 0 0 0 0 0 0
0 0 0 0 0 0 0 0 0 0 0 0 0 0 0 0 0 0 0 0 0 0 0 0 0 0 0 0 0 0 0 0 0 0
0 0 0 0 0 0 0 0 0 0 0 0 0 0 0 0 0 0 0 0 0 0 0 0 0 0 0 0 0 0 0 0 0 0
0;
#X coords 0 1 99 -1 200 140 1;
#X restore 630 -24 graph;
#X obj 72 156 *~;
#X obj 72 94 phasor~;
#X floatatom 202 202 5 0 0 0 - - -;
#X floatatom 72 51 5 0 0 0 - - -;
#X obj 72 12 random 100;
#X obj 504 536 tabwrite~ \$0-array1;
#X obj 256 -70 inlet;
#X obj 256 34 switch~;
#X obj 256 10 tgl 15 0 empty empty empty 17 7 0 10 -262144 -1 -1 1
1;
#X obj 256 -29 t f f;
#X obj 445 163 random 1000;
#X obj 636 155 random 1500;
#X obj 354 228 f;
#X obj 349 270 pack f f;
#X obj 424 93 random 3000;
#X obj 202 153 - 2000;
#X msg 345 323 0 \, 0.6 \$1 0 \, 0 \$2 \$1;
#X msg 216 277 0.6;
#X msg 234 327 0;
#X connect 0 0 1 1;
#X connect 1 0 2 0;
#X connect 1 0 2 1;
#X connect 1 0 15 0;
#X connect 3 0 1 0;
#X connect 4 0 14 0;
#X connect 4 0 20 0;
#X connect 4 0 21 0;
#X connect 4 0 22 0;
#X connect 4 0 24 0;
#X connect 5 0 4 0;
#X connect 6 0 3 0;
#X connect 7 0 15 0;
#X connect 8 0 7 0;
#X connect 10 0 6 0;
#X connect 11 0 10 0;
#X connect 12 0 10 1;
#X connect 12 0 6 1;
#X connect 13 0 11 0;
#X connect 14 0 13 0;
#X connect 16 0 19 0;
#X connect 18 0 17 0;
#X connect 19 0 18 0;
#X connect 19 1 5 0;
#X connect 20 0 22 1;
#X connect 21 0 23 1;
#X connect 22 0 23 0;
#X connect 23 0 26 0;
#X connect 24 0 4 1;
#X connect 24 0 25 0;
#X connect 25 0 12 0;
#X connect 26 0 0 0;
#X connect 27 0 0 0;
#X connect 28 0 0 0;
