#N canvas 351 69 716 641 24;
#X obj 65 170 osc~;
#X obj 66 225 *~;
#X obj 211 200 vline~;
#X msg 211 157 0 \, 1 5 0 \, 0 50 10;
#X obj 67 514 dac~;
#X floatatom 66 110 5 0 0 0 - - -;
#X obj 155 106 mtof;
#X obj 155 64 random 127;
#X obj 324 -12 metro;
#X obj 325 -34 tgl 15 0 empty empty empty 17 7 0 10 -262144 -1 -1 0
1;
#X obj 323 99 random 1000;
#X obj 175 320 delwrite~ \$0-delay 500;
#X obj 506 14 key;
#X obj 506 62 bng 15 250 50 0 empty empty empty 17 7 0 10 -262144 -1
-1;
#X obj 168 473 vd~ \$0-delay;
#X obj 170 427 sig~;
#X floatatom 170 377 5 0 0 0 - - -;
#X obj 62 332 +~;
#X obj 168 525 *~;
#X obj 232 525 hsl 128 15 0 1 0 0 empty empty empty -2 -8 0 10 -262144
-1 -1 7500 1;
#X connect 0 0 1 0;
#X connect 1 0 17 0;
#X connect 2 0 1 1;
#X connect 3 0 2 0;
#X connect 5 0 0 0;
#X connect 6 0 5 0;
#X connect 7 0 6 0;
#X connect 8 0 7 0;
#X connect 8 0 10 0;
#X connect 9 0 8 0;
#X connect 10 0 8 1;
#X connect 10 0 3 0;
#X connect 12 0 13 0;
#X connect 13 0 7 0;
#X connect 13 0 10 0;
#X connect 14 0 18 0;
#X connect 15 0 14 0;
#X connect 16 0 15 0;
#X connect 17 0 11 0;
#X connect 17 0 4 0;
#X connect 17 0 4 1;
#X connect 18 0 17 1;
#X connect 19 0 18 1;
