#N canvas 145 100 971 611 12;
#X obj 468 -20 key;
#X floatatom 468 24 5 0 0 0 - - -;
#X obj 535 247 timer;
#X floatatom 535 274 5 0 0 0 - - -;
#X obj 468 114 alternate;
#X obj 535 331 * 48000;
#X floatatom 535 358 10 0 0 0 - - -;
#X msg 367 175 bang;
#X msg 426 176 stop;
#X obj 602 159 bng 15 250 50 0 empty empty grava 17 7 0 10 -258113
-1 -1;
#X obj 675 160 bng 15 250 50 0 empty empty para 17 7 0 10 -4034 -1
-1;
#X obj 710 430 bng 15 250 50 0 empty empty empty 17 7 0 10 -262144
-1 -1;
#X obj 410 333 prepend set;
#X msg 410 378 10000 95395.4;
#X obj 535 305 / 1000;
#X obj 534 510 *~;
#X obj 757 539 line~;
#X obj 757 482 delay 10;
#X msg 757 507 0.6 100;
#X msg 710 486 0 50;
#X obj 468 82 spigot;
#X obj 603 125 tgl 30 0 empty empty habilita_canal 17 7 0 10 -261234
-1 -1 1 1;
#X obj 516 561 outlet~;
#X obj 535 479 tabplay~ \$0-array1;
#X obj 367 214 tabwrite~ \$0-array1;
#X obj 32 -10 table \$0-array1;
#X obj 128 171 f \$0;
#X obj 89 225 symbol;
#X obj 66 136 t b b b;
#X obj 29 111 bng 15 250 50 0 empty empty empty 17 7 0 10 -262144 -1
-1;
#X obj 82 102 closebang;
#X obj 66 64 loadbang;
#X msg 104 260 \; \$1 const 0;
#X msg 89 307 \; \$1 resize 4.41e+06;
#X obj 128 198 makefilename %d-array1;
#X obj 290 51 inlet~;
#X obj 468 47 sel 32;
#X obj 603 -12 inlet;
#X obj 675 140 bng 15 250 50 0 empty empty clean 17 7 0 10 -257985
-1 -1;
#X obj 631 241 s \$0-clean;
#X obj 29 24 r \$0-clean;
#X obj 675 -4 inlet;
#X obj 535 395 - 10000;
#X msg 535 423 10000 \$1;
#X obj 631 213 spigot;
#X obj 315 310 line~;
#X msg 315 267 0 100;
#X msg 369 267 1 100;
#X obj 516 534 *~;
#X obj 381 328 bng 15 250 50 0 empty empty empty 17 7 0 10 -262144
-1 -1;
#X floatatom 645 333 5 0 0 0 - - -;
#X text 689 330 samples de off-set;
#X text 691 346 a depender da latência;
#X connect 0 0 1 0;
#X connect 1 0 36 0;
#X connect 2 0 3 0;
#X connect 3 0 14 0;
#X connect 4 0 2 0;
#X connect 4 0 7 0;
#X connect 4 0 9 0;
#X connect 4 1 2 1;
#X connect 4 1 8 0;
#X connect 4 1 10 0;
#X connect 5 0 6 0;
#X connect 6 0 42 0;
#X connect 7 0 24 0;
#X connect 7 0 46 0;
#X connect 8 0 24 0;
#X connect 8 0 47 0;
#X connect 8 0 49 0;
#X connect 11 0 13 0;
#X connect 11 0 19 0;
#X connect 11 0 17 0;
#X connect 12 0 13 0;
#X connect 13 0 23 0;
#X connect 14 0 5 0;
#X connect 15 0 48 1;
#X connect 16 0 15 1;
#X connect 17 0 18 0;
#X connect 18 0 16 0;
#X connect 19 0 16 0;
#X connect 20 0 4 0;
#X connect 21 0 20 1;
#X connect 21 0 44 1;
#X connect 23 0 15 0;
#X connect 23 1 11 0;
#X connect 26 0 34 0;
#X connect 27 0 32 0;
#X connect 27 0 33 0;
#X connect 28 1 27 0;
#X connect 28 2 26 0;
#X connect 29 0 28 0;
#X connect 30 0 28 0;
#X connect 31 0 28 0;
#X connect 34 0 27 1;
#X connect 35 0 24 0;
#X connect 36 0 20 0;
#X connect 37 0 21 0;
#X connect 38 0 44 0;
#X connect 40 0 29 0;
#X connect 41 0 38 0;
#X connect 42 0 43 0;
#X connect 43 0 12 0;
#X connect 43 0 23 0;
#X connect 44 0 39 0;
#X connect 45 0 48 0;
#X connect 46 0 45 0;
#X connect 47 0 45 0;
#X connect 48 0 22 0;
#X connect 49 0 13 0;
#X connect 50 0 42 1;
#X coords 0 -1 1 1 120 80 1 600 100;
