#N canvas 828 95 450 300 10;
#X obj 106 30 netreceive 3001 1;
#X floatatom 106 122 5 0 0 0 - - -;
#X obj 106 177 sinc-notacao;
#X floatatom 249 122 5 0 0 0 - - -;
#X obj 106 88 route nota_entrada nota_sistema;
#X connect 0 0 4 0;
#X connect 1 0 2 0;
#X connect 3 0 2 1;
#X connect 4 0 1 0;
#X connect 4 1 3 0;
