#N canvas 628 84 604 595 10;
#X obj 52 418 line~;
#X msg 52 390 \$1 100;
#X obj 33 452 *~;
#X obj 52 364 r amp1;
#X obj 176 440 line~;
#X msg 176 412 \$1 100;
#X obj 158 471 *~;
#X obj 176 386 r amp2;
#X obj 301 409 line~;
#X msg 301 381 \$1 100;
#X obj 282 445 *~;
#X obj 420 418 line~;
#X msg 420 390 \$1 100;
#X obj 403 448 *~;
#X obj 301 355 r amp3;
#X obj 420 364 r amp4;
#X obj 33 291 sinc-looper;
#X obj 17 -18 comment 0 36 Courier ? 0 0 0 0 [sinc-looper4];
#X obj 36 15 comment 0 12 Courier ? 0 0 0 0 figocris@gmail.com;
#X obj 402 15 keyname;
#X symbolatom 441 47 10 0 0 0 - - -;
#X obj 441 94 bng 15 250 50 0 empty empty empty 17 7 0 10 -262144 -1
-1;
#X floatatom 402 41 5 0 0 0 - - -;
#X obj 248 84 spigot;
#X obj 248 145 bng 15 250 50 0 empty empty empty 17 7 0 10 -262144
-1 -1;
#X obj 248 164 counter 3;
#X floatatom 248 188 5 0 0 0 - - -;
#N canvas 5 160 450 300 selects 0;
#X obj 35 252 outlet;
#X msg 20 211 1;
#X msg 123 210 0;
#X msg 89 208 1;
#X msg 55 210 0;
#X msg 168 209 1;
#X msg 286 210 0;
#X msg 242 211 1;
#X msg 206 210 0;
#X obj 95 252 outlet;
#X obj 185 252 outlet;
#X obj 245 252 outlet;
#X obj 118 46 sel 0 1 2 3;
#X obj 118 12 inlet;
#X connect 1 0 0 0;
#X connect 2 0 9 0;
#X connect 3 0 9 0;
#X connect 4 0 0 0;
#X connect 5 0 10 0;
#X connect 6 0 11 0;
#X connect 7 0 11 0;
#X connect 8 0 10 0;
#X connect 12 0 1 0;
#X connect 12 0 2 0;
#X connect 12 0 8 0;
#X connect 12 0 6 0;
#X connect 12 1 3 0;
#X connect 12 1 4 0;
#X connect 12 1 8 0;
#X connect 12 1 6 0;
#X connect 12 2 5 0;
#X connect 12 2 4 0;
#X connect 12 2 2 0;
#X connect 12 2 6 0;
#X connect 12 3 7 0;
#X connect 12 3 4 0;
#X connect 12 3 2 0;
#X connect 12 3 8 0;
#X connect 13 0 12 0;
#X restore 248 214 pd selects;
#X obj 248 119 spigot;
#X obj 296 103 tgl 15 0 empty empty empty 17 7 0 10 -262144 -1 -1 0
1;
#N canvas 199 36 275 406 volumes 0;
#X obj 39 164 vsl 40 100 0 1 0 0 empty empty empty 0 -9 0 10 -257985
-1 -1 4950 1;
#X obj 83 164 vsl 40 100 0 1 0 0 empty empty empty 0 -9 0 10 -257985
-1 -1 4950 1;
#X obj 127 164 vsl 40 100 0 1 0 0 empty empty empty 0 -9 0 10 -257985
-1 -1 4950 1;
#X obj 171 164 vsl 40 100 0 1 0 0 empty empty empty 0 -9 0 10 -257985
-1 -1 4950 1;
#X obj 39 348 s amp1;
#X obj 83 322 s amp2;
#X obj 127 298 s amp3;
#X obj 171 272 s amp4;
#X obj 171 71 loadbang;
#X msg 171 96 0.5;
#X obj 42 50 hsl 128 15 0 1 0 0 empty empty volume_geral -2 -8 0 10
-260097 -1 -1 0 1;
#X obj 40 11 r vol_loop;
#X connect 0 0 4 0;
#X connect 1 0 5 0;
#X connect 2 0 6 0;
#X connect 3 0 7 0;
#X connect 8 0 9 0;
#X connect 9 0 0 0;
#X connect 9 0 1 0;
#X connect 9 0 2 0;
#X connect 9 0 3 0;
#X connect 10 0 0 0;
#X connect 10 0 1 0;
#X connect 10 0 2 0;
#X connect 10 0 3 0;
#X connect 11 0 10 0;
#X restore 102 54 pd volumes looper;
#X obj 441 70 select Control_L Control_R;
#X obj 517 221 bng 15 250 50 0 empty empty limpa 17 7 0 10 -262144
-1 -1;
#X obj 404 290 sinc-looper;
#X obj 157 289 sinc-looper;
#X obj 281 289 sinc-looper;
#X obj 94 530 outlet~;
#X obj 158 216 inlet~;
#X obj 277 29 r teclado_global1;
#X connect 0 0 2 1;
#X connect 1 0 0 0;
#X connect 2 0 36 0;
#X connect 3 0 1 0;
#X connect 4 0 6 1;
#X connect 5 0 4 0;
#X connect 6 0 36 0;
#X connect 7 0 5 0;
#X connect 8 0 10 1;
#X connect 9 0 8 0;
#X connect 10 0 36 0;
#X connect 11 0 13 1;
#X connect 12 0 11 0;
#X connect 13 0 36 0;
#X connect 14 0 9 0;
#X connect 15 0 12 0;
#X connect 16 0 2 0;
#X connect 19 0 22 0;
#X connect 19 1 20 0;
#X connect 20 0 31 0;
#X connect 21 0 23 0;
#X connect 22 0 23 1;
#X connect 23 0 28 0;
#X connect 24 0 25 0;
#X connect 25 0 26 0;
#X connect 26 0 27 0;
#X connect 27 0 16 1;
#X connect 27 1 34 1;
#X connect 27 2 35 1;
#X connect 27 3 33 1;
#X connect 28 0 24 0;
#X connect 29 0 28 1;
#X connect 31 0 21 0;
#X connect 31 1 32 0;
#X connect 32 0 33 2;
#X connect 32 0 35 2;
#X connect 32 0 34 2;
#X connect 32 0 16 2;
#X connect 33 0 13 0;
#X connect 34 0 6 0;
#X connect 35 0 10 0;
#X connect 37 0 16 0;
#X connect 37 0 33 0;
#X connect 37 0 34 0;
#X connect 37 0 35 0;
#X connect 38 0 29 0;
