#N canvas 30 265 1250 535 10;
#X obj 451 106 cnv 15 235 110 empty empty sinc-gera_sintese 15 6 0
14 -262130 -66577 0;
#X obj 450 197 cnv 15 20 20 empty tipo_synth resintese 20 12 1 15 -262130
-1 0;
#X obj 167 55 counter 8;
#X obj 192 31 bng 15 250 50 0 empty empty empty 17 7 0 10 -262144 -1
-1;
#N canvas 0 0 450 300 (subpatch) 0;
#X array \$0-nota 8 float 3;
#A 0 64 60 57 57 53 29 76 65;
#X coords 0 127 8 0 90 50 1;
#X restore 594 148 graph;
#X obj 92 78 tabwrite \$0-nota;
#X obj 152 160 f \$0;
#X obj 119 205 symbol;
#X obj 152 136 loadbang;
#X obj 152 184 makefilename %d-nota;
#X obj 92 22 t f b;
#X obj 92 -24 t f b;
#X obj 92 -54 inlet nota;
#X obj 192 -52 inlet reset;
#X obj 119 228 outlet nome do array \$0-nota;
#N canvas 85 287 724 513 gerador_resintese 0;
#N canvas 548 53 626 534 banco 0;
#X obj 137 86 route 0 1 2 3 4 5;
#N canvas 580 115 223 264 osc 0;
#X obj 66 29 inlet;
#X obj 66 59 unpack f f f f;
#X obj 66 159 osc~;
#X obj 114 190 line~;
#X obj 67 213 *~;
#X msg 114 165 \$1 100;
#X obj 66 243 outlet~;
#X obj 66 138 line;
#X msg 65 116 \$1 10;
#X obj 66 93 speedlim 1000;
#X connect 0 0 1 0;
#X connect 1 0 9 0;
#X connect 1 1 5 0;
#X connect 2 0 4 0;
#X connect 3 0 4 1;
#X connect 4 0 6 0;
#X connect 5 0 3 0;
#X connect 7 0 2 0;
#X connect 8 0 7 0;
#X connect 9 0 8 0;
#X restore 153 291 pd osc;
#N canvas 580 115 223 264 osc 0;
#X obj 86 49 inlet;
#X obj 86 79 unpack f f f f;
#X obj 86 179 osc~;
#X obj 134 210 line~;
#X obj 87 233 *~;
#X msg 134 185 \$1 100;
#X obj 86 263 outlet~;
#X obj 86 158 line;
#X msg 85 136 \$1 10;
#X obj 86 113 speedlim 1000;
#X connect 0 0 1 0;
#X connect 1 0 9 0;
#X connect 1 1 5 0;
#X connect 2 0 4 0;
#X connect 3 0 4 1;
#X connect 4 0 6 0;
#X connect 5 0 3 0;
#X connect 7 0 2 0;
#X connect 8 0 7 0;
#X connect 9 0 8 0;
#X restore 186 245 pd osc;
#N canvas 580 115 315 340 osc 0;
#X obj 116 79 inlet;
#X obj 116 109 unpack f f f f;
#X obj 116 209 osc~;
#X obj 197 211 line~;
#X obj 117 263 *~;
#X msg 197 186 \$1 100;
#X obj 116 293 outlet~;
#X obj 116 188 line;
#X msg 116 166 \$1 10;
#X obj 116 143 speedlim 1000;
#X connect 0 0 1 0;
#X connect 1 0 9 0;
#X connect 1 3 5 0;
#X connect 2 0 4 0;
#X connect 3 0 4 1;
#X connect 4 0 6 0;
#X connect 5 0 3 0;
#X connect 7 0 2 0;
#X connect 8 0 7 0;
#X connect 9 0 8 0;
#X restore 203 223 pd osc;
#N canvas 580 115 328 394 osc 0;
#X obj 106 69 inlet;
#X obj 106 99 unpack f f f f;
#X obj 106 199 osc~;
#X obj 187 201 line~;
#X obj 106 253 *~;
#X msg 187 176 \$1 100;
#X obj 106 283 outlet~;
#X obj 106 178 line;
#X msg 106 156 \$1 10;
#X obj 106 133 speedlim 1000;
#X connect 0 0 1 0;
#X connect 1 0 9 0;
#X connect 1 3 5 0;
#X connect 2 0 4 0;
#X connect 3 0 4 1;
#X connect 4 0 6 0;
#X connect 5 0 3 0;
#X connect 7 0 2 0;
#X connect 8 0 7 0;
#X connect 9 0 8 0;
#X restore 219 187 pd osc;
#X obj 204 394 +~;
#N canvas 580 115 223 264 osc 0;
#X obj 76 39 inlet;
#X obj 76 69 unpack f f f f;
#X obj 76 169 osc~;
#X obj 124 200 line~;
#X obj 77 223 *~;
#X msg 124 175 \$1 100;
#X obj 76 253 outlet~;
#X obj 76 148 line;
#X msg 75 126 \$1 10;
#X obj 76 103 speedlim 1000;
#X connect 0 0 1 0;
#X connect 1 0 9 0;
#X connect 1 1 5 0;
#X connect 2 0 4 0;
#X connect 3 0 4 1;
#X connect 4 0 6 0;
#X connect 5 0 3 0;
#X connect 7 0 2 0;
#X connect 8 0 7 0;
#X connect 9 0 8 0;
#X restore 170 269 pd osc;
#X obj 137 34 inlet;
#N canvas 765 381 292 264 osc 0;
#X obj 56 19 inlet;
#X obj 56 49 unpack f f f f;
#X obj 56 149 osc~;
#X obj 104 180 line~;
#X obj 57 203 *~;
#X msg 104 155 \$1 100;
#X obj 56 233 outlet~;
#X obj 56 128 line;
#X msg 55 106 \$1 10;
#X obj 56 83 speedlim 1000;
#X connect 0 0 1 0;
#X connect 1 0 9 0;
#X connect 1 1 5 0;
#X connect 2 0 4 0;
#X connect 3 0 4 1;
#X connect 4 0 6 0;
#X connect 5 0 3 0;
#X connect 7 0 2 0;
#X connect 8 0 7 0;
#X connect 9 0 8 0;
#X restore 137 312 pd osc;
#N canvas 580 115 223 264 osc 0;
#X obj 66 29 inlet;
#X obj 66 59 unpack f f f f;
#X obj 66 159 osc~;
#X obj 114 190 line~;
#X obj 67 213 *~;
#X msg 114 165 \$1 100;
#X obj 66 243 outlet~;
#X obj 66 138 line;
#X msg 65 116 \$1 10;
#X obj 66 93 speedlim 1000;
#X connect 0 0 1 0;
#X connect 1 0 9 0;
#X connect 1 1 5 0;
#X connect 2 0 4 0;
#X connect 3 0 4 1;
#X connect 4 0 6 0;
#X connect 5 0 3 0;
#X connect 7 0 2 0;
#X connect 8 0 7 0;
#X connect 9 0 8 0;
#X restore 325 263 pd osc;
#N canvas 580 115 223 264 osc 0;
#X obj 86 49 inlet;
#X obj 86 79 unpack f f f f;
#X obj 86 179 osc~;
#X obj 134 210 line~;
#X obj 87 233 *~;
#X msg 134 185 \$1 100;
#X obj 86 263 outlet~;
#X obj 86 158 line;
#X msg 85 136 \$1 10;
#X obj 86 113 speedlim 1000;
#X connect 0 0 1 0;
#X connect 1 0 9 0;
#X connect 1 1 5 0;
#X connect 2 0 4 0;
#X connect 3 0 4 1;
#X connect 4 0 6 0;
#X connect 5 0 3 0;
#X connect 7 0 2 0;
#X connect 8 0 7 0;
#X connect 9 0 8 0;
#X restore 362 224 pd osc;
#N canvas 580 115 223 264 osc 0;
#X obj 96 59 inlet;
#X obj 96 89 unpack f f f f;
#X obj 96 189 osc~;
#X obj 144 220 line~;
#X obj 97 243 *~;
#X msg 144 195 \$1 100;
#X obj 96 273 outlet~;
#X obj 96 168 line;
#X msg 95 146 \$1 10;
#X obj 96 123 speedlim 1000;
#X connect 0 0 1 0;
#X connect 1 0 9 0;
#X connect 1 1 5 0;
#X connect 2 0 4 0;
#X connect 3 0 4 1;
#X connect 4 0 6 0;
#X connect 5 0 3 0;
#X connect 7 0 2 0;
#X connect 8 0 7 0;
#X connect 9 0 8 0;
#X restore 381 204 pd osc;
#X obj 383 381 +~;
#N canvas 580 115 223 264 osc 0;
#X obj 76 39 inlet;
#X obj 76 69 unpack f f f f;
#X obj 76 169 osc~;
#X obj 124 200 line~;
#X obj 77 223 *~;
#X msg 124 175 \$1 100;
#X obj 76 253 outlet~;
#X obj 76 148 line;
#X msg 75 126 \$1 10;
#X obj 76 103 speedlim 1000;
#X connect 0 0 1 0;
#X connect 1 0 9 0;
#X connect 1 1 5 0;
#X connect 2 0 4 0;
#X connect 3 0 4 1;
#X connect 4 0 6 0;
#X connect 5 0 3 0;
#X connect 7 0 2 0;
#X connect 8 0 7 0;
#X connect 9 0 8 0;
#X restore 344 248 pd osc;
#N canvas 765 381 292 264 osc 0;
#X obj 56 19 inlet;
#X obj 56 49 unpack f f f f;
#X obj 56 149 osc~;
#X obj 104 180 line~;
#X obj 57 203 *~;
#X msg 104 155 \$1 100;
#X obj 56 233 outlet~;
#X obj 56 128 line;
#X msg 55 106 \$1 10;
#X obj 56 83 speedlim 1000;
#X connect 0 0 1 0;
#X connect 1 0 9 0;
#X connect 1 1 5 0;
#X connect 2 0 4 0;
#X connect 3 0 4 1;
#X connect 4 0 6 0;
#X connect 5 0 3 0;
#X connect 7 0 2 0;
#X connect 8 0 7 0;
#X connect 9 0 8 0;
#X restore 307 286 pd osc;
#X obj 282 491 outlet~;
#X obj 282 448 +~;
#X obj 307 86 route 6 7 8 9 10 11;
#N canvas 580 115 223 264 osc 0;
#X obj 106 69 inlet;
#X obj 106 99 unpack f f f f;
#X obj 106 199 osc~;
#X obj 154 230 line~;
#X obj 107 253 *~;
#X msg 154 205 \$1 100;
#X obj 106 283 outlet~;
#X obj 106 178 line;
#X msg 105 156 \$1 10;
#X obj 106 133 speedlim 1000;
#X connect 0 0 1 0;
#X connect 1 0 9 0;
#X connect 1 1 5 0;
#X connect 2 0 4 0;
#X connect 3 0 4 1;
#X connect 4 0 6 0;
#X connect 5 0 3 0;
#X connect 7 0 2 0;
#X connect 8 0 7 0;
#X connect 9 0 8 0;
#X restore 399 174 pd osc;
#X connect 0 0 8 0;
#X connect 0 1 1 0;
#X connect 0 2 6 0;
#X connect 0 3 2 0;
#X connect 0 4 3 0;
#X connect 0 5 4 0;
#X connect 1 0 5 1;
#X connect 2 0 5 1;
#X connect 3 0 5 0;
#X connect 4 0 5 1;
#X connect 5 0 16 0;
#X connect 6 0 5 0;
#X connect 7 0 0 0;
#X connect 7 0 17 0;
#X connect 8 0 5 0;
#X connect 9 0 12 1;
#X connect 10 0 12 1;
#X connect 11 0 12 0;
#X connect 12 0 16 1;
#X connect 13 0 12 0;
#X connect 14 0 12 0;
#X connect 16 0 15 0;
#X connect 17 0 14 0;
#X connect 17 1 9 0;
#X connect 17 2 13 0;
#X connect 17 3 10 0;
#X connect 17 4 11 0;
#X connect 17 5 18 0;
#X connect 18 0 12 1;
#X restore 69 284 pd banco de osciladores;
#X obj 69 42 inlet~;
#X obj 69 403 outlet~;
#X obj 176 67 tgl 15 0 empty empty empty 17 7 0 10 -262144 -1 -1 1
1;
#X obj 176 41 inlet cenario;
#X obj 69 319 *~;
#X obj 176 143 line~;
#X obj 176 92 sel 0;
#X msg 176 118 0 300;
#X msg 229 118 1 300;
#X obj 69 213 *~;
#X obj 69 253 sigmund~ -hop 512 -npeak 12 peaks tracks;
#N canvas 548 53 626 534 banco 0;
#X obj 137 86 route 0 1 2 3 4 5;
#N canvas 580 115 223 264 osc 0;
#X obj 66 29 inlet;
#X obj 66 59 unpack f f f f;
#X obj 66 159 osc~;
#X obj 114 190 line~;
#X obj 67 213 *~;
#X msg 114 165 \$1 100;
#X obj 66 243 outlet~;
#X obj 66 138 line;
#X msg 65 116 \$1 10;
#X obj 66 93 speedlim 1000;
#X connect 0 0 1 0;
#X connect 1 0 9 0;
#X connect 1 1 5 0;
#X connect 2 0 4 0;
#X connect 3 0 4 1;
#X connect 4 0 6 0;
#X connect 5 0 3 0;
#X connect 7 0 2 0;
#X connect 8 0 7 0;
#X connect 9 0 8 0;
#X restore 153 291 pd osc;
#N canvas 580 115 223 264 osc 0;
#X obj 86 49 inlet;
#X obj 86 79 unpack f f f f;
#X obj 86 179 osc~;
#X obj 134 210 line~;
#X obj 87 233 *~;
#X msg 134 185 \$1 100;
#X obj 86 263 outlet~;
#X obj 86 158 line;
#X msg 85 136 \$1 10;
#X obj 86 113 speedlim 1000;
#X connect 0 0 1 0;
#X connect 1 0 9 0;
#X connect 1 1 5 0;
#X connect 2 0 4 0;
#X connect 3 0 4 1;
#X connect 4 0 6 0;
#X connect 5 0 3 0;
#X connect 7 0 2 0;
#X connect 8 0 7 0;
#X connect 9 0 8 0;
#X restore 186 245 pd osc;
#N canvas 580 115 315 340 osc 0;
#X obj 116 79 inlet;
#X obj 116 109 unpack f f f f;
#X obj 116 209 osc~;
#X obj 197 211 line~;
#X obj 117 263 *~;
#X msg 197 186 \$1 100;
#X obj 116 293 outlet~;
#X obj 116 188 line;
#X msg 116 166 \$1 10;
#X obj 116 143 speedlim 1000;
#X connect 0 0 1 0;
#X connect 1 0 9 0;
#X connect 1 3 5 0;
#X connect 2 0 4 0;
#X connect 3 0 4 1;
#X connect 4 0 6 0;
#X connect 5 0 3 0;
#X connect 7 0 2 0;
#X connect 8 0 7 0;
#X connect 9 0 8 0;
#X restore 203 223 pd osc;
#N canvas 580 115 328 394 osc 0;
#X obj 106 69 inlet;
#X obj 106 99 unpack f f f f;
#X obj 106 199 osc~;
#X obj 187 201 line~;
#X obj 106 253 *~;
#X msg 187 176 \$1 100;
#X obj 106 283 outlet~;
#X obj 106 178 line;
#X msg 106 156 \$1 10;
#X obj 106 133 speedlim 1000;
#X connect 0 0 1 0;
#X connect 1 0 9 0;
#X connect 1 3 5 0;
#X connect 2 0 4 0;
#X connect 3 0 4 1;
#X connect 4 0 6 0;
#X connect 5 0 3 0;
#X connect 7 0 2 0;
#X connect 8 0 7 0;
#X connect 9 0 8 0;
#X restore 219 187 pd osc;
#X obj 204 394 +~;
#N canvas 580 115 223 264 osc 0;
#X obj 76 39 inlet;
#X obj 76 69 unpack f f f f;
#X obj 76 169 osc~;
#X obj 124 200 line~;
#X obj 77 223 *~;
#X msg 124 175 \$1 100;
#X obj 76 253 outlet~;
#X obj 76 148 line;
#X msg 75 126 \$1 10;
#X obj 76 103 speedlim 1000;
#X connect 0 0 1 0;
#X connect 1 0 9 0;
#X connect 1 1 5 0;
#X connect 2 0 4 0;
#X connect 3 0 4 1;
#X connect 4 0 6 0;
#X connect 5 0 3 0;
#X connect 7 0 2 0;
#X connect 8 0 7 0;
#X connect 9 0 8 0;
#X restore 170 269 pd osc;
#X obj 137 34 inlet;
#N canvas 765 381 292 264 osc 0;
#X obj 56 19 inlet;
#X obj 56 49 unpack f f f f;
#X obj 56 149 osc~;
#X obj 104 180 line~;
#X obj 57 203 *~;
#X msg 104 155 \$1 100;
#X obj 56 233 outlet~;
#X obj 56 128 line;
#X msg 55 106 \$1 10;
#X obj 56 83 speedlim 1000;
#X connect 0 0 1 0;
#X connect 1 0 9 0;
#X connect 1 1 5 0;
#X connect 2 0 4 0;
#X connect 3 0 4 1;
#X connect 4 0 6 0;
#X connect 5 0 3 0;
#X connect 7 0 2 0;
#X connect 8 0 7 0;
#X connect 9 0 8 0;
#X restore 137 312 pd osc;
#N canvas 580 115 223 264 osc 0;
#X obj 66 29 inlet;
#X obj 66 59 unpack f f f f;
#X obj 66 159 osc~;
#X obj 114 190 line~;
#X obj 67 213 *~;
#X msg 114 165 \$1 100;
#X obj 66 243 outlet~;
#X obj 66 138 line;
#X msg 65 116 \$1 10;
#X obj 66 93 speedlim 1000;
#X connect 0 0 1 0;
#X connect 1 0 9 0;
#X connect 1 1 5 0;
#X connect 2 0 4 0;
#X connect 3 0 4 1;
#X connect 4 0 6 0;
#X connect 5 0 3 0;
#X connect 7 0 2 0;
#X connect 8 0 7 0;
#X connect 9 0 8 0;
#X restore 325 263 pd osc;
#N canvas 580 115 223 264 osc 0;
#X obj 86 49 inlet;
#X obj 86 79 unpack f f f f;
#X obj 86 179 osc~;
#X obj 134 210 line~;
#X obj 87 233 *~;
#X msg 134 185 \$1 100;
#X obj 86 263 outlet~;
#X obj 86 158 line;
#X msg 85 136 \$1 10;
#X obj 86 113 speedlim 1000;
#X connect 0 0 1 0;
#X connect 1 0 9 0;
#X connect 1 1 5 0;
#X connect 2 0 4 0;
#X connect 3 0 4 1;
#X connect 4 0 6 0;
#X connect 5 0 3 0;
#X connect 7 0 2 0;
#X connect 8 0 7 0;
#X connect 9 0 8 0;
#X restore 362 224 pd osc;
#N canvas 580 115 223 264 osc 0;
#X obj 96 59 inlet;
#X obj 96 89 unpack f f f f;
#X obj 96 189 osc~;
#X obj 144 220 line~;
#X obj 97 243 *~;
#X msg 144 195 \$1 100;
#X obj 96 273 outlet~;
#X obj 96 168 line;
#X msg 95 146 \$1 10;
#X obj 96 123 speedlim 1000;
#X connect 0 0 1 0;
#X connect 1 0 9 0;
#X connect 1 1 5 0;
#X connect 2 0 4 0;
#X connect 3 0 4 1;
#X connect 4 0 6 0;
#X connect 5 0 3 0;
#X connect 7 0 2 0;
#X connect 8 0 7 0;
#X connect 9 0 8 0;
#X restore 381 204 pd osc;
#X obj 383 381 +~;
#N canvas 580 115 223 264 osc 0;
#X obj 76 39 inlet;
#X obj 76 69 unpack f f f f;
#X obj 76 169 osc~;
#X obj 124 200 line~;
#X obj 77 223 *~;
#X msg 124 175 \$1 100;
#X obj 76 253 outlet~;
#X obj 76 148 line;
#X msg 75 126 \$1 10;
#X obj 76 103 speedlim 1000;
#X connect 0 0 1 0;
#X connect 1 0 9 0;
#X connect 1 1 5 0;
#X connect 2 0 4 0;
#X connect 3 0 4 1;
#X connect 4 0 6 0;
#X connect 5 0 3 0;
#X connect 7 0 2 0;
#X connect 8 0 7 0;
#X connect 9 0 8 0;
#X restore 344 248 pd osc;
#N canvas 765 381 292 264 osc 0;
#X obj 56 19 inlet;
#X obj 56 49 unpack f f f f;
#X obj 56 149 osc~;
#X obj 104 180 line~;
#X obj 57 203 *~;
#X msg 104 155 \$1 100;
#X obj 56 233 outlet~;
#X obj 56 128 line;
#X msg 55 106 \$1 10;
#X obj 56 83 speedlim 1000;
#X connect 0 0 1 0;
#X connect 1 0 9 0;
#X connect 1 1 5 0;
#X connect 2 0 4 0;
#X connect 3 0 4 1;
#X connect 4 0 6 0;
#X connect 5 0 3 0;
#X connect 7 0 2 0;
#X connect 8 0 7 0;
#X connect 9 0 8 0;
#X restore 307 286 pd osc;
#X obj 282 491 outlet~;
#X obj 282 448 +~;
#X obj 307 86 route 6 7 8 9 10 11;
#N canvas 580 115 223 264 osc 0;
#X obj 106 69 inlet;
#X obj 106 99 unpack f f f f;
#X obj 106 199 osc~;
#X obj 154 230 line~;
#X obj 107 253 *~;
#X msg 154 205 \$1 100;
#X obj 106 283 outlet~;
#X obj 106 178 line;
#X msg 105 156 \$1 10;
#X obj 106 133 speedlim 1000;
#X connect 0 0 1 0;
#X connect 1 0 9 0;
#X connect 1 1 5 0;
#X connect 2 0 4 0;
#X connect 3 0 4 1;
#X connect 4 0 6 0;
#X connect 5 0 3 0;
#X connect 7 0 2 0;
#X connect 8 0 7 0;
#X connect 9 0 8 0;
#X restore 399 174 pd osc;
#X connect 0 0 8 0;
#X connect 0 1 1 0;
#X connect 0 2 6 0;
#X connect 0 3 2 0;
#X connect 0 4 3 0;
#X connect 0 5 4 0;
#X connect 1 0 5 1;
#X connect 2 0 5 1;
#X connect 3 0 5 0;
#X connect 4 0 5 1;
#X connect 5 0 16 0;
#X connect 6 0 5 0;
#X connect 7 0 0 0;
#X connect 7 0 17 0;
#X connect 8 0 5 0;
#X connect 9 0 12 1;
#X connect 10 0 12 1;
#X connect 11 0 12 0;
#X connect 12 0 16 1;
#X connect 13 0 12 0;
#X connect 14 0 12 0;
#X connect 16 0 15 0;
#X connect 17 0 14 0;
#X connect 17 1 9 0;
#X connect 17 2 13 0;
#X connect 17 3 10 0;
#X connect 17 4 11 0;
#X connect 17 5 18 0;
#X connect 18 0 12 1;
#X restore 306 283 pd banco de osciladores;
#X obj 290 309 *~;
#X obj 70 362 *~;
#X obj 274 356 *~;
#X obj 110 322 tgl 15 0 empty empty empty 17 7 0 10 -262144 -1 -1 1
1;
#X obj 258 314 tgl 15 0 empty empty empty 17 7 0 10 -262144 -1 -1 1
1;
#X connect 0 0 5 0;
#X connect 1 0 10 0;
#X connect 3 0 7 0;
#X connect 4 0 3 0;
#X connect 5 0 14 0;
#X connect 6 0 10 1;
#X connect 6 0 5 1;
#X connect 6 0 13 0;
#X connect 7 0 8 0;
#X connect 7 1 9 0;
#X connect 8 0 6 0;
#X connect 9 0 6 0;
#X connect 10 0 11 0;
#X connect 11 0 0 0;
#X connect 11 1 12 0;
#X connect 12 0 13 1;
#X connect 13 0 15 1;
#X connect 14 0 2 0;
#X connect 15 0 2 0;
#X connect 16 0 14 1;
#X connect 17 0 15 0;
#X restore 1054 78 pd gerador_resintese;
#X obj 1055 -83 inlet~;
#N canvas 618 89 660 523 fm1-------- 0;
#X obj 316 21 / 127;
#X obj 316 70 line;
#X msg 316 50 \$1 100;
#X obj 161 142 *~;
#X floatatom 161 89 0 0 0 0 - - -;
#X floatatom 49 153 0 0 0 0 - - -;
#X obj 49 207 +~;
#X floatatom 231 86 0 0 0 0 - - -;
#X obj 49 259 *~;
#X obj 316 96 vsl 15 90 0 1 0 0 empty empty empty 0 -9 0 10 -262144
-1 -1 0 1;
#X obj 161 3 bng 15 250 50 0 empty empty pausa 17 7 0 10 -262144 -1
-1;
#X floatatom 316 -3 5 0 0 0 amp - -;
#X obj 49 306 outlet~;
#X obj 161 -23 inlet pausa;
#X obj 316 -31 inlet amp;
#X obj 49 282 *~;
#X obj 389 -169 inlet cenario;
#X obj 76 -71 random 5000;
#X obj 49 -9 metro;
#X obj 389 -142 tgl 30 0 empty baoum empty 0 -6 0 8 -24198 -1 -1 0
1;
#X obj 49 122 mtof;
#X obj 76 -45 + 2000;
#X obj 49 93 tabread \$0-nota;
#X obj 49 63 random 8;
#X obj 231 60 random 127;
#X obj 161 60 random 60;
#X obj 161 114 osc~;
#X obj 49 234 osc~;
#X obj 389 208 line~;
#X obj 389 140 sel 0;
#X msg 389 172 0 300;
#X msg 437 173 0.4 300;
#X obj 326 256 vsl 15 90 0 1 0 0 empty empty empty 0 -9 0 10 -262144
-1 -1 0 1;
#X obj 179 208 scale.linear 0 1 1 -0.5;
#X connect 0 0 2 0;
#X connect 1 0 9 0;
#X connect 2 0 1 0;
#X connect 3 0 6 1;
#X connect 4 0 26 0;
#X connect 5 0 6 0;
#X connect 6 0 27 0;
#X connect 7 0 3 1;
#X connect 8 0 15 0;
#X connect 9 0 33 0;
#X connect 10 0 24 0;
#X connect 10 0 25 0;
#X connect 11 0 0 0;
#X connect 13 0 10 0;
#X connect 14 0 11 0;
#X connect 15 0 12 0;
#X connect 16 0 19 0;
#X connect 17 0 21 0;
#X connect 18 0 17 0;
#X connect 18 0 23 0;
#X connect 19 0 18 0;
#X connect 19 0 29 0;
#X connect 20 0 5 0;
#X connect 21 0 18 1;
#X connect 22 0 20 0;
#X connect 23 0 22 0;
#X connect 24 0 7 0;
#X connect 25 0 4 0;
#X connect 26 0 3 0;
#X connect 27 0 8 0;
#X connect 28 0 15 1;
#X connect 29 0 30 0;
#X connect 29 1 31 0;
#X connect 30 0 28 0;
#X connect 31 0 28 0;
#X connect 33 0 32 0;
#X connect 33 0 8 1;
#X restore 894 -11 pd fm1--------;
#N canvas 557 162 633 476 noise----------- 0;
#X obj 340 50 / 127;
#X obj 340 99 line;
#X msg 340 79 \$1 100;
#X obj 46 149 noise~;
#X obj 97 268 *~;
#X obj 340 128 vsl 15 80 0 1 0 0 empty empty empty 0 -9 0 10 -262144
-1 -1 0 1;
#X obj 97 229 vcf~;
#X floatatom 243 95 5 0 0 0 - - -;
#X obj 97 291 *~;
#X msg 243 122 \$1 100;
#X obj 243 150 line;
#X floatatom 340 26 5 0 0 0 amp - -;
#X obj 97 333 outlet~;
#X obj 243 9 inlet pausa;
#X obj 340 -1 inlet amp;
#X obj 412 -92 inlet cenario;
#X obj 134 -29 random 5000;
#X obj 107 27 metro;
#X obj 412 -65 tgl 30 0 empty baoum empty 0 -6 0 8 -24198 -1 -1 0 1
;
#X obj 134 -3 + 2000;
#X obj 107 95 tabread \$0-nota;
#X obj 107 72 random 8;
#X obj 243 33 bng 15 250 50 0 empty empty empty 17 7 0 10 -262144 -1
-1;
#X obj 107 148 osc~;
#X obj 243 54 random 50;
#X obj 107 178 *~ 2000;
#X obj 107 122 / 200;
#X obj 412 187 f;
#X connect 0 0 2 0;
#X connect 1 0 5 0;
#X connect 2 0 1 0;
#X connect 3 0 6 0;
#X connect 4 0 8 0;
#X connect 5 0 4 1;
#X connect 6 0 4 0;
#X connect 7 0 9 0;
#X connect 8 0 12 0;
#X connect 9 0 10 0;
#X connect 10 0 6 2;
#X connect 11 0 0 0;
#X connect 13 0 22 0;
#X connect 14 0 11 0;
#X connect 15 0 18 0;
#X connect 16 0 19 0;
#X connect 17 0 16 0;
#X connect 17 0 21 0;
#X connect 18 0 17 0;
#X connect 18 0 27 0;
#X connect 19 0 17 1;
#X connect 20 0 26 0;
#X connect 21 0 20 0;
#X connect 22 0 24 0;
#X connect 23 0 25 0;
#X connect 24 0 7 0;
#X connect 25 0 6 1;
#X connect 26 0 23 0;
#X connect 27 0 8 1;
#X restore 938 18 pd noise-----------;
#N canvas 371 47 909 545 synth_waveforms 0;
#X obj 302 8 / 127;
#X obj 302 57 line;
#X msg 302 37 \$1 100;
#X obj 35 275 *~;
#X obj 35 91 sig~;
#X floatatom 35 70 5 0 0 0 - - -;
#X obj 305 248 table table1;
#X obj 305 276 table table2;
#X obj 35 176 tabosc4~ table1;
#X msg 216 93 set table2;
#X msg 132 92 set table1;
#X msg 168 307 \; table1 sinesum 512 0.5 0.5 0.5 0.5 \; table2 cosinesum
512 0 1;
#X obj 35 47 mtof;
#X obj 302 81 vsl 15 80 0 1 0 0 empty empty empty 0 -9 0 10 -262144
-1 -1 0 1;
#X obj 35 234 *~;
#X floatatom 302 -16 5 0 0 0 amp - -;
#X obj 168 272 loadbang;
#X obj 302 -45 inlet amp;
#X obj 35 307 outlet~;
#X obj 197 -44 inlet pausa;
#X obj 197 12 random 3;
#X obj 374 -136 inlet cenario;
#X obj 62 -111 random 5000;
#X obj 35 -22 metro;
#X obj 374 -109 tgl 30 0 empty baoum empty 0 -6 0 8 -24198 -1 -1 0
1;
#X obj 62 -88 + 2000;
#X obj 35 21 tabread \$0-nota;
#X obj 35 -1 random 8;
#X obj 197 -14 bng 15 250 50 0 empty empty empty 17 7 0 10 -262144
-1 -1;
#X obj 197 36 sel 0 1;
#X obj 374 196 f;
#X connect 0 0 2 0;
#X connect 1 0 13 0;
#X connect 2 0 1 0;
#X connect 3 0 18 0;
#X connect 4 0 8 0;
#X connect 5 0 4 0;
#X connect 8 0 14 0;
#X connect 9 0 8 0;
#X connect 10 0 8 0;
#X connect 12 0 5 0;
#X connect 13 0 14 1;
#X connect 14 0 3 0;
#X connect 15 0 0 0;
#X connect 16 0 11 0;
#X connect 17 0 15 0;
#X connect 19 0 28 0;
#X connect 20 0 29 0;
#X connect 21 0 24 0;
#X connect 22 0 25 0;
#X connect 23 0 22 0;
#X connect 23 0 27 0;
#X connect 24 0 23 0;
#X connect 24 0 30 0;
#X connect 25 0 23 1;
#X connect 26 0 12 0;
#X connect 27 0 26 0;
#X connect 28 0 20 0;
#X connect 29 0 10 0;
#X connect 29 1 9 0;
#X connect 30 0 3 1;
#X restore 978 48 pd synth_waveforms;
#N canvas 621 24 785 642 gerador 0;
#X obj 203 373 +~;
#X obj 203 408 +~;
#X obj 203 446 *~;
#X obj 422 325 line~ 0 1000;
#X obj 455 203 t b b;
#X obj 422 239 del 1000;
#X obj 378 90 random 5000;
#X obj 260 116 metro;
#X obj 260 71 tgl 30 0 empty baoum empty 0 -6 0 8 -24198 -1 -1 0 1
;
#X obj 363 536 vsl 15 60 0 1 0 0 empty empty empty 0 -8 0 8 -262144
-1 -1 0 1;
#X obj 158 281 mtof;
#X obj 218 313 mtof;
#X obj 328 292 mtof;
#X obj 378 118 + 2000;
#X msg 482 271 1 1000;
#X obj 203 470 +~;
#X obj 301 440 *~ 0.6;
#X obj 328 329 osc~;
#X obj 218 339 osc~;
#X obj 158 316 osc~;
#X obj 203 543 *~ 0.2;
#X msg 422 262 0 100;
#X text 518 62 objetivo:;
#X obj 203 576 outlet~;
#X obj 260 42 inlet;
#X obj 301 412 delread~ delay3b 1000;
#X obj 224 501 delwrite~ delay3b 2000;
#X obj 233 246 random 12;
#X obj 328 215 random 12;
#X obj 218 277 +;
#X obj 328 253 +;
#X obj 158 177 random 127;
#X text 516 84 harmonizar randomico;
#X connect 0 0 1 0;
#X connect 1 0 2 0;
#X connect 2 0 15 0;
#X connect 3 0 2 1;
#X connect 4 0 5 0;
#X connect 4 1 14 0;
#X connect 5 0 21 0;
#X connect 6 0 13 0;
#X connect 7 0 6 0;
#X connect 7 0 4 0;
#X connect 7 0 27 0;
#X connect 7 0 28 0;
#X connect 7 0 31 0;
#X connect 8 0 7 0;
#X connect 9 0 20 1;
#X connect 10 0 19 0;
#X connect 11 0 18 0;
#X connect 12 0 17 0;
#X connect 13 0 7 1;
#X connect 14 0 3 0;
#X connect 15 0 20 0;
#X connect 15 0 26 0;
#X connect 16 0 15 1;
#X connect 17 0 1 1;
#X connect 18 0 0 1;
#X connect 19 0 0 0;
#X connect 20 0 23 0;
#X connect 21 0 3 0;
#X connect 24 0 8 0;
#X connect 25 0 16 0;
#X connect 27 0 29 1;
#X connect 28 0 30 0;
#X connect 29 0 11 0;
#X connect 30 0 12 0;
#X connect 31 0 10 0;
#X connect 31 0 29 0;
#X connect 31 0 30 1;
#X restore 752 63 pd gerador sintese0_rand;
#N canvas 576 24 785 642 gerador 0;
#X obj 203 369 +~;
#X obj 203 408 +~;
#X obj 203 446 *~;
#X obj 456 335 line~ 0 1000;
#X obj 521 238 t b b;
#X obj 456 283 del 1000;
#X obj 368 71 random 5000;
#X obj 217 93 metro;
#X obj 217 48 tgl 30 0 empty baoum empty 0 -6 0 8 -24198 -1 -1 0 1
;
#X obj 363 536 vsl 15 60 0 1 0 0 empty empty empty 0 -8 0 8 -262144
-1 -1 0 1;
#X obj 109 283 mtof;
#X obj 218 305 mtof;
#X obj 342 301 mtof;
#X obj 368 97 + 2000;
#X msg 548 293 1 1000;
#X obj 225 501 delwrite~ delay3 2000;
#X obj 203 472 +~;
#X obj 337 408 delread~ delay3 1000;
#X obj 337 434 *~ 0.6;
#X obj 342 338 osc~;
#X obj 218 331 osc~;
#X obj 109 318 osc~;
#X obj 203 543 *~ 0.2;
#X msg 456 309 0 100;
#X text 518 62 objetivo:;
#X text 518 85 harmonizar com notas da tabela;
#X obj 203 576 outlet~;
#X obj 109 250 tabread \$0-nota;
#X obj 218 259 tabread \$0-nota;
#X obj 342 257 tabread \$0-nota;
#X obj 109 224 random 8;
#X obj 218 206 random 8;
#X obj 342 231 random 8;
#X obj 217 22 inlet;
#X connect 0 0 1 0;
#X connect 1 0 2 0;
#X connect 2 0 16 0;
#X connect 3 0 2 1;
#X connect 4 0 5 0;
#X connect 4 1 14 0;
#X connect 5 0 23 0;
#X connect 6 0 13 0;
#X connect 7 0 6 0;
#X connect 7 0 4 0;
#X connect 7 0 30 0;
#X connect 7 0 31 0;
#X connect 7 0 32 0;
#X connect 8 0 7 0;
#X connect 9 0 22 1;
#X connect 10 0 21 0;
#X connect 11 0 20 0;
#X connect 12 0 19 0;
#X connect 13 0 7 1;
#X connect 14 0 3 0;
#X connect 16 0 15 0;
#X connect 16 0 22 0;
#X connect 17 0 18 0;
#X connect 18 0 16 1;
#X connect 19 0 1 1;
#X connect 20 0 0 1;
#X connect 21 0 0 0;
#X connect 22 0 26 0;
#X connect 23 0 3 0;
#X connect 27 0 10 0;
#X connect 28 0 11 0;
#X connect 29 0 12 0;
#X connect 30 0 27 0;
#X connect 31 0 28 0;
#X connect 32 0 29 0;
#X connect 33 0 8 0;
#X restore 694 33 pd gerador sintese0_diato;
#N canvas 611 24 659 667 gerador 0;
#X obj 53 48 random 3000;
#X obj 26 87 metro;
#X obj 26 221 mtof;
#X obj 200 324 line~;
#X obj 26 409 *~;
#X obj 200 202 t b b;
#X msg 262 278 1 40;
#X obj 200 253 del 100;
#X msg 200 283 0 60;
#X obj 37 470 delwrite~ delay1 1000;
#X obj 306 268 delread~ delay1;
#X obj 306 331 *~;
#X obj 26 436 +~;
#X obj 306 227 random 1000;
#X obj 418 216 random 9;
#X obj 418 239 / 10;
#X obj 26 379 +~;
#X obj 26 500 /~ 2;
#X obj 26 2 tgl 30 0 empty baoum empty 0 -6 0 8 -258699 -1 -1 0 1;
#X obj 187 430 vsl 15 60 0 1 0 0 empty empty empty 0 -8 0 8 -262144
-1 -1 0 1;
#X obj 117 255 / 100;
#X obj 117 278 + 1;
#X obj 26 251 line 0 80;
#X obj 117 302 line 0 100;
#X obj 102 326 *;
#X obj 26 524 *~ 0.5;
#X obj 26 349 osc~;
#X obj 102 349 osc~;
#X obj 117 231 random 100;
#X obj 418 287 line~;
#X msg 418 263 \$1 10;
#X obj 26 553 outlet~;
#X obj 26 137 random 8;
#X obj 26 181 tabread \$0-nota;
#X obj 26 -28 inlet;
#X connect 0 0 1 1;
#X connect 1 0 0 0;
#X connect 1 0 14 0;
#X connect 1 0 13 0;
#X connect 1 0 28 0;
#X connect 1 0 32 0;
#X connect 2 0 22 0;
#X connect 3 0 4 1;
#X connect 4 0 12 0;
#X connect 5 0 7 0;
#X connect 5 1 6 0;
#X connect 6 0 3 0;
#X connect 7 0 8 0;
#X connect 8 0 3 0;
#X connect 10 0 11 0;
#X connect 11 0 12 1;
#X connect 12 0 9 0;
#X connect 12 0 17 0;
#X connect 13 0 10 0;
#X connect 14 0 15 0;
#X connect 15 0 30 0;
#X connect 16 0 4 0;
#X connect 17 0 25 0;
#X connect 18 0 1 0;
#X connect 19 0 25 1;
#X connect 20 0 21 0;
#X connect 21 0 23 0;
#X connect 22 0 24 0;
#X connect 22 0 26 0;
#X connect 23 0 24 1;
#X connect 24 0 27 0;
#X connect 25 0 31 0;
#X connect 26 0 16 0;
#X connect 27 0 16 1;
#X connect 28 0 20 0;
#X connect 29 0 11 1;
#X connect 30 0 29 0;
#X connect 32 0 5 0;
#X connect 32 0 33 0;
#X connect 33 0 2 0;
#X connect 34 0 18 0;
#X restore 839 124 pd gerador sintese1_diato;
#N canvas 664 31 783 636 gerador 0;
#X obj 154 45 random 3000;
#X obj 127 75 metro;
#X obj 127 229 mtof;
#X obj 278 314 line~;
#X obj 127 396 *~;
#X obj 278 192 t b b;
#X msg 325 226 1 40;
#X obj 278 253 del 100;
#X msg 278 283 0 60;
#X obj 376 307 *~;
#X obj 127 443 +~;
#X obj 376 212 random 1000;
#X obj 490 175 random 9;
#X obj 490 208 / 10;
#X obj 127 366 +~;
#X obj 127 480 /~ 2;
#X obj 127 10 tgl 30 0 empty baoum empty 0 -6 0 8 -258699 -1 -1 0 1
;
#X obj 311 470 vsl 15 60 0 1 0 0 empty empty empty 0 -8 0 8 -262144
-1 -1 0 1;
#X obj 193 236 / 100;
#X obj 193 259 + 1;
#X obj 127 259 line 0 80;
#X obj 193 283 line 0 100;
#X obj 178 306 *;
#X obj 127 504 *~ 0.5;
#X obj 127 317 osc~;
#X obj 178 335 osc~;
#X obj 193 212 random 100;
#X obj 490 259 line~;
#X msg 490 236 \$1 10;
#X obj 127 529 outlet~;
#X obj 127 -13 inlet;
#X obj 162 470 delwrite~ delay1b 1000;
#X obj 376 244 delread~ delay1b;
#X obj 127 145 random 127;
#X connect 0 0 1 1;
#X connect 1 0 0 0;
#X connect 1 0 12 0;
#X connect 1 0 11 0;
#X connect 1 0 26 0;
#X connect 1 0 33 0;
#X connect 2 0 20 0;
#X connect 3 0 4 1;
#X connect 4 0 10 0;
#X connect 5 0 7 0;
#X connect 5 1 6 0;
#X connect 6 0 3 0;
#X connect 7 0 8 0;
#X connect 8 0 3 0;
#X connect 9 0 10 1;
#X connect 10 0 15 0;
#X connect 10 0 31 0;
#X connect 11 0 32 0;
#X connect 12 0 13 0;
#X connect 13 0 28 0;
#X connect 14 0 4 0;
#X connect 15 0 23 0;
#X connect 16 0 1 0;
#X connect 17 0 23 1;
#X connect 18 0 19 0;
#X connect 19 0 21 0;
#X connect 20 0 22 0;
#X connect 20 0 24 0;
#X connect 21 0 22 1;
#X connect 22 0 25 0;
#X connect 23 0 29 0;
#X connect 24 0 14 0;
#X connect 25 0 14 1;
#X connect 26 0 18 0;
#X connect 27 0 9 1;
#X connect 28 0 27 0;
#X connect 30 0 16 0;
#X connect 32 0 9 0;
#X connect 33 0 5 0;
#X connect 33 0 2 0;
#X restore 801 91 pd gerador sintese1_rand;
#X msg 418 288 \; tipo_synth label harm1_rand;
#X msg 318 355 \; tipo_synth label harm1_diatonico;
#X msg 374 322 \; tipo_synth label harm2_diatonico;
#X msg 455 252 \; tipo_synth label harm2_rand;
#X msg 572 357 \; tipo_synth label resintese;
#X msg 594 324 \; tipo_synth label fm;
#X msg 620 291 \; tipo_synth label noise-filter;
#X msg 637 257 \; tipo_synth label formas_de_onda;
#X obj 905 -83 inlet pausa;
#X obj 993 -83 inlet amp;
#N canvas 695 60 537 562 noise 0;
#X obj 438 303 vsl 15 60 0 1 0 0 empty empty empty 0 -8 0 8 -262144
-1 -1 0 1;
#X obj 9 233 noise~;
#X obj 74 328 vcf~;
#X obj 83 165 *~ 0.5;
#X obj 83 200 +~ 0.5;
#X obj 75 440 dac~;
#X obj 84 272 *~ 20000;
#X obj 83 237 +~ 50;
#X msg 153 242 1200;
#X obj 83 66 random 7;
#X obj 83 108 / 100;
#X obj 183 360 line~;
#X obj 75 365 *~;
#X obj 304 330 random 10000;
#X obj 249 219 i;
#X obj 300 240 + 1;
#X obj 249 251 % 2;
#X obj 260 149 moses 75;
#X obj 260 117 random 100;
#X obj 260 8 metro 5000;
#X obj 260 -27 tgl 30 0 empty baoum empty 0 -6 0 8 -44926 -1 -1 0 1
;
#X obj 304 287 b;
#X obj 156 187 loadbang;
#X msg 209 312 0;
#X floatatom 178 161 5 0 0 0 - - -;
#X obj 75 397 *~ 0.1;
#X obj 83 134 osc~;
#X floatatom 249 285 5 0 0 0 - - -;
#X obj 334 183 b;
#X msg 253 311 1;
#X obj 83 -26 r h;
#X obj 381 -14 r m;
#X obj 446 116 r s;
#X msg 83 -4 seed \$1;
#X msg 445 153 seed \$1;
#X msg 381 21 seed \$1;
#X connect 0 0 25 1;
#X connect 1 0 2 0;
#X connect 2 0 12 0;
#X connect 3 0 4 0;
#X connect 4 0 7 0;
#X connect 6 0 2 1;
#X connect 7 0 6 0;
#X connect 8 0 2 2;
#X connect 9 0 10 0;
#X connect 10 0 26 0;
#X connect 11 0 12 1;
#X connect 12 0 25 0;
#X connect 13 0 11 1;
#X connect 14 0 16 0;
#X connect 15 0 14 1;
#X connect 16 0 11 0;
#X connect 16 0 21 0;
#X connect 16 0 27 0;
#X connect 16 0 15 0;
#X connect 17 1 28 0;
#X connect 18 0 17 0;
#X connect 18 0 24 0;
#X connect 19 0 9 0;
#X connect 19 0 18 0;
#X connect 20 0 19 0;
#X connect 21 0 13 0;
#X connect 22 0 8 0;
#X connect 23 0 11 0;
#X connect 25 0 5 0;
#X connect 25 0 5 1;
#X connect 26 0 3 0;
#X connect 28 0 14 0;
#X connect 29 0 11 0;
#X connect 30 0 33 0;
#X connect 31 0 35 0;
#X connect 32 0 34 0;
#X connect 33 0 9 0;
#X connect 34 0 13 0;
#X connect 35 0 18 0;
#X restore 128 307 pd noise;
#X obj 465 133 tgl 20 0 empty empty empty 5 -6 0 10 -262144 -1 -1 0
1;
#X obj 489 133 tgl 20 0 empty empty empty 5 -6 0 10 -228856 -1 -1 0
1;
#X obj 513 133 tgl 20 0 empty empty empty 5 -6 0 10 -191407 -1 -1 0
1;
#X obj 537 133 tgl 20 0 empty empty empty 5 -6 0 10 -261234 -1 -1 0
1;
#X obj 465 164 tgl 20 0 empty empty empty 17 7 0 10 -204786 -1 -1 1
1;
#X obj 488 164 tgl 20 0 empty empty empty 17 7 0 10 -204800 -1 -1 0
1;
#X obj 513 164 tgl 20 0 empty empty empty 17 7 0 10 -203904 -1 -1 0
1;
#X obj 537 164 tgl 20 0 empty empty empty 17 7 0 10 -232576 -1 -1 0
1;
#X obj 465 -33 hradio 15 1 0 8 empty empty empty 0 -8 0 10 -262144
-1 -1 0;
#X obj 465 -57 inlet cenario;
#N canvas 801 104 424 391 interruptor 0;
#X obj 61 126 tgl 20 0 empty empty empty 5 -6 0 10 -262144 -1 -1 0
1;
#X obj 101 127 tgl 20 0 empty empty empty 5 -6 0 10 -228856 -1 -1 0
1;
#X obj 142 127 tgl 20 0 empty empty empty 5 -6 0 10 -191407 -1 -1 0
1;
#X obj 182 127 tgl 20 0 empty empty empty 5 -6 0 10 -261234 -1 -1 0
1;
#X obj 224 126 tgl 20 0 empty empty empty 17 7 0 10 -204786 -1 -1 0
1;
#X obj 264 126 tgl 20 0 empty empty empty 17 7 0 10 -204800 -1 -1 0
1;
#X obj 305 126 tgl 20 0 empty empty empty 17 7 0 10 -203904 -1 -1 0
1;
#X obj 345 125 tgl 20 0 empty empty empty 17 7 0 10 -232576 -1 -1 0
1;
#X obj 101 -147 select 0 1 2 3 4 5 6 7;
#X obj 101 -176 inlet;
#X obj 61 154 outlet;
#X obj 101 154 outlet;
#X obj 142 154 outlet;
#X obj 182 154 outlet;
#X obj 224 154 outlet;
#X obj 264 154 outlet;
#X obj 305 154 outlet;
#X obj 345 154 outlet;
#X connect 0 0 10 0;
#X connect 1 0 11 0;
#X connect 2 0 12 0;
#X connect 3 0 13 0;
#X connect 4 0 14 0;
#X connect 5 0 15 0;
#X connect 6 0 16 0;
#X connect 7 0 17 0;
#X connect 8 0 0 0;
#X connect 8 1 1 0;
#X connect 8 2 2 0;
#X connect 8 3 3 0;
#X connect 8 4 4 0;
#X connect 8 5 5 0;
#X connect 8 6 6 0;
#X connect 8 7 7 0;
#X connect 9 0 8 0;
#X restore 465 -8 pd interruptor --------------;
#N canvas 801 104 424 391 interruptor 0;
#X obj 61 126 tgl 20 0 empty empty empty 5 -6 0 10 -262144 -1 -1 0
1;
#X obj 101 127 tgl 20 0 empty empty empty 5 -6 0 10 -228856 -1 -1 0
1;
#X obj 142 127 tgl 20 0 empty empty empty 5 -6 0 10 -191407 -1 -1 0
1;
#X obj 182 127 tgl 20 0 empty empty empty 5 -6 0 10 -261234 -1 -1 0
1;
#X msg 54 -102 0;
#X msg 85 -103 0;
#X msg 115 -104 0;
#X msg 144 -105 0;
#X obj 224 126 tgl 20 0 empty empty empty 17 7 0 10 -204786 -1 -1 0
1;
#X obj 264 126 tgl 20 0 empty empty empty 17 7 0 10 -204800 -1 -1 0
1;
#X obj 305 126 tgl 20 0 empty empty empty 17 7 0 10 -203904 -1 -1 0
1;
#X obj 345 125 tgl 20 0 empty empty empty 17 7 0 10 -232576 -1 -1 0
1;
#X obj 101 -147 select 0 1 2 3 4 5 6 7;
#X msg 175 -105 0;
#X msg 208 -104 0;
#X msg 240 -104 0;
#X msg 268 -104 0;
#X obj 101 -176 inlet;
#X obj 61 154 outlet;
#X obj 101 154 outlet;
#X obj 142 154 outlet;
#X obj 182 154 outlet;
#X obj 224 154 outlet;
#X obj 264 154 outlet;
#X obj 305 154 outlet;
#X obj 345 154 outlet;
#X connect 0 0 18 0;
#X connect 1 0 19 0;
#X connect 2 0 20 0;
#X connect 3 0 21 0;
#X connect 4 0 1 0;
#X connect 4 0 2 0;
#X connect 4 0 3 0;
#X connect 4 0 8 0;
#X connect 4 0 9 0;
#X connect 4 0 10 0;
#X connect 4 0 11 0;
#X connect 5 0 0 0;
#X connect 5 0 2 0;
#X connect 5 0 3 0;
#X connect 5 0 8 0;
#X connect 5 0 9 0;
#X connect 5 0 10 0;
#X connect 5 0 11 0;
#X connect 6 0 0 0;
#X connect 6 0 1 0;
#X connect 6 0 3 0;
#X connect 6 0 8 0;
#X connect 6 0 9 0;
#X connect 6 0 10 0;
#X connect 6 0 11 0;
#X connect 7 0 0 0;
#X connect 7 0 1 0;
#X connect 7 0 2 0;
#X connect 7 0 8 0;
#X connect 7 0 9 0;
#X connect 7 0 10 0;
#X connect 7 0 11 0;
#X connect 8 0 22 0;
#X connect 9 0 23 0;
#X connect 10 0 24 0;
#X connect 11 0 25 0;
#X connect 12 0 0 0;
#X connect 12 0 4 0;
#X connect 12 1 1 0;
#X connect 12 1 5 0;
#X connect 12 2 2 0;
#X connect 12 2 6 0;
#X connect 12 3 3 0;
#X connect 12 3 7 0;
#X connect 12 4 8 0;
#X connect 12 4 13 0;
#X connect 12 5 9 0;
#X connect 12 5 14 0;
#X connect 12 6 10 0;
#X connect 12 6 15 0;
#X connect 12 7 11 0;
#X connect 12 7 16 0;
#X connect 13 0 0 0;
#X connect 13 0 1 0;
#X connect 13 0 2 0;
#X connect 13 0 3 0;
#X connect 13 0 9 0;
#X connect 13 0 10 0;
#X connect 13 0 11 0;
#X connect 14 0 0 0;
#X connect 14 0 1 0;
#X connect 14 0 2 0;
#X connect 14 0 3 0;
#X connect 14 0 8 0;
#X connect 14 0 10 0;
#X connect 14 0 11 0;
#X connect 15 0 0 0;
#X connect 15 0 1 0;
#X connect 15 0 2 0;
#X connect 15 0 3 0;
#X connect 15 0 8 0;
#X connect 15 0 9 0;
#X connect 15 0 11 0;
#X connect 16 0 0 0;
#X connect 16 0 1 0;
#X connect 16 0 2 0;
#X connect 16 0 3 0;
#X connect 16 0 8 0;
#X connect 16 0 9 0;
#X connect 16 0 10 0;
#X connect 17 0 12 0;
#X restore 277 -8 pd interruptor --------------;
#X obj 895 248 outlet~;
#X obj 279 -50 inlet;
#X connect 2 0 5 1;
#X connect 3 0 2 2;
#X connect 6 0 9 0;
#X connect 7 0 14 0;
#X connect 8 0 6 0;
#X connect 9 0 7 1;
#X connect 10 0 5 0;
#X connect 10 1 2 0;
#X connect 11 0 10 0;
#X connect 11 1 7 0;
#X connect 12 0 11 0;
#X connect 13 0 3 0;
#X connect 15 0 47 0;
#X connect 16 0 15 0;
#X connect 17 0 47 0;
#X connect 18 0 47 0;
#X connect 19 0 47 0;
#X connect 20 0 47 0;
#X connect 21 0 47 0;
#X connect 22 0 47 0;
#X connect 23 0 47 0;
#X connect 32 0 17 0;
#X connect 32 0 18 0;
#X connect 32 0 19 0;
#X connect 33 0 17 1;
#X connect 33 0 18 1;
#X connect 33 0 19 1;
#X connect 35 0 21 0;
#X connect 35 0 25 0;
#X connect 36 0 22 0;
#X connect 36 0 26 0;
#X connect 37 0 20 0;
#X connect 37 0 24 0;
#X connect 38 0 23 0;
#X connect 38 0 27 0;
#X connect 39 0 15 1;
#X connect 39 0 28 0;
#X connect 40 0 29 0;
#X connect 40 0 17 2;
#X connect 41 0 30 0;
#X connect 41 0 18 2;
#X connect 42 0 31 0;
#X connect 42 0 19 2;
#X connect 43 0 45 0;
#X connect 44 0 43 0;
#X connect 45 0 35 0;
#X connect 45 1 36 0;
#X connect 45 2 37 0;
#X connect 45 3 38 0;
#X connect 45 4 39 0;
#X connect 45 5 40 0;
#X connect 45 6 41 0;
#X connect 45 7 42 0;
#X connect 46 0 35 0;
#X connect 46 1 36 0;
#X connect 46 2 37 0;
#X connect 46 3 38 0;
#X connect 46 4 39 0;
#X connect 46 5 40 0;
#X connect 46 6 41 0;
#X connect 46 7 42 0;
#X connect 48 0 46 0;
#X coords 0 -1 1 1 240 120 2 450 100;
