#N canvas 80 56 1134 867 12;
#X obj 472 701 sinc-gera_melodico;
#X obj 859 508 sinc-gera_ritmo;
#X obj 846 262 sinc-calc_ritmo;
#X obj 114 6 sinc-teclado;
#X obj 670 219 unpack f f;
#X floatatom 733 249 5 0 0 0 - - -;
#X obj 728 277 sel 1;
#X obj 784 328 bng 15 250 50 0 empty empty empty 17 7 0 10 -262144
-1 -1;
#X obj 735 701 sinc-gera_dinamica;
#X obj 869 647 t b b;
#X obj 773 614 random 127;
#X obj 83 669 cnv 15 260 100 empty empty MIDI_out_geradores -50 12
0 14 -204786 -66577 0;
#X obj 173 711 play2;
#X floatatom 173 690 4 0 0 2 note - -;
#X floatatom 249 689 5 0 0 2 dur - -;
#X floatatom 211 689 4 0 0 2 vel - -;
#X msg 91 716 50 100 1000;
#X obj 91 744 unpack f f f;
#X obj 249 653 r dur;
#X obj 210 653 r vel;
#X obj 173 629 r nota_sai;
#X msg 326 680 2;
#X obj 309 644 loadbang;
#X obj 591 833 s nota_sai;
#X obj 942 830 s vel;
#X obj 1078 643 s dur;
#X obj 609 440 f;
#X obj 890 27 key;
#X obj 893 61 sel 32;
#X obj 888 103 sinc-alternate;
#X msg 885 137 1;
#X msg 970 138 0;
#X obj 665 182 spigot;
#X obj 709 150 tgl 15 0 empty empty empty 17 7 0 10 -262144 -1 -1 0
1;
#X connect 0 1 23 0;
#X connect 1 0 9 0;
#X connect 1 1 25 0;
#X connect 2 2 1 1;
#X connect 3 1 32 0;
#X connect 4 0 26 1;
#X connect 4 1 5 0;
#X connect 5 0 6 0;
#X connect 6 0 7 0;
#X connect 6 0 10 0;
#X connect 6 0 26 0;
#X connect 7 0 2 0;
#X connect 7 0 1 0;
#X connect 7 0 1 3;
#X connect 8 2 24 0;
#X connect 9 0 0 2;
#X connect 9 1 8 3;
#X connect 10 0 8 1;
#X connect 13 0 12 0;
#X connect 14 0 12 2;
#X connect 15 0 12 1;
#X connect 16 0 17 0;
#X connect 17 0 13 0;
#X connect 17 1 15 0;
#X connect 17 2 14 0;
#X connect 18 0 14 0;
#X connect 19 0 15 0;
#X connect 20 0 13 0;
#X connect 21 0 12 4;
#X connect 22 0 21 0;
#X connect 26 0 0 0;
#X connect 27 0 28 0;
#X connect 28 0 29 0;
#X connect 29 0 30 0;
#X connect 29 1 31 0;
#X connect 30 0 33 0;
#X connect 31 0 33 0;
#X connect 32 0 4 0;
#X connect 33 0 32 1;
