#N canvas 292 48 811 866 24;
#X obj 204 168 convert.bpm2ms;
#X msg 116 66 120;
#X obj 81 251 t b f;
#X obj 84 290 metro;
#X obj 84 334 bng 15 250 50 0 empty empty empty 0 -6 0 8 -262144 -1
-1;
#X msg 176 65 60;
#X floatatom 242 232 5 0 0 0 - - -;
#X obj 138 499 makenote;
#X msg 101 422 60;
#X msg 184 419 100;
#X msg 273 419 500;
#X obj 101 364 t b b;
#X obj 139 576 noteout 3;
#X obj 19 195 tgl 15 0 empty empty empty 17 7 0 10 -262144 -1 -1 0
1;
#X connect 0 0 2 0;
#X connect 0 0 6 0;
#X connect 1 0 0 0;
#X connect 2 0 3 0;
#X connect 2 1 3 1;
#X connect 3 0 4 0;
#X connect 4 0 11 0;
#X connect 5 0 0 0;
#X connect 7 0 12 0;
#X connect 7 1 12 1;
#X connect 8 0 7 0;
#X connect 9 0 7 1;
#X connect 10 0 7 2;
#X connect 11 0 8 0;
#X connect 11 1 10 0;
#X connect 11 1 9 0;
#X connect 13 0 3 0;
