#N canvas 275 60 948 658 10;
#N canvas 490 199 598 338 (subpatch) 0;
#X array \$0-array1 2e+06 float 2;
#X coords 0 1 2e+06 -1 200 140 1;
#X restore 0 504 graph;
#X obj 707 91 perk-hihat;
#X obj -40 131 perk-bassdrum;
#X obj 707 59 metro 500;
#X obj 707 27 tgl 15 0 empty metro empty 17 7 0 10 -262144 -1 -1 0
1;
#X text 793 41 metronomo;
#X obj 548 187 f;
#X obj 610 186 + 1;
#X floatatom 586 214 5 0 0 0 - - -;
#X obj 563 115 sel 0;
#X msg 563 139 1;
#X obj 586 260 sel 5;
#X obj 7 453 cnv 15 100 30 empty \$0-status gravando 20 12 0 40 -233017
-66577 0;
#X msg 774 600 label \$1;
#X msg 756 470 gravando;
#X obj 774 505 list2symbol;
#X obj 774 575 spigot;
#X msg 822 476 parado;
#X obj -7 7 keyname;
#X obj 32 31 sel Space;
#X obj 32 53 del 2;
#X obj -40 98 spigot;
#X obj -41 267 dac~;
#X obj 707 319 dac~;
#X msg 154 282 start;
#X msg 204 281 stop;
#X obj 163 21 keyname;
#X obj 202 76 del 2;
#X obj 158 114 spigot;
#X obj 158 138 bng 15 250 50 0 empty empty empty 17 7 0 10 -262144
-1 -1;
#X obj 158 162 sinc-alternate;
#X obj 158 184 bng 15 250 50 0 empty empty empty 17 7 0 10 -262144
-1 -1;
#X obj 239 188 bng 15 250 50 0 empty empty empty 17 7 0 10 -262144
-1 -1;
#X msg 790 548 1;
#X msg 841 548 0;
#X obj 756 408 t b b;
#X obj 670 471 spigot;
#X msg 688 445 1;
#X msg 720 445 0;
#X obj 394 110 t b b;
#X obj 394 142 timer;
#X floatatom 394 166 7 0 0 0 - - -;
#X obj 394 189 * 44.1;
#X floatatom 394 215 7 0 0 0 - - -;
#X text 401 230 numero de samples gravados;
#X obj 394 287 f;
#X obj 401 463 bng 15 250 50 0 empty empty empty 17 7 0 10 -262144
-1 -1;
#X obj 394 259 t b f;
#X msg 296 373 stop;
#X obj 586 338 spigot;
#X msg 593 312 1;
#X msg 642 313 0;
#X msg 394 319 10 \$1;
#X obj 708 277 *~;
#X obj 723 255 tgl 15 0 empty metro metronomo_on/off 17 7 0 10 -262144
-1 -1 0 1;
#X obj 464 591 spigot;
#X obj 497 562 tgl 15 0 empty empty loop_on/off 17 7 0 10 -262144 -1
-1 0 1;
#X text 55 13 musico;
#X obj 464 536 spigot;
#X msg 473 506 1;
#X obj 505 461 t b b;
#X msg 505 507 0;
#X text 673 367 vizualização;
#X obj 158 220 s \$0-on;
#X obj 239 215 s \$0-off;
#X obj 154 315 tabwrite~ \$0-array1;
#X obj 296 413 tabplay~ \$0-array1;
#X obj 394 42 r \$0-grava;
#X obj 414 71 r \$0-off;
#X obj 313 223 r \$0-loop;
#X obj 296 352 r \$0-on;
#X obj 464 617 s \$0-loop;
#X obj 481 108 r \$0-on;
#X obj 601 239 s \$0-conta;
#X obj 593 290 r \$0-on;
#X obj 642 290 r \$0-off;
#X obj 586 359 s \$0-grava;
#X obj 670 392 r \$0-conta;
#X obj 756 384 r \$0-grava;
#X obj 688 418 r \$0-on;
#X obj 822 453 r \$0-off;
#X obj 841 526 r \$0-off;
#X obj 790 526 r \$0-on;
#X obj 774 623 s \$0-status;
#X obj 302 592 s \$0-loopb;
#X obj 322 173 r \$0-loopb;
#X obj 302 566 spigot;
#X obj 335 540 tgl 15 0 empty empty loop_on/off 17 7 0 10 -262144 -1
-1 0 1;
#X text 412 385 começa a ler o loop no tempo;
#X text 417 399 do metronomo;
#X text 204 528 leitura do loop;
#X text 205 544 sem metronomo;
#X obj 707 2 loadbang;
#X text 751 284 1) ligue;
#X text 17 81 3) tocar bumbo com Space;
#X obj 776 305 cnv 15 20 10 empty empty 1 20 12 0 40 -233017 -66577
0;
#X obj 278 46 cnv 15 20 10 empty empty 2 20 12 0 40 -233017 -66577
0;
#X obj 26 102 cnv 15 20 10 empty empty 3 20 12 0 40 -233017 -66577
0;
#X obj 351 558 cnv 15 20 10 empty empty 4_-_4 20 12 0 40 -233017 -66577
0;
#X obj 154 253 r \$0-grava;
#X obj 649 164 s global;
#X obj 296 492 *~;
#X obj 65 432 hsl 128 15 0 1 0 0 empty empty volume 10 6 0 10 -261234
-1 -1 0 1;
#X obj 464 283 bng 40 250 50 0 empty empty empty 17 7 0 10 -260097
-1 -1;
#X obj 202 48 sel Delete;
#X obj 206 441 s tempo_global;
#X obj 503 74 s global_on;
#X text 215 21 2) press Delete;
#X obj 464 341 outlet;
#X obj 4 399 tgl 15 0 \$0-loop_free empty empty 17 7 0 10 -262144 -1
-1 0 1;
#X text 23 397 loop livre;
#X obj 4 416 tgl 15 0 \$0-loop_notempo empty empty 17 7 0 10 -262144
-1 -1 0 1;
#X text 23 414 loop no tempo;
#X obj -37 292 inlet;
#X obj 156 343 r \$0-conta;
#X floatatom 130 389 5 0 0 0 - - -;
#X obj 130 410 bng 15 250 50 0 empty empty empty 17 7 0 10 -262144
-1 -1;
#X text 93 384 reset;
#X floatatom 167 407 5 0 0 0 - - -;
#X obj 758 23 r tempo_global;
#X obj 4 434 tgl 15 0 metro empty empty 17 7 0 10 -262144 -1 -1 0 1
;
#X text 22 433 metro;
#X obj 96 398 bng 15 250 50 0 reset empty empty 17 7 0 10 -262144 -1
-1;
#X obj 619 14 r reset;
#X msg 619 97 0;
#X text 167 388 tempo;
#X obj -37 314 route livre tempo liga reset;
#X obj 296 514 outlet~;
#X connect 1 0 53 0;
#X connect 2 0 22 0;
#X connect 2 0 22 1;
#X connect 2 0 65 0;
#X connect 3 0 1 0;
#X connect 3 0 6 0;
#X connect 3 0 100 0;
#X connect 4 0 3 0;
#X connect 4 0 9 0;
#X connect 4 0 106 0;
#X connect 6 0 7 0;
#X connect 6 0 8 0;
#X connect 7 0 6 1;
#X connect 8 0 11 0;
#X connect 8 0 60 0;
#X connect 8 0 73 0;
#X connect 8 0 103 0;
#X connect 9 0 10 0;
#X connect 10 0 6 1;
#X connect 11 0 49 0;
#X connect 13 0 83 0;
#X connect 14 0 15 0;
#X connect 15 0 16 0;
#X connect 16 0 13 0;
#X connect 17 0 15 0;
#X connect 18 0 21 1;
#X connect 18 1 19 0;
#X connect 19 0 20 0;
#X connect 20 0 21 0;
#X connect 21 0 2 0;
#X connect 24 0 65 0;
#X connect 25 0 65 0;
#X connect 26 0 28 1;
#X connect 26 1 104 0;
#X connect 27 0 28 0;
#X connect 28 0 29 0;
#X connect 29 0 30 0;
#X connect 30 0 31 0;
#X connect 30 1 32 0;
#X connect 31 0 63 0;
#X connect 32 0 25 0;
#X connect 32 0 64 0;
#X connect 33 0 16 1;
#X connect 34 0 16 1;
#X connect 35 0 14 0;
#X connect 35 1 38 0;
#X connect 36 0 15 0;
#X connect 37 0 36 1;
#X connect 38 0 36 1;
#X connect 39 0 40 0;
#X connect 39 1 40 1;
#X connect 40 0 41 0;
#X connect 41 0 42 0;
#X connect 42 0 43 0;
#X connect 43 0 47 0;
#X connect 45 0 52 0;
#X connect 46 0 59 0;
#X connect 46 0 86 0;
#X connect 47 0 45 0;
#X connect 47 1 45 1;
#X connect 48 0 66 0;
#X connect 49 0 76 0;
#X connect 50 0 49 1;
#X connect 51 0 49 1;
#X connect 52 0 66 0;
#X connect 53 0 23 0;
#X connect 53 0 23 1;
#X connect 54 0 53 1;
#X connect 55 0 71 0;
#X connect 56 0 55 1;
#X connect 58 0 55 0;
#X connect 59 0 58 1;
#X connect 60 0 61 0;
#X connect 60 1 58 0;
#X connect 61 0 58 1;
#X connect 66 0 101 0;
#X connect 66 1 46 0;
#X connect 67 0 39 0;
#X connect 68 0 39 0;
#X connect 69 0 45 0;
#X connect 70 0 48 0;
#X connect 72 0 10 0;
#X connect 74 0 50 0;
#X connect 75 0 51 0;
#X connect 77 0 36 0;
#X connect 78 0 35 0;
#X connect 79 0 37 0;
#X connect 80 0 17 0;
#X connect 81 0 34 0;
#X connect 82 0 33 0;
#X connect 85 0 45 0;
#X connect 86 0 84 0;
#X connect 87 0 86 1;
#X connect 92 0 4 0;
#X connect 99 0 24 0;
#X connect 101 0 127 0;
#X connect 102 0 101 1;
#X connect 103 0 108 0;
#X connect 104 0 27 0;
#X connect 113 0 126 0;
#X connect 114 0 115 0;
#X connect 115 0 116 0;
#X connect 118 0 105 0;
#X connect 119 0 3 1;
#X connect 123 0 124 0;
#X connect 124 0 6 1;
#X connect 126 0 109 0;
#X connect 126 1 111 0;
#X connect 126 2 120 0;
#X connect 126 3 122 0;
#X coords 0 -1 1 1 200 115 1 0 370;
