#N canvas 0 0 504 527 10;
#X obj 149 73 inlet;
#X obj 237 172 f \$1;
#X obj 425 93 loadbang;
#X obj 292 171 f \$2;
#X obj 339 171 f \$3;
#X obj 386 171 f \$4;
#X obj 258 65 inlet;
#X obj 313 63 inlet;
#X obj 149 100 t f b;
#X obj 360 62 inlet;
#X obj 407 64 inlet;
#X obj 149 216 moses;
#X obj 176 261 moses;
#X obj 203 300 moses;
#X obj 230 337 moses;
#X obj 149 241 bng 15 250 50 0 empty empty empty 17 7 0 10 -262144
-1 -1;
#X obj 176 291 bng 15 250 50 0 empty empty empty 17 7 0 10 -262144
-1 -1;
#X obj 203 327 bng 15 250 50 0 empty empty empty 17 7 0 10 -262144
-1 -1;
#X obj 230 361 bng 15 250 50 0 empty empty empty 17 7 0 10 -262144
-1 -1;
#X obj 149 443 f \$5;
#X obj 176 423 f \$6;
#X obj 203 404 f \$7;
#X obj 230 385 f \$8;
#X obj 230 494 outlet;
#X connect 0 0 8 0;
#X connect 1 0 11 1;
#X connect 2 0 1 0;
#X connect 2 0 3 0;
#X connect 2 0 4 0;
#X connect 2 0 5 0;
#X connect 3 0 12 1;
#X connect 4 0 13 1;
#X connect 5 0 14 1;
#X connect 6 0 1 1;
#X connect 7 0 3 1;
#X connect 8 0 11 0;
#X connect 8 1 1 0;
#X connect 8 1 3 0;
#X connect 8 1 4 0;
#X connect 8 1 5 0;
#X connect 9 0 4 1;
#X connect 10 0 5 1;
#X connect 11 0 15 0;
#X connect 11 1 12 0;
#X connect 12 0 16 0;
#X connect 12 1 13 0;
#X connect 13 0 17 0;
#X connect 13 1 14 0;
#X connect 14 0 18 0;
#X connect 15 0 19 0;
#X connect 16 0 20 0;
#X connect 17 0 21 0;
#X connect 18 0 22 0;
#X connect 19 0 23 0;
#X connect 20 0 23 0;
#X connect 21 0 23 0;
#X connect 22 0 23 0;
