#N canvas 423 58 820 642 10;
#X symbolatom 347 332 10 0 0 0 - - -;
#X obj 610 403 dac~;
#X obj 669 357 *~;
#X obj 611 362 *~;
#X obj 627 206 receive cenario_amp;
#X obj 627 233 unpack f f;
#X obj 627 287 line~;
#X msg 627 264 \$1 50;
#X obj 684 312 line~;
#X msg 684 289 \$1 50;
#X obj 347 81 receive nota_in;
#X obj 393 101 receive reset;
#X obj 440 121 receive cenario;
#X obj 486 140 receive pausa;
#X obj 533 160 receive amp;
#X obj 619 159 receive~ audioin;
#X obj 347 194 sinc-gera_sintese;
#X obj 61 73 sinc-audioin;
#X obj 62 245 sinc-audioanalise;
#X obj 170 427 s nota_in;
#X obj 143 459 s pausa;
#X obj 116 484 s amp;
#X obj 84 222 s~ audioin;
#X obj 744 232 tgl 15 0 empty empty empty 17 7 0 10 -262144 -1 -1 0
1;
#X obj 313 419 sinc-sample;
#X obj 604 484 sinc-gravador;
#X connect 2 0 1 1;
#X connect 3 0 1 0;
#X connect 4 0 5 0;
#X connect 5 0 7 0;
#X connect 5 1 9 0;
#X connect 6 0 3 1;
#X connect 7 0 6 0;
#X connect 8 0 2 1;
#X connect 9 0 8 0;
#X connect 10 0 16 0;
#X connect 11 0 16 1;
#X connect 12 0 16 2;
#X connect 14 0 16 4;
#X connect 15 0 16 6;
#X connect 16 0 0 0;
#X connect 16 1 3 0;
#X connect 16 1 2 0;
#X connect 16 1 25 0;
#X connect 17 0 18 0;
#X connect 17 0 22 0;
#X connect 18 2 21 0;
#X connect 18 3 20 0;
#X connect 18 4 19 0;
#X connect 23 0 7 0;
#X connect 23 0 9 0;
#X connect 24 0 18 0;
#X connect 24 0 16 6;
