#N canvas 0 24 540 504 10;
#X declare -lib jasch_lib;
#X obj 14 30 import jasch_lib;
#X msg 42 419 dump;
#X msg 42 438 reset;
#X floatatom 42 385 5 0 0 0 - - -;
#X msg 42 400 mode \$1;
#X text 106 400 output mode;
#X obj 42 459 s boidParam;
#X text 106 419 parameter dump;
#X text 105 439 reset boids randomly inside flyrect;
#N canvas 754 114 186 506 init 0;
#X obj 34 21 loadbang;
#X obj 94 21 r reset;
#X msg 15 78 \; neighbors 4;
#X msg 15 348 \; speed 3;
#X obj 16 49 b;
#X obj 17 21 bng 15 250 50 0 empty empty empty 0 -6 0 8 -262144 -1
-1;
#X msg 15 438 \; prefdist 1.5;
#X msg 15 108 \; maxspeed 1.5;
#X msg 15 138 \; minspeed 1.2;
#X msg 15 168 \; center 1.2;
#X msg 15 198 \; attract 1.25;
#X msg 15 228 \; match 0.3;
#X msg 15 288 \; repel 3.5;
#X msg 15 258 \; avoid 3.5;
#X msg 15 318 \; edgedist 3;
#X msg 15 379 \; inertia 4.5;
#X msg 15 408 \; accel 2.5;
#X connect 0 0 4 0;
#X connect 1 0 4 0;
#X connect 4 0 2 0;
#X connect 4 0 7 0;
#X connect 4 0 8 0;
#X connect 4 0 9 0;
#X connect 4 0 10 0;
#X connect 4 0 11 0;
#X connect 4 0 13 0;
#X connect 4 0 12 0;
#X connect 4 0 3 0;
#X connect 4 0 15 0;
#X connect 4 0 16 0;
#X connect 4 0 6 0;
#X connect 5 0 4 0;
#X restore 127 203 pd init;
#N canvas 0 0 644 429 presets 0;
#X restore 127 178 pd presets;
#N canvas 434 24 652 654 todos 1;
#X msg 56 63 neighbors \$1;
#X floatatom 56 48 5 0 4 0 - neighbors -;
#X floatatom 56 83 5 0 0 0 - maxspeed -;
#X msg 56 98 maxspeed \$1;
#X floatatom 56 118 5 0 0 0 - minspeed -;
#X msg 56 133 minspeed \$1;
#X floatatom 56 153 5 0 0 0 - center -;
#X msg 56 168 center \$1;
#X floatatom 56 188 5 0 0 0 - attract -;
#X msg 56 203 attract \$1;
#X floatatom 56 223 5 0 0 0 - match -;
#X msg 56 238 match \$1;
#X floatatom 56 258 5 0 0 0 - avoid -;
#X msg 56 273 avoid \$1;
#X floatatom 56 293 5 0 0 0 - repel -;
#X msg 56 308 repel \$1;
#X floatatom 56 328 5 0 0 0 - edgedist -;
#X msg 56 343 edgedist \$1;
#X floatatom 56 363 5 0 0 0 - speed -;
#X msg 56 378 speed \$1;
#X floatatom 56 398 5 0 0 0 - inertia -;
#X msg 56 413 inertia \$1;
#X floatatom 56 433 5 0 0 0 - accel -;
#X msg 56 448 accel \$1;
#X floatatom 56 468 5 0 0 0 - prefdist -;
#X msg 56 483 prefdist \$1;
#X floatatom 57 506 5 0 0 0 - flyrect[0] -;
#X floatatom 96 506 5 0 0 0 - flyrect[1] -;
#X floatatom 135 506 5 0 0 0 - flyrect[2] -;
#X floatatom 174 506 5 0 0 0 - - -;
#X floatatom 56 565 5 0 0 0 - - -;
#X floatatom 96 565 5 0 0 0 - - -;
#X floatatom 56 13 5 0 0 0 - - -;
#X msg 56 28 number \$1;
#X obj 56 524 pack 0 0 0 0 0 0;
#X obj 56 582 pack 0 0 0;
#X floatatom 135 565 5 0 0 0 - - -;
#X msg 56 542 flyrect \$1 \$2 \$3 \$4;
#X msg 56 602 attractpt \$1 \$2;
#X obj 56 626 s boidParam;
#X text 147 26 número de boids;
#X text 147 61 número de vizinhos que cada boid consulta quando se
desloca;
#X text 147 98 máxima velocidade;
#X text 149 132 mínima velocidade;
#X text 146 167 força do instinto de centralização;
#X text 145 201 força de atração para 'attractpt';
#X text 143 238 força do instinto de sincronia de velocidade com o
vizinho;
#X text 144 272 força do instinto de afastamento do vizinho;
#X text 147 306 força do instinto de afastamento da parede 'flyrect'
;
#X text 153 340 distância de visão dos limites da parede;
#X text 148 378 velocidade geral;
#X text 146 449 velocidade de aceleração;
#X text 146 481 distância preferida dos vizinhos;
#X text 180 567 ponto para o qual os boids são atraídos (x/y);
#X text 212 511 limites da caixa (parede) para 'voar' dentro (l/t/r/b)
;
#X text 149 411 disposição para mudar velocidade e direção;
#X connect 0 0 39 0;
#X connect 1 0 0 0;
#X connect 2 0 3 0;
#X connect 3 0 39 0;
#X connect 4 0 5 0;
#X connect 5 0 39 0;
#X connect 6 0 7 0;
#X connect 7 0 39 0;
#X connect 8 0 9 0;
#X connect 9 0 39 0;
#X connect 10 0 11 0;
#X connect 11 0 39 0;
#X connect 12 0 13 0;
#X connect 13 0 39 0;
#X connect 14 0 15 0;
#X connect 15 0 39 0;
#X connect 16 0 17 0;
#X connect 17 0 39 0;
#X connect 18 0 19 0;
#X connect 19 0 39 0;
#X connect 20 0 21 0;
#X connect 21 0 39 0;
#X connect 22 0 23 0;
#X connect 23 0 39 0;
#X connect 24 0 25 0;
#X connect 25 0 39 0;
#X connect 26 0 34 0;
#X connect 27 0 34 1;
#X connect 28 0 34 2;
#X connect 29 0 34 3;
#X connect 30 0 35 0;
#X connect 31 0 35 1;
#X connect 32 0 33 0;
#X connect 33 0 39 0;
#X connect 34 0 37 0;
#X connect 35 0 38 0;
#X connect 36 0 35 2;
#X connect 37 0 39 0;
#X connect 38 0 39 0;
#X restore 127 225 pd todos parametros-doc;
#N canvas 102 24 396 562 sinc-boids 0;
#N canvas 747 113 450 300 analise 0;
#X obj 42 216 outlet pitch;
#X obj 192 217 outlet amp;
#X obj 48 14 inlet~;
#X obj 51 179 random 127;
#X obj 182 182 random 127;
#X obj 161 12 inlet;
#X connect 3 0 0 0;
#X connect 4 0 1 0;
#X connect 5 0 3 0;
#X connect 5 0 4 0;
#X restore 107 120 pd analise de audio;
#N canvas 7 335 652 376 mapeamento 0;
#X obj 423 33 inlet amp;
#X obj 100 34 inlet pitch;
#X obj 80 337 outlet attractpt_y;
#X obj 331 333 outlet attractpt_duracao;
#X restore 107 175 pd mapeamento;
#X floatatom 107 214 5 0 0 0 - - -;
#X floatatom 152 214 5 0 0 0 - - -;
#X obj 191 331 s boidParam;
#X obj 107 237 pack 0 0;
#X msg 190 308 attractpt \$1 \$2 0;
#N canvas 0 0 450 300 sampler 0;
#X obj 41 259 outlet~;
#X restore 108 63 pd sampler;
#X obj 25 356 bng 15 250 50 0 empty empty empty 17 7 0 10 -262144 -1
-1;
#X obj 25 417 route 0 1 2 3;
#X obj 107 262 t b a;
#X obj 49 354 r boidParam;
#X obj 25 389 boids2d 3;
#X floatatom 194 443 5 0 0 0 - - -;
#X obj 195 414 boid-midi 4;
#X obj 25 491 boid-midi;
#X obj 43 470 boid-midi;
#X obj 62 447 boid-midi;
#X obj 218 84 bng 15 250 50 0 empty empty empty 17 7 0 10 -262144 -1
-1;
#X text 241 89 teste;
#X connect 0 0 1 0;
#X connect 0 1 1 1;
#X connect 1 0 2 0;
#X connect 1 1 3 0;
#X connect 2 0 5 0;
#X connect 3 0 5 1;
#X connect 5 0 10 0;
#X connect 6 0 4 0;
#X connect 7 0 0 0;
#X connect 8 0 12 0;
#X connect 9 0 15 0;
#X connect 9 1 16 0;
#X connect 9 2 17 0;
#X connect 10 0 8 0;
#X connect 10 1 6 0;
#X connect 11 0 12 0;
#X connect 12 0 9 0;
#X connect 18 0 0 1;
#X restore -53 277 pd sinc-boids;
#N canvas 434 39 878 498 testes 1;
#X floatatom 99 194 5 0 0 0 - - -;
#X obj 99 217 pack 0 0;
#X msg 126 306 attractpt \$1 \$2 0;
#X obj 99 366 bng 15 250 50 0 empty empty empty 17 7 0 10 -262144 -1
-1;
#X obj 99 272 t b a;
#X obj 99 399 boids2d 3;
#X obj 265 150 random 127;
#X obj 99 77 t b b;
#X obj 99 57 bng 15 250 50 0 empty empty empty 17 7 0 10 -262144 -1
-1;
#X obj 99 9 tgl 15 0 empty empty empty 17 7 0 10 -262144 -1 -1 0 1
;
#X obj 222 212 makenote 80 500;
#X obj 222 244 noteout 2;
#X obj 99 31 metro 1000;
#N canvas 0 0 450 300 (subpatch) 0;
#X array array1 8 float 1;
#A 0 67.128 68.0351 67.128 64.4066 98.8777 97.9706 99.7849 97.9706
;
#X coords 0 127 7 0 300 140 1;
#X restore 467 7 graph;
#X obj 99 146 tabread array1;
#X obj 512 192 route 0 1 2 3;
#X obj 99 426 s boids_resultado;
#X obj 512 160 r boids_resultado;
#X obj 265 179 + 20;
#X obj 385 249 unpack f f;
#X floatatom 385 273 5 0 0 0 - - -;
#X floatatom 457 273 5 0 0 0 - - -;
#X obj 551 240 unpack f f;
#X floatatom 551 273 5 0 0 0 - - -;
#X floatatom 623 270 5 0 0 0 - - -;
#X obj 708 239 unpack f f;
#X floatatom 708 272 5 0 0 0 - - -;
#X floatatom 780 274 5 0 0 0 - - -;
#X obj 370 437 noteout 3;
#X obj 370 370 int;
#X obj 457 294 * 10;
#X obj 370 342 delay;
#X obj 370 396 makenote 80 500;
#X obj 536 370 int;
#X obj 623 293 * 10;
#X obj 536 343 delay;
#X obj 536 396 makenote 80 500;
#X obj 536 437 noteout 4;
#X obj 693 368 int;
#X obj 780 297 * 10;
#X obj 693 344 delay;
#X obj 693 394 makenote 80 500;
#X obj 693 435 noteout 5;
#X obj 99 119 counter 7;
#X obj 123 364 r boidParam;
#X obj 126 329 s boidParam;
#X connect 0 0 1 0;
#X connect 1 0 4 0;
#X connect 2 0 45 0;
#X connect 3 0 5 0;
#X connect 4 0 3 0;
#X connect 4 1 2 0;
#X connect 5 0 16 0;
#X connect 6 0 1 1;
#X connect 6 0 18 0;
#X connect 7 0 43 0;
#X connect 7 1 6 0;
#X connect 8 0 7 0;
#X connect 9 0 12 0;
#X connect 10 0 11 0;
#X connect 10 1 11 1;
#X connect 12 0 8 0;
#X connect 14 0 0 0;
#X connect 14 0 10 0;
#X connect 15 0 19 0;
#X connect 15 1 22 0;
#X connect 15 2 25 0;
#X connect 17 0 15 0;
#X connect 18 0 10 1;
#X connect 19 0 20 0;
#X connect 19 1 21 0;
#X connect 20 0 29 1;
#X connect 21 0 30 0;
#X connect 22 0 23 0;
#X connect 22 1 24 0;
#X connect 23 0 33 1;
#X connect 24 0 34 0;
#X connect 25 0 26 0;
#X connect 25 1 27 0;
#X connect 26 0 38 1;
#X connect 27 0 39 0;
#X connect 29 0 32 0;
#X connect 30 0 31 0;
#X connect 30 0 32 2;
#X connect 31 0 29 0;
#X connect 32 0 28 0;
#X connect 32 1 28 1;
#X connect 33 0 36 0;
#X connect 34 0 35 0;
#X connect 34 0 36 2;
#X connect 35 0 33 0;
#X connect 36 0 37 0;
#X connect 36 1 37 1;
#X connect 38 0 41 0;
#X connect 39 0 40 0;
#X connect 39 0 41 2;
#X connect 40 0 38 0;
#X connect 41 0 42 0;
#X connect 41 1 42 1;
#X connect 43 0 14 0;
#X connect 44 0 5 0;
#X restore 71 137 pd testes;
#X connect 1 0 6 0;
#X connect 2 0 6 0;
#X connect 3 0 4 0;
#X connect 4 0 6 0;
