#N canvas 717 129 560 527 10;
#X floatatom 232 210 5 0 0 0 time - -;
#X floatatom 339 211 5 0 0 0 duration - -;
#X floatatom 442 210 5 0 0 0 pitch - -;
#X obj 131 170 bng 15 250 50 0 empty empty send_note 17 7 0 10 -262144
-1 -1;
#X obj 22 402 fomus _____________;
#N canvas 473 51 718 483 arrays 1;
#N canvas 0 0 450 300 (subpatch) 0;
#X array pitch 8 float 3;
#A 0 60 62 64 65 67 65 64 62;
#X coords 0 127 8 0 200 140 1;
#X restore 378 -223 graph;
#N canvas 81 24 1166 865 (subpatch) 0;
#X array dur 8 float 3;
#A 0 1 0.5 1 1 1 1 1 1;
#X coords 0 8 8 0 200 140 1;
#X restore 377 -387 graph;
#X obj 157 -76 tabread dur;
#X obj 246 -85 tabread pitch;
#X obj 138 -292 until;
#X msg 138 -329 8;
#X obj 138 -256 counter 7;
#X obj 138 -214 t f f f;
#X floatatom 84 -101 5 0 0 0 - - -;
#X text 94 -80 time;
#X obj 246 -43 outlet;
#X obj 157 -38 outlet;
#X obj 84 -60 outlet;
#X obj 104 -446 bng 15 250 50 0 empty empty empty 17 7 0 10 -262144
-1 -1;
#X obj 332 -130 outlet;
#X obj 104 -413 t b b b b;
#X obj 36 -19 outlet;
#X obj 36 -267 bng 15 250 50 0 empty empty empty 17 7 0 10 -262144
-1 -1;
#X msg 381 -72 \; pitch 0 60 62 64 65 67 65 64 62 60;
#X msg 381 -34 \; dur 0 1 0.5 1 1 1 1 1 1;
#X connect 2 0 11 0;
#X connect 3 0 10 0;
#X connect 4 0 6 0;
#X connect 5 0 4 0;
#X connect 6 0 7 0;
#X connect 7 0 8 0;
#X connect 7 1 2 0;
#X connect 7 2 3 0;
#X connect 8 0 12 0;
#X connect 13 0 15 0;
#X connect 15 2 5 0;
#X connect 15 3 14 0;
#X connect 17 0 16 0;
#X restore 193 -46 pd arrays;
#X msg 58 144 clear;
#X msg 22 56 run out.ly;
#X obj 205 83 t b f;
#X connect 0 0 4 1;
#X connect 1 0 4 3;
#X connect 2 0 4 5;
#X connect 3 0 4 0;
#X connect 5 0 7 0;
#X connect 5 1 8 0;
#X connect 5 2 1 0;
#X connect 5 3 2 0;
#X connect 5 4 6 0;
#X connect 6 0 4 0;
#X connect 7 0 4 0;
#X connect 8 0 3 0;
#X connect 8 1 0 0;
