#N canvas 136 29 802 368 10;
#X obj 59 33 colecao_vs_pitch;
#X obj 59 70 bng 15 250 50 0 empty empty empty 17 7 0 10 -262144 -1
-1;
#X obj 152 71 bng 15 250 50 0 empty empty empty 17 7 0 10 -262144 -1
-1;
#X text 157 94 não está;
#X text 59 93 está;
#N canvas 0 0 450 300 (subpatch) 0;
#X array \$0-nota 7 float 3;
#A 0 57 59 36 61 62 54 55;
#X coords 0 127 7 0 90 50 1;
#X restore 56 233 graph;
#X obj -233 258 tabwrite \$0-nota;
#X obj -180 112 f \$0;
#X obj -213 157 symbol;
#X obj -180 88 loadbang;
#X obj -180 136 makefilename %d-nota;
#X obj -233 202 t f b;
#X obj 32 -27 inlet nota;
#X obj -213 180 outlet nome do array \$0-nota;
#X obj -438 166 tabdump \$0-nota;
#X obj -252 87 t b f b;
#X obj -438 198 prepend set;
#X msg -438 229 57 59 36 61 62 54 55;
#X obj -140 236 counter 6;
#X obj -360 198 s lista_pitch;
#X obj 152 7 r lista_pitch;
#X floatatom 152 179 5 0 0 0 - - -;
#X obj 152 158 counter 6;
#X obj 155 233 hsl 100 50 0 6 0 0 empty empty empty -2 -8 0 10 -204786
-1 -1 0 1;
#X text 134 269 impermeável;
#X text 201 231 permeável;
#X obj 266 78 bng 15 250 50 0 empty empty reset 17 7 0 10 -262144 -1
-1;
#X obj 32 4 t f f;
#X obj 152 304 outlet;
#X obj 266 -32 inlet reset;
#X obj -438 29 tabletool \$0-nota;
#X msg -436 5 equals \$1;
#X floatatom -433 -23 5 0 0 0 - - -;
#X floatatom -342 55 5 0 0 0 - - -;
#X floatatom -443 56 5 0 0 0 - - -;
#X text -240 -25 FAZER C PITCH CLASS - NÃO COM A NOTA EM SI;
#X connect 0 0 1 0;
#X connect 0 2 2 0;
#X connect 2 0 22 0;
#X connect 7 0 10 0;
#X connect 8 0 13 0;
#X connect 9 0 7 0;
#X connect 10 0 8 1;
#X connect 11 0 6 0;
#X connect 11 1 18 0;
#X connect 12 0 27 0;
#X connect 14 0 16 0;
#X connect 14 0 19 0;
#X connect 15 0 14 0;
#X connect 15 1 11 0;
#X connect 15 2 8 0;
#X connect 16 0 17 0;
#X connect 18 0 6 1;
#X connect 20 0 0 1;
#X connect 21 0 23 0;
#X connect 22 0 21 0;
#X connect 23 0 28 0;
#X connect 26 0 22 3;
#X connect 27 0 15 0;
#X connect 27 1 0 0;
#X connect 29 0 26 0;
#X connect 30 0 34 0;
#X connect 30 1 33 0;
#X connect 31 0 30 0;
#X connect 32 0 31 0;
#X coords 0 -1 1 1 220 80 1 50 205;
