#N canvas 0 24 1272 687 10;
#N canvas 521 172 759 505 harmonia1 0;
#X floatatom 187 98 5 0 0 0 - - -;
#X obj 187 159 random 4;
#X floatatom 187 188 5 0 0 0 - - -;
#X text 274 72 sorteia qual nota do acorde sera a nota dada;
#X obj 187 132 bng 15 250 50 0 empty empty empty 17 7 0 10 -262144
-1 -1;
#X obj 187 213 select 0 1 2 3 4;
#X text 371 150 2 = nota dada terca maior;
#X text 370 126 1 = nota dada terca menor;
#N canvas 381 168 396 428 tonica 0;
#X obj 37 287 osc~;
#X obj 88 284 osc~;
#X obj 149 286 osc~;
#X msg 37 161 \$1;
#X obj 88 207 + \$1;
#X obj 149 210 + \$1;
#X msg 77 159 4;
#X msg 170 181 7;
#X obj 37 250 mtof;
#X obj 88 249 mtof;
#X obj 149 254 mtof;
#X msg 109 159 3;
#X obj 71 367 *~;
#X obj 170 33 inlet;
#X obj 220 293 vline~;
#X obj 77 78 bng 15 250 50 0 empty empty empty 17 7 0 10 -262144 -1
-1;
#X obj 77 102 random 2;
#X obj 77 129 select 0 1;
#X msg 220 252 0.1 1000 0 \, 0 1000 1000;
#X msg 263 181 0;
#X obj 263 36 inlet;
#X obj 72 394 outlet~;
#X obj 37 35 receive \$0-nota;
#X obj 321 387 outlet;
#X msg 321 338 M;
#X msg 359 337 m;
#X connect 0 0 12 0;
#X connect 1 0 12 0;
#X connect 2 0 12 0;
#X connect 3 0 4 0;
#X connect 3 0 5 0;
#X connect 3 0 8 0;
#X connect 4 0 9 0;
#X connect 5 0 10 0;
#X connect 6 0 4 1;
#X connect 7 0 5 1;
#X connect 8 0 0 0;
#X connect 9 0 1 0;
#X connect 10 0 2 0;
#X connect 11 0 4 1;
#X connect 12 0 21 0;
#X connect 13 0 18 0;
#X connect 13 0 15 0;
#X connect 13 0 7 0;
#X connect 14 0 12 1;
#X connect 15 0 16 0;
#X connect 16 0 17 0;
#X connect 17 0 6 0;
#X connect 17 0 24 0;
#X connect 17 1 11 0;
#X connect 17 1 25 0;
#X connect 18 0 14 0;
#X connect 19 0 14 0;
#X connect 20 0 19 0;
#X connect 22 0 3 0;
#X connect 24 0 23 0;
#X connect 25 0 23 0;
#X restore 70 328 pd tonica;
#N canvas 602 87 447 350 terca 0;
#X obj 126 206 osc~;
#X obj 70 207 osc~;
#X obj 174 205 osc~;
#X msg 70 82 \$1;
#X obj 126 169 mtof;
#X obj 70 172 mtof;
#X obj 174 169 mtof;
#X obj 104 285 *~;
#X obj 234 63 inlet;
#X obj 234 236 vline~;
#X obj 70 137 - 3;
#X obj 174 134 + 4;
#X msg 234 207 0.1 1000 0 \, 0 1000 1000;
#X msg 305 156 0;
#X obj 305 59 inlet;
#X obj 103 317 outlet~;
#X obj 70 57 receive \$0-nota;
#X connect 0 0 7 0;
#X connect 1 0 7 0;
#X connect 2 0 7 0;
#X connect 3 0 4 0;
#X connect 3 0 10 0;
#X connect 3 0 11 0;
#X connect 4 0 0 0;
#X connect 5 0 1 0;
#X connect 6 0 2 0;
#X connect 7 0 15 0;
#X connect 8 0 12 0;
#X connect 9 0 7 1;
#X connect 10 0 5 0;
#X connect 11 0 6 0;
#X connect 12 0 9 0;
#X connect 13 0 9 0;
#X connect 14 0 13 0;
#X connect 16 0 3 0;
#X restore 133 328 pd terca menor;
#N canvas 750 139 365 322 terca 0;
#X obj 98 185 osc~;
#X obj 40 185 osc~;
#X obj 145 185 osc~;
#X msg 40 64 \$1;
#X obj 98 148 mtof;
#X obj 40 150 mtof;
#X obj 144 149 mtof;
#X obj 74 265 *~;
#X obj 195 41 inlet;
#X obj 195 215 vline~;
#X obj 40 115 - 4;
#X obj 144 114 + 3;
#X msg 195 186 0.1 1000 0 \, 0 1000 1000;
#X msg 259 115 0;
#X obj 259 42 inlet;
#X obj 73 291 outlet~;
#X obj 40 37 receive \$0-nota;
#X connect 0 0 7 0;
#X connect 1 0 7 0;
#X connect 2 0 7 0;
#X connect 3 0 4 0;
#X connect 3 0 10 0;
#X connect 3 0 11 0;
#X connect 4 0 0 0;
#X connect 5 0 1 0;
#X connect 6 0 2 0;
#X connect 7 0 15 0;
#X connect 8 0 12 0;
#X connect 9 0 7 1;
#X connect 10 0 5 0;
#X connect 11 0 6 0;
#X connect 12 0 9 0;
#X connect 13 0 9 0;
#X connect 14 0 13 0;
#X connect 16 0 3 0;
#X restore 224 328 pd terca maior;
#N canvas 641 112 450 409 quinta 0;
#X obj 100 256 osc~;
#X obj 38 257 osc~;
#X obj 143 255 osc~;
#X msg 38 100 \$1;
#X obj 100 219 mtof;
#X obj 38 222 mtof;
#X obj 142 219 mtof;
#X obj 72 335 *~;
#X obj 258 25 inlet;
#X obj 258 286 vline~;
#X obj 38 187 - 7;
#X msg 138 153 4;
#X msg 170 153 3;
#X obj 138 72 bng 15 250 50 0 empty empty empty 17 7 0 10 -262144 -1
-1;
#X obj 138 96 random 2;
#X obj 138 123 select 0 1;
#X obj 142 191 - \$1;
#X msg 258 257 0.1 1000 0 \, 0 1000 1000;
#X msg 325 203 0;
#X obj 325 79 inlet;
#X obj 71 369 outlet~;
#X obj 38 61 receive \$0-nota;
#X obj 350 368 outlet acorde;
#X msg 382 333 m;
#X msg 350 334 M;
#X connect 0 0 7 0;
#X connect 1 0 7 0;
#X connect 2 0 7 0;
#X connect 3 0 4 0;
#X connect 3 0 10 0;
#X connect 3 0 16 0;
#X connect 4 0 0 0;
#X connect 5 0 1 0;
#X connect 6 0 2 0;
#X connect 7 0 20 0;
#X connect 8 0 17 0;
#X connect 8 0 13 0;
#X connect 9 0 7 1;
#X connect 10 0 5 0;
#X connect 11 0 16 1;
#X connect 12 0 16 1;
#X connect 13 0 14 0;
#X connect 14 0 15 0;
#X connect 15 0 11 0;
#X connect 15 0 24 0;
#X connect 15 1 12 0;
#X connect 15 1 23 0;
#X connect 16 0 6 0;
#X connect 17 0 9 0;
#X connect 18 0 9 0;
#X connect 19 0 18 0;
#X connect 21 0 3 0;
#X connect 23 0 22 0;
#X connect 24 0 22 0;
#X restore 318 327 pd quinta;
#X obj 187 245 bng 15 250 50 0 empty empty empty 17 7 0 10 -262144
-1 -1;
#X obj 205 245 bng 15 250 50 0 empty empty empty 17 7 0 10 -262144
-1 -1;
#X obj 224 245 bng 15 250 50 0 empty empty empty 17 7 0 10 -262144
-1 -1;
#X obj 242 246 bng 15 250 50 0 empty empty empty 17 7 0 10 -262144
-1 -1;
#X text 370 105 0 = nota dada tonica (ainda sorteia entre acorde M
ou m);
#X text 371 173 3 = nota dada quinta (ainda sorteia entre acorde M
ou m);
#X obj 187 20 inlet nota;
#X obj 69 398 outlet~;
#X obj 92 139 send \$0-nota;
#X obj 273 438 outlet tipo_de_acorde;
#X obj 438 398 outlet tonica;
#X obj 418 348 f;
#X obj 446 338 f;
#X obj 446 362 - 3;
#X obj 473 362 - 4;
#X obj 473 338 f;
#X obj 500 362 - 7;
#X obj 500 338 f;
#X obj 274 368 bng 15 250 50 0 empty empty empty 17 7 0 10 -262144
-1 -1;
#X msg 274 391 M;
#X msg 244 391 m;
#X obj 244 370 bng 15 250 50 0 empty empty empty 17 7 0 10 -262144
-1 -1;
#X connect 0 0 4 0;
#X connect 0 0 20 0;
#X connect 0 0 23 1;
#X connect 0 0 24 1;
#X connect 0 0 27 1;
#X connect 0 0 29 1;
#X connect 1 0 2 0;
#X connect 2 0 5 0;
#X connect 4 0 1 0;
#X connect 5 0 12 0;
#X connect 5 1 13 0;
#X connect 5 2 14 0;
#X connect 5 3 15 0;
#X connect 8 0 19 0;
#X connect 8 1 21 0;
#X connect 9 0 19 0;
#X connect 10 0 19 0;
#X connect 11 0 19 0;
#X connect 11 1 21 0;
#X connect 12 0 8 0;
#X connect 12 0 23 0;
#X connect 13 0 9 0;
#X connect 13 0 24 0;
#X connect 13 0 33 0;
#X connect 14 0 10 0;
#X connect 14 0 27 0;
#X connect 14 0 30 0;
#X connect 15 0 11 0;
#X connect 15 0 29 0;
#X connect 18 0 0 0;
#X connect 23 0 22 0;
#X connect 24 0 25 0;
#X connect 25 0 22 0;
#X connect 26 0 22 0;
#X connect 27 0 26 0;
#X connect 28 0 22 0;
#X connect 29 0 28 0;
#X connect 30 0 31 0;
#X connect 31 0 21 0;
#X connect 32 0 21 0;
#X connect 33 0 32 0;
#X restore 65 23 pd harmonia1;
#N canvas 63 84 1068 577 harmonia2 0;
#X msg 198 134 \$1;
#X obj 198 355 + \$1;
#X obj 292 352 + \$1;
#X obj 391 353 + \$1;
#X msg 219 269 4;
#X msg 329 298 7;
#X msg 431 324 11;
#X floatatom 198 102 5 0 0 0 sorteio_de_notas - -;
#X obj 97 370 mtof;
#X obj 198 377 mtof;
#X obj 292 376 mtof;
#X obj 391 375 mtof;
#X obj 469 245 bng 30 250 50 0 empty empty Maior_7M 17 7 0 10 -250685
-1 -1;
#X msg 230 299 3;
#X obj 469 200 bng 30 250 50 0 empty empty menor_7M 17 7 0 10 -261681
-1 -1;
#X obj 252 507 *~;
#X msg 340 321 6;
#X msg 412 300 10;
#X obj 465 149 bng 30 250 50 0 empty empty alterado_(5b) 17 7 0 10
-44926 -1 -1;
#X obj 848 233 random 100;
#X obj 848 257 moses 50;
#X obj 848 286 moses 25;
#X obj 465 113 bng 30 250 50 0 empty empty aumentado_7m 17 7 0 10 -262144
-1 -1;
#X msg 313 277 8;
#X obj 848 333 send aum;
#X obj 893 361 send alt;
#X obj 960 355 send m7M;
#X obj 1005 335 send M7M;
#X obj 569 201 receive M7M;
#X obj 559 77 receive aum;
#X obj 564 155 receive m7M;
#X obj 563 115 receive alt;
#X text 658 85 cada um;
#X text 658 110 com 25% de;
#X text 658 135 probabilidade;
#X obj 608 330 vline~;
#X obj 960 308 moses 75;
#N canvas 482 25 353 341 aditiva 0;
#X obj 29 11 inlet;
#X obj 73 118 * \$1;
#X obj 127 118 * \$1;
#X msg 94 56 0.996;
#X msg 148 57 1.004;
#X floatatom 39 55 5 0 0 0 - - -;
#X floatatom 73 150 5 0 0 0 - - -;
#X floatatom 127 150 5 0 0 0 - - -;
#X obj 73 200 osc~;
#X obj 127 196 osc~;
#X obj 197 118 * \$1;
#X floatatom 197 150 5 0 0 0 - - -;
#X obj 197 196 osc~;
#X msg 218 56 1.01;
#X obj 267 118 * \$1;
#X floatatom 267 150 5 0 0 0 - - -;
#X obj 267 196 osc~;
#X msg 288 57 0.99;
#X obj 118 270 +~;
#X obj 118 311 outlet~;
#X obj 29 200 osc~;
#X obj 218 11 loadbang;
#X connect 0 0 5 0;
#X connect 0 0 20 0;
#X connect 1 0 6 0;
#X connect 2 0 7 0;
#X connect 3 0 1 1;
#X connect 4 0 2 1;
#X connect 5 0 1 0;
#X connect 5 0 2 0;
#X connect 5 0 10 0;
#X connect 5 0 14 0;
#X connect 6 0 8 0;
#X connect 7 0 9 0;
#X connect 8 0 18 0;
#X connect 9 0 18 0;
#X connect 10 0 11 0;
#X connect 11 0 12 0;
#X connect 12 0 18 1;
#X connect 13 0 10 1;
#X connect 14 0 15 0;
#X connect 15 0 16 0;
#X connect 16 0 18 1;
#X connect 17 0 14 1;
#X connect 18 0 19 0;
#X connect 20 0 18 0;
#X connect 21 0 3 0;
#X connect 21 0 4 0;
#X connect 21 0 13 0;
#X connect 21 0 17 0;
#X restore 97 399 pd aditiva;
#N canvas 482 25 347 353 aditiva 0;
#X obj 29 35 inlet;
#X obj 74 118 * \$1;
#X obj 127 117 * \$1;
#X msg 95 72 0.996;
#X msg 148 71 1.004;
#X floatatom 38 71 5 0 0 0 - - -;
#X floatatom 74 150 5 0 0 0 - - -;
#X floatatom 127 148 5 0 0 0 - - -;
#X obj 74 192 osc~;
#X obj 127 188 osc~;
#X obj 197 117 * \$1;
#X floatatom 197 148 5 0 0 0 - - -;
#X obj 197 188 osc~;
#X msg 218 69 1.01;
#X obj 267 117 * \$1;
#X floatatom 267 148 5 0 0 0 - - -;
#X obj 267 188 osc~;
#X msg 288 68 0.99;
#X obj 118 262 +~;
#X obj 118 303 outlet~;
#X obj 29 192 osc~;
#X obj 218 33 loadbang;
#X connect 0 0 5 0;
#X connect 0 0 20 0;
#X connect 1 0 6 0;
#X connect 2 0 7 0;
#X connect 3 0 1 1;
#X connect 4 0 2 1;
#X connect 5 0 1 0;
#X connect 5 0 2 0;
#X connect 5 0 10 0;
#X connect 5 0 14 0;
#X connect 6 0 8 0;
#X connect 7 0 9 0;
#X connect 8 0 18 0;
#X connect 9 0 18 0;
#X connect 10 0 11 0;
#X connect 11 0 12 0;
#X connect 12 0 18 1;
#X connect 13 0 10 1;
#X connect 14 0 15 0;
#X connect 15 0 16 0;
#X connect 16 0 18 1;
#X connect 17 0 14 1;
#X connect 18 0 19 0;
#X connect 20 0 18 0;
#X connect 21 0 3 0;
#X connect 21 0 4 0;
#X connect 21 0 13 0;
#X connect 21 0 17 0;
#X restore 198 400 pd aditiva;
#N canvas 482 25 396 393 aditiva 0;
#X obj 29 55 inlet;
#X obj 71 173 * \$1;
#X obj 126 172 * \$1;
#X msg 92 72 0.996;
#X msg 147 70 1.004;
#X floatatom 41 84 5 0 0 0 - - -;
#X floatatom 71 201 5 0 0 0 - - -;
#X floatatom 126 201 5 0 0 0 - - -;
#X obj 71 230 osc~;
#X obj 126 226 osc~;
#X obj 196 172 * \$1;
#X floatatom 196 201 5 0 0 0 - - -;
#X obj 196 226 osc~;
#X msg 217 70 1.01;
#X obj 266 172 * \$1;
#X floatatom 266 201 5 0 0 0 - - -;
#X obj 266 226 osc~;
#X msg 287 71 0.99;
#X obj 118 300 +~;
#X obj 118 341 outlet~;
#X obj 29 230 osc~;
#X obj 217 34 loadbang;
#X connect 0 0 5 0;
#X connect 0 0 20 0;
#X connect 1 0 6 0;
#X connect 2 0 7 0;
#X connect 3 0 1 1;
#X connect 4 0 2 1;
#X connect 5 0 1 0;
#X connect 5 0 2 0;
#X connect 5 0 10 0;
#X connect 5 0 14 0;
#X connect 6 0 8 0;
#X connect 7 0 9 0;
#X connect 8 0 18 0;
#X connect 9 0 18 0;
#X connect 10 0 11 0;
#X connect 11 0 12 0;
#X connect 12 0 18 1;
#X connect 13 0 10 1;
#X connect 14 0 15 0;
#X connect 15 0 16 0;
#X connect 16 0 18 1;
#X connect 17 0 14 1;
#X connect 18 0 19 0;
#X connect 20 0 18 0;
#X connect 21 0 3 0;
#X connect 21 0 4 0;
#X connect 21 0 13 0;
#X connect 21 0 17 0;
#X restore 292 400 pd aditiva;
#N canvas 482 25 339 361 aditiva 0;
#X obj 29 46 inlet;
#X obj 74 151 * \$1;
#X obj 127 151 * \$1;
#X msg 95 90 0.996;
#X msg 148 89 1.004;
#X floatatom 36 81 5 0 0 0 - - -;
#X floatatom 74 180 5 0 0 0 - - -;
#X floatatom 127 178 5 0 0 0 - - -;
#X obj 74 219 osc~;
#X obj 127 215 osc~;
#X obj 197 151 * \$1;
#X floatatom 197 178 5 0 0 0 - - -;
#X obj 197 215 osc~;
#X msg 218 90 1.01;
#X obj 267 151 * \$1;
#X floatatom 267 178 5 0 0 0 - - -;
#X obj 267 215 osc~;
#X msg 288 89 0.99;
#X obj 118 289 +~;
#X obj 118 330 outlet~;
#X obj 29 219 osc~;
#X connect 0 0 5 0;
#X connect 0 0 20 0;
#X connect 1 0 6 0;
#X connect 2 0 7 0;
#X connect 3 0 1 1;
#X connect 4 0 2 1;
#X connect 5 0 1 0;
#X connect 5 0 2 0;
#X connect 5 0 10 0;
#X connect 5 0 14 0;
#X connect 6 0 8 0;
#X connect 7 0 9 0;
#X connect 8 0 18 0;
#X connect 9 0 18 0;
#X connect 10 0 11 0;
#X connect 11 0 12 0;
#X connect 12 0 18 0;
#X connect 13 0 10 1;
#X connect 14 0 15 0;
#X connect 15 0 16 0;
#X connect 16 0 18 1;
#X connect 17 0 14 1;
#X connect 18 0 19 0;
#X connect 20 0 18 0;
#X restore 391 397 pd aditiva;
#X msg 608 303 0.02 500 0 \, 0 500 500;
#X obj 198 -11 inlet nota;
#X obj 198 36 t f b;
#X floatatom 198 15 5 0 0 0 - - -;
#X obj 252 539 outlet~;
#X obj 747 435 bng 15 250 50 0 empty empty empty 17 7 0 10 -262144
-1 -1;
#X obj 799 435 bng 15 250 50 0 empty empty empty 17 7 0 10 -262144
-1 -1;
#X obj 847 434 bng 15 250 50 0 empty empty empty 17 7 0 10 -262144
-1 -1;
#X obj 881 434 bng 15 250 50 0 empty empty empty 17 7 0 10 -262144
-1 -1;
#X msg 847 455 m7M;
#X msg 881 455 M7M;
#X obj 847 522 outlet acorde;
#X obj 640 519 outlet tonica;
#X msg 747 456 aum7m;
#X msg 799 456 alt5b;
#X connect 0 0 1 0;
#X connect 0 0 2 0;
#X connect 0 0 3 0;
#X connect 0 0 8 0;
#X connect 1 0 9 0;
#X connect 2 0 10 0;
#X connect 3 0 11 0;
#X connect 4 0 1 1;
#X connect 5 0 2 1;
#X connect 6 0 3 1;
#X connect 7 0 0 0;
#X connect 8 0 37 0;
#X connect 9 0 38 0;
#X connect 10 0 39 0;
#X connect 11 0 40 0;
#X connect 12 0 4 0;
#X connect 12 0 5 0;
#X connect 12 0 6 0;
#X connect 12 0 41 0;
#X connect 13 0 1 1;
#X connect 14 0 13 0;
#X connect 14 0 5 0;
#X connect 14 0 6 0;
#X connect 14 0 41 0;
#X connect 15 0 45 0;
#X connect 16 0 2 1;
#X connect 17 0 3 1;
#X connect 18 0 4 0;
#X connect 18 0 16 0;
#X connect 18 0 17 0;
#X connect 18 0 41 0;
#X connect 19 0 20 0;
#X connect 20 0 21 0;
#X connect 20 1 36 0;
#X connect 21 0 24 0;
#X connect 21 0 46 0;
#X connect 21 1 25 0;
#X connect 21 1 47 0;
#X connect 22 0 23 0;
#X connect 22 0 17 0;
#X connect 22 0 4 0;
#X connect 22 0 41 0;
#X connect 23 0 2 1;
#X connect 28 0 12 0;
#X connect 29 0 22 0;
#X connect 30 0 14 0;
#X connect 31 0 18 0;
#X connect 35 0 15 1;
#X connect 36 0 26 0;
#X connect 36 0 48 0;
#X connect 36 1 27 0;
#X connect 36 1 49 0;
#X connect 37 0 15 0;
#X connect 38 0 15 0;
#X connect 39 0 15 0;
#X connect 40 0 15 0;
#X connect 41 0 35 0;
#X connect 42 0 44 0;
#X connect 43 0 7 0;
#X connect 43 1 19 0;
#X connect 44 0 43 0;
#X connect 44 0 53 0;
#X connect 46 0 54 0;
#X connect 47 0 55 0;
#X connect 48 0 50 0;
#X connect 49 0 51 0;
#X connect 50 0 52 0;
#X connect 51 0 52 0;
#X connect 54 0 52 0;
#X connect 55 0 52 0;
#X restore 166 23 pd harmonia2;
#N canvas 0 0 480 451 harmonia3 0;
#X obj 151 69 inlet nota;
#N canvas 0 0 450 300 pergunta 0;
#X obj 92 28 inlet;
#X obj 97 224 outlet;
#X restore 151 156 pd pergunta se a nota esta em determinada escala
;
#X floatatom 151 194 5 0 0 0 - - -;
#X floatatom 151 114 5 0 0 0 - - -;
#X text 193 196 nota a ser harmonizada;
#X text 31 11 harmonizador tonal : ciclos de acordes formando um frase
tonal harmonica;
#X obj 151 231 counter 4;
#X text 223 231 tamanho do ciclo ( 4 = I ii V I );
#X obj 58 298 random 2;
#X obj 58 332 sel 0 1;
#N canvas 0 0 450 300 I 0;
#X obj 80 22 inlet;
#X restore 58 379 pd I;
#N canvas 0 0 450 300 vi 0;
#X obj 81 24 inlet;
#X restore 77 358 pd vi;
#X obj 128 298 random 2;
#X obj 128 332 sel 0 1;
#N canvas 0 0 450 300 ii 0;
#X obj 80 22 inlet;
#X restore 128 379 pd ii;
#N canvas 0 0 450 300 IV 0;
#X obj 81 24 inlet;
#X restore 147 358 pd IV;
#X obj 195 298 random 2;
#X obj 195 332 sel 0 1;
#X obj 265 298 random 2;
#X obj 265 332 sel 0 1;
#N canvas 0 0 450 300 V 0;
#X obj 80 22 inlet;
#X restore 195 379 pd V;
#N canvas 0 0 450 300 vii 0;
#X obj 81 24 inlet;
#X restore 214 358 pd vii;
#N canvas 0 0 450 300 I 0;
#X obj 81 24 inlet;
#X restore 284 358 pd I;
#N canvas 0 0 450 300 vi 0;
#X obj 80 22 inlet;
#X restore 265 379 pd vi;
#X connect 0 0 3 0;
#X connect 1 0 2 0;
#X connect 2 0 6 0;
#X connect 3 0 1 0;
#X connect 6 0 8 0;
#X connect 6 1 12 0;
#X connect 6 2 16 0;
#X connect 6 3 18 0;
#X connect 8 0 9 0;
#X connect 9 0 10 0;
#X connect 9 1 11 0;
#X connect 12 0 13 0;
#X connect 13 0 14 0;
#X connect 13 1 15 0;
#X connect 16 0 17 0;
#X connect 17 0 20 0;
#X connect 17 1 21 0;
#X connect 18 0 19 0;
#X connect 19 0 23 0;
#X connect 19 1 22 0;
#X restore 107 399 pd harmonia3;
#X obj 94 -5 inlet nota;
#X obj 635 22 inlet cenario;
#X obj 70 326 outlet~;
#X obj 183 262 line~;
#X obj 210 211 sel 0;
#X msg 183 237 0 300;
#X obj 166 287 *~;
#X obj 49 276 line~;
#X obj 76 225 sel 0;
#X msg 49 251 0 300;
#X obj 32 301 *~;
#X msg 236 237 1 300;
#X obj 281 58 tgl 15 0 empty empty empty 17 7 0 10 -262144 -1 -1 0
1;
#X obj 307 59 tgl 15 0 empty empty empty 17 7 0 10 -262144 -1 -1 0
1;
#X msg 102 251 0.5 300;
#X obj 502 103 cnv 15 195 95 empty empty sinc-harmonia 20 12 0 14 -262130
-66577 0;
#X obj 630 122 tgl 30 0 empty empty empty 17 7 0 10 -204800 -1 -1 0
1;
#X obj 666 122 tgl 30 0 empty empty empty 17 7 0 10 -204786 -1 -1 0
1;
#X symbolatom 353 422 7 0 0 0 - - -;
#X msg 353 447 label \$1;
#X obj 353 471 s \$0-acorde;
#X obj 548 173 cnv 15 50 25 empty \$0-acorde alt 20 12 0 14 -262130
-66577 0;
#X msg 480 448 label \$1;
#X obj 511 170 cnv 15 10 10 empty \$0-tonica C 20 12 0 30 -262130 -66577
0;
#X obj 480 471 s \$0-tonica;
#N canvas 828 413 450 300 pitch 0;
#X obj 162 12 inlet;
#X obj 162 46 sel 0 1 2 3 4 5 6 7 8 9 10 11;
#X msg 74 114 C;
#X msg 103 113 C#;
#X msg 132 115 D;
#X msg 163 115 D#;
#X msg 195 116 E;
#X msg 227 116 F;
#X msg 258 115 F#;
#X msg 289 114 G;
#X msg 318 113 G#;
#X msg 349 115 A;
#X msg 381 118 Bb;
#X msg 414 118 B;
#X obj 241 243 outlet;
#X obj 58 87 bng 15 250 50 0 empty empty empty 17 7 0 10 -262144 -1
-1;
#X connect 0 0 1 0;
#X connect 1 0 2 0;
#X connect 1 0 15 0;
#X connect 1 1 3 0;
#X connect 1 2 4 0;
#X connect 1 3 5 0;
#X connect 1 4 6 0;
#X connect 1 5 7 0;
#X connect 1 6 8 0;
#X connect 1 7 9 0;
#X connect 1 8 10 0;
#X connect 1 9 11 0;
#X connect 1 10 12 0;
#X connect 1 11 13 0;
#X connect 2 0 14 0;
#X connect 3 0 14 0;
#X connect 4 0 14 0;
#X connect 5 0 14 0;
#X connect 6 0 14 0;
#X connect 7 0 14 0;
#X connect 8 0 14 0;
#X connect 9 0 14 0;
#X connect 10 0 14 0;
#X connect 11 0 14 0;
#X connect 12 0 14 0;
#X connect 13 0 14 0;
#X restore 480 403 pd pitch;
#X obj 467 379 pitch;
#X obj 480 425 list2symbol;
#X obj 353 399 list2symbol;
#X connect 0 0 13 0;
#X connect 0 1 31 0;
#X connect 0 2 29 0;
#X connect 1 0 9 0;
#X connect 1 1 29 0;
#X connect 1 2 31 0;
#X connect 3 0 0 0;
#X connect 3 0 1 0;
#X connect 6 0 9 1;
#X connect 7 0 8 0;
#X connect 7 1 14 0;
#X connect 8 0 6 0;
#X connect 9 0 5 0;
#X connect 10 0 13 1;
#X connect 11 0 12 0;
#X connect 11 1 17 0;
#X connect 12 0 10 0;
#X connect 13 0 5 0;
#X connect 14 0 6 0;
#X connect 15 0 11 0;
#X connect 16 0 7 0;
#X connect 17 0 10 0;
#X connect 19 0 11 0;
#X connect 20 0 7 0;
#X connect 21 0 22 0;
#X connect 22 0 23 0;
#X connect 25 0 27 0;
#X connect 28 0 30 0;
#X connect 29 2 28 0;
#X connect 30 0 25 0;
#X connect 31 0 21 0;
#X coords 0 -1 1 1 200 100 1 500 100;
