#N canvas 278 24 932 686 10;
#X floatatom 241 311 5 0 0 0 - - -;
#X obj 214 150 moses;
#X obj 241 194 moses;
#X floatatom 214 127 5 0 0 0 - - -;
#X obj 214 102 / 100;
#X obj 214 56 metro 300;
#X obj 214 34 tgl 15 0 empty empty empty 17 7 0 10 -262144 -1 -1 0
1;
#X floatatom 340 72 5 0 0 0 - - -;
#X floatatom 345 102 5 0 0 0 - - -;
#X floatatom 241 242 5 0 0 0 - - -;
#X obj 214 78 random 200;
#X text 387 73 min offset;
#X text 391 104 max offset;
#X obj 241 282 sinc-escala-linear 0 1 -4 4;
#N canvas 0 0 450 300 (subpatch) 0;
#X array \$0-array 4 float 3;
#A 0 0.685722 0.385719 -0.0571436 0.142859;
#X coords 0 1000 4 -100 200 140 1;
#X restore 567 349 graph;
#X connect 1 1 2 0;
#X connect 2 0 9 0;
#X connect 3 0 1 0;
#X connect 4 0 3 0;
#X connect 5 0 10 0;
#X connect 6 0 5 0;
#X connect 7 0 1 1;
#X connect 8 0 2 1;
#X connect 9 0 13 0;
#X connect 10 0 4 0;
#X connect 13 0 0 0;
