#N canvas 344 24 450 513 10;
#X obj 56 152 random 100;
#X obj 261 152 random 100;
#X obj 56 71 metro 500;
#X obj 56 49 tgl 15 0 empty empty empty 17 7 0 10 -262144 -1 -1 0 1
;
#X floatatom 56 184 5 0 0 0 - - -;
#X floatatom 261 183 5 0 0 0 - - -;
#X obj 56 252 print pitch1;
#X obj 261 252 print pitch2;
#X obj 77 221 s pitch1;
#X obj 276 216 s pitch2;
#X msg 159 45 seed 40;
#X msg 261 65 seed 20;
#X msg 178 72 seed 50;
#X obj 159 178 print seed;
#X obj 53 390 makenote 80 300;
#X obj 53 444 noteout 1;
#X obj 53 317 r pitch1;
#X obj 263 390 makenote 80 300;
#X obj 263 444 noteout 2;
#X obj 263 327 r pitch2;
#X obj 53 354 % 12;
#X obj 263 362 % 12;
#X connect 0 0 4 0;
#X connect 1 0 5 0;
#X connect 2 0 0 0;
#X connect 2 0 1 0;
#X connect 3 0 2 0;
#X connect 4 0 6 0;
#X connect 4 0 8 0;
#X connect 5 0 7 0;
#X connect 5 0 9 0;
#X connect 10 0 0 0;
#X connect 10 0 13 0;
#X connect 11 0 1 0;
#X connect 11 0 13 0;
#X connect 12 0 1 0;
#X connect 12 0 13 0;
#X connect 12 0 0 0;
#X connect 14 0 15 0;
#X connect 14 1 15 1;
#X connect 16 0 20 0;
#X connect 17 0 18 0;
#X connect 17 1 18 1;
#X connect 19 0 21 0;
#X connect 20 0 14 0;
#X connect 21 0 17 0;
