#N canvas 419 55 802 610 24;
#X obj 292 380 vline~;
#X msg 292 278 0 \, 1 5 0 \, 0 50 10;
#X obj 83 433 *~;
#X obj 84 484 dac~;
#X msg 318 322 0 \, 1 2000 0 \, 0 200 2200;
#X obj 375 91 metro;
#X obj 375 136 random 1000;
#X obj 333 21 tgl 15 0 empty empty empty 17 7 0 10 -262144 -1 -1 1
1;
#X obj 82 220 +~;
#X obj 465 399 metro 100;
#X obj 465 374 tgl 15 0 empty empty empty 17 7 0 10 -262144 -1 -1 1
1;
#N canvas 0 0 450 300 (subpatch) 0;
#X array \$0-array1 100 float 3;
#A 0 0 0 0 0 0 0 0 0 0 0 0 0 0 0 0 0 0 0 0 0 0 0 0 0 0 0 0 0 0 0 0
0 0 0 0 0 0 0 0 0 0 0 0 0 0 0 0 0 0 0 0 0 0 0 0 0 0 0 0 0 0 0 0 0 0
0 0 0 0 0 0 0 0 0 0 0 0 0 0 0 0 0 0 0 0 0 0 0 0 0 0 0 0 0 0 0 0 0 0
0;
#X coords 0 1 99 -1 200 140 1;
#X restore 523 -20 graph;
#X obj 82 166 *~;
#X floatatom 200 188 5 0 0 0 - - -;
#X obj 292 232 select 0 1;
#X obj 292 195 random 2;
#X floatatom 82 61 5 0 0 0 - - -;
#X obj 82 22 random 100;
#X obj 465 440 tabwrite~ \$0-array1;
#X obj 266 -60 inlet;
#X obj 266 44 switch~;
#X obj 266 20 tgl 15 0 empty empty empty 17 7 0 10 -262144 -1 -1 1
1;
#X obj 266 -19 t f f;
#X obj 380 -37 tgl 15 0 empty empty empty 17 7 0 10 -262144 -1 -1 1
1;
#X obj 83 287 phasor~ 400;
#X obj 82 104 phasor~;
#X obj 83 367 clip~ -1 1;
#X obj 83 326 *~ 5;
#X obj 249 471 vd~ \$0-delay;
#X obj 485 217 delwrite~ \$0-delay 2;
#X obj 143 149 *~ 500;
#X connect 0 0 2 1;
#X connect 0 0 28 0;
#X connect 1 0 0 0;
#X connect 2 0 3 0;
#X connect 2 0 3 1;
#X connect 2 0 18 0;
#X connect 4 0 0 0;
#X connect 5 0 6 0;
#X connect 5 0 17 0;
#X connect 5 0 15 0;
#X connect 6 0 5 1;
#X connect 6 0 13 0;
#X connect 7 0 5 0;
#X connect 7 0 10 0;
#X connect 8 0 24 0;
#X connect 9 0 18 0;
#X connect 10 0 9 0;
#X connect 12 0 8 0;
#X connect 13 0 8 1;
#X connect 14 0 1 0;
#X connect 14 1 4 0;
#X connect 15 0 14 0;
#X connect 16 0 25 0;
#X connect 17 0 16 0;
#X connect 19 0 22 0;
#X connect 21 0 20 0;
#X connect 22 0 21 0;
#X connect 22 1 7 0;
#X connect 23 0 22 0;
#X connect 24 0 27 0;
#X connect 25 0 12 0;
#X connect 26 0 29 0;
#X connect 27 0 26 0;
#X connect 28 0 2 0;
#X connect 28 0 30 0;
#X connect 30 0 12 1;
