#N canvas 272 24 616 643 24;
#X obj 113 253 osc~;
#X obj 114 308 *~;
#X obj 303 210 vline~;
#X msg 303 167 0 \, 1 5 0 \, 0 50 10;
#X obj 63 602 dac~;
#X floatatom 113 209 5 0 0 0 - - -;
#X obj 113 169 mtof;
#X obj 113 127 random 127;
#X obj 303 20 metro;
#X obj 303 -2 tgl 15 0 empty empty empty 17 7 0 10 -262144 -1 -1 1
1;
#X obj 303 109 random 1000;
#X obj 143 600 delwrite~ \$0-delay 500;
#X obj 153 434 vd~ \$0-delay;
#X obj 152 395 sig~;
#X floatatom 152 354 5 0 0 0 - - -;
#X obj 115 536 +~;
#X obj 153 496 *~;
#X obj 195 474 hsl 128 15 0 1 0 0 empty empty empty -2 -8 0 10 -262144
-1 -1 7700 1;
#X connect 0 0 1 0;
#X connect 1 0 15 0;
#X connect 2 0 1 1;
#X connect 3 0 2 0;
#X connect 5 0 0 0;
#X connect 6 0 5 0;
#X connect 7 0 6 0;
#X connect 8 0 7 0;
#X connect 8 0 10 0;
#X connect 9 0 8 0;
#X connect 10 0 8 1;
#X connect 10 0 3 0;
#X connect 12 0 16 0;
#X connect 13 0 12 0;
#X connect 14 0 13 0;
#X connect 15 0 11 0;
#X connect 15 0 4 0;
#X connect 15 0 4 1;
#X connect 16 0 15 1;
#X connect 17 0 16 1;
