#N canvas 270 38 977 662 10;
#X obj 15 204 sinc-loop_slave;
#X msg 188 141 livre \$1;
#X obj 188 119 tgl 15 0 empty empty empty 17 7 0 10 -262144 -1 -1 0
1;
#X obj 248 118 tgl 15 0 empty empty empty 17 7 0 10 -262144 -1 -1 0
1;
#X msg 248 140 tempo \$1;
#X obj 161 -26 sinc-audioin;
#X msg 101 146 Alt_L;
#X obj 101 169 list2symbol;
#X obj 607 206 sinc-loop_master;
#X obj 223 397 sinc-mixer;
#X msg 607 95 livre \$1;
#X obj 607 75 tgl 15 0 empty empty empty 17 7 0 10 -262144 -1 -1 0
1;
#X obj 620 114 tgl 15 0 empty empty empty 17 7 0 10 -262144 -1 -1 0
1;
#X msg 620 134 tempo \$1;
#X obj 685 115 tgl 15 0 empty empty empty 17 7 0 10 -262144 -1 -1 0
1;
#X obj 703 156 tgl 15 0 empty empty empty 17 7 0 10 -262144 -1 -1 0
1;
#X msg 685 134 liga \$1;
#X msg 703 175 reset \$1;
#X obj 304 202 sinc-loop_slave;
#X msg 477 149 livre \$1;
#X obj 477 127 tgl 15 0 empty empty empty 17 7 0 10 -262144 -1 -1 0
1;
#X obj 537 126 tgl 15 0 empty empty empty 17 7 0 10 -262144 -1 -1 0
1;
#X msg 537 148 tempo \$1;
#X msg 390 154 Alt_L;
#X obj 390 177 list2symbol;
#X msg 559 452 2;
#X msg 592 450 0;
#X obj 715 360 tgl 40 0 empty empty empty 17 7 0 10 -258113 -1 -1 0
2;
#X connect 0 0 9 0;
#X connect 1 0 0 2;
#X connect 2 0 1 0;
#X connect 3 0 4 0;
#X connect 4 0 0 2;
#X connect 5 0 0 0;
#X connect 5 1 18 0;
#X connect 6 0 7 0;
#X connect 7 0 0 1;
#X connect 8 0 9 2;
#X connect 10 0 8 0;
#X connect 11 0 10 0;
#X connect 12 0 13 0;
#X connect 13 0 8 0;
#X connect 14 0 16 0;
#X connect 15 0 17 0;
#X connect 16 0 8 0;
#X connect 17 0 8 0;
#X connect 18 0 9 1;
#X connect 19 0 18 2;
#X connect 20 0 19 0;
#X connect 21 0 22 0;
#X connect 22 0 18 2;
#X connect 23 0 24 0;
#X connect 24 0 18 1;
#X connect 25 0 9 4;
#X connect 26 0 9 4;
#X connect 27 0 9 4;
