#N canvas 92 84 1159 632 10;
#X obj 35 54 comment 0 10 helvetica ? 0 0 0 0 figocris@gmail.com;
#X obj 17 15 comment 0 40 Times Sinc-cenario 0 0 0 0 [sinc-cenarios]
;
#X obj 40 98 inlet estabilidade ritmica;
#X text -27 98 entradas:;
#X obj 564 97 inlet amp;
#X text -25 485 saidas:;
#X obj 42 487 outlet gerador ritmico;
#X obj 181 486 outlet gerador melodico;
#X obj 329 488 outlet gerador amplitude;
#X text 250 28 => controla o comportamento do gerador MIDI + sintetizadores
+ harmonizadores;
#X obj 481 488 outlet sintese;
#X text 275 554 obs: 1) fazer o tal indice de permeabilidade melodica
;
#X text 306 571 2) espacialização automática direto;
#X obj 212 98 inlet densidade ritmica;
#X obj 366 97 inlet permeabilidade melodica;
#X text 214 79 [----------------------------------------------------]
;
#X text 267 68 fazer;
#X obj 571 489 outlet harmonizador;
#X obj 694 489 outlet synth_amp;
#X obj 799 488 outlet harm_amp;
#X obj 721 29 inlet timbreid;
#X obj 778 100 cnv 15 330 360 empty empty empty 20 12 0 14 -262130
-66577 0;
#X obj 789 114 keyname;
#X symbolatom 828 182 10 0 0 0 - - -;
#X obj 828 149 spigot;
#X obj 867 128 tgl 15 0 empty empty empty 17 7 0 10 -262144 -1 -1 1
1;
#X text 972 138 switch de cenarios;
#X msg 805 273 1;
#X msg 908 272 0;
#X msg 874 270 1;
#X msg 840 272 0;
#X msg 953 271 1;
#X msg 1071 272 0;
#X msg 1027 273 1;
#X msg 991 272 0;
#X obj 828 204 select Control_L Space Control_R Delete;
#X obj 828 315 tgl 15 0 empty empty empty 17 7 0 10 -262144 -1 -1 1
1;
#X obj 886 316 tgl 15 0 empty empty empty 17 7 0 10 -262144 -1 -1 0
1;
#X obj 970 313 tgl 15 0 empty empty empty 17 7 0 10 -262144 -1 -1 0
1;
#X obj 1028 314 tgl 15 0 empty empty empty 17 7 0 10 -262144 -1 -1
0 1;
#X obj 824 352 s cena1;
#X obj 266 215 r cena1;
#X obj 867 102 r teclado_global3;
#N canvas 25 50 1194 627 cenas 1;
#X obj 45 64 comment 0 10 helvetica ? 0 0 0 0 figocris@gmail.com;
#X obj 27 24 comment 0 40 Times Sinc-cenario 0 0 0 0 [cenas];
#X obj 47 159 inlet estabilidade ritmica;
#X text -20 159 entradas:;
#X obj 569 157 inlet amp;
#X text 12 545 saidas:;
#X obj 47 504 outlet gerador ritmico;
#X obj 202 505 outlet gerador melodico;
#X obj 375 506 outlet gerador amplitude;
#X obj 561 506 outlet sintese;
#X obj 219 159 inlet densidade ritmica;
#X obj 373 158 inlet permeabilidade melodica;
#X text 221 140 [----------------------------------------------------]
;
#X text 274 129 fazer;
#X obj 792 508 outlet harmonizador;
#X obj 673 508 outlet synth_amp;
#X obj 918 507 outlet harm_amp;
#X obj 654 157 inlet timbreid;
#X obj 556 29 inlet liga cena;
#X obj 556 60 tgl 15 0 empty empty empty 17 7 0 10 -262144 -1 -1 1
1;
#X text 120 186 (0 - 1);
#X text 294 189 (0 - 30);
#X text 442 189 (0 - 6);
#X obj 47 215 * 100;
#X floatatom -18 251 5 0 0 0 - - -;
#X obj 47 344 random 2;
#X obj 47 379 sel 0;
#X obj 47 313 bng 15 250 50 0 empty empty empty 17 7 0 10 -262144 -1
-1;
#X obj -40 288 < 70;
#X floatatom -40 323 5 0 0 0 - - -;
#X obj 0 288 > 70;
#X floatatom 0 322 5 0 0 0 - - -;
#X obj 47 248 moses 90;
#X obj 106 358 moses 95;
#X obj 106 389 bng 15 250 50 0 empty empty empty 17 7 0 10 -262144
-1 -1;
#X obj 151 391 bng 15 250 50 0 empty empty empty 17 7 0 10 -262144
-1 -1;
#X obj 47 189 spigot;
#X obj 219 193 spigot;
#X obj 373 191 spigot;
#X obj 569 188 spigot;
#X obj 654 190 spigot;
#X msg 151 411 0;
#X msg 106 414 1;
#X msg 74 415 3;
#X msg 47 415 2;
#X connect 2 0 36 0;
#X connect 4 0 39 0;
#X connect 10 0 37 0;
#X connect 11 0 38 0;
#X connect 17 0 40 0;
#X connect 18 0 19 0;
#X connect 19 0 36 1;
#X connect 19 0 37 1;
#X connect 19 0 38 1;
#X connect 19 0 39 1;
#X connect 19 0 40 1;
#X connect 23 0 24 0;
#X connect 23 0 32 0;
#X connect 24 0 28 0;
#X connect 24 0 30 0;
#X connect 25 0 26 0;
#X connect 26 0 44 0;
#X connect 26 1 43 0;
#X connect 27 0 25 0;
#X connect 28 0 29 0;
#X connect 30 0 31 0;
#X connect 32 0 27 0;
#X connect 32 1 33 0;
#X connect 33 0 34 0;
#X connect 33 1 35 0;
#X connect 34 0 42 0;
#X connect 35 0 41 0;
#X connect 36 0 23 0;
#X connect 41 0 6 0;
#X connect 42 0 6 0;
#X connect 43 0 6 0;
#X connect 44 0 6 0;
#X restore 77 236 pd cenas -----------------------;
#N canvas 66 27 1006 606 cenas 0;
#X obj 45 64 comment 0 10 helvetica ? 0 0 0 0 figocris@gmail.com;
#X obj 27 24 comment 0 40 Times Sinc-cenario 0 0 0 0 [cenas];
#X obj 47 159 inlet estabilidade ritmica;
#X text -20 159 entradas:;
#X obj 569 157 inlet amp;
#X text -30 502 saidas:;
#X obj 37 504 outlet gerador ritmico;
#X obj 202 505 outlet gerador melodico;
#X obj 375 506 outlet gerador amplitude;
#X obj 561 506 outlet sintese;
#X obj 219 159 inlet densidade ritmica;
#X obj 373 158 inlet permeabilidade melodica;
#X text 221 140 [----------------------------------------------------]
;
#X text 274 129 fazer;
#X obj 792 508 outlet harmonizador;
#X obj 673 508 outlet synth_amp;
#X obj 918 507 outlet harm_amp;
#X obj 654 157 inlet timbreid;
#X obj 787 101 inlet liga cena;
#X restore 359 239 pd cenas -----------------------;
#N canvas 0 0 937 381 cenario 0;
#X restore 735 546 pd cenario primitivo_entender;
#X text 89 118 (0 - 1);
#X text 245 118 (0 - 30);
#X text 391 115 (0 - 6);
#X text 556 77 conferir a saída do \$0-amp_attack;
#X text 730 9 falta;
#X text 572 115 (0 - 100);
#X connect 2 0 43 0;
#X connect 4 0 43 4;
#X connect 13 0 43 1;
#X connect 14 0 43 2;
#X connect 22 1 24 0;
#X connect 23 0 35 0;
#X connect 24 0 23 0;
#X connect 25 0 24 1;
#X connect 27 0 36 0;
#X connect 28 0 37 0;
#X connect 29 0 37 0;
#X connect 30 0 36 0;
#X connect 31 0 38 0;
#X connect 32 0 39 0;
#X connect 33 0 39 0;
#X connect 34 0 38 0;
#X connect 35 0 27 0;
#X connect 35 0 28 0;
#X connect 35 0 34 0;
#X connect 35 0 32 0;
#X connect 35 1 29 0;
#X connect 35 1 30 0;
#X connect 35 1 34 0;
#X connect 35 1 32 0;
#X connect 35 2 31 0;
#X connect 35 2 30 0;
#X connect 35 2 28 0;
#X connect 35 2 32 0;
#X connect 35 3 33 0;
#X connect 35 3 30 0;
#X connect 35 3 28 0;
#X connect 35 3 34 0;
#X connect 36 0 40 0;
#X connect 41 0 43 3;
#X connect 42 0 25 0;
#X connect 43 0 6 0;
#X connect 43 1 7 0;
#X connect 43 2 8 0;
#X connect 43 3 10 0;
#X connect 43 4 17 0;
#X connect 43 5 18 0;
#X connect 43 6 19 0;
