#N canvas 126 43 963 687 10;
#N canvas 490 199 598 338 (subpatch) 0;
#X array \$0-array1 2e+06 float 2;
#X coords 0 1 2e+06 -1 200 140 1;
#X restore -10 511 graph;
#X obj 571 133 f;
#X obj 621 133 + 1;
#X floatatom 571 167 5 0 0 0 - - -;
#X obj 571 213 sel 5;
#X obj 701 192 cnv 15 175 31 empty \$0-status gravando 20 12 0 40 -233017
-66577 0;
#X msg 788 573 label \$1;
#X msg 788 438 gravando;
#X obj 788 478 list2symbol;
#X obj 788 548 spigot;
#X msg 854 444 parado;
#X msg 68 280 start;
#X msg 133 282 stop;
#X obj 110 23 keyname;
#X obj 149 78 del 2;
#X obj 105 116 spigot;
#X obj 105 140 bng 15 250 50 0 empty empty empty 17 7 0 10 -262144
-1 -1;
#X obj 105 164 sinc-alternate;
#X obj 105 186 bng 15 250 50 0 empty empty empty 17 7 0 10 -262144
-1 -1;
#X obj 186 202 bng 15 250 50 0 empty empty empty 17 7 0 10 -262144
-1 -1;
#X msg 804 521 1;
#X msg 855 521 0;
#X obj 788 376 t b b;
#X obj 702 433 spigot;
#X msg 720 407 1;
#X msg 752 407 0;
#X obj 352 120 t b b;
#X obj 352 152 timer;
#X floatatom 352 176 7 0 0 0 - - -;
#X obj 352 199 * 44.1;
#X floatatom 352 225 7 0 0 0 - - -;
#X text 359 240 numero de samples gravados;
#X obj 352 306 f;
#X obj 401 451 bng 15 250 50 0 empty empty empty 17 7 0 10 -262144
-1 -1;
#X obj 352 269 t b f;
#X msg 200 368 stop;
#X obj 571 291 spigot;
#X msg 578 265 1;
#X msg 627 266 0;
#X msg 352 329 10 \$1;
#X obj 456 594 spigot;
#X obj 489 565 tgl 15 0 empty \$0-loop_notempo loop_on/off 17 7 0 10
-262144 -1 -1 0 1;
#X obj 456 532 spigot;
#X msg 448 495 1;
#X obj 489 427 t b b;
#X msg 489 494 0;
#X text 712 332 vizualização;
#X obj 105 222 s \$0-on;
#X obj 186 231 s \$0-off;
#X obj 68 313 tabwrite~ \$0-array1;
#X obj 200 410 tabplay~ \$0-array1;
#X obj 352 52 r \$0-grava;
#X obj 372 81 r \$0-off;
#X obj 251 262 r \$0-loop;
#X obj 200 346 r \$0-on;
#X obj 456 620 s \$0-loop;
#X obj 586 192 s \$0-conta;
#X obj 578 243 r \$0-on;
#X obj 627 243 r \$0-off;
#X obj 571 312 s \$0-grava;
#X obj 702 354 r \$0-conta;
#X obj 788 352 r \$0-grava;
#X obj 720 380 r \$0-on;
#X obj 854 421 r \$0-off;
#X obj 855 499 r \$0-off;
#X obj 804 499 r \$0-on;
#X obj 788 596 s \$0-status;
#X obj 328 617 s \$0-loopb;
#X obj 284 220 r \$0-loopb;
#X obj 328 591 spigot;
#X obj 361 565 tgl 15 0 empty \$0-loop_free loop_on/off 17 7 0 10 -262144
-1 -1 0 1;
#X text 498 400 começa a ler o loop no tempo;
#X text 498 408 do metronomo;
#X text 259 526 leitura do loop;
#X text 259 537 sem metronomo;
#X obj 68 251 r \$0-grava;
#X obj 571 74 r global;
#X obj 200 487 *~;
#X obj 104 340 r \$0-grava;
#X msg 104 362 0;
#X obj 47 349 r \$0-off;
#X msg 47 372 1;
#X obj 199 444 *~;
#X obj 237 449 hsl 128 30 0 1 0 0 empty \$0-vol_loop empty -2 -8 0
10 -261234 -1 -1 0 1;
#X msg 636 97 1;
#X obj 636 74 r \$0-on;
#X obj 149 50 sel Control_R;
#X obj 706 125 tgl 15 0 \$0-loop_free empty empty 17 7 0 10 -262144
-1 -1 0 1;
#X text 725 123 loop livre;
#X obj 706 142 tgl 15 0 \$0-loop_notempo empty empty 17 7 0 10 -262144
-1 -1 0 1;
#X text 725 140 loop no tempo;
#X obj 729 164 hsl 128 20 0 1 0 0 empty \$0-vol_loop volume 10 10 0
15 -261234 -1 -1 0 1;
#X obj -20 32 inlet~;
#X obj 224 13 inlet;
#X text -6 49 entrada de áudio;
#X text 267 14 define qual;
#X text 267 25 tecla aciona esse;
#X text 266 37 loop;
#X obj 706 13 inlet;
#X obj 706 69 route livre tempo;
#X obj 201 513 outlet~;
#X connect 1 0 2 0;
#X connect 1 0 3 0;
#X connect 2 0 1 1;
#X connect 3 0 4 0;
#X connect 3 0 44 0;
#X connect 3 0 56 0;
#X connect 4 0 36 0;
#X connect 6 0 66 0;
#X connect 7 0 8 0;
#X connect 8 0 9 0;
#X connect 9 0 6 0;
#X connect 10 0 8 0;
#X connect 11 0 49 0;
#X connect 12 0 49 0;
#X connect 13 0 15 1;
#X connect 13 1 86 0;
#X connect 14 0 15 0;
#X connect 15 0 16 0;
#X connect 16 0 17 0;
#X connect 17 0 18 0;
#X connect 17 1 19 0;
#X connect 18 0 47 0;
#X connect 19 0 12 0;
#X connect 19 0 48 0;
#X connect 20 0 9 1;
#X connect 21 0 9 1;
#X connect 22 0 7 0;
#X connect 22 1 25 0;
#X connect 23 0 8 0;
#X connect 24 0 23 1;
#X connect 25 0 23 1;
#X connect 26 0 27 0;
#X connect 26 1 27 1;
#X connect 27 0 28 0;
#X connect 28 0 29 0;
#X connect 29 0 30 0;
#X connect 30 0 34 0;
#X connect 32 0 39 0;
#X connect 33 0 43 0;
#X connect 33 0 69 0;
#X connect 34 0 32 0;
#X connect 34 1 32 1;
#X connect 35 0 50 0;
#X connect 36 0 59 0;
#X connect 37 0 36 1;
#X connect 38 0 36 1;
#X connect 39 0 50 0;
#X connect 40 0 55 0;
#X connect 41 0 40 1;
#X connect 42 0 40 0;
#X connect 43 0 42 1;
#X connect 44 0 45 0;
#X connect 44 1 42 0;
#X connect 45 0 42 1;
#X connect 50 0 82 0;
#X connect 50 1 33 0;
#X connect 51 0 26 0;
#X connect 52 0 26 0;
#X connect 53 0 32 0;
#X connect 54 0 35 0;
#X connect 57 0 37 0;
#X connect 58 0 38 0;
#X connect 60 0 23 0;
#X connect 61 0 22 0;
#X connect 62 0 24 0;
#X connect 63 0 10 0;
#X connect 64 0 21 0;
#X connect 65 0 20 0;
#X connect 68 0 32 0;
#X connect 69 0 67 0;
#X connect 70 0 69 1;
#X connect 75 0 11 0;
#X connect 76 0 1 0;
#X connect 77 0 100 0;
#X connect 78 0 79 0;
#X connect 79 0 77 1;
#X connect 80 0 81 0;
#X connect 81 0 77 1;
#X connect 82 0 77 0;
#X connect 83 0 82 1;
#X connect 84 0 1 1;
#X connect 85 0 84 0;
#X connect 86 0 14 0;
#X connect 92 0 49 0;
#X connect 93 0 86 1;
#X connect 98 0 99 0;
#X connect 99 0 87 0;
#X connect 99 1 89 0;
#X coords 0 -1 1 1 180 125 1 700 100;
