#N canvas 298 88 832 364 10;
#X obj 205 -45 inlet;
#X obj 46 131 loadbang;
#X floatatom 50 84 5 0 0 0 - - -;
#X text 327 287 i;
#X text 394 224 bII;
#X text 449 159 iv;
#X text 474 139 v;
#X text 495 120 V;
#X text 510 102 VI;
#X text 532 82 VII;
#X msg 46 163 60;
#X floatatom 139 129 5 0 0 0 - - -;
#X obj 50 53 receive tonalidade;
#X obj 46 193 send tonalidade;
#X obj 430 63 sinc-chord 11 2 5 8;
#X obj 225 263 sinc-chord 0 5 7 10;
#X obj 246 243 sinc-chord 2 5 8 12;
#X obj 307 180 sinc-chord 4 7 10 1;
#X obj 328 159 sinc-chord 5 8 0 3;
#X obj 348 139 sinc-chord 7 10 2 5;
#X obj 369 119 sinc-chord 7 11 2 8;
#X obj 389 99 sinc-chord 8 0 3 7;
#X obj 410 81 sinc-chord 10 2 5 8;
#X obj 205 283 sinc-chord 0 3 7 10;
#X obj 266 222 sinc-chord 1 5 8 12;
#X obj 287 201 sinc-chord 3 7 10 14;
#X text 552 65 vii dim;
#X text 434 179 iii dim;
#X text 411 202 III 7M;
#X text 370 245 ii 5b7m;
#X text 351 263 I sus;
#N canvas 359 311 450 300 testes 0;
#X msg 216 50 i;
#X obj 193 140 unpack s;
#X msg 247 49 iv;
#X msg 185 52 V;
#X msg 62 56 sus;
#X msg 127 54 ii;
#X msg 97 54 bII;
#X msg 155 53 III;
#X msg 22 58 iii#;
#X msg 213 16 vii;
#X obj 275 132 unpack f f f f;
#X obj 274 181 abs-sampler-chordosc;
#X obj 275 216 outlet~;
#X floatatom 391 159 5 0 0 0 - - -;
#X connect 0 0 1 0;
#X connect 2 0 1 0;
#X connect 3 0 1 0;
#X connect 4 0 1 0;
#X connect 5 0 1 0;
#X connect 6 0 1 0;
#X connect 7 0 1 0;
#X connect 8 0 1 0;
#X connect 9 0 1 0;
#X connect 10 0 11 0;
#X connect 10 1 11 1;
#X connect 10 2 11 2;
#X connect 10 3 11 3;
#X connect 11 0 12 0;
#X connect 13 0 11 4;
#X restore 746 215 pd testes;
#X obj 205 3 sel i sus ii bII III iii# iv v V VI VII vii I;
#X obj 451 44 sinc-chord 0 4 7 12;
#X text 574 44 I;
#X obj 253 -46 r novo_acorde;
#X obj 253 -25 unpack s;
#X connect 0 0 32 0;
#X connect 1 0 10 0;
#X connect 10 0 13 0;
#X connect 11 0 13 0;
#X connect 12 0 2 0;
#X connect 32 0 23 0;
#X connect 32 1 15 0;
#X connect 32 2 16 0;
#X connect 32 3 24 0;
#X connect 32 4 25 0;
#X connect 32 5 17 0;
#X connect 32 6 18 0;
#X connect 32 7 19 0;
#X connect 32 8 20 0;
#X connect 32 9 21 0;
#X connect 32 10 22 0;
#X connect 32 11 14 0;
#X connect 32 12 33 0;
#X connect 35 0 36 0;
#X connect 36 0 32 0;
