#N canvas 93 24 1087 850 24;
#X obj 14 91 keyname;
#X symbolatom 106 231 10 0 0 0 - - -;
#X obj 66 330 bng 15 250 50 0 empty empty empty 17 7 0 10 -262144 -1
-1;
#X floatatom 11 236 5 0 0 0 - - -;
#X obj -6 288 spigot;
#X obj -6 337 bng 15 250 50 0 empty empty empty 17 7 0 10 -262144 -1
-1;
#X floatatom -6 401 5 0 0 0 - - -;
#N canvas 5 160 450 300 selects 0;
#X obj 35 252 outlet;
#X msg 20 211 1;
#X msg 123 210 0;
#X msg 89 208 1;
#X msg 55 210 0;
#X msg 168 209 1;
#X msg 286 210 0;
#X msg 242 211 1;
#X msg 206 210 0;
#X obj 95 252 outlet;
#X obj 185 252 outlet;
#X obj 245 252 outlet;
#X obj 118 46 sel 0 1 2 3;
#X obj 118 12 inlet;
#X connect 1 0 0 0;
#X connect 2 0 9 0;
#X connect 3 0 9 0;
#X connect 4 0 0 0;
#X connect 5 0 10 0;
#X connect 6 0 11 0;
#X connect 7 0 11 0;
#X connect 8 0 10 0;
#X connect 12 0 1 0;
#X connect 12 0 2 0;
#X connect 12 0 8 0;
#X connect 12 0 6 0;
#X connect 12 1 3 0;
#X connect 12 1 4 0;
#X connect 12 1 8 0;
#X connect 12 1 6 0;
#X connect 12 2 5 0;
#X connect 12 2 4 0;
#X connect 12 2 2 0;
#X connect 12 2 6 0;
#X connect 12 3 7 0;
#X connect 12 3 4 0;
#X connect 12 3 2 0;
#X connect 12 3 8 0;
#X connect 13 0 12 0;
#X restore -6 453 pd selects;
#X obj 133 516 tgl 15 0 empty empty empty 17 7 0 10 -262144 -1 -1 0
1;
#X obj -6 356 counter 3;
#X obj -6 507 tgl 15 0 empty empty empty 17 7 0 10 -262144 -1 -1 0
1;
#X obj 39 515 tgl 15 0 empty empty empty 17 7 0 10 -262144 -1 -1 1
1;
#X obj 85 514 tgl 15 0 empty empty empty 17 7 0 10 -262144 -1 -1 0
1;
#X obj 106 273 select Control_L;
#X obj 42 712 sinctest_fm1;
#X obj 235 693 sinctest_fm2;
#X obj 426 685 sinctest_fmdelay;
#X obj 515 629 sinctest_fmdelay2;
#X text 18 51 seleciona;
#X obj 404 81 keyname;
#X symbolatom 496 221 10 0 0 0 - - -;
#X obj 456 320 bng 15 250 50 0 empty empty empty 17 7 0 10 -262144
-1 -1;
#X floatatom 401 226 5 0 0 0 - - -;
#X obj 384 278 spigot;
#X text 408 41 aciona;
#X obj 496 263 select Space;
#X obj 42 662 spigot;
#X obj 235 652 spigot;
#X obj 405 642 spigot;
#X obj 515 588 spigot;
#X floatatom 385 388 5 0 0 0 - - -;
#X obj 384 350 counter 1;
#X obj 148 667 tgl 40 0 empty empty empty 17 7 0 10 -261682 -1 -1 0
1;
#X obj 338 647 tgl 40 0 empty empty empty 17 7 0 10 -261682 -1 -1 0
1;
#X obj 458 587 tgl 40 0 empty empty empty 17 7 0 10 -261682 -1 -1 0
1;
#X obj 618 587 tgl 40 0 empty empty empty 17 7 0 10 -261682 -1 -1 0
1;
#X obj -26 156 spigot;
#X obj 372 156 spigot;
#X obj 316 0 inlet;
#X obj 316 61 tgl 15 0 empty empty empty 17 7 0 10 -262144 -1 -1 0
1;
#X connect 0 0 36 0;
#X connect 0 1 1 0;
#X connect 1 0 13 0;
#X connect 2 0 4 0;
#X connect 3 0 4 1;
#X connect 4 0 5 0;
#X connect 5 0 9 0;
#X connect 6 0 7 0;
#X connect 7 0 10 0;
#X connect 7 1 11 0;
#X connect 7 2 12 0;
#X connect 7 3 8 0;
#X connect 8 0 29 1;
#X connect 9 0 6 0;
#X connect 10 0 26 1;
#X connect 11 0 27 1;
#X connect 12 0 28 1;
#X connect 13 0 2 0;
#X connect 19 0 37 0;
#X connect 19 1 20 0;
#X connect 20 0 25 0;
#X connect 21 0 23 0;
#X connect 22 0 23 1;
#X connect 23 0 31 0;
#X connect 25 0 21 0;
#X connect 26 0 14 0;
#X connect 26 0 32 0;
#X connect 27 0 15 0;
#X connect 27 0 33 0;
#X connect 28 0 16 0;
#X connect 28 0 34 0;
#X connect 29 0 17 0;
#X connect 29 0 35 0;
#X connect 30 0 26 0;
#X connect 30 0 27 0;
#X connect 30 0 28 0;
#X connect 30 0 29 0;
#X connect 31 0 30 0;
#X connect 36 0 3 0;
#X connect 37 0 22 0;
#X connect 38 0 39 0;
#X connect 39 0 36 1;
#X connect 39 0 37 1;
