#N canvas 0 0 570 529 10;
#X obj 300 172 vd~ \$0-delay;
#X obj 300 144 sig~;
#X floatatom 300 116 5 0 0 0 - - -;
#X obj 284 221 *~;
#X obj 381 340 delwrite~ \$0-delay 500;
#X obj 382 282 +~;
#X obj 105 152 hsl 128 15 0 1 0 0 empty empty feedback -2 -8 0 10 -262144
-1 -1 9100 1;
#X obj 397 149 inlet~;
#X floatatom 175 130 5 0 0 2 tempo_de_delay - -;
#X obj 283 320 *~;
#X obj 282 366 dac~;
#X obj 105 182 hsl 128 15 0 1 0 0 empty empty volume -2 -8 0 10 -262144
-1 -1 0 1;
#X connect 0 0 3 1;
#X connect 1 0 0 0;
#X connect 2 0 1 0;
#X connect 3 0 5 0;
#X connect 3 0 9 1;
#X connect 5 0 4 0;
#X connect 6 0 3 0;
#X connect 7 0 5 1;
#X connect 8 0 2 0;
#X connect 9 0 10 0;
#X connect 9 0 10 1;
#X connect 11 0 9 0;
#X coords 0 -1 1 1 160 100 1 100 100;
