#N canvas 759 39 329 500 10;
#X obj 35 16 inlet;
#X obj 35 44 bng 15 250 50 0 empty empty empty 17 7 0 10 -262144 -1
-1;
#X obj -21 138 + \$1;
#X obj 32 134 + \$2;
#X obj 86 136 + \$3;
#X obj 62 78 f;
#X obj 140 137 + \$4;
#X obj -21 314 poly 4 1;
#X msg 59 283 100;
#X obj -21 162 t f b;
#X obj 32 158 t f b;
#X obj 86 158 t f b;
#X obj 140 159 t f b;
#X obj -21 375 route 1 2 3;
#X obj -21 430 makenote 60 100;
#X obj -21 459 noteout 5;
#X obj -21 348 pack 0 0 0;
#X obj 77 36 receive tonalidade;
#X obj 186 296 pack f f f f;
#X obj 186 352 outlet;
#X connect 0 0 1 0;
#X connect 1 0 5 0;
#X connect 2 0 9 0;
#X connect 3 0 10 0;
#X connect 4 0 11 0;
#X connect 5 0 2 0;
#X connect 5 0 3 0;
#X connect 5 0 4 0;
#X connect 5 0 6 0;
#X connect 6 0 12 0;
#X connect 7 0 16 0;
#X connect 7 1 16 1;
#X connect 7 2 16 2;
#X connect 8 0 7 1;
#X connect 9 0 7 0;
#X connect 9 0 18 0;
#X connect 9 1 8 0;
#X connect 10 0 7 0;
#X connect 10 0 18 1;
#X connect 10 1 8 0;
#X connect 11 0 7 0;
#X connect 11 0 18 2;
#X connect 11 1 8 0;
#X connect 12 0 7 0;
#X connect 12 0 18 3;
#X connect 12 1 8 0;
#X connect 13 0 14 0;
#X connect 13 1 14 0;
#X connect 13 2 14 0;
#X connect 14 0 15 0;
#X connect 14 1 15 1;
#X connect 16 0 13 0;
#X connect 17 0 5 1;
#X connect 18 0 19 0;
