#N canvas 36 24 778 454 10;
#X obj 452 105 cnv 15 235 110 empty empty sinc-gera_melodico 15 6 0
14 -262130 -66577 0;
#X obj 325 182 tgl 15 0 empty empty empty 17 7 0 10 -262144 -1 -1 0
1;
#X obj 267 228 nbx 5 14 -1e+37 1e+37 0 0 empty empty empty 0 -8 0 10
-262144 -1 -1 0 256;
#X obj 396 74 tgl 15 0 empty empty empty 17 7 0 10 -262144 -1 -1 0
1;
#X obj 279 125 nbx 5 14 -1e+37 1e+37 0 0 empty empty empty 0 -8 0 10
-262144 -1 -1 0 256;
#X obj 328 336 tgl 15 0 empty empty empty 17 7 0 10 -262144 -1 -1 0
1;
#X obj 211 380 nbx 5 14 -1e+37 1e+37 0 0 empty empty empty 0 -8 0 10
-262144 -1 -1 0 256;
#X obj 363 247 tgl 15 0 empty empty empty 17 7 0 10 -262144 -1 -1 0
1;
#X obj 246 298 nbx 5 14 -1e+37 1e+37 0 0 empty empty empty 0 -8 0 10
-262144 -1 -1 0 256;
#X obj 463 133 tgl 30 0 empty empty normal 5 -6 0 10 -262144 -1 -1
0 1;
#X obj 497 132 tgl 30 0 empty empty empty 5 -6 0 10 -4160 -1 -1 0 1
;
#X obj 531 132 tgl 30 0 empty empty empty 5 -6 0 10 -4032 -1 -1 0 1
;
#X obj 566 132 tgl 30 0 empty empty empty 5 -6 0 10 -4034 -1 -1 0 1
;
#X obj 558 187 nbx 3 30 -1e+37 1e+37 0 0 empty empty empty 0 -8 0 40
-262144 -1 -1 0 256;
#N canvas 383 165 701 291 gerador 0;
#X obj 267 81 probalizer 400 100 127 30 1 0 0 1 0 2 0 3 0 4 0 5 0 6
0 7 0 8 0 9 0 10 0 11 0 12 0 13 0 14 0 15 0 16 0 17 0 18 0 19 0 20
0 21 0 22 0 23 0 24 0 25 0 26 0 27 0 28 0 29 0 30 0 31 0 32 0 33 0
34 0 35 0 36 0 37 0 38 0 39 0 40 0 41 0 42 0 43 0 44 0 45 0 46 0 47
7 48 3 49 13 50 6 51 4 52 11 53 3 54 21 55 14 56 15 57 8 58 3 59 0
60 0 61 0 62 0 63 1 64 0 65 0 66 0 67 0 68 0 69 0 70 2 71 2 72 0 73
0 74 0 75 30 76 30 77 0 78 19 79 2 80 4 81 0 82 0 83 0 84 0 85 0 86
0 87 0 88 0 89 0 90 0 91 0 92 0 93 0 94 0 95 0 96 0 97 0 98 0 99 0
100 0 101 0 102 0 103 0 104 0 105 0 106 0 107 0 108 0 109 0 110 0 111
0 112 0 113 0 114 0 115 0 116 0 117 0 118 0 119 0 120 0 121 0 122 0
123 0 124 0 125 0 126 0;
#X msg 660 230 zero;
#X obj 322 39 r gera_prob;
#X obj 45 153 bng 15 250 50 0 empty empty empty 17 7 0 10 -262144 -1
-1;
#X obj 45 122 spigot;
#X obj 160 47 sel 0 1;
#X msg 160 91 0;
#X msg 179 70 1;
#X obj 45 187 s gera_prob;
#X floatatom 267 227 5 0 0 0 - - -;
#X obj 267 262 outlet;
#X obj 160 22 inlet cenario;
#X obj 660 208 bng 15 250 50 0 empty empty empty 17 7 0 10 -262144
-1 -1;
#X obj 267 13 inlet nota;
#X obj 45 23 inlet pede_nota;
#X connect 0 0 9 0;
#X connect 0 1 12 0;
#X connect 1 0 0 0;
#X connect 2 0 0 0;
#X connect 3 0 8 0;
#X connect 4 0 3 0;
#X connect 5 0 6 0;
#X connect 5 1 7 0;
#X connect 6 0 4 1;
#X connect 7 0 4 1;
#X connect 9 0 10 0;
#X connect 11 0 5 0;
#X connect 12 0 1 0;
#X connect 13 0 0 0;
#X connect 14 0 4 0;
#X restore 267 202 pd gerador melodico1;
#N canvas 20 38 329 438 gerador 0;
#X obj 78 59 inlet;
#X floatatom 78 316 5 0 0 0 - - -;
#X obj 78 369 outlet;
#X obj 78 247 counter 8;
#X obj 78 163 bng 15 250 50 0 empty empty empty 17 7 0 10 -262144 -1
-1;
#X obj 78 132 spigot;
#X obj 140 32 inlet;
#X obj 140 57 sel 0 1;
#X msg 140 101 0;
#X msg 159 80 1;
#X obj 78 278 tabread \$0-nota;
#X connect 0 0 5 0;
#X connect 1 0 2 0;
#X connect 3 0 10 0;
#X connect 4 0 3 0;
#X connect 5 0 4 0;
#X connect 6 0 7 0;
#X connect 7 0 8 0;
#X connect 7 1 9 0;
#X connect 8 0 5 1;
#X connect 9 0 5 1;
#X connect 10 0 1 0;
#X restore 279 98 pd gerador melodico0;
#N canvas 489 24 464 375 gerador 0;
#X obj -102 238 brown-melody 36 84 0.25;
#X msg 107 169 min;
#X msg 145 177 max;
#X obj 244 33 bng 15 250 50 0 empty empty empty 17 7 0 10 -262144 -1
-1;
#X obj 107 288 spigot;
#X msg 140 260 0;
#X msg 171 260 1;
#X obj 210 287 spigot;
#X msg 243 259 0;
#X msg 274 259 1;
#X obj 244 62 t b b b b b b;
#X obj -102 116 spigot;
#X obj 18 29 sel 0 1;
#X msg 3 62 0;
#X msg 37 62 1;
#X obj -102 143 t b b;
#X floatatom -102 275 5 0 0 0 - - -;
#X obj -75 169 s b;
#X obj 244 1 r b;
#X obj -102 82 bng 15 250 50 0 empty empty empty 17 7 0 10 -262144
-1 -1;
#X obj -102 312 outlet;
#X obj 107 210 tabletool \$0-nota;
#X obj 107 310 s \$0-low_note;
#X obj 210 311 s \$0-high_note;
#X obj -57 194 r \$0-low_note;
#X obj -12 215 r \$0-high_note;
#X obj -102 32 inlet pede_nota;
#X obj 18 8 inlet cenario;
#X connect 0 0 16 0;
#X connect 1 0 21 0;
#X connect 2 0 21 0;
#X connect 3 0 10 0;
#X connect 4 0 22 0;
#X connect 5 0 4 1;
#X connect 6 0 4 1;
#X connect 7 0 23 0;
#X connect 8 0 7 1;
#X connect 9 0 7 1;
#X connect 10 0 8 0;
#X connect 10 1 2 0;
#X connect 10 2 9 0;
#X connect 10 3 5 0;
#X connect 10 4 1 0;
#X connect 10 5 6 0;
#X connect 11 0 15 0;
#X connect 12 0 13 0;
#X connect 12 1 14 0;
#X connect 13 0 11 1;
#X connect 14 0 11 1;
#X connect 15 0 0 0;
#X connect 15 1 17 0;
#X connect 16 0 20 0;
#X connect 18 0 3 0;
#X connect 19 0 11 0;
#X connect 21 0 4 0;
#X connect 21 0 7 0;
#X connect 24 0 0 1;
#X connect 25 0 0 2;
#X connect 26 0 19 0;
#X connect 27 0 12 0;
#X restore 246 270 pd gerador melodico2;
#X obj 241 -31 inlet pede nota;
#X obj 513 284 pitch;
#X symbolatom 519 312 7 0 0 0 - - -;
#X msg 519 337 label \$1;
#X obj 519 367 s \$0-nota_saida;
#X obj 463 175 cnv 15 20 20 empty \$0-nota_saida G4 20 12 1 40 -233017
-1 0;
#N canvas 20 38 349 283 gerador 0;
#X obj 108 66 inlet;
#X obj 108 170 bng 15 250 50 0 empty empty empty 17 7 0 10 -262144
-1 -1;
#X obj 108 139 spigot;
#X obj 167 39 inlet;
#X obj 167 64 sel 0 1;
#X msg 167 101 0;
#X msg 198 102 1;
#X obj 108 201 random.integer 20 100;
#X obj 108 247 outlet;
#X connect 0 0 2 0;
#X connect 1 0 7 0;
#X connect 2 0 1 0;
#X connect 3 0 4 0;
#X connect 4 0 5 0;
#X connect 4 1 6 0;
#X connect 5 0 2 1;
#X connect 6 0 2 1;
#X connect 7 0 8 0;
#X restore 211 355 pd gerador melodico3;
#X obj 578 315 outlet pitch-class;
#X obj 116 255 counter 8;
#X obj 141 231 bng 15 250 50 0 empty empty empty 17 7 0 10 -262144
-1 -1;
#N canvas 0 0 450 300 (subpatch) 0;
#X array \$0-nota 8 float 3;
#A 0 77 77 77 77 77 77 77 77;
#X coords 0 127 8 0 90 50 1;
#X restore 599 135 graph;
#X obj 23 277 tabwrite \$0-nota;
#X obj 75 101 f \$0;
#X obj 42 146 symbol;
#X obj 75 77 loadbang;
#X obj 75 125 makefilename %d-nota;
#X obj 23 221 t f b;
#X obj 23 -35 inlet nota;
#X obj 141 -33 inlet reset;
#X obj 42 169 outlet nome do array \$0-nota;
#X obj 463 -17 inlet cenario;
#X obj 558 254 outlet nota saida;
#X obj 23 -5 t f b f;
#X obj 64 52 bng 15 250 50 0 empty empty empty 17 7 0 10 -262144 -1
-1;
#X symbolatom 74 210 10 0 0 0 - - -;
#N canvas 556 382 505 364 select 0;
#X obj 41 267 tgl 30 0 empty empty normal 5 -6 0 10 -262144 -1 -1 0
1;
#X obj 126 269 tgl 30 0 empty empty empty 5 -6 0 10 -257985 -1 -1 0
1;
#X obj 206 265 tgl 30 0 empty empty empty 5 -6 0 10 -260097 -1 -1 0
1;
#X obj 284 270 tgl 30 0 empty empty empty 5 -6 0 10 -258113 -1 -1 0
1;
#X obj 124 70 select 0 1 2 3;
#X msg 77 163 0;
#X msg 133 160 0;
#X msg 179 162 0;
#X msg 221 164 0;
#X obj 124 40 inlet;
#X msg 66 131 1;
#X msg 116 128 1;
#X msg 162 125 1;
#X msg 214 125 1;
#X obj 37 330 outlet;
#X obj 119 327 outlet;
#X obj 196 326 outlet;
#X obj 278 323 outlet;
#X connect 0 0 14 0;
#X connect 1 0 15 0;
#X connect 2 0 16 0;
#X connect 3 0 17 0;
#X connect 4 0 5 0;
#X connect 4 0 10 0;
#X connect 4 1 6 0;
#X connect 4 1 11 0;
#X connect 4 2 7 0;
#X connect 4 2 12 0;
#X connect 4 3 8 0;
#X connect 4 3 13 0;
#X connect 5 0 1 0;
#X connect 5 0 2 0;
#X connect 5 0 3 0;
#X connect 6 0 0 0;
#X connect 6 0 2 0;
#X connect 6 0 3 0;
#X connect 7 0 0 0;
#X connect 7 0 1 0;
#X connect 7 0 3 0;
#X connect 8 0 0 0;
#X connect 8 0 1 0;
#X connect 8 0 2 0;
#X connect 9 0 4 0;
#X connect 10 0 0 0;
#X connect 11 0 1 0;
#X connect 12 0 2 0;
#X connect 13 0 3 0;
#X restore 463 16 pd select;
#X connect 1 0 14 1;
#X connect 2 0 13 0;
#X connect 3 0 15 1;
#X connect 4 0 13 0;
#X connect 5 0 23 1;
#X connect 6 0 13 0;
#X connect 7 0 16 1;
#X connect 8 0 13 0;
#X connect 9 0 3 0;
#X connect 10 0 1 0;
#X connect 11 0 7 0;
#X connect 12 0 5 0;
#X connect 13 0 18 0;
#X connect 13 0 38 0;
#X connect 14 0 2 0;
#X connect 15 0 4 0;
#X connect 16 0 8 0;
#X connect 17 0 15 0;
#X connect 17 0 23 0;
#X connect 17 0 14 0;
#X connect 17 0 16 0;
#X connect 18 1 19 0;
#X connect 18 2 24 0;
#X connect 19 0 20 0;
#X connect 20 0 21 0;
#X connect 23 0 6 0;
#X connect 25 0 28 1;
#X connect 26 0 25 2;
#X connect 29 0 32 0;
#X connect 30 0 36 0;
#X connect 30 0 41 0;
#X connect 31 0 29 0;
#X connect 32 0 30 1;
#X connect 33 0 28 0;
#X connect 33 1 25 0;
#X connect 34 0 39 0;
#X connect 35 0 26 0;
#X connect 37 0 42 0;
#X connect 39 0 33 0;
#X connect 39 1 30 0;
#X connect 39 2 14 2;
#X connect 40 0 30 0;
#X connect 42 0 9 0;
#X connect 42 1 10 0;
#X connect 42 2 11 0;
#X connect 42 3 12 0;
#X coords 0 -1 1 1 240 120 2 450 100;
