#N canvas 0 0 793 368 10;
#X obj 58 13 timer;
#X floatatom 58 42 10 0 0 0 - - -;
#X obj 58 -8 bng 15 250 50 0 empty empty empty 17 7 0 10 -262144 -1
-1;
#X obj 109 -12 bng 15 250 50 0 empty empty empty 17 7 0 10 -262144
-1 -1;
#X obj 58 -95 bng 15 250 50 0 empty empty empty 17 7 0 10 -262144 -1
-1;
#X floatatom 159 25 10 0 0 0 - - -;
#X obj 159 88 bng 15 250 50 0 empty empty empty 17 7 0 10 -262144 -1
-1;
#X obj 210 113 bng 15 250 50 0 empty empty empty 17 7 0 10 -262144
-1 -1;
#X obj 58 75 t f f;
#X obj 58 146 s tempo_calc;
#X obj 85 117 s tempo;
#X obj 159 148 outlet;
#X obj 210 146 outlet;
#X text 210 161 longo;
#X text 158 163 curto;
#X obj 159 54 moses 400;
#X obj 58 -120 receive bong;
#X obj 59 -51 t b b;
#X obj 159 -27 -;
#X obj 174 -59 r mediatempo;
#X obj 159 -87 r tempo_calc;
#X obj 466 66 list-mean;
#X obj 466 -65 serialize 8;
#X obj 466 -90 r tempo;
#X floatatom 466 107 10 0 0 0 - - -;
#X obj 466 146 s mediatempo;
#X obj 598 -37 r mediatempo;
#X obj 551 -6 metro;
#X obj 547 36 bng 50 250 50 0 empty empty empty 17 7 0 10 -262144 -1
-1;
#X text 267 147 a idéia é ter um classificador;
#X text 263 170 de longo e curto que seja;
#X text 266 192 variável ao contexto;
#X obj 565 -50 tgl 15 0 empty empty empty 17 7 0 10 -262144 -1 -1 0
1;
#X connect 0 0 1 0;
#X connect 1 0 8 0;
#X connect 2 0 0 0;
#X connect 3 0 0 1;
#X connect 4 0 17 0;
#X connect 5 0 15 0;
#X connect 6 0 11 0;
#X connect 7 0 12 0;
#X connect 8 0 9 0;
#X connect 8 1 10 0;
#X connect 15 0 6 0;
#X connect 15 1 7 0;
#X connect 16 0 4 0;
#X connect 17 0 2 0;
#X connect 17 1 3 0;
#X connect 18 0 5 0;
#X connect 19 0 18 1;
#X connect 20 0 18 0;
#X connect 21 0 24 0;
#X connect 22 0 21 0;
#X connect 23 0 22 0;
#X connect 24 0 25 0;
#X connect 26 0 27 1;
#X connect 27 0 28 0;
#X connect 32 0 27 0;
