#N canvas 450 24 747 579 10;
#X obj 83 135 musical.closest.note 0 2 4 7 9;
#X obj 83 74 random 127;
#X obj 83 21 tgl 15 0 empty empty empty 17 7 0 10 -262144 -1 -1 0 1
;
#X obj 83 42 metro 500;
#X floatatom 83 104 5 0 0 0 - - -;
#X floatatom 83 251 5 0 0 0 - - -;
#X obj 248 386 % 12;
#X obj 37 383 makenote 80 500;
#X obj 37 418 noteout 2;
#N canvas 217 51 335 381 random 0;
#X obj 138 317 outlet;
#X obj 29 36 inlet random;
#X obj 138 36 inlet filtro;
#X obj 29 223 spigot;
#X obj 138 220 spigot;
#X obj 225 39 inlet chave;
#X obj 225 62 sel 0 1;
#X msg 62 191 0;
#X msg 92 190 1;
#X msg 163 187 0;
#X msg 195 187 1;
#X connect 1 0 3 0;
#X connect 2 0 4 0;
#X connect 3 0 0 0;
#X connect 4 0 0 0;
#X connect 5 0 6 0;
#X connect 6 0 8 0;
#X connect 6 0 9 0;
#X connect 6 1 7 0;
#X connect 6 1 10 0;
#X connect 7 0 3 1;
#X connect 8 0 3 1;
#X connect 9 0 4 1;
#X connect 10 0 4 1;
#X restore 37 340 pd random filtro;
#X obj 130 310 tgl 15 0 empty empty empty 17 7 0 10 -262144 -1 -1 0
1;
#X obj 83 162 + 36;
#N canvas 0 0 450 300 (subpatch) 0;
#X array array1 8 float 3;
#A 0 58.9642 65.3142 68.9428 75.2928 82.5499 86.1785 88.8999 96.157
;
#X coords 0 127 8 0 200 140 1;
#X restore 428 -8 graph;
#X obj 260 -52 tabdump array1;
#X obj 260 -103 bng 15 250 50 0 empty empty empty 17 7 0 10 -262144
-1 -1;
#X msg 260 113 10 5 8 3 10 2 4 0;
#X obj 260 -25 list-drip;
#X obj 260 2 int;
#X obj 260 28 % 12;
#X obj 260 81 prepend add2;
#X obj 260 51 t f b;
#X msg 346 84 set;
#X obj 260 -83 t b b b;
#X obj 134 209 - 60;
#X obj 83 183 moses 115;
#X obj 248 414 prepend add2;
#X msg 248 438 8 8 8 0 2 8 0 0 8 8 8 10 10 10 0 0 10 10 4;
#X obj 248 200 prepend add2;
#X msg 248 224 67 18 32 12 110 80 11 11 31 78 7 21 94 81 11 84 105
69 124;
#X obj 20 141 s rand;
#X obj 94 280 s filtrado;
#X obj 248 176 r rand;
#X obj 248 362 r filtrado;
#X obj 249 293 prepend add2;
#X msg 249 317 104 56 68 48 86 56 48 48 68 56 44 58 70 58 48 60 82
106 100;
#X obj 249 265 r filtrado;
#X text 384 197 gerador randômico;
#X text 385 297 filtragem baseado nas notas do array;
#X text 392 417 filtragem reduzida ao módulo 12;
#X connect 0 0 11 0;
#X connect 1 0 4 0;
#X connect 2 0 3 0;
#X connect 3 0 1 0;
#X connect 4 0 0 0;
#X connect 4 0 9 0;
#X connect 4 0 29 0;
#X connect 5 0 9 1;
#X connect 5 0 30 0;
#X connect 6 0 25 0;
#X connect 7 0 8 0;
#X connect 7 1 8 1;
#X connect 9 0 7 0;
#X connect 10 0 9 2;
#X connect 11 0 24 0;
#X connect 13 0 16 0;
#X connect 14 0 22 0;
#X connect 15 0 0 1;
#X connect 16 0 17 0;
#X connect 17 0 18 0;
#X connect 18 0 20 0;
#X connect 19 0 15 0;
#X connect 20 0 19 0;
#X connect 21 0 15 0;
#X connect 22 0 15 0;
#X connect 22 1 13 0;
#X connect 22 2 21 0;
#X connect 23 0 5 0;
#X connect 24 0 5 0;
#X connect 24 1 23 0;
#X connect 25 0 26 0;
#X connect 27 0 28 0;
#X connect 31 0 27 0;
#X connect 32 0 6 0;
#X connect 33 0 34 0;
#X connect 35 0 33 0;
