#N canvas 224 24 629 650 10;
#X obj 100 471 sinc-midiin;
#X obj 100 412 pack f f;
#X obj -260 0 sinc-teclado;
#X obj -16 259 sinc-gera_melodico;
#X obj 100 389 makenote 80 300;
#X obj 139 237 bng 15 250 50 0 empty empty empty 17 7 0 10 -262144
-1 -1;
#X obj 139 216 metro 300;
#X obj 139 197 tgl 15 0 empty empty empty 17 7 0 10 -262144 -1 -1 0
1;
#X connect 1 0 0 0;
#X connect 2 1 0 1;
#X connect 3 1 4 0;
#X connect 4 0 1 0;
#X connect 4 1 1 1;
#X connect 5 0 3 2;
#X connect 6 0 5 0;
#X connect 7 0 6 0;
