#N canvas 11 24 1246 666 12;
#X obj 42 408 line~;
#X msg 42 380 \$1 100;
#X obj 23 442 *~;
#X obj 42 354 r amp1;
#X obj 84 520 dac~;
#X obj 166 430 line~;
#X msg 166 402 \$1 100;
#X obj 148 461 *~;
#X obj 166 376 r amp2;
#X obj 291 399 line~;
#X msg 291 371 \$1 100;
#X obj 272 435 *~;
#X obj 410 408 line~;
#X msg 410 380 \$1 100;
#X obj 393 438 *~;
#X obj 291 345 r amp3;
#X obj 410 354 r amp4;
#X obj 23 281 sinc-looper;
#X obj 7 -28 comment 0 36 Courier ? 0 0 0 0 [sinc-looper];
#X obj 26 5 comment 0 12 Courier ? 0 0 0 0 figocris@gmail.com;
#X obj 23 44 adc~ 1;
#X obj 277 10 keyname;
#X symbolatom 323 36 10 0 0 0 - - -;
#X obj 323 83 bng 15 250 50 0 empty empty empty 17 7 0 10 -262144 -1
-1;
#X floatatom 277 36 5 0 0 0 - - -;
#X obj 238 61 spigot;
#X obj 238 135 bng 15 250 50 0 empty empty empty 17 7 0 10 -262144
-1 -1;
#X obj 238 154 counter 3;
#X floatatom 238 178 5 0 0 0 - - -;
#N canvas 5 160 450 300 selects 0;
#X obj 35 252 outlet;
#X msg 20 211 1;
#X msg 123 210 0;
#X msg 89 208 1;
#X msg 55 210 0;
#X msg 168 209 1;
#X msg 286 210 0;
#X msg 242 211 1;
#X msg 206 210 0;
#X obj 95 252 outlet;
#X obj 185 252 outlet;
#X obj 245 252 outlet;
#X obj 118 46 sel 0 1 2 3;
#X obj 118 12 inlet;
#X connect 1 0 0 0;
#X connect 2 0 9 0;
#X connect 3 0 9 0;
#X connect 4 0 0 0;
#X connect 5 0 10 0;
#X connect 6 0 11 0;
#X connect 7 0 11 0;
#X connect 8 0 10 0;
#X connect 12 0 1 0;
#X connect 12 0 2 0;
#X connect 12 0 8 0;
#X connect 12 0 6 0;
#X connect 12 1 3 0;
#X connect 12 1 4 0;
#X connect 12 1 8 0;
#X connect 12 1 6 0;
#X connect 12 2 5 0;
#X connect 12 2 4 0;
#X connect 12 2 2 0;
#X connect 12 2 6 0;
#X connect 12 3 7 0;
#X connect 12 3 4 0;
#X connect 12 3 2 0;
#X connect 12 3 8 0;
#X connect 13 0 12 0;
#X restore 238 211 pd selects;
#X obj 238 109 spigot;
#X obj 277 85 tgl 15 0 empty empty empty 17 7 0 10 -262144 -1 -1 1
1;
#X obj 575 18 cnv 15 185 200 empty empty empty 20 12 0 14 -204786 -66577
0;
#X obj 616 26 keyname;
#X symbolatom 662 52 10 0 0 0 - - -;
#X obj 662 99 bng 15 250 50 0 empty empty empty 17 7 0 10 -262144 -1
-1;
#X floatatom 616 52 5 0 0 0 - - -;
#X obj 577 77 spigot;
#X obj 577 103 bng 15 250 50 0 empty empty empty 17 7 0 10 -262144
-1 -1;
#X floatatom 577 146 5 0 0 0 - - -;
#N canvas 5 160 450 300 selects 0;
#X obj 35 252 outlet;
#X msg 20 211 1;
#X msg 123 210 0;
#X msg 89 208 1;
#X msg 55 210 0;
#X msg 168 209 1;
#X msg 286 210 0;
#X msg 242 211 1;
#X msg 206 210 0;
#X obj 95 252 outlet;
#X obj 185 252 outlet;
#X obj 245 252 outlet;
#X obj 118 46 sel 0 1 2 3;
#X obj 118 12 inlet;
#X connect 1 0 0 0;
#X connect 2 0 9 0;
#X connect 3 0 9 0;
#X connect 4 0 0 0;
#X connect 5 0 10 0;
#X connect 6 0 11 0;
#X connect 7 0 11 0;
#X connect 8 0 10 0;
#X connect 12 0 1 0;
#X connect 12 0 2 0;
#X connect 12 0 8 0;
#X connect 12 0 6 0;
#X connect 12 1 3 0;
#X connect 12 1 4 0;
#X connect 12 1 8 0;
#X connect 12 1 6 0;
#X connect 12 2 5 0;
#X connect 12 2 4 0;
#X connect 12 2 2 0;
#X connect 12 2 6 0;
#X connect 12 3 7 0;
#X connect 12 3 4 0;
#X connect 12 3 2 0;
#X connect 12 3 8 0;
#X connect 13 0 12 0;
#X restore 577 179 pd selects;
#X obj 662 75 select Escape;
#X text 683 20 botao ESC;
#X text 617 224 saida 2: switch de geradores(volumes);
#X text 607 207 saida 1: liga/desliga funções looper;
#X text 639 246 saida 3: switch de cenarios;
#N canvas 388 127 786 369 fx 0;
#X obj 211 175 mono-delayfb /key;
#X obj 19 174 mono-FFTreverb /key;
#X obj 71 20 inlet~;
#N canvas 380 220 450 300 fx 0;
#X obj 161 22 inlet;
#X obj 76 38 keyname;
#X symbolatom 122 111 10 0 0 0 - - -;
#X obj 122 163 bng 15 250 50 0 empty empty empty 17 7 0 10 -262144
-1 -1;
#X floatatom 142 173 5 0 0 0 - - -;
#X obj 122 198 spigot;
#X obj 122 225 bng 15 250 50 0 empty empty empty 17 7 0 10 -262144
-1 -1;
#X obj 122 139 select Control_L Space Control_R Delete;
#X obj 187 166 bng 15 250 50 0 empty empty empty 17 7 0 10 -262144
-1 -1;
#X floatatom 207 176 5 0 0 0 - - -;
#X obj 187 201 spigot;
#X obj 187 228 bng 15 250 50 0 empty empty empty 17 7 0 10 -262144
-1 -1;
#X obj 252 163 bng 15 250 50 0 empty empty empty 17 7 0 10 -262144
-1 -1;
#X floatatom 272 173 5 0 0 0 - - -;
#X obj 252 198 spigot;
#X obj 252 225 bng 15 250 50 0 empty empty empty 17 7 0 10 -262144
-1 -1;
#X obj 317 166 bng 15 250 50 0 empty empty empty 17 7 0 10 -262144
-1 -1;
#X floatatom 337 176 5 0 0 0 - - -;
#X obj 317 201 spigot;
#X obj 317 228 bng 15 250 50 0 empty empty empty 17 7 0 10 -262144
-1 -1;
#X obj 122 78 spigot;
#X obj 161 48 tgl 15 0 empty empty empty 17 7 0 10 -262144 -1 -1 0
1;
#X obj 122 264 outlet;
#X obj 187 264 outlet;
#X obj 252 264 outlet;
#X obj 317 264 outlet;
#X connect 0 0 21 0;
#X connect 1 0 4 0;
#X connect 1 0 9 0;
#X connect 1 0 13 0;
#X connect 1 0 17 0;
#X connect 1 1 20 0;
#X connect 2 0 7 0;
#X connect 3 0 5 0;
#X connect 4 0 5 1;
#X connect 5 0 6 0;
#X connect 6 0 22 0;
#X connect 7 0 3 0;
#X connect 7 1 8 0;
#X connect 7 2 12 0;
#X connect 7 3 16 0;
#X connect 8 0 10 0;
#X connect 9 0 10 1;
#X connect 10 0 11 0;
#X connect 11 0 23 0;
#X connect 12 0 14 0;
#X connect 13 0 14 1;
#X connect 14 0 15 0;
#X connect 15 0 24 0;
#X connect 16 0 18 0;
#X connect 17 0 18 1;
#X connect 18 0 19 0;
#X connect 19 0 25 0;
#X connect 20 0 2 0;
#X connect 21 0 20 1;
#X restore 298 11 pd fx switch;
#X obj 298 -14 inlet;
#X obj 20 142 *~;
#X msg 73 94 1 1000;
#X msg 133 97 0 1000;
#X obj 110 66 sel 1;
#X obj 127 38 tgl 15 0 empty empty empty 17 7 0 10 -262144 -1 -1 0
1;
#X obj 73 122 line~;
#X obj 212 152 *~;
#X msg 265 104 1 1000;
#X msg 325 107 0 1000;
#X obj 302 76 sel 1;
#X obj 319 48 tgl 15 0 empty empty empty 17 7 0 10 -262144 -1 -1 0
1;
#X obj 265 132 line~;
#X obj 210 281 *~ 0.9;
#X obj 212 310 dac~;
#X obj 18 271 *~ 0.9;
#X obj 20 300 dac~;
#X connect 0 0 17 0;
#X connect 1 0 19 0;
#X connect 2 0 5 0;
#X connect 2 0 11 0;
#X connect 3 0 9 0;
#X connect 3 1 15 0;
#X connect 4 0 3 0;
#X connect 5 0 1 0;
#X connect 6 0 10 0;
#X connect 7 0 10 0;
#X connect 8 0 6 0;
#X connect 8 1 7 0;
#X connect 9 0 8 0;
#X connect 10 0 5 1;
#X connect 11 0 0 0;
#X connect 12 0 16 0;
#X connect 13 0 16 0;
#X connect 14 0 12 0;
#X connect 14 1 13 0;
#X connect 15 0 14 0;
#X connect 16 0 11 1;
#X connect 17 0 18 0;
#X connect 17 0 18 1;
#X connect 19 0 20 0;
#X connect 19 0 20 1;
#X restore 612 394 pd fx;
#X obj 644 274 tgl 15 0 empty empty empty 17 7 0 10 -262144 -1 -1 0
1;
#X obj 577 122 counter 3;
#X text 605 414 switch de efeitos;
#N canvas 199 36 275 406 volumes 0;
#X obj 39 164 vsl 40 100 0 1 0 0 empty empty empty 0 -9 0 10 -257985
-1 -1 4950 1;
#X obj 83 164 vsl 40 100 0 1 0 0 empty empty empty 0 -9 0 10 -257985
-1 -1 4950 1;
#X obj 127 164 vsl 40 100 0 1 0 0 empty empty empty 0 -9 0 10 -257985
-1 -1 4950 1;
#X obj 171 164 vsl 40 100 0 1 0 0 empty empty empty 0 -9 0 10 -257985
-1 -1 4950 1;
#X obj 39 348 s amp1;
#X obj 83 322 s amp2;
#X obj 127 298 s amp3;
#X obj 171 272 s amp4;
#X obj 171 71 loadbang;
#X msg 171 96 0.5;
#X obj 42 50 hsl 128 15 0 1 0 0 empty empty volume_geral -2 -8 0 10
-260097 -1 -1 0 1;
#X obj 40 11 r vol_loop;
#X connect 0 0 4 0;
#X connect 1 0 5 0;
#X connect 2 0 6 0;
#X connect 3 0 7 0;
#X connect 8 0 9 0;
#X connect 9 0 0 0;
#X connect 9 0 1 0;
#X connect 9 0 2 0;
#X connect 9 0 3 0;
#X connect 10 0 0 0;
#X connect 10 0 1 0;
#X connect 10 0 2 0;
#X connect 10 0 3 0;
#X connect 11 0 10 0;
#X restore 92 44 pd volumes looper;
#N canvas 770 311 418 412 switch 0;
#X obj 42 33 cnv 15 330 360 empty empty empty 20 12 0 14 -262130 -66577
0;
#X obj 46 44 keyname;
#X symbolatom 92 117 10 0 0 0 - - -;
#X obj 92 169 bng 15 250 50 0 empty empty empty 17 7 0 10 -262144 -1
-1;
#X floatatom 118 176 5 0 0 0 - - -;
#X obj 92 204 spigot;
#X obj 92 231 bng 15 250 50 0 empty empty empty 17 7 0 10 -262144 -1
-1;
#X obj 92 145 select Control_L Space Control_R Delete;
#X obj 159 174 bng 15 250 50 0 empty empty empty 17 7 0 10 -262144
-1 -1;
#X floatatom 185 179 5 0 0 0 - - -;
#X obj 159 209 spigot;
#X obj 159 236 bng 15 250 50 0 empty empty empty 17 7 0 10 -262144
-1 -1;
#X obj 227 174 bng 15 250 50 0 empty empty empty 17 7 0 10 -262144
-1 -1;
#X floatatom 254 179 5 0 0 0 - - -;
#X obj 227 209 spigot;
#X obj 227 236 bng 15 250 50 0 empty empty empty 17 7 0 10 -262144
-1 -1;
#X obj 294 173 bng 15 250 50 0 empty empty empty 17 7 0 10 -262144
-1 -1;
#X floatatom 333 183 5 0 0 0 - - -;
#X obj 294 208 spigot;
#X obj 294 235 bng 15 250 50 0 empty empty empty 17 7 0 10 -262144
-1 -1;
#X obj 92 84 spigot;
#X obj 131 63 tgl 15 0 empty empty empty 17 7 0 10 -262144 -1 -1 0
1;
#X obj 92 254 alternate;
#X obj 92 281 bng 15 250 50 0 empty empty empty 17 7 0 10 -262144 -1
-1;
#X obj 152 281 bng 15 250 50 0 empty empty empty 17 7 0 10 -262144
-1 -1;
#X obj 92 338 line;
#X obj 92 367 s vol_loop;
#X msg 92 306 1 1000;
#X msg 152 301 0 1000;
#X text 205 38 switch de geradores;
#X obj 131 37 inlet;
#X text 217 11 ir pra [sinc-mixer];
#X connect 1 0 4 0;
#X connect 1 0 9 0;
#X connect 1 0 13 0;
#X connect 1 0 17 0;
#X connect 1 1 20 0;
#X connect 2 0 7 0;
#X connect 3 0 5 0;
#X connect 4 0 5 1;
#X connect 5 0 6 0;
#X connect 6 0 22 0;
#X connect 7 0 3 0;
#X connect 7 1 8 0;
#X connect 7 2 12 0;
#X connect 7 3 16 0;
#X connect 8 0 10 0;
#X connect 9 0 10 1;
#X connect 10 0 11 0;
#X connect 12 0 14 0;
#X connect 13 0 14 1;
#X connect 14 0 15 0;
#X connect 16 0 18 0;
#X connect 17 0 18 1;
#X connect 18 0 19 0;
#X connect 20 0 2 0;
#X connect 21 0 20 1;
#X connect 22 0 23 0;
#X connect 22 1 24 0;
#X connect 23 0 27 0;
#X connect 24 0 28 0;
#X connect 25 0 26 0;
#X connect 27 0 25 0;
#X connect 28 0 25 0;
#X connect 30 0 21 0;
#X restore 599 446 pd switch geradores;
#X text 880 224 geradores:;
#X text 958 226 1) MIDI;
#X text 959 242 2) Looper;
#X text 959 258 3) Sintese;
#X text 958 274 4) Harmonizador;
#X obj 577 210 tgl 15 0 empty empty empty 17 7 0 10 -262144 -1 -1 1
1;
#X obj 599 232 tgl 15 0 empty empty empty 17 7 0 10 -262144 -1 -1 0
1;
#X obj 621 252 tgl 15 0 empty empty empty 17 7 0 10 -262144 -1 -1 0
1;
#X obj 323 59 select Control_L Control_R;
#X obj 384 225 bng 15 250 50 0 empty empty limpa 17 7 0 10 -262144
-1 -1;
#X obj 394 280 sinc-looper;
#X obj 147 279 sinc-looper;
#X obj 271 279 sinc-looper;
#X text 666 271 saida 4: switch de fx: 1)reverb;
#X text 829 290 2)delay;
#X text 631 466 ir dentro de [sinc-mixer];
#X connect 0 0 2 1;
#X connect 1 0 0 0;
#X connect 2 0 4 0;
#X connect 2 0 4 1;
#X connect 3 0 1 0;
#X connect 5 0 7 1;
#X connect 6 0 5 0;
#X connect 7 0 4 0;
#X connect 7 0 4 1;
#X connect 8 0 6 0;
#X connect 9 0 11 1;
#X connect 10 0 9 0;
#X connect 11 0 4 1;
#X connect 11 0 4 0;
#X connect 12 0 14 1;
#X connect 13 0 12 0;
#X connect 14 0 4 1;
#X connect 14 0 4 0;
#X connect 15 0 10 0;
#X connect 16 0 13 0;
#X connect 17 0 2 0;
#X connect 20 0 17 0;
#X connect 20 0 46 0;
#X connect 20 0 62 0;
#X connect 20 0 63 0;
#X connect 20 0 64 0;
#X connect 21 0 24 0;
#X connect 21 1 22 0;
#X connect 22 0 60 0;
#X connect 23 0 25 0;
#X connect 24 0 25 1;
#X connect 25 0 30 0;
#X connect 26 0 27 0;
#X connect 27 0 28 0;
#X connect 28 0 29 0;
#X connect 29 0 17 1;
#X connect 29 1 63 1;
#X connect 29 2 64 1;
#X connect 29 3 62 1;
#X connect 30 0 26 0;
#X connect 31 0 30 1;
#X connect 33 0 36 0;
#X connect 33 1 34 0;
#X connect 34 0 41 0;
#X connect 35 0 37 0;
#X connect 36 0 37 1;
#X connect 37 0 38 0;
#X connect 38 0 48 0;
#X connect 39 0 40 0;
#X connect 40 0 57 0;
#X connect 40 1 58 0;
#X connect 40 2 59 0;
#X connect 40 3 47 0;
#X connect 41 0 35 0;
#X connect 47 0 46 1;
#X connect 48 0 39 0;
#X connect 57 0 31 0;
#X connect 58 0 51 0;
#X connect 60 0 23 0;
#X connect 60 1 61 0;
#X connect 61 0 62 2;
#X connect 61 0 64 2;
#X connect 61 0 63 2;
#X connect 61 0 17 2;
#X connect 62 0 14 0;
#X connect 63 0 7 0;
#X connect 64 0 11 0;
