#N canvas 321 251 959 773 10;
#X obj 341 519 seq;
#X msg 93 405 bang;
#X msg 315 259 record;
#X msg 181 281 stop;
#X obj 93 385 bng 15 250 50 0 empty empty empty 0 -6 0 10 -262144 -1
-1;
#X msg 309 282 stop record;
#X msg 245 259 pause;
#X msg 245 285 continue;
#X text 121 385 loop;
#X text 126 403 play;
#X obj 93 360 spigot;
#X obj 341 540 midiparse;
#X obj 341 574 unpack f f;
#X floatatom 246 648 5 0 0 0 - - -;
#X floatatom 396 602 5 0 0 0 - - -;
#X msg 21 479 read \$1;
#X obj 23 394 bng 15 250 50 0 empty \$0-abre abre_.mid 0 -6 0 10 -262144
-1 -1;
#X obj 126 338 tgl 15 0 empty \$0-loop empty 17 7 0 10 -262144 -1 -1
1 1;
#X msg 191 261 play;
#X obj 665 264 spigot;
#X obj 455 291 spigot;
#X msg 386 282 write \$1;
#X obj 665 200 notein 2;
#X obj 455 50 inlet lista_pitch_vel;
#X text 728 236 ser humano;
#X text 493 31 gerador;
#X obj 344 733 noteout;
#X floatatom 509 636 5 0 0 0 - - -;
#X obj 665 222 pack f f;
#X obj 665 290 midiformat 2;
#X text 530 543 * o controlador MIDI deve estar mandando no canal 2
;
#X obj 800 562 makenote;
#X obj 800 595 pack f f;
#X obj 595 49 inlet lista_pitch_vel;
#X text 636 30 teclado pc;
#X obj 595 293 spigot;
#X text 532 562 * tem q entrar uma lista feita com o método:;
#X text 729 248 controlador MIDI;
#X obj 101 114 cnv 15 195 115 empty empty sinc-midiinlive 20 12 0 14
-262130 -66577 0;
#X obj 102 213 tgl 15 0 \$0-loop empty loop 17 7 0 10 -262144 -1 -1
1 1;
#X obj 102 194 bng 15 250 50 0 \$0-abre empty abre 17 7 0 10 -262144
-1 -1;
#X obj 150 191 bng 15 250 50 0 empty empty play 17 7 0 10 -262144 -1
-1;
#X obj 150 212 bng 15 250 50 0 empty empty stop 17 7 0 10 -262144 -1
-1;
#X obj 193 191 bng 15 250 50 0 empty empty pause 17 7 0 10 -262144
-1 -1;
#X obj 193 212 bng 15 250 50 0 empty empty continue 17 7 0 10 -262144
-1 -1;
#X obj 216 145 bng 15 250 50 0 empty empty record 17 7 0 10 -262144
-1 -1;
#X obj 216 169 bng 15 250 50 0 empty empty stop_record 17 7 0 10 -262144
-1 -1;
#X obj 157 170 tgl 15 0 \$0-musico empty musico 17 7 0 10 -262144 -1
-1 0 1;
#X obj 157 145 tgl 15 0 \$0-maquina empty maquina 17 7 0 10 -262144
-1 -1 0 1;
#X obj 243 193 bng 15 250 50 0 \$0-salva empty salva 17 7 0 10 -262144
-1 -1;
#X obj 102 175 tgl 15 0 \$0-keypc empty key_pc 17 7 0 10 -262144 -1
-1 0 1;
#X obj 628 264 tgl 15 0 empty \$0-keypc empty 17 7 0 10 -262144 -1
-1 0 1;
#X text 678 433 canais: 2 - controlador MIDI;
#X text 726 449 5 - geradores MIDI;
#X text 726 466 7 - teclado pc;
#X obj 488 257 tgl 15 0 empty \$0-maquina empty 17 7 0 10 -262144 -1
-1 0 1;
#X obj 698 241 tgl 15 0 empty \$0-musico empty 17 7 0 10 -262144 -1
-1 0 1;
#X obj 393 143 bng 15 250 50 0 empty \$0-salva empty 17 7 0 10 -262144
-1 -1;
#X text 530 522 Para essa abstração funcionar corretamente:;
#X obj 455 89 midiformat 5;
#X obj 595 80 midiformat 7;
#X msg 381 177 tmp.mid;
#X obj 380 216 symbol;
#X msg 21 418 tmp.mid;
#X obj 20 457 symbol;
#X obj 413 631 sel 1 0;
#X msg 440 656 0;
#X obj 326 660 spigot;
#X obj 324 618 invert;
#X obj 104 43 route record stop_record salva abre loop play stop;
#X msg 410 652 100;
#X obj 102 8 inlet;
#X obj 17 260 loadbang;
#X msg 21 296 1;
#X obj 227 231 nbx 2 8 -1e+37 1e+37 0 0 empty empty empty 0 -8 0 30
-262144 -1 -1 0 256;
#X connect 0 0 11 0;
#X connect 0 1 10 0;
#X connect 1 0 0 0;
#X connect 2 0 0 0;
#X connect 3 0 0 0;
#X connect 4 0 1 0;
#X connect 5 0 0 0;
#X connect 6 0 0 0;
#X connect 7 0 0 0;
#X connect 10 0 4 0;
#X connect 11 0 12 0;
#X connect 11 6 27 0;
#X connect 12 0 13 0;
#X connect 12 1 14 0;
#X connect 13 0 26 0;
#X connect 13 0 74 0;
#X connect 14 0 65 0;
#X connect 14 0 67 0;
#X connect 15 0 0 0;
#X connect 16 0 63 0;
#X connect 17 0 10 1;
#X connect 18 0 1 0;
#X connect 19 0 29 0;
#X connect 20 0 0 0;
#X connect 21 0 0 0;
#X connect 22 0 28 0;
#X connect 22 1 28 1;
#X connect 23 0 59 0;
#X connect 27 0 26 2;
#X connect 28 0 19 0;
#X connect 29 0 0 0;
#X connect 31 0 32 0;
#X connect 31 1 32 1;
#X connect 33 0 60 0;
#X connect 35 0 0 0;
#X connect 41 0 18 0;
#X connect 42 0 3 0;
#X connect 43 0 6 0;
#X connect 44 0 7 0;
#X connect 45 0 2 0;
#X connect 46 0 5 0;
#X connect 50 0 68 0;
#X connect 51 0 35 1;
#X connect 55 0 20 1;
#X connect 56 0 19 1;
#X connect 57 0 61 0;
#X connect 59 0 20 0;
#X connect 60 0 35 0;
#X connect 61 0 62 0;
#X connect 62 0 21 0;
#X connect 63 0 64 0;
#X connect 64 0 15 0;
#X connect 65 0 70 0;
#X connect 65 1 66 0;
#X connect 66 0 26 1;
#X connect 67 0 26 1;
#X connect 68 0 67 1;
#X connect 69 0 45 0;
#X connect 69 1 46 0;
#X connect 69 2 49 0;
#X connect 69 3 40 0;
#X connect 69 4 39 0;
#X connect 69 5 41 0;
#X connect 69 6 42 0;
#X connect 70 0 26 1;
#X connect 71 0 69 0;
#X connect 72 0 73 0;
#X connect 73 0 39 0;
#X coords 0 -1 1 1 200 150 1 100 100;
