#N canvas 116 35 1010 623 12;
#X obj 106 240 vsl 40 100 0 1 0 0 empty empty empty 0 -9 0 10 -257985
-1 -1 9900 1;
#X obj 150 240 vsl 40 100 0 1 0 0 empty empty empty 0 -9 0 10 -257985
-1 -1 9900 1;
#X obj 194 240 vsl 40 100 0 1 0 0 empty empty empty 0 -9 0 10 -257985
-1 -1 9900 1;
#X obj 238 240 vsl 40 100 0 1 0 0 empty empty empty 0 -9 0 10 -257985
-1 -1 9900 1;
#X obj 729 390 line~;
#X msg 729 362 \$1 100;
#X obj 710 424 *~;
#X obj 729 336 r amp1;
#X obj 458 613 dac~;
#X obj 598 427 line~;
#X msg 598 399 \$1 100;
#X obj 579 453 *~;
#X obj 598 373 r amp2;
#X obj 468 387 line~;
#X msg 468 359 \$1 100;
#X obj 449 423 *~;
#X obj 332 427 line~;
#X msg 332 399 \$1 100;
#X obj 315 457 *~;
#X obj 468 333 r amp3;
#X obj 332 373 r amp4;
#X obj 106 424 s amp1;
#X obj 150 398 s amp2;
#X obj 194 374 s amp3;
#X obj 238 348 s amp4;
#X obj 535 94 loadbang;
#X msg 535 121 52 51 50 49;
#X msg 267 95 0.5;
#X obj 316 262 sinc-looper;
#N canvas 5 160 450 300 selects 0;
#X obj 57 8 inlet;
#X obj 35 252 outlet;
#X obj 38 85 sel;
#X obj 97 85 sel;
#X obj 165 86 sel;
#X obj 240 83 sel;
#X obj 161 7 key;
#X msg 20 211 1;
#X msg 123 210 0;
#X msg 89 208 1;
#X msg 55 210 0;
#X msg 168 209 1;
#X msg 286 210 0;
#X msg 242 211 1;
#X msg 206 210 0;
#X obj 95 252 outlet;
#X obj 185 252 outlet;
#X obj 245 252 outlet;
#X obj 56 44 unpack s s s s;
#X connect 0 0 18 0;
#X connect 2 0 7 0;
#X connect 2 0 8 0;
#X connect 2 0 14 0;
#X connect 2 0 12 0;
#X connect 3 0 9 0;
#X connect 3 0 10 0;
#X connect 3 0 14 0;
#X connect 3 0 12 0;
#X connect 4 0 10 0;
#X connect 4 0 11 0;
#X connect 4 0 8 0;
#X connect 4 0 12 0;
#X connect 5 0 10 0;
#X connect 5 0 8 0;
#X connect 5 0 14 0;
#X connect 5 0 13 0;
#X connect 6 0 2 0;
#X connect 6 0 3 0;
#X connect 6 0 4 0;
#X connect 6 0 5 0;
#X connect 7 0 1 0;
#X connect 8 0 15 0;
#X connect 9 0 15 0;
#X connect 10 0 1 0;
#X connect 11 0 16 0;
#X connect 12 0 17 0;
#X connect 13 0 17 0;
#X connect 14 0 16 0;
#X connect 18 0 2 1;
#X connect 18 1 3 1;
#X connect 18 2 4 1;
#X connect 18 3 5 1;
#X restore 535 146 pd selects;
#X obj 28 125 hsl 128 15 0 1 0 0 empty empty volume_geral -2 -8 0 10
-260097 -1 -1 12700 1;
#X obj 29 12 comment 0 36 Courier ? 0 0 0 0 [sinc-looper];
#X obj 50 50 comment 0 12 Courier ? 0 0 0 0 figocris@gmail.com;
#X obj 437 69 adc~ 1;
#X msg 441 19 Control_L Space Control_R Delete;
#X obj 710 263 sinc-looper;
#X obj 580 260 sinc-looper;
#X obj 448 267 sinc-looper;
#X connect 0 0 21 0;
#X connect 1 0 22 0;
#X connect 2 0 23 0;
#X connect 3 0 24 0;
#X connect 4 0 6 1;
#X connect 5 0 4 0;
#X connect 6 0 8 0;
#X connect 6 0 8 1;
#X connect 7 0 5 0;
#X connect 9 0 11 1;
#X connect 10 0 9 0;
#X connect 11 0 8 0;
#X connect 11 0 8 1;
#X connect 12 0 10 0;
#X connect 13 0 15 1;
#X connect 14 0 13 0;
#X connect 15 0 8 1;
#X connect 15 0 8 0;
#X connect 16 0 18 1;
#X connect 17 0 16 0;
#X connect 18 0 8 1;
#X connect 18 0 8 0;
#X connect 19 0 14 0;
#X connect 20 0 17 0;
#X connect 25 0 26 0;
#X connect 25 0 27 0;
#X connect 26 0 29 0;
#X connect 27 0 0 0;
#X connect 27 0 1 0;
#X connect 27 0 2 0;
#X connect 27 0 3 0;
#X connect 28 0 18 0;
#X connect 29 0 28 1;
#X connect 29 1 37 1;
#X connect 29 2 36 1;
#X connect 29 3 35 1;
#X connect 30 0 0 0;
#X connect 30 0 1 0;
#X connect 30 0 2 0;
#X connect 30 0 3 0;
#X connect 33 0 28 0;
#X connect 33 0 35 0;
#X connect 33 0 36 0;
#X connect 33 0 37 0;
#X connect 35 0 6 0;
#X connect 36 0 11 0;
#X connect 37 0 15 0;
