#N canvas 309 218 821 582 10;
#X obj 182 302 cnv 15 165 145 empty empty sinc-audioanalise 20 6 0
14 -262130 -66577 0;
#X obj 60 235 bonk~;
#X obj 60 264 bng 15 250 50 0 empty empty empty 17 7 0 10 -262144 -1
-1;
#X obj 628 260 pitch;
#X floatatom 643 161 5 0 0 0 - - -;
#X obj 628 235 round;
#X obj 307 83 *~;
#X obj 325 54 hsl 128 15 0 1 0 0 empty empty empty -2 -8 0 10 -262144
-1 -1 5080 1;
#X floatatom 628 385 5 0 0 0 - - -;
#X floatatom 641 336 5 0 0 0 - - -;
#X floatatom 648 314 5 0 0 0 - - -;
#X floatatom 655 291 5 0 0 0 - - -;
#X symbolatom 634 361 7 0 0 0 - - -;
#X obj 60 209 *~ 0.5;
#X obj 170 38 inlet~;
#X obj 189 335 hsl 100 15 0 1 0 0 empty empty volume_de_entrada -2
-8 0 10 -262144 -1 -1 3960 1;
#X msg 673 423 label \$1;
#X obj 673 444 s \$0-nota;
#X obj 186 419 cnv 15 20 20 empty \$0-nota F3 20 12 1 40 -233017 -1
0;
#X text 185 389 nota de;
#X text 184 397 entrada;
#X obj 189 360 bng 30 250 50 0 empty empty empty 17 7 0 10 -4034 -1
-1;
#X text 223 369 ataques;
#X obj 186 195 loadbang;
#X obj 574 451 outlet;
#X obj 762 470 outlet;
#X obj 273 363 vsl 15 80 0 1 0 0 empty empty empty 0 -9 0 10 -262144
-1 -1 3160 1;
#X text 239 350 saida~;
#X obj 169 480 *~;
#X obj 298 323 vu 15 120 empty empty -1 -8 0 10 -66577 -1 1 0;
#X obj 466 129 sigmund~ -hop 4096 pitch notes;
#N canvas 20 181 718 503 parametros 0;
#X msg 25 396 minpower \$1;
#X text 101 397 50;
#X text 108 332 7;
#X msg 46 332 growth \$1;
#X msg 94 280 stabletime \$1;
#X text 181 281 50;
#X msg 206 294 vibrato \$1;
#X text 274 296 1;
#X msg 306 247 maxfreq \$1;
#X text 351 231 1e+06;
#X msg 407 241 hop \$1;
#X text 452 241 512;
#X msg 555 190 npts \$1;
#X text 613 190 1024;
#X obj 206 464 outlet;
#X floatatom 25 369 5 0 200 0 - - -;
#X floatatom 46 258 5 0 7 0 - - -;
#X floatatom 94 253 5 0 50 0 - - -;
#X obj 206 154 vsl 15 128 0 1 0 0 empty empty empty 0 -9 0 10 -262144
-1 -1 11900 1;
#X msg 392 165 512;
#X msg 424 168 1024;
#X msg 438 187 2048;
#X msg 442 210 4096;
#X msg 503 124 512;
#X msg 540 123 1024;
#X msg 567 142 2048;
#X msg 603 143 4096;
#X floatatom 306 221 5 0 0 0 - - -;
#X obj 25 54 unpack f f f f f f;
#X msg 25 21 50 1 14 0.937 4096 4096;
#X obj 25 -7 loadbang;
#X text 327 391 npts - número de pontos em cada janela de análise (1024)
;
#X text 328 408 hop - número de pontos entre cada análise (512);
#X text 328 441 maxfreq - máxima frequência senoidal em Hz (1000000)
;
#X text 328 425 npeak - número de "picos" senoidais (20);
#X text 328 457 vibrato - profundidade de vibrato a ser esperado em
;
#X text 640 457 semitons (1);
#X text 328 474 stabletime - tempo (msec) para esperar para reportar
notas;
#X text 684 474 (50);
#X text 329 490 minpower - potência mínima (dB) para reportar classe
de;
#X text 670 489 notas (50);
#X text 686 508 nova (7);
#X text 330 508 growth - evolução de amplitude (dB) para reportar uma
nota;
#X msg 614 165 8192;
#X msg 484 225 8192;
#X connect 0 0 14 0;
#X connect 3 0 14 0;
#X connect 4 0 14 0;
#X connect 6 0 14 0;
#X connect 8 0 14 0;
#X connect 10 0 14 0;
#X connect 12 0 14 0;
#X connect 15 0 0 0;
#X connect 16 0 3 0;
#X connect 17 0 4 0;
#X connect 18 0 6 0;
#X connect 19 0 10 0;
#X connect 20 0 10 0;
#X connect 21 0 10 0;
#X connect 22 0 10 0;
#X connect 23 0 12 0;
#X connect 24 0 12 0;
#X connect 25 0 12 0;
#X connect 26 0 12 0;
#X connect 27 0 8 0;
#X connect 28 0 15 0;
#X connect 28 1 16 0;
#X connect 28 2 17 0;
#X connect 28 3 18 0;
#X connect 28 4 10 0;
#X connect 28 5 12 0;
#X connect 29 0 28 0;
#X connect 30 0 29 0;
#X connect 43 0 12 0;
#X connect 44 0 10 0;
#X restore 466 96 pd parametros sigmund;
#X obj 307 201 env~;
#X floatatom 307 227 5 0 0 0 - - -;
#X obj 307 276 - 100;
#X obj 479 258 vsl 30 70 0 0.01 0 0 empty empty empty 0 -9 0 10 -262144
-1 -1 0 1;
#X obj 387 393 s \$0-amp_attack;
#X text 60 480 bonk;
#X msg 186 220 0.4;
#X obj 641 486 outlet;
#N canvas 258 25 654 480 detecta 0;
#X obj 279 77 env~;
#X obj 482 221 t b f;
#X floatatom 482 244 0 0 0 0 - - -;
#X obj 488 299 pack;
#X obj 488 322 route 0 1;
#X obj 488 350 > 55;
#X obj 538 350 < 45;
#X obj 488 373 sel 1;
#X obj 538 373 sel 1;
#X msg 422 321 1;
#X msg 428 291 0;
#X obj 482 276 != 0;
#X obj 279 173 t b f;
#X floatatom 257 200 0 0 0 0 - - -;
#X obj 275 256 pack;
#X obj 275 285 route 0 1;
#X obj 275 317 sel 1;
#X msg 191 313 1;
#X msg 192 277 0;
#X obj 262 228 != 0;
#X obj 306 207 < 45;
#X obj 279 351 timer;
#X obj 343 305 sel 0;
#X obj 343 398 sel 0;
#X obj 279 404 sel 1;
#X obj 123 346 + 3.01;
#X obj 278 16 inlet~;
#X obj 279 374 > 100;
#X obj 66 364 dbtorms;
#X floatatom 75 390 0 0 0 0 - - -;
#X obj 134 391 dbtorms;
#X obj 9 178 lop~ 1;
#X obj 9 202 lop~ 1;
#X obj 9 226 lop~ 1;
#X obj 9 274 snapshot~;
#X obj 17 250 bang~;
#X obj 9 446 outlet;
#X obj 9 417 pack 0 0 0;
#X obj 123 449 outlet;
#X obj 123 420 pack 0 0;
#X obj 488 422 outlet ataque;
#X obj 279 440 outlet pausa;
#X connect 0 0 1 0;
#X connect 0 0 12 0;
#X connect 0 0 31 0;
#X connect 0 0 37 1;
#X connect 1 0 2 0;
#X connect 1 1 3 1;
#X connect 2 0 11 0;
#X connect 3 0 4 0;
#X connect 4 0 5 0;
#X connect 4 1 6 0;
#X connect 5 0 7 0;
#X connect 6 0 8 0;
#X connect 7 0 9 0;
#X connect 7 0 40 0;
#X connect 8 0 10 0;
#X connect 9 0 2 0;
#X connect 10 0 2 0;
#X connect 11 0 3 0;
#X connect 12 0 13 0;
#X connect 12 1 20 0;
#X connect 13 0 19 0;
#X connect 14 0 15 0;
#X connect 15 0 16 0;
#X connect 15 1 23 0;
#X connect 16 0 21 1;
#X connect 17 0 13 0;
#X connect 18 0 13 0;
#X connect 19 0 14 0;
#X connect 20 0 14 1;
#X connect 20 0 22 0;
#X connect 21 0 27 0;
#X connect 22 0 21 0;
#X connect 23 0 18 0;
#X connect 24 0 17 0;
#X connect 24 0 41 0;
#X connect 25 0 30 0;
#X connect 25 0 39 0;
#X connect 26 0 0 0;
#X connect 27 0 24 0;
#X connect 28 0 29 0;
#X connect 28 0 37 2;
#X connect 30 0 39 1;
#X connect 31 0 32 0;
#X connect 32 0 33 0;
#X connect 33 0 34 0;
#X connect 34 0 25 0;
#X connect 34 0 28 0;
#X connect 34 0 37 0;
#X connect 35 0 34 0;
#X connect 37 0 36 0;
#X connect 39 0 38 0;
#X restore 441 349 pd detecta silêncio;
#X obj 510 437 bng 15 250 50 0 empty empty empty 17 7 0 10 -262144
-1 -1;
#X obj 510 460 outlet;
#X text 509 477 silêncio;
#X obj 81 399 s \$0-vol_in;
#X obj 322 26 r \$0-vol_in;
#X text 570 471 nota MIDI;
#X text 642 505 classe de nota;
#X text 762 492 registro;
#X text 676 337 classe de nota;
#X text 681 361 nome de nota (symbol);
#X obj 628 202 f;
#X obj 30 309 s \$0_bonk;
#X obj 562 162 r \$0_bonk;
#X obj 479 233 dbtorms;
#X obj 368 290 t f f f;
#X floatatom 525 328 5 0 0 0 - - -;
#X obj 508 386 moses 0.009;
#X floatatom 510 409 5 0 0 0 - - -;
#X floatatom 558 410 5 0 0 0 - - -;
#X obj 503 368 change;
#X obj 399 96 hip~ 240;
#X obj 252 137 inlet volume_bonk;
#X floatatom 350 454 5 0 0 0 - - -;
#X floatatom 350 501 5 0 0 0 - - -;
#X obj 349 477 * 1270;
#X obj 351 522 hsl 128 15 0 127 0 0 empty empty empty -2 -8 0 10 -262144
-1 -1 0 1;
#X obj 60 461 outlet bonk;
#X obj 169 504 outlet~ audio;
#X obj 348 541 outlet amp midi;
#X connect 1 0 2 0;
#X connect 2 0 21 0;
#X connect 2 0 52 0;
#X connect 2 0 67 0;
#X connect 3 0 8 0;
#X connect 3 1 12 0;
#X connect 3 2 9 0;
#X connect 3 3 10 0;
#X connect 3 4 11 0;
#X connect 4 0 51 1;
#X connect 5 0 3 0;
#X connect 6 0 13 0;
#X connect 6 0 32 0;
#X connect 6 0 40 0;
#X connect 6 0 61 0;
#X connect 7 0 6 1;
#X connect 8 0 24 0;
#X connect 9 0 39 0;
#X connect 11 0 25 0;
#X connect 12 0 16 0;
#X connect 13 0 1 0;
#X connect 14 0 6 0;
#X connect 14 0 28 0;
#X connect 15 0 44 0;
#X connect 16 0 17 0;
#X connect 23 0 38 0;
#X connect 26 0 28 1;
#X connect 28 0 68 0;
#X connect 30 1 4 0;
#X connect 31 0 30 0;
#X connect 32 0 33 0;
#X connect 33 0 34 0;
#X connect 33 0 55 0;
#X connect 34 0 29 1;
#X connect 35 0 56 0;
#X connect 35 0 60 0;
#X connect 38 0 15 0;
#X connect 38 0 26 0;
#X connect 41 0 42 0;
#X connect 45 0 7 0;
#X connect 51 0 5 0;
#X connect 53 0 51 0;
#X connect 54 0 35 0;
#X connect 54 0 63 0;
#X connect 55 1 36 0;
#X connect 55 2 54 0;
#X connect 57 0 58 0;
#X connect 57 1 59 0;
#X connect 59 0 41 0;
#X connect 60 0 57 0;
#X connect 61 0 30 0;
#X connect 62 0 13 1;
#X connect 63 0 65 0;
#X connect 64 0 66 0;
#X connect 65 0 64 0;
#X connect 66 0 69 0;
#X coords 0 -1 1 1 170 150 1 180 300;
