#N canvas 643 86 450 300 10;
#X obj 184 109 f \$1;
#X obj 177 54 loadbang;
#X obj 261 112 f \$2;
#X floatatom 184 159 5 0 0 0 - - -;
#X floatatom 264 161 5 0 0 0 - - -;
#X obj 17 195 teste 38 47;
#X obj 188 232 escalando 0 127 0 1;
#X obj 184 204 hsl 128 15 0 127 0 0 empty empty empty -2 -8 0 10 -262144
-1 -1 4500 1;
#X floatatom 192 261 5 0 0 0 - - -;
#X connect 0 0 3 0;
#X connect 1 0 0 0;
#X connect 1 0 2 0;
#X connect 2 0 4 0;
#X connect 6 0 8 0;
#X connect 7 0 6 0;
