#N canvas 577 54 701 843 10;
#X obj 115 418 cnv 15 110 30 empty empty empty 20 12 0 14 -24198 -66577
0;
#X obj 190 332 cnv 15 65 75 empty empty empty 20 12 0 14 -24198 -66577
0;
#X msg 73 242 draw line;
#X msg 73 282 draw fill;
#X msg 73 219 draw point;
#X obj 121 163 gemhead;
#X msg 73 262 draw linestrip;
#X msg 73 302 draw tri;
#X msg 73 324 draw tristrip;
#X msg 72 347 draw trifan;
#X msg 72 368 draw quad;
#X msg 72 390 draw quadstrip;
#X obj 121 187 rotateXYZ;
#X floatatom 179 164 5 0 0 0 - - -;
#X floatatom 193 266 5 0 10 0 - - -;
#X msg 193 282 width \$1;
#X floatatom 194 223 5 0 100 0 - - -;
#X obj 121 425 scopeXYZ~ 1024;
#X floatatom 193 315 5 0 0 0 - - -;
#X obj 240 389 osc~ 882;
#X obj 195 338 osc~ 40;
#X msg 194 240 length \$1;
#X obj 361 76 sinc-audioin;
#X obj 360 235 sinc-audioanalise;
#X obj 468 413 mtof;
#X obj 345 579 gemwin;
#X msg 350 516 create \, 1;
#X msg 371 544 0 \, destroy;
#X obj 110 514 cnv 15 170 280 empty empty empty 20 12 0 14 -228992
-66577 0;
#X text 114 497 Example:;
#X obj 112 555 cnv 15 160 140 empty empty empty 20 12 0 14 -24198 -66577
0;
#X obj 112 526 gemhead;
#X obj 112 729 square 3;
#X obj 187 526 block~ 4096;
#X obj 120 580 osc~ 1;
#X obj 120 619 *~ 0.5;
#X obj 120 599 +~ 1;
#X obj 174 561 noise~;
#X floatatom 191 609 5 0 0 0 - - -;
#X obj 222 561 tgl 15 0 empty empty empty 0 -6 0 8 -24198 -1 -1 0 1
;
#X obj 174 584 *~ 0;
#X obj 191 628 phasor~ 700;
#X floatatom 120 562 5 0 0 0 - - -;
#X msg 197 706 quality 0;
#X msg 186 651 dimen 512 4;
#X obj 112 707 pix_texture;
#X obj 112 673 pix_sig2pix~ 64 64;
#X msg 256 680 quality 2;
#X connect 2 0 17 0;
#X connect 3 0 17 0;
#X connect 4 0 17 0;
#X connect 5 0 12 0;
#X connect 6 0 17 0;
#X connect 7 0 17 0;
#X connect 8 0 17 0;
#X connect 9 0 17 0;
#X connect 10 0 17 0;
#X connect 11 0 17 0;
#X connect 12 0 17 0;
#X connect 13 0 12 1;
#X connect 13 0 12 3;
#X connect 14 0 15 0;
#X connect 15 0 17 0;
#X connect 16 0 21 0;
#X connect 18 0 20 0;
#X connect 19 0 17 3;
#X connect 20 0 17 1;
#X connect 21 0 17 0;
#X connect 22 0 23 0;
#X connect 22 0 17 2;
#X connect 23 4 24 0;
#X connect 26 0 25 0;
#X connect 27 0 25 0;
#X connect 31 0 46 0;
#X connect 34 0 36 0;
#X connect 35 0 46 0;
#X connect 36 0 35 0;
#X connect 37 0 40 0;
#X connect 38 0 41 0;
#X connect 39 0 40 1;
#X connect 40 0 46 1;
#X connect 41 0 46 2;
#X connect 42 0 34 0;
#X connect 43 0 45 0;
#X connect 44 0 46 0;
#X connect 45 0 32 0;
#X connect 46 0 45 0;
#X connect 47 0 45 0;
